<svg id="svg" version="1.1" xmlns="http://www.w3.org/2000/svg" xmlns:xlink="http://www.w3.org/1999/xlink" width="400" height="327.14285714285717" viewBox="0, 0, 400,327.14285714285717"><g id="svgg"><path id="path0" d="M250.900 43.892 C 247.158 44.332,243.062 46.949,240.987 50.225 C 240.523 50.957,238.208 56.489,235.841 62.520 L 231.538 73.486 175.916 73.650 C 136.114 73.767,120.015 73.917,119.313 74.179 C 106.633 78.902,105.121 95.682,116.858 101.413 C 120.403 103.144,119.324 103.110,170.708 103.110 C 211.176 103.110,218.965 103.182,219.278 103.559 C 219.567 103.908,219.173 105.215,217.528 109.369 C 216.360 112.318,214.185 117.823,212.694 121.604 L 209.984 128.478 152.209 128.642 L 94.435 128.805 92.308 129.572 C 90.336 130.283,86.088 132.959,86.088 133.490 C 86.088 133.617,85.757 134.093,85.352 134.546 C 78.796 141.883,82.909 154.606,92.825 157.667 C 95.791 158.583,221.013 158.600,223.971 157.685 C 229.469 155.985,232.061 153.180,234.839 145.930 C 235.688 143.713,236.508 141.604,236.661 141.244 C 236.814 140.884,237.629 138.822,238.473 136.661 C 239.316 134.501,240.124 132.439,240.269 132.079 C 240.414 131.718,241.074 130.025,241.735 128.314 C 242.396 126.604,243.071 124.873,243.236 124.468 C 243.858 122.938,244.167 122.153,245.659 118.331 C 246.502 116.170,247.327 114.071,247.491 113.666 C 247.656 113.261,247.921 112.598,248.081 112.193 C 248.241 111.788,248.904 110.125,249.554 108.498 C 250.204 106.871,250.736 105.433,250.736 105.303 C 250.736 105.173,251.015 104.442,251.355 103.679 C 251.695 102.916,253.917 97.283,256.293 91.162 C 258.669 85.041,260.800 79.591,261.028 79.051 C 261.256 78.511,261.783 77.185,262.199 76.105 C 263.317 73.200,263.081 73.322,267.552 73.322 C 278.880 73.322,285.771 67.708,285.758 58.491 C 285.748 52.390,280.238 44.517,275.976 44.517 C 275.669 44.517,275.277 44.379,275.106 44.211 C 274.758 43.868,253.485 43.587,250.900 43.892 M113.093 169.826 C 106.205 172.404,103.119 176.726,103.119 183.797 C 103.119 187.660,103.945 190.469,105.666 192.465 C 117.427 206.102,138.314 193.179,130.496 177.102 C 127.583 171.112,119.115 167.571,113.093 169.826 M196.988 169.863 C 182.536 174.484,183.933 195.669,198.849 198.089 C 210.783 200.025,219.704 187.969,214.364 177.122 C 211.295 170.888,203.702 167.716,196.988 169.863 " stroke="none" fill="#8494a4" fill-rule="evenodd"></path><path id="path1" d="M0.000 163.666 L 0.000 327.332 200.000 327.332 L 400.000 327.332 400.000 163.666 L 400.000 0.000 200.000 0.000 L 0.000 0.000 0.000 163.666 M316.432 20.867 C 326.629 28.861,342.613 45.170,346.830 51.882 C 347.170 52.422,347.635 52.982,347.864 53.126 C 348.094 53.270,348.524 53.859,348.820 54.435 C 349.116 55.011,349.974 56.293,350.727 57.283 C 353.234 60.584,355.155 63.494,355.155 63.992 C 355.155 64.263,355.293 64.484,355.461 64.484 C 355.629 64.484,355.859 64.778,355.973 65.137 C 356.087 65.496,356.376 65.985,356.615 66.224 C 356.854 66.463,357.437 67.385,357.911 68.272 C 358.384 69.159,359.087 70.401,359.472 71.031 C 360.114 72.083,360.611 73.014,363.316 78.232 C 364.613 80.735,367.124 86.198,368.507 89.525 C 368.881 90.426,369.565 92.027,370.027 93.084 C 370.489 94.141,370.867 95.211,370.867 95.461 C 370.867 95.712,371.012 96.173,371.188 96.486 C 372.367 98.577,375.901 110.557,377.389 117.507 C 377.754 119.215,378.192 120.982,378.361 121.435 C 378.531 121.888,378.760 122.995,378.872 123.895 C 378.983 124.795,379.211 126.342,379.380 127.332 C 381.054 137.178,381.937 152.532,381.368 161.922 C 380.727 172.503,380.465 175.160,379.373 182.160 C 379.177 183.421,378.932 185.188,378.828 186.088 C 378.725 186.989,378.527 187.872,378.389 188.052 C 378.251 188.232,377.898 189.632,377.605 191.162 C 377.067 193.970,376.910 194.637,375.947 198.200 C 375.189 201.002,371.518 212.493,371.164 213.171 C 371.001 213.483,370.867 214.027,370.867 214.379 C 370.867 214.731,370.732 215.103,370.566 215.205 C 370.400 215.308,369.953 216.326,369.573 217.468 C 369.193 218.610,368.670 219.824,368.412 220.165 C 368.154 220.506,367.938 221.041,367.932 221.354 C 367.911 222.474,360.945 236.571,359.768 237.875 C 359.571 238.092,359.411 238.430,359.411 238.625 C 359.411 238.820,359.139 239.378,358.808 239.866 C 357.504 241.783,355.810 244.517,355.810 244.704 C 355.810 244.812,355.388 245.514,354.873 246.264 C 354.358 247.014,353.101 248.879,352.081 250.409 C 351.060 251.939,349.788 253.781,349.253 254.501 C 346.986 257.555,344.758 260.402,343.524 261.820 C 342.797 262.655,341.556 264.196,340.766 265.243 C 338.875 267.750,329.759 277.140,325.390 281.081 C 320.439 285.547,320.353 285.619,319.722 285.854 C 319.407 285.972,319.149 286.212,319.149 286.388 C 319.149 286.564,318.376 287.240,317.430 287.890 C 316.485 288.539,314.902 289.727,313.912 290.529 C 312.921 291.330,311.301 292.531,310.311 293.196 C 309.321 293.862,307.960 294.867,307.287 295.431 C 306.613 295.995,305.511 296.738,304.836 297.082 C 304.162 297.427,302.474 298.445,301.086 299.345 C 296.359 302.411,295.178 303.110,294.725 303.110 C 294.476 303.110,294.272 303.257,294.272 303.437 C 294.272 303.617,293.989 303.764,293.644 303.764 C 293.299 303.764,292.968 303.893,292.908 304.051 C 292.780 304.387,279.797 310.966,279.262 310.966 C 279.063 310.966,277.976 311.394,276.847 311.918 C 275.719 312.442,274.133 313.119,273.322 313.423 C 272.512 313.726,271.219 314.255,270.450 314.598 C 269.680 314.940,268.831 315.221,268.563 315.221 C 268.295 315.221,267.820 315.354,267.508 315.517 C 267.195 315.679,265.761 316.186,264.321 316.644 C 262.881 317.101,261.260 317.622,260.720 317.801 C 260.180 317.980,259.075 318.300,258.265 318.511 C 257.455 318.723,256.498 319.010,256.137 319.149 C 255.777 319.288,254.010 319.726,252.209 320.123 C 250.409 320.520,248.347 320.989,247.627 321.165 C 241.400 322.687,234.970 323.602,223.732 324.564 C 217.077 325.134,201.247 325.049,195.908 324.414 C 191.866 323.933,187.628 323.395,185.106 323.043 C 183.846 322.867,182.079 322.644,181.178 322.548 C 180.278 322.453,179.173 322.255,178.723 322.109 C 177.349 321.663,175.462 321.195,171.358 320.281 C 169.198 319.800,167.136 319.287,166.776 319.141 C 166.416 318.996,165.385 318.713,164.484 318.514 C 163.584 318.315,162.332 317.948,161.702 317.700 C 161.072 317.451,159.525 316.930,158.265 316.541 C 157.005 316.153,155.679 315.718,155.319 315.574 C 154.959 315.430,154.075 315.137,153.355 314.923 C 152.146 314.563,150.262 313.801,146.718 312.238 C 145.948 311.898,145.157 311.620,144.959 311.620 C 144.762 311.620,143.003 310.810,141.052 309.820 C 139.100 308.830,137.302 308.020,137.056 308.020 C 136.493 308.020,133.706 306.620,132.963 305.964 C 132.657 305.694,131.080 304.782,129.460 303.937 C 123.616 300.892,120.492 299.020,120.033 298.289 C 119.889 298.060,119.622 297.872,119.441 297.872 C 119.149 297.872,112.365 293.413,111.948 292.947 C 111.858 292.846,111.195 292.330,110.475 291.799 C 109.755 291.269,108.409 290.245,107.483 289.525 C 106.558 288.805,105.506 287.995,105.145 287.725 C 98.544 282.782,85.698 270.170,80.360 263.390 C 79.820 262.704,79.080 261.823,78.717 261.432 C 77.924 260.579,76.518 258.234,76.694 258.058 C 76.762 257.989,77.394 258.346,78.098 258.851 C 79.404 259.786,84.054 262.520,84.340 262.520 C 84.426 262.520,85.157 262.974,85.964 263.529 C 87.922 264.877,104.225 272.995,104.973 272.995 C 105.064 272.995,105.603 273.200,106.170 273.450 C 106.737 273.699,108.453 274.376,109.984 274.954 C 111.514 275.531,113.061 276.135,113.421 276.296 C 115.126 277.057,123.163 279.609,126.841 280.558 C 127.561 280.743,128.592 281.026,129.133 281.187 C 130.292 281.530,135.704 282.777,137.807 283.184 C 145.307 284.638,148.434 285.092,156.956 285.968 C 163.435 286.635,179.982 286.738,185.925 286.149 C 194.441 285.306,199.527 284.604,205.237 283.483 C 207.702 282.999,213.967 281.591,215.466 281.184 C 216.142 281.001,217.246 280.705,217.921 280.526 C 221.901 279.474,230.523 276.634,232.897 275.593 C 233.257 275.435,234.730 274.847,236.170 274.285 C 238.746 273.281,239.454 272.978,244.026 270.928 C 253.082 266.867,267.059 258.510,274.824 252.513 C 275.739 251.806,277.065 250.788,277.770 250.250 C 299.975 233.305,320.008 206.599,330.933 179.378 C 331.330 178.388,331.774 177.283,331.918 176.923 C 333.203 173.726,336.068 165.235,336.502 163.339 C 336.646 162.709,337.298 160.131,337.951 157.610 C 339.094 153.196,339.717 150.333,340.442 146.154 C 340.629 145.074,340.918 143.453,341.083 142.553 C 341.248 141.653,341.468 140.180,341.573 139.280 C 341.678 138.380,341.895 136.527,342.056 135.162 C 342.742 129.337,342.880 125.876,342.869 114.730 C 342.863 107.619,342.698 101.518,342.454 99.345 C 341.806 93.568,340.923 87.299,340.427 84.943 C 340.275 84.223,339.975 82.750,339.760 81.669 C 339.351 79.612,337.240 70.923,336.354 67.648 C 335.546 64.663,332.923 56.913,331.905 54.501 C 331.753 54.141,331.083 52.447,330.417 50.736 C 328.410 45.585,324.503 37.277,323.977 37.043 C 323.842 36.983,323.732 36.738,323.732 36.497 C 323.732 36.039,322.236 33.115,320.501 30.182 C 319.937 29.229,319.476 28.308,319.476 28.136 C 319.476 27.964,319.329 27.823,319.149 27.823 C 318.969 27.823,318.822 27.680,318.822 27.505 C 318.822 27.149,315.939 22.186,315.583 21.931 C 315.162 21.629,313.931 19.313,314.191 19.313 C 314.332 19.313,315.341 20.012,316.432 20.867 M270.540 43.001 C 274.581 43.109,277.816 43.786,278.178 44.599 C 278.238 44.734,278.439 44.845,278.625 44.845 C 280.026 44.845,283.765 48.864,285.274 51.992 C 288.456 58.586,285.432 68.695,279.460 71.433 C 278.965 71.660,278.560 71.957,278.560 72.093 C 278.560 72.229,278.274 72.340,277.924 72.340 C 277.575 72.340,277.204 72.478,277.100 72.646 C 276.606 73.446,273.263 73.977,268.689 73.983 L 263.993 73.988 261.752 79.793 C 259.425 85.820,256.757 92.646,256.285 93.781 C 256.136 94.141,255.476 95.835,254.819 97.545 C 254.162 99.255,253.490 100.986,253.326 101.391 C 252.984 102.235,252.504 103.435,252.081 104.501 C 251.920 104.906,251.405 106.168,250.935 107.305 C 250.466 108.442,250.082 109.511,250.082 109.681 C 250.082 109.852,249.806 110.615,249.469 111.378 C 249.133 112.142,248.310 114.165,247.642 115.876 C 246.973 117.586,246.292 119.317,246.127 119.722 C 245.962 120.127,245.679 120.827,245.499 121.277 C 245.319 121.727,245.035 122.426,244.869 122.831 C 244.702 123.236,243.954 125.188,243.207 127.169 C 242.460 129.149,241.653 131.211,241.414 131.751 C 241.175 132.291,239.996 135.311,238.794 138.462 C 236.285 145.042,236.216 145.219,235.738 146.318 C 235.542 146.768,235.148 147.725,234.862 148.445 C 233.909 150.851,233.557 151.555,233.308 151.555 C 233.172 151.555,233.061 151.742,233.061 151.972 C 233.061 152.323,230.874 154.679,229.133 156.203 C 228.698 156.583,226.581 157.666,224.714 158.464 C 222.685 159.331,217.397 159.406,158.456 159.408 C 98.986 159.411,94.360 159.344,92.144 158.449 C 88.786 157.093,85.116 154.311,83.973 152.258 C 81.564 147.927,80.862 144.473,81.647 140.814 C 82.206 138.204,83.381 135.188,83.837 135.188 C 83.995 135.188,84.124 135.043,84.124 134.865 C 84.124 134.279,85.868 132.328,87.578 131.002 C 88.550 130.247,90.842 129.083,92.962 128.265 C 93.902 127.903,104.443 127.794,151.683 127.660 C 202.425 127.515,209.287 127.438,209.501 127.005 C 209.845 126.309,210.252 125.310,211.630 121.768 C 212.295 120.057,212.970 118.327,213.130 117.921 C 213.290 117.516,213.551 116.854,213.711 116.448 C 213.871 116.043,214.546 114.313,215.212 112.602 C 215.877 110.892,216.537 109.198,216.677 108.838 C 217.165 107.591,217.754 106.217,218.041 105.651 C 219.093 103.584,223.765 103.765,169.313 103.759 C 119.904 103.754,118.677 103.729,117.627 102.679 C 117.504 102.556,117.196 102.455,116.944 102.455 C 116.691 102.455,115.850 102.018,115.073 101.484 C 103.564 93.565,106.615 76.460,120.131 73.134 C 121.607 72.771,131.727 72.689,176.321 72.679 L 230.711 72.668 231.352 71.277 C 231.704 70.511,232.183 69.370,232.416 68.740 C 232.648 68.110,232.962 67.454,233.113 67.283 C 233.264 67.112,233.388 66.705,233.388 66.379 C 233.388 66.052,233.518 65.529,233.677 65.217 C 233.836 64.904,234.115 64.280,234.297 63.830 C 234.478 63.380,235.011 62.081,235.480 60.944 C 235.950 59.807,236.334 58.665,236.334 58.407 C 236.334 58.149,236.481 57.938,236.661 57.938 C 236.841 57.938,236.989 57.641,236.989 57.279 C 236.989 56.916,237.119 56.364,237.278 56.051 C 237.437 55.739,237.731 55.078,237.932 54.583 C 238.133 54.088,238.463 53.277,238.665 52.782 C 240.671 47.866,245.173 44.113,250.291 43.091 C 252.103 42.730,259.228 42.698,270.540 43.001 M122.321 168.853 C 122.647 169.021,123.622 169.498,124.488 169.911 C 126.607 170.923,129.980 174.069,130.830 175.825 C 133.817 181.999,133.897 185.288,131.198 191.031 C 124.809 204.627,104.088 200.514,101.982 185.233 C 101.119 178.972,107.395 169.231,112.291 169.231 C 112.642 169.231,112.930 169.092,112.930 168.923 C 112.930 168.254,121.046 168.193,122.321 168.853 M206.013 168.893 C 206.198 169.079,206.627 169.231,206.966 169.231 C 208.283 169.231,214.403 174.132,214.403 175.187 C 214.403 175.346,214.691 175.876,215.044 176.364 C 218.397 181.002,217.184 189.756,212.517 194.599 C 205.282 202.107,191.963 200.178,187.607 190.991 C 187.183 190.095,186.704 189.106,186.544 188.793 C 186.383 188.481,186.252 187.902,186.252 187.507 C 186.252 187.112,186.077 186.306,185.864 185.715 C 185.485 184.668,185.950 180.102,186.576 178.723 C 189.223 172.896,193.187 169.441,198.363 168.450 C 199.728 168.189,205.652 168.532,206.013 168.893 " stroke="none" fill="#ffffff" fill-rule="evenodd"></path><path id="path2" d="M259.022 43.125 C 261.688 43.181,265.960 43.180,268.514 43.125 C 271.069 43.070,268.887 43.025,263.666 43.025 C 258.445 43.025,256.355 43.070,259.022 43.125 M338.244 72.422 C 338.511 74.538,338.805 76.035,339.098 76.759 C 340.025 79.057,341.842 89.483,342.322 95.254 C 342.449 96.784,342.660 98.199,342.790 98.399 C 343.228 99.072,343.419 120.089,343.046 126.514 C 342.380 137.973,341.657 143.271,339.408 153.191 C 339.224 154.002,338.994 155.218,338.897 155.894 C 338.799 156.570,338.588 157.205,338.427 157.305 C 338.266 157.404,338.134 157.871,338.134 158.343 C 338.134 158.815,337.989 159.653,337.811 160.206 C 337.634 160.759,336.961 162.979,336.316 165.139 C 334.914 169.835,333.805 173.116,332.498 176.432 C 331.215 179.689,331.111 179.941,330.311 181.748 C 329.933 182.601,329.624 183.397,329.624 183.516 C 329.624 183.635,328.164 186.695,326.380 190.314 C 323.939 195.270,323.169 197.138,323.265 197.875 C 323.381 198.767,323.369 198.781,323.129 198.036 C 322.874 197.242,322.844 197.261,322.107 198.691 C 308.716 224.637,283.702 249.450,254.010 266.240 C 251.322 267.760,242.852 271.873,239.116 273.472 C 238.396 273.780,237.551 274.167,237.238 274.332 C 236.926 274.497,236.525 274.632,236.348 274.632 C 236.171 274.632,235.248 274.978,234.298 275.400 C 229.715 277.438,218.064 281.171,214.566 281.723 C 214.026 281.808,213.290 282.005,212.930 282.160 C 212.570 282.316,211.833 282.520,211.293 282.614 C 210.753 282.709,209.648 282.925,208.838 283.095 C 208.028 283.266,206.187 283.652,204.746 283.955 C 200.905 284.761,196.284 285.427,189.525 286.148 C 184.887 286.644,159.084 286.634,154.337 286.135 C 146.708 285.333,140.521 284.362,136.170 283.283 C 135.000 282.993,133.489 282.680,132.813 282.587 C 132.137 282.494,131.502 282.287,131.403 282.126 C 131.075 281.596,128.314 281.773,128.314 282.324 C 128.314 282.597,128.605 282.815,128.969 282.815 C 129.329 282.815,129.624 282.962,129.624 283.142 C 129.624 283.322,129.992 283.470,130.442 283.470 C 130.892 283.470,131.260 283.617,131.260 283.797 C 131.260 283.977,131.702 284.124,132.242 284.124 C 132.782 284.124,133.224 284.272,133.224 284.452 C 133.224 284.632,133.519 284.779,133.879 284.779 C 134.239 284.779,134.534 284.926,134.534 285.106 C 134.534 285.286,134.902 285.434,135.352 285.434 C 135.802 285.434,136.170 285.581,136.170 285.761 C 136.170 285.941,136.612 286.088,137.152 286.088 C 137.807 286.088,138.134 286.252,138.134 286.579 C 138.134 286.922,138.480 287.070,139.280 287.070 C 139.910 287.070,140.426 287.218,140.426 287.398 C 140.426 287.578,140.720 287.725,141.080 287.725 C 141.440 287.725,141.735 287.872,141.735 288.052 C 141.735 288.232,142.250 288.380,142.881 288.380 C 143.511 288.380,144.026 288.527,144.026 288.707 C 144.026 288.887,144.468 289.034,145.008 289.034 C 145.548 289.034,145.990 289.182,145.990 289.362 C 145.990 289.542,146.506 289.689,147.136 289.689 C 147.936 289.689,148.282 289.837,148.282 290.180 C 148.282 290.544,148.663 290.671,149.755 290.671 C 150.565 290.671,151.227 290.818,151.227 290.998 C 151.227 291.178,151.669 291.326,152.209 291.326 C 152.750 291.326,153.191 291.473,153.191 291.653 C 153.191 291.833,153.854 291.980,154.664 291.980 C 155.475 291.980,156.137 292.128,156.137 292.308 C 156.137 292.488,156.800 292.635,157.610 292.635 C 158.421 292.635,159.083 292.782,159.083 292.962 C 159.083 293.142,159.673 293.290,160.393 293.290 C 161.113 293.290,161.702 293.437,161.702 293.617 C 161.702 293.797,162.512 293.944,163.502 293.944 C 164.885 293.944,165.303 294.058,165.303 294.435 C 165.303 294.821,165.757 294.926,167.430 294.926 C 168.631 294.926,169.558 295.069,169.558 295.254 C 169.558 295.438,170.486 295.581,171.686 295.581 C 172.886 295.581,173.813 295.724,173.813 295.908 C 173.813 296.105,175.123 296.236,177.087 296.236 C 179.051 296.236,180.360 296.367,180.360 296.563 C 180.360 296.777,185.706 296.890,195.745 296.890 C 205.783 296.890,211.129 296.777,211.129 296.563 C 211.129 296.368,212.384 296.236,214.239 296.236 C 216.094 296.236,217.349 296.104,217.349 295.908 C 217.349 295.721,218.331 295.581,219.640 295.581 C 220.949 295.581,221.931 295.441,221.931 295.254 C 221.931 295.069,222.859 294.926,224.059 294.926 C 225.732 294.926,226.187 294.821,226.187 294.435 C 226.187 294.058,226.605 293.944,227.987 293.944 C 228.977 293.944,229.787 293.797,229.787 293.617 C 229.787 293.437,230.376 293.290,231.097 293.290 C 231.817 293.290,232.406 293.142,232.406 292.962 C 232.406 292.782,233.069 292.635,233.879 292.635 C 234.689 292.635,235.352 292.488,235.352 292.308 C 235.352 292.128,236.015 291.980,236.825 291.980 C 237.635 291.980,238.298 291.833,238.298 291.653 C 238.298 291.473,238.887 291.326,239.607 291.326 C 240.327 291.326,240.917 291.178,240.917 290.998 C 240.917 290.818,241.432 290.671,242.062 290.671 C 242.862 290.671,243.208 290.523,243.208 290.180 C 243.208 289.837,243.553 289.689,244.354 289.689 C 244.984 289.689,245.499 289.542,245.499 289.362 C 245.499 289.182,245.941 289.034,246.481 289.034 C 247.021 289.034,247.463 288.887,247.463 288.707 C 247.463 288.527,247.979 288.380,248.609 288.380 C 249.239 288.380,249.755 288.232,249.755 288.052 C 249.755 287.872,250.196 287.725,250.736 287.725 C 251.277 287.725,251.718 287.578,251.718 287.398 C 251.718 287.218,252.087 287.070,252.537 287.070 C 253.046 287.070,253.355 286.885,253.355 286.579 C 253.355 286.252,253.682 286.088,254.337 286.088 C 254.877 286.088,255.319 285.941,255.319 285.761 C 255.319 285.581,255.614 285.434,255.974 285.434 C 256.334 285.434,256.628 285.286,256.628 285.106 C 256.628 284.926,256.997 284.779,257.447 284.779 C 257.897 284.779,258.265 284.632,258.265 284.452 C 258.265 284.272,258.707 284.124,259.247 284.124 C 259.787 284.124,260.229 283.977,260.229 283.797 C 260.229 283.617,260.597 283.470,261.047 283.470 C 261.498 283.470,261.866 283.322,261.866 283.142 C 261.866 282.962,262.160 282.815,262.520 282.815 C 262.884 282.815,263.175 282.597,263.175 282.324 C 263.175 282.051,263.466 281.833,263.830 281.833 C 264.190 281.833,264.484 281.686,264.484 281.506 C 264.484 281.326,264.853 281.178,265.303 281.178 C 265.753 281.178,266.121 281.031,266.121 280.851 C 266.121 280.671,266.416 280.524,266.776 280.524 C 267.136 280.524,267.430 280.376,267.430 280.196 C 267.430 280.016,267.799 279.869,268.249 279.869 C 268.699 279.869,269.067 279.722,269.067 279.542 C 269.067 279.362,269.362 279.214,269.722 279.214 C 270.085 279.214,270.376 278.996,270.376 278.723 C 270.376 278.451,270.667 278.232,271.031 278.232 C 271.391 278.232,271.686 278.085,271.686 277.905 C 271.686 277.725,272.054 277.578,272.504 277.578 C 272.954 277.578,273.322 277.430,273.322 277.250 C 273.322 277.070,273.585 276.923,273.905 276.923 C 274.225 276.923,274.700 276.628,274.959 276.268 C 275.219 275.908,275.767 275.614,276.177 275.614 C 276.587 275.614,276.923 275.466,276.923 275.286 C 276.923 275.106,277.218 274.959,277.578 274.959 C 277.938 274.959,278.232 274.801,278.232 274.608 C 278.232 274.087,279.094 273.322,279.682 273.322 C 279.965 273.322,280.196 273.175,280.196 272.995 C 280.196 272.815,280.417 272.668,280.687 272.668 C 280.957 272.668,281.178 272.520,281.178 272.340 C 281.178 272.160,281.410 272.013,281.693 272.013 C 282.281 272.013,283.142 271.249,283.142 270.727 C 283.142 270.534,283.478 270.376,283.888 270.376 C 284.299 270.376,284.847 270.082,285.106 269.722 C 285.366 269.362,285.808 269.067,286.088 269.067 C 286.369 269.067,286.811 268.773,287.070 268.412 C 287.330 268.052,287.815 267.758,288.148 267.758 C 288.732 267.758,289.689 267.046,289.689 266.612 C 289.689 266.209,290.628 265.466,291.139 265.466 C 291.422 265.466,291.653 265.319,291.653 265.139 C 291.653 264.959,291.807 264.812,291.995 264.812 C 292.440 264.812,293.944 263.307,293.944 262.863 C 293.944 262.674,294.206 262.520,294.527 262.520 C 294.847 262.520,295.321 262.226,295.581 261.866 C 295.841 261.506,296.209 261.211,296.399 261.211 C 296.590 261.211,296.958 260.917,297.218 260.556 C 297.477 260.196,297.952 259.902,298.272 259.902 C 298.592 259.902,298.854 259.744,298.854 259.551 C 298.854 259.178,299.657 258.265,299.985 258.265 C 300.323 258.265,303.110 255.353,303.110 255.000 C 303.110 254.816,303.261 254.664,303.446 254.664 C 303.798 254.664,306.710 251.878,306.710 251.540 C 306.710 251.286,307.587 250.409,307.841 250.409 C 308.179 250.409,310.966 247.497,310.966 247.144 C 310.966 246.960,311.117 246.809,311.302 246.809 C 311.654 246.809,314.566 244.022,314.566 243.684 C 314.566 243.356,315.479 242.553,315.852 242.553 C 316.045 242.553,316.203 242.318,316.203 242.030 C 316.203 241.742,316.645 241.094,317.185 240.589 C 317.725 240.085,318.167 239.573,318.167 239.452 C 318.167 239.105,319.066 238.298,319.453 238.298 C 319.646 238.298,319.804 238.036,319.804 237.715 C 319.804 237.395,320.098 236.921,320.458 236.661 C 320.818 236.402,321.113 236.001,321.113 235.771 C 321.113 235.540,321.260 235.352,321.440 235.352 C 321.620 235.352,321.768 235.124,321.768 234.846 C 321.768 234.276,323.191 232.733,323.717 232.733 C 323.905 232.733,324.059 232.397,324.059 231.987 C 324.059 231.577,324.354 231.029,324.714 230.769 C 325.074 230.510,325.368 230.068,325.368 229.787 C 325.368 229.507,325.663 229.065,326.023 228.805 C 326.383 228.546,326.678 228.145,326.678 227.915 C 326.678 227.684,326.899 227.496,327.169 227.496 C 327.439 227.496,327.660 227.234,327.660 226.914 C 327.660 226.593,327.954 226.119,328.314 225.859 C 328.674 225.600,328.969 225.084,328.969 224.714 C 328.969 224.343,329.264 223.827,329.624 223.568 C 329.984 223.308,330.278 222.834,330.278 222.514 C 330.278 222.193,330.426 221.931,330.606 221.931 C 330.786 221.931,330.933 221.637,330.933 221.277 C 330.933 220.913,331.151 220.622,331.424 220.622 C 331.694 220.622,331.915 220.401,331.915 220.131 C 331.915 219.861,332.062 219.640,332.242 219.640 C 332.422 219.640,332.570 219.345,332.570 218.985 C 332.570 218.625,332.717 218.331,332.897 218.331 C 333.077 218.331,333.224 218.036,333.224 217.676 C 333.224 217.316,333.372 217.021,333.552 217.021 C 333.732 217.021,333.879 216.653,333.879 216.203 C 333.879 215.753,334.026 215.385,334.206 215.385 C 334.386 215.385,334.534 215.090,334.534 214.730 C 334.534 214.366,334.752 214.075,335.025 214.075 C 335.297 214.075,335.516 213.784,335.516 213.421 C 335.516 213.061,335.663 212.766,335.843 212.766 C 336.023 212.766,336.170 212.545,336.170 212.275 C 336.170 212.005,336.318 211.784,336.498 211.784 C 336.678 211.784,336.825 211.489,336.825 211.129 C 336.825 210.769,336.972 210.475,337.152 210.475 C 337.332 210.475,337.480 210.180,337.480 209.820 C 337.480 209.460,337.627 209.165,337.807 209.165 C 337.987 209.165,338.134 208.650,338.134 208.020 C 338.134 207.390,338.282 206.874,338.462 206.874 C 338.642 206.874,338.789 206.579,338.789 206.219 C 338.789 205.856,339.007 205.565,339.280 205.565 C 339.585 205.565,339.771 205.256,339.771 204.746 C 339.771 204.296,339.918 203.928,340.098 203.928 C 340.278 203.928,340.426 203.633,340.426 203.273 C 340.426 202.913,340.573 202.619,340.753 202.619 C 340.933 202.619,341.080 202.324,341.080 201.964 C 341.080 201.604,341.227 201.309,341.408 201.309 C 341.588 201.309,341.735 200.794,341.735 200.164 C 341.735 199.534,341.882 199.018,342.062 199.018 C 342.242 199.018,342.390 198.723,342.390 198.363 C 342.390 198.000,342.608 197.709,342.881 197.709 C 343.223 197.709,343.372 197.363,343.372 196.563 C 343.372 195.933,343.519 195.417,343.699 195.417 C 343.879 195.417,344.026 194.975,344.026 194.435 C 344.026 193.895,344.173 193.453,344.354 193.453 C 344.534 193.453,344.681 193.085,344.681 192.635 C 344.681 192.185,344.828 191.817,345.008 191.817 C 345.188 191.817,345.336 191.375,345.336 190.835 C 345.336 190.295,345.483 189.853,345.663 189.853 C 345.843 189.853,345.990 189.337,345.990 188.707 C 345.990 188.077,346.137 187.561,346.318 187.561 C 346.498 187.561,346.645 186.899,346.645 186.088 C 346.645 184.997,346.772 184.615,347.136 184.615 C 347.463 184.615,347.627 184.288,347.627 183.633 C 347.627 183.093,347.774 182.651,347.954 182.651 C 348.134 182.651,348.282 181.989,348.282 181.178 C 348.282 180.368,348.429 179.705,348.609 179.705 C 348.789 179.705,348.936 179.043,348.936 178.232 C 348.936 177.422,349.083 176.759,349.264 176.759 C 349.444 176.759,349.591 176.170,349.591 175.450 C 349.591 174.730,349.738 174.141,349.918 174.141 C 350.098 174.141,350.245 173.331,350.245 172.340 C 350.245 170.958,350.360 170.540,350.736 170.540 C 351.113 170.540,351.227 170.122,351.227 168.740 C 351.227 167.750,351.375 166.939,351.555 166.939 C 351.735 166.939,351.882 166.129,351.882 165.139 C 351.882 164.149,352.029 163.339,352.209 163.339 C 352.403 163.339,352.537 162.139,352.537 160.393 C 352.537 158.647,352.670 157.447,352.864 157.447 C 353.067 157.447,353.191 155.701,353.191 152.864 C 353.191 150.027,353.316 148.282,353.519 148.282 C 353.729 148.282,353.846 145.117,353.846 139.444 C 353.846 133.770,353.729 130.606,353.519 130.606 C 353.317 130.606,353.191 128.914,353.191 126.187 C 353.191 123.459,353.066 121.768,352.864 121.768 C 352.672 121.768,352.537 120.622,352.537 118.985 C 352.537 117.349,352.402 116.203,352.209 116.203 C 352.025 116.203,351.882 115.276,351.882 114.075 C 351.882 112.875,351.739 111.948,351.555 111.948 C 351.370 111.948,351.227 111.020,351.227 109.820 C 351.227 108.147,351.123 107.692,350.736 107.692 C 350.360 107.692,350.245 107.274,350.245 105.892 C 350.245 104.902,350.098 104.092,349.918 104.092 C 349.738 104.092,349.591 103.429,349.591 102.619 C 349.591 101.809,349.444 101.146,349.264 101.146 C 349.083 101.146,348.936 100.483,348.936 99.673 C 348.936 98.863,348.789 98.200,348.609 98.200 C 348.429 98.200,348.282 97.758,348.282 97.218 C 348.282 96.678,348.134 96.236,347.954 96.236 C 347.774 96.236,347.627 95.573,347.627 94.763 C 347.627 93.672,347.500 93.290,347.136 93.290 C 346.809 93.290,346.645 92.962,346.645 92.308 C 346.645 91.768,346.498 91.326,346.318 91.326 C 346.137 91.326,345.990 90.810,345.990 90.180 C 345.990 89.550,345.843 89.034,345.663 89.034 C 345.483 89.034,345.336 88.519,345.336 87.889 C 345.336 87.259,345.188 86.743,345.008 86.743 C 344.828 86.743,344.681 86.301,344.681 85.761 C 344.681 85.221,344.534 84.779,344.354 84.779 C 344.173 84.779,344.026 84.264,344.026 83.633 C 344.026 83.003,343.879 82.488,343.699 82.488 C 343.519 82.488,343.372 82.193,343.372 81.833 C 343.372 81.469,343.153 81.178,342.881 81.178 C 342.538 81.178,342.390 80.833,342.390 80.033 C 342.390 79.403,342.242 78.887,342.062 78.887 C 341.882 78.887,341.735 78.592,341.735 78.232 C 341.735 77.872,341.588 77.578,341.408 77.578 C 341.227 77.578,341.080 77.283,341.080 76.923 C 341.080 76.563,340.933 76.268,340.753 76.268 C 340.573 76.268,340.426 75.753,340.426 75.123 C 340.426 74.493,340.278 73.977,340.098 73.977 C 339.918 73.977,339.771 73.682,339.771 73.322 C 339.771 72.959,339.553 72.668,339.280 72.668 C 338.974 72.668,338.789 72.359,338.789 71.849 C 338.789 71.399,338.627 71.031,338.429 71.031 C 338.195 71.031,338.130 71.522,338.244 72.422 M266.217 73.893 C 267.439 73.956,269.354 73.955,270.472 73.892 C 271.590 73.828,270.589 73.776,268.249 73.777 C 265.908 73.778,264.994 73.830,266.217 73.893 M230.593 154.583 L 228.969 156.301 230.687 154.677 C 232.284 153.167,232.556 152.864,232.312 152.864 C 232.260 152.864,231.487 153.637,230.593 154.583 M322.370 200.328 C 322.131 200.868,321.829 201.309,321.698 201.309 C 321.568 201.309,321.606 200.978,321.783 200.573 C 321.961 200.168,322.203 199.546,322.321 199.190 C 322.447 198.814,322.593 198.711,322.671 198.945 C 322.744 199.165,322.609 199.788,322.370 200.328 M116.939 199.244 C 117.255 199.326,117.770 199.326,118.085 199.244 C 118.400 199.161,118.142 199.094,117.512 199.094 C 116.882 199.094,116.624 199.161,116.939 199.244 M200.736 199.244 C 201.052 199.326,201.567 199.326,201.882 199.244 C 202.197 199.161,201.939 199.094,201.309 199.094 C 200.679 199.094,200.421 199.161,200.736 199.244 M320.739 203.298 C 319.810 205.230,318.822 206.502,318.822 205.767 C 318.822 205.224,321.116 201.530,321.324 201.739 C 321.385 201.800,321.122 202.502,320.739 203.298 M318.133 207.806 C 317.893 208.284,317.286 209.290,316.786 210.043 C 316.285 210.795,315.876 211.569,315.876 211.761 C 315.876 211.954,315.743 212.111,315.581 212.111 C 315.419 212.111,314.961 212.737,314.564 213.502 C 314.166 214.268,313.745 214.967,313.629 215.057 C 313.514 215.147,312.979 215.884,312.442 216.694 C 311.168 218.614,307.359 223.729,306.067 225.255 C 305.510 225.913,304.708 226.961,304.286 227.584 C 303.863 228.206,302.763 229.474,301.841 230.401 C 300.918 231.329,300.164 232.210,300.164 232.359 C 300.164 232.743,291.342 241.606,289.820 242.751 C 289.127 243.272,287.532 244.693,286.276 245.908 C 285.019 247.124,283.879 248.118,283.741 248.118 C 283.604 248.118,282.756 248.744,281.856 249.509 C 278.789 252.118,277.703 252.935,275.653 254.173 C 275.057 254.534,274.134 255.226,273.602 255.712 C 273.070 256.197,272.347 256.686,271.996 256.797 C 271.646 256.909,271.358 257.127,271.358 257.283 C 271.358 257.439,271.027 257.671,270.622 257.799 C 270.217 257.927,269.664 258.268,269.394 258.557 C 269.124 258.847,268.241 259.418,267.430 259.826 C 266.620 260.235,265.147 261.081,264.157 261.707 C 263.167 262.333,262.062 262.829,261.702 262.808 C 261.151 262.778,261.138 262.748,261.620 262.622 C 261.935 262.540,262.193 262.336,262.193 262.169 C 262.193 262.002,262.414 261.866,262.684 261.866 C 262.954 261.866,263.175 261.718,263.175 261.538 C 263.175 261.358,263.326 261.211,263.509 261.211 C 263.899 261.211,266.323 259.672,267.247 258.838 C 267.596 258.523,268.019 258.265,268.187 258.265 C 268.559 258.265,272.787 255.295,272.941 254.927 C 273.001 254.782,273.246 254.664,273.486 254.664 C 273.726 254.664,273.972 254.547,274.032 254.404 C 274.092 254.260,275.340 253.235,276.805 252.125 C 278.270 251.016,279.670 249.918,279.915 249.686 C 280.160 249.453,280.876 248.873,281.506 248.396 C 282.136 247.918,283.189 247.034,283.847 246.432 C 284.504 245.829,285.642 244.846,286.375 244.248 C 288.360 242.629,299.098 231.875,300.982 229.619 C 301.882 228.541,302.847 227.439,303.126 227.169 C 303.406 226.899,304.069 226.088,304.599 225.368 C 305.130 224.648,305.761 223.852,306.000 223.600 C 306.499 223.074,308.706 220.194,310.133 218.206 C 310.666 217.464,311.300 216.655,311.542 216.407 C 312.103 215.834,315.221 211.223,315.221 210.966 C 315.221 210.860,315.589 210.376,316.039 209.891 C 316.489 209.405,316.858 208.823,316.858 208.596 C 316.858 208.369,316.969 208.183,317.105 208.183 C 317.241 208.183,317.562 207.710,317.818 207.131 C 318.082 206.534,318.346 206.265,318.427 206.509 C 318.506 206.745,318.374 207.329,318.133 207.806 M260.780 263.653 C 260.047 264.386,256.710 265.879,256.233 265.688 C 255.967 265.581,256.026 265.509,256.391 265.492 C 256.710 265.478,257.721 264.951,258.637 264.321 C 260.370 263.129,261.727 262.706,260.780 263.653 " stroke="none" fill="#e3e8eb" fill-rule="evenodd"></path><path id="path3" d="M314.645 20.540 C 315.036 21.215,315.458 21.841,315.583 21.931 C 315.939 22.186,318.822 27.149,318.822 27.505 C 318.822 27.680,318.969 27.823,319.149 27.823 C 319.329 27.823,319.476 27.964,319.476 28.136 C 319.476 28.308,319.937 29.229,320.501 30.182 C 322.236 33.115,323.732 36.039,323.732 36.497 C 323.732 36.738,323.842 36.983,323.977 37.043 C 324.503 37.277,328.410 45.585,330.417 50.736 C 331.083 52.447,331.753 54.141,331.905 54.501 C 332.923 56.913,335.546 64.663,336.354 67.648 C 337.240 70.923,339.351 79.612,339.760 81.669 C 339.975 82.750,340.274 84.223,340.423 84.943 C 340.834 86.924,341.325 90.158,341.740 93.617 C 342.247 97.834,342.363 98.190,342.223 95.090 C 342.014 90.472,340.099 79.240,339.098 76.759 C 338.444 75.139,337.964 71.031,338.429 71.031 C 338.627 71.031,338.789 71.399,338.789 71.849 C 338.789 72.359,338.974 72.668,339.280 72.668 C 339.553 72.668,339.771 72.959,339.771 73.322 C 339.771 73.682,339.918 73.977,340.098 73.977 C 340.278 73.977,340.426 74.493,340.426 75.123 C 340.426 75.753,340.573 76.268,340.753 76.268 C 340.933 76.268,341.080 76.563,341.080 76.923 C 341.080 77.283,341.227 77.578,341.408 77.578 C 341.588 77.578,341.735 77.872,341.735 78.232 C 341.735 78.592,341.882 78.887,342.062 78.887 C 342.242 78.887,342.390 79.403,342.390 80.033 C 342.390 80.833,342.538 81.178,342.881 81.178 C 343.153 81.178,343.372 81.469,343.372 81.833 C 343.372 82.193,343.519 82.488,343.699 82.488 C 343.879 82.488,344.026 83.003,344.026 83.633 C 344.026 84.264,344.173 84.779,344.354 84.779 C 344.534 84.779,344.681 85.221,344.681 85.761 C 344.681 86.301,344.828 86.743,345.008 86.743 C 345.188 86.743,345.336 87.259,345.336 87.889 C 345.336 88.519,345.483 89.034,345.663 89.034 C 345.843 89.034,345.990 89.550,345.990 90.180 C 345.990 90.810,346.137 91.326,346.318 91.326 C 346.498 91.326,346.645 91.768,346.645 92.308 C 346.645 92.962,346.809 93.290,347.136 93.290 C 347.500 93.290,347.627 93.672,347.627 94.763 C 347.627 95.573,347.774 96.236,347.954 96.236 C 348.134 96.236,348.282 96.678,348.282 97.218 C 348.282 97.758,348.429 98.200,348.609 98.200 C 348.789 98.200,348.936 98.863,348.936 99.673 C 348.936 100.483,349.083 101.146,349.264 101.146 C 349.444 101.146,349.591 101.809,349.591 102.619 C 349.591 103.429,349.738 104.092,349.918 104.092 C 350.098 104.092,350.245 104.902,350.245 105.892 C 350.245 107.274,350.360 107.692,350.736 107.692 C 351.123 107.692,351.227 108.147,351.227 109.820 C 351.227 111.020,351.370 111.948,351.555 111.948 C 351.739 111.948,351.882 112.875,351.882 114.075 C 351.882 115.276,352.025 116.203,352.209 116.203 C 352.402 116.203,352.537 117.349,352.537 118.985 C 352.537 120.622,352.672 121.768,352.864 121.768 C 353.066 121.768,353.191 123.459,353.191 126.187 C 353.191 128.914,353.317 130.606,353.519 130.606 C 353.729 130.606,353.846 133.770,353.846 139.444 C 353.846 145.117,353.729 148.282,353.519 148.282 C 353.316 148.282,353.191 150.027,353.191 152.864 C 353.191 155.701,353.067 157.447,352.864 157.447 C 352.670 157.447,352.537 158.647,352.537 160.393 C 352.537 162.139,352.403 163.339,352.209 163.339 C 352.029 163.339,351.882 164.149,351.882 165.139 C 351.882 166.129,351.735 166.939,351.555 166.939 C 351.375 166.939,351.227 167.750,351.227 168.740 C 351.227 170.122,351.113 170.540,350.736 170.540 C 350.360 170.540,350.245 170.958,350.245 172.340 C 350.245 173.331,350.098 174.141,349.918 174.141 C 349.738 174.141,349.591 174.730,349.591 175.450 C 349.591 176.170,349.444 176.759,349.264 176.759 C 349.083 176.759,348.936 177.422,348.936 178.232 C 348.936 179.043,348.789 179.705,348.609 179.705 C 348.429 179.705,348.282 180.368,348.282 181.178 C 348.282 181.989,348.134 182.651,347.954 182.651 C 347.774 182.651,347.627 183.093,347.627 183.633 C 347.627 184.288,347.463 184.615,347.136 184.615 C 346.772 184.615,346.645 184.997,346.645 186.088 C 346.645 186.899,346.498 187.561,346.318 187.561 C 346.137 187.561,345.990 188.077,345.990 188.707 C 345.990 189.337,345.843 189.853,345.663 189.853 C 345.483 189.853,345.336 190.295,345.336 190.835 C 345.336 191.375,345.188 191.817,345.008 191.817 C 344.828 191.817,344.681 192.185,344.681 192.635 C 344.681 193.085,344.534 193.453,344.354 193.453 C 344.173 193.453,344.026 193.895,344.026 194.435 C 344.026 194.975,343.879 195.417,343.699 195.417 C 343.519 195.417,343.372 195.933,343.372 196.563 C 343.372 197.363,343.223 197.709,342.881 197.709 C 342.608 197.709,342.390 198.000,342.390 198.363 C 342.390 198.723,342.242 199.018,342.062 199.018 C 341.882 199.018,341.735 199.534,341.735 200.164 C 341.735 200.794,341.588 201.309,341.408 201.309 C 341.227 201.309,341.080 201.604,341.080 201.964 C 341.080 202.324,340.933 202.619,340.753 202.619 C 340.573 202.619,340.426 202.913,340.426 203.273 C 340.426 203.633,340.278 203.928,340.098 203.928 C 339.918 203.928,339.771 204.296,339.771 204.746 C 339.771 205.256,339.585 205.565,339.280 205.565 C 339.007 205.565,338.789 205.856,338.789 206.219 C 338.789 206.579,338.642 206.874,338.462 206.874 C 338.282 206.874,338.134 207.390,338.134 208.020 C 338.134 208.650,337.987 209.165,337.807 209.165 C 337.627 209.165,337.480 209.460,337.480 209.820 C 337.480 210.180,337.332 210.475,337.152 210.475 C 336.972 210.475,336.825 210.769,336.825 211.129 C 336.825 211.489,336.678 211.784,336.498 211.784 C 336.318 211.784,336.170 212.005,336.170 212.275 C 336.170 212.545,336.023 212.766,335.843 212.766 C 335.663 212.766,335.516 213.061,335.516 213.421 C 335.516 213.784,335.297 214.075,335.025 214.075 C 334.752 214.075,334.534 214.366,334.534 214.730 C 334.534 215.090,334.386 215.385,334.206 215.385 C 334.026 215.385,333.879 215.753,333.879 216.203 C 333.879 216.653,333.732 217.021,333.552 217.021 C 333.372 217.021,333.224 217.316,333.224 217.676 C 333.224 218.036,333.077 218.331,332.897 218.331 C 332.717 218.331,332.570 218.625,332.570 218.985 C 332.570 219.345,332.422 219.640,332.242 219.640 C 332.062 219.640,331.915 219.861,331.915 220.131 C 331.915 220.401,331.694 220.622,331.424 220.622 C 331.151 220.622,330.933 220.913,330.933 221.277 C 330.933 221.637,330.786 221.931,330.606 221.931 C 330.426 221.931,330.278 222.193,330.278 222.514 C 330.278 222.834,329.984 223.308,329.624 223.568 C 329.264 223.827,328.969 224.343,328.969 224.714 C 328.969 225.084,328.674 225.600,328.314 225.859 C 327.954 226.119,327.660 226.593,327.660 226.914 C 327.660 227.234,327.439 227.496,327.169 227.496 C 326.899 227.496,326.678 227.684,326.678 227.915 C 326.678 228.145,326.383 228.546,326.023 228.805 C 325.663 229.065,325.368 229.507,325.368 229.787 C 325.368 230.068,325.074 230.510,324.714 230.769 C 324.354 231.029,324.059 231.577,324.059 231.987 C 324.059 232.397,323.905 232.733,323.717 232.733 C 323.191 232.733,321.768 234.276,321.768 234.846 C 321.768 235.124,321.620 235.352,321.440 235.352 C 321.260 235.352,321.113 235.540,321.113 235.771 C 321.113 236.001,320.818 236.402,320.458 236.661 C 320.098 236.921,319.804 237.395,319.804 237.715 C 319.804 238.036,319.646 238.298,319.453 238.298 C 319.066 238.298,318.167 239.105,318.167 239.452 C 318.167 239.573,317.725 240.085,317.185 240.589 C 316.645 241.094,316.203 241.742,316.203 242.030 C 316.203 242.318,316.045 242.553,315.852 242.553 C 315.479 242.553,314.566 243.356,314.566 243.684 C 314.566 244.022,311.654 246.809,311.302 246.809 C 311.117 246.809,310.966 246.960,310.966 247.144 C 310.966 247.497,308.179 250.409,307.841 250.409 C 307.587 250.409,306.710 251.286,306.710 251.540 C 306.710 251.878,303.798 254.664,303.446 254.664 C 303.261 254.664,303.110 254.816,303.110 255.000 C 303.110 255.353,300.323 258.265,299.985 258.265 C 299.657 258.265,298.854 259.178,298.854 259.551 C 298.854 259.744,298.592 259.902,298.272 259.902 C 297.952 259.902,297.477 260.196,297.218 260.556 C 296.958 260.917,296.590 261.211,296.399 261.211 C 296.209 261.211,295.841 261.506,295.581 261.866 C 295.321 262.226,294.847 262.520,294.527 262.520 C 294.206 262.520,293.944 262.674,293.944 262.863 C 293.944 263.307,292.440 264.812,291.995 264.812 C 291.807 264.812,291.653 264.959,291.653 265.139 C 291.653 265.319,291.422 265.466,291.139 265.466 C 290.628 265.466,289.689 266.209,289.689 266.612 C 289.689 267.046,288.732 267.758,288.148 267.758 C 287.815 267.758,287.330 268.052,287.070 268.412 C 286.811 268.773,286.369 269.067,286.088 269.067 C 285.808 269.067,285.366 269.362,285.106 269.722 C 284.847 270.082,284.299 270.376,283.888 270.376 C 283.478 270.376,283.142 270.534,283.142 270.727 C 283.142 271.249,282.281 272.013,281.693 272.013 C 281.410 272.013,281.178 272.160,281.178 272.340 C 281.178 272.520,280.957 272.668,280.687 272.668 C 280.417 272.668,280.196 272.815,280.196 272.995 C 280.196 273.175,279.965 273.322,279.682 273.322 C 279.094 273.322,278.232 274.087,278.232 274.608 C 278.232 274.801,277.938 274.959,277.578 274.959 C 277.218 274.959,276.923 275.106,276.923 275.286 C 276.923 275.466,276.587 275.614,276.177 275.614 C 275.767 275.614,275.219 275.908,274.959 276.268 C 274.700 276.628,274.225 276.923,273.905 276.923 C 273.585 276.923,273.322 277.070,273.322 277.250 C 273.322 277.430,272.954 277.578,272.504 277.578 C 272.054 277.578,271.686 277.725,271.686 277.905 C 271.686 278.085,271.391 278.232,271.031 278.232 C 270.667 278.232,270.376 278.451,270.376 278.723 C 270.376 278.996,270.085 279.214,269.722 279.214 C 269.362 279.214,269.067 279.362,269.067 279.542 C 269.067 279.722,268.699 279.869,268.249 279.869 C 267.799 279.869,267.430 280.016,267.430 280.196 C 267.430 280.376,267.136 280.524,266.776 280.524 C 266.416 280.524,266.121 280.671,266.121 280.851 C 266.121 281.031,265.753 281.178,265.303 281.178 C 264.853 281.178,264.484 281.326,264.484 281.506 C 264.484 281.686,264.190 281.833,263.830 281.833 C 263.466 281.833,263.175 282.051,263.175 282.324 C 263.175 282.597,262.884 282.815,262.520 282.815 C 262.160 282.815,261.866 282.962,261.866 283.142 C 261.866 283.322,261.498 283.470,261.047 283.470 C 260.597 283.470,260.229 283.617,260.229 283.797 C 260.229 283.977,259.787 284.124,259.247 284.124 C 258.707 284.124,258.265 284.272,258.265 284.452 C 258.265 284.632,257.897 284.779,257.447 284.779 C 256.997 284.779,256.628 284.926,256.628 285.106 C 256.628 285.286,256.334 285.434,255.974 285.434 C 255.614 285.434,255.319 285.581,255.319 285.761 C 255.319 285.941,254.877 286.088,254.337 286.088 C 253.682 286.088,253.355 286.252,253.355 286.579 C 253.355 286.885,253.046 287.070,252.537 287.070 C 252.087 287.070,251.718 287.218,251.718 287.398 C 251.718 287.578,251.277 287.725,250.736 287.725 C 250.196 287.725,249.755 287.872,249.755 288.052 C 249.755 288.232,249.239 288.380,248.609 288.380 C 247.979 288.380,247.463 288.527,247.463 288.707 C 247.463 288.887,247.021 289.034,246.481 289.034 C 245.941 289.034,245.499 289.182,245.499 289.362 C 245.499 289.542,244.984 289.689,244.354 289.689 C 243.553 289.689,243.208 289.837,243.208 290.180 C 243.208 290.523,242.862 290.671,242.062 290.671 C 241.432 290.671,240.917 290.818,240.917 290.998 C 240.917 291.178,240.327 291.326,239.607 291.326 C 238.887 291.326,238.298 291.473,238.298 291.653 C 238.298 291.833,237.635 291.980,236.825 291.980 C 236.015 291.980,235.352 292.128,235.352 292.308 C 235.352 292.488,234.689 292.635,233.879 292.635 C 233.069 292.635,232.406 292.782,232.406 292.962 C 232.406 293.142,231.817 293.290,231.097 293.290 C 230.376 293.290,229.787 293.437,229.787 293.617 C 229.787 293.797,228.977 293.944,227.987 293.944 C 226.605 293.944,226.187 294.058,226.187 294.435 C 226.187 294.821,225.732 294.926,224.059 294.926 C 222.859 294.926,221.931 295.069,221.931 295.254 C 221.931 295.441,220.949 295.581,219.640 295.581 C 218.331 295.581,217.349 295.721,217.349 295.908 C 217.349 296.104,216.094 296.236,214.239 296.236 C 212.384 296.236,211.129 296.368,211.129 296.563 C 211.129 296.777,205.783 296.890,195.745 296.890 C 185.706 296.890,180.360 296.777,180.360 296.563 C 180.360 296.367,179.051 296.236,177.087 296.236 C 175.123 296.236,173.813 296.105,173.813 295.908 C 173.813 295.724,172.886 295.581,171.686 295.581 C 170.486 295.581,169.558 295.438,169.558 295.254 C 169.558 295.069,168.631 294.926,167.430 294.926 C 165.757 294.926,165.303 294.821,165.303 294.435 C 165.303 294.058,164.885 293.944,163.502 293.944 C 162.512 293.944,161.702 293.797,161.702 293.617 C 161.702 293.437,161.113 293.290,160.393 293.290 C 159.673 293.290,159.083 293.142,159.083 292.962 C 159.083 292.782,158.421 292.635,157.610 292.635 C 156.800 292.635,156.137 292.488,156.137 292.308 C 156.137 292.128,155.475 291.980,154.664 291.980 C 153.854 291.980,153.191 291.833,153.191 291.653 C 153.191 291.473,152.750 291.326,152.209 291.326 C 151.669 291.326,151.227 291.178,151.227 290.998 C 151.227 290.818,150.565 290.671,149.755 290.671 C 148.663 290.671,148.282 290.544,148.282 290.180 C 148.282 289.837,147.936 289.689,147.136 289.689 C 146.506 289.689,145.990 289.542,145.990 289.362 C 145.990 289.182,145.548 289.034,145.008 289.034 C 144.468 289.034,144.026 288.887,144.026 288.707 C 144.026 288.527,143.511 288.380,142.881 288.380 C 142.250 288.380,141.735 288.232,141.735 288.052 C 141.735 287.872,141.440 287.725,141.080 287.725 C 140.720 287.725,140.426 287.578,140.426 287.398 C 140.426 287.218,139.910 287.070,139.280 287.070 C 138.480 287.070,138.134 286.922,138.134 286.579 C 138.134 286.252,137.807 286.088,137.152 286.088 C 136.612 286.088,136.170 285.941,136.170 285.761 C 136.170 285.581,135.802 285.434,135.352 285.434 C 134.902 285.434,134.534 285.286,134.534 285.106 C 134.534 284.926,134.239 284.779,133.879 284.779 C 133.519 284.779,133.224 284.632,133.224 284.452 C 133.224 284.272,132.782 284.124,132.242 284.124 C 131.702 284.124,131.260 283.977,131.260 283.797 C 131.260 283.617,130.892 283.470,130.442 283.470 C 129.992 283.470,129.624 283.322,129.624 283.142 C 129.624 282.962,129.329 282.815,128.969 282.815 C 128.605 282.815,128.314 282.597,128.314 282.324 C 128.314 281.968,128.696 281.828,129.705 281.813 L 131.097 281.793 129.460 281.297 C 128.560 281.025,127.308 280.671,126.678 280.511 C 123.302 279.653,115.101 277.046,113.421 276.296 C 113.061 276.135,111.514 275.531,109.984 274.954 C 108.453 274.376,106.737 273.699,106.170 273.450 C 105.603 273.200,105.064 272.995,104.973 272.995 C 104.225 272.995,87.922 264.877,85.964 263.529 C 85.157 262.974,84.426 262.520,84.340 262.520 C 84.054 262.520,79.404 259.786,78.098 258.851 C 77.394 258.346,76.762 257.989,76.694 258.058 C 76.518 258.234,77.924 260.579,78.717 261.432 C 79.080 261.823,79.820 262.704,80.360 263.390 C 85.698 270.170,98.544 282.782,105.145 287.725 C 105.506 287.995,106.558 288.805,107.483 289.525 C 108.409 290.245,109.755 291.269,110.475 291.799 C 111.195 292.330,111.858 292.846,111.948 292.947 C 112.365 293.413,119.149 297.872,119.441 297.872 C 119.622 297.872,119.889 298.060,120.033 298.289 C 120.492 299.020,123.616 300.892,129.460 303.937 C 131.080 304.782,132.657 305.694,132.963 305.964 C 133.706 306.620,136.493 308.020,137.056 308.020 C 137.302 308.020,139.100 308.830,141.052 309.820 C 143.003 310.810,144.762 311.620,144.959 311.620 C 145.157 311.620,145.948 311.898,146.718 312.238 C 150.262 313.801,152.146 314.563,153.355 314.923 C 154.075 315.137,154.959 315.430,155.319 315.574 C 155.679 315.718,157.005 316.153,158.265 316.541 C 159.525 316.930,161.072 317.451,161.702 317.700 C 162.332 317.948,163.584 318.315,164.484 318.514 C 165.385 318.713,166.416 318.996,166.776 319.141 C 167.136 319.287,169.198 319.800,171.358 320.281 C 175.462 321.195,177.349 321.663,178.723 322.109 C 179.173 322.255,180.278 322.453,181.178 322.548 C 182.079 322.644,183.846 322.867,185.106 323.043 C 187.628 323.395,191.866 323.933,195.908 324.414 C 201.247 325.049,217.077 325.134,223.732 324.564 C 234.970 323.602,241.400 322.687,247.627 321.165 C 248.347 320.989,250.409 320.520,252.209 320.123 C 254.010 319.726,255.777 319.288,256.137 319.149 C 256.498 319.010,257.455 318.723,258.265 318.511 C 259.075 318.300,260.180 317.980,260.720 317.801 C 261.260 317.622,262.881 317.101,264.321 316.644 C 265.761 316.186,267.195 315.679,267.508 315.517 C 267.820 315.354,268.295 315.221,268.563 315.221 C 268.831 315.221,269.680 314.940,270.450 314.598 C 271.219 314.255,272.512 313.726,273.322 313.423 C 274.133 313.119,275.719 312.442,276.847 311.918 C 277.976 311.394,279.063 310.966,279.262 310.966 C 279.797 310.966,292.780 304.387,292.908 304.051 C 292.968 303.893,293.299 303.764,293.644 303.764 C 293.989 303.764,294.272 303.617,294.272 303.437 C 294.272 303.257,294.476 303.110,294.725 303.110 C 295.178 303.110,296.359 302.411,301.086 299.345 C 302.474 298.445,304.162 297.427,304.836 297.082 C 305.511 296.738,306.613 295.995,307.287 295.431 C 307.960 294.867,309.321 293.862,310.311 293.196 C 311.301 292.531,312.921 291.330,313.912 290.529 C 314.902 289.727,316.485 288.539,317.430 287.890 C 318.376 287.240,319.149 286.564,319.149 286.388 C 319.149 286.212,319.407 285.972,319.722 285.854 C 320.353 285.619,320.439 285.547,325.390 281.081 C 329.759 277.140,338.875 267.750,340.766 265.243 C 341.556 264.196,342.797 262.655,343.524 261.820 C 344.758 260.402,346.986 257.555,349.253 254.501 C 349.788 253.781,351.060 251.939,352.081 250.409 C 353.101 248.879,354.358 247.014,354.873 246.264 C 355.388 245.514,355.810 244.812,355.810 244.704 C 355.810 244.517,357.504 241.783,358.808 239.866 C 359.139 239.378,359.411 238.820,359.411 238.625 C 359.411 238.430,359.571 238.092,359.768 237.875 C 360.945 236.571,367.911 222.474,367.932 221.354 C 367.938 221.041,368.154 220.506,368.412 220.165 C 368.670 219.824,369.193 218.610,369.573 217.468 C 369.953 216.326,370.400 215.308,370.566 215.205 C 370.732 215.103,370.867 214.731,370.867 214.379 C 370.867 214.027,371.001 213.483,371.164 213.171 C 371.518 212.493,375.189 201.002,375.947 198.200 C 376.910 194.637,377.067 193.970,377.605 191.162 C 377.898 189.632,378.251 188.232,378.389 188.052 C 378.527 187.872,378.725 186.989,378.828 186.088 C 378.932 185.188,379.177 183.421,379.373 182.160 C 380.465 175.160,380.727 172.503,381.368 161.922 C 381.937 152.532,381.054 137.178,379.380 127.332 C 379.211 126.342,378.983 124.795,378.872 123.895 C 378.760 122.995,378.531 121.888,378.361 121.435 C 378.192 120.982,377.754 119.215,377.389 117.507 C 376.659 114.098,376.464 113.284,375.512 109.656 C 374.747 106.743,371.646 97.298,371.188 96.486 C 371.012 96.173,370.867 95.712,370.867 95.461 C 370.867 95.211,370.489 94.141,370.027 93.084 C 369.565 92.027,368.881 90.426,368.507 89.525 C 367.124 86.198,364.613 80.735,363.316 78.232 C 360.611 73.014,360.114 72.083,359.472 71.031 C 359.087 70.401,358.384 69.159,357.911 68.272 C 357.437 67.385,356.854 66.463,356.615 66.224 C 356.376 65.985,356.087 65.496,355.973 65.137 C 355.859 64.778,355.629 64.484,355.461 64.484 C 355.293 64.484,355.155 64.263,355.155 63.992 C 355.155 63.494,353.234 60.584,350.727 57.283 C 349.974 56.293,349.116 55.011,348.820 54.435 C 348.524 53.859,348.094 53.270,347.864 53.126 C 347.635 52.982,347.170 52.422,346.830 51.882 C 342.613 45.170,326.629 28.861,316.432 20.867 C 314.039 18.991,313.713 18.932,314.645 20.540 M252.622 42.785 C 253.030 42.863,253.619 42.860,253.932 42.778 C 254.245 42.696,253.912 42.632,253.191 42.636 C 252.471 42.639,252.215 42.706,252.622 42.785 M242.208 47.381 L 241.080 48.609 242.308 47.481 C 243.450 46.431,243.686 46.154,243.436 46.154 C 243.381 46.154,242.829 46.706,242.208 47.381 M286.520 58.265 C 286.520 59.435,286.580 59.914,286.653 59.329 C 286.725 58.744,286.725 57.786,286.653 57.201 C 286.580 56.616,286.520 57.095,286.520 58.265 M148.501 72.913 C 163.475 72.960,188.074 72.960,203.166 72.913 C 218.258 72.866,206.007 72.828,175.941 72.828 C 145.876 72.828,133.528 72.866,148.501 72.913 M108.096 86.743 C 108.096 87.373,108.163 87.631,108.245 87.316 C 108.328 87.001,108.328 86.485,108.245 86.170 C 108.163 85.855,108.096 86.113,108.096 86.743 M108.096 90.016 C 108.096 90.646,108.163 90.904,108.245 90.589 C 108.328 90.274,108.328 89.759,108.245 89.444 C 108.163 89.128,108.096 89.386,108.096 90.016 M342.530 100.000 C 342.630 101.260,342.713 103.016,342.715 103.901 C 342.716 104.786,342.821 105.406,342.948 105.279 C 343.297 104.930,343.067 98.825,342.683 98.229 C 342.445 97.860,342.400 98.374,342.530 100.000 M343.185 116.039 C 343.185 120.180,343.232 121.829,343.289 119.703 C 343.346 117.578,343.346 114.190,343.288 112.175 C 343.231 110.159,343.184 111.899,343.185 116.039 M342.772 127.332 C 342.411 132.849,342.407 133.401,342.740 132.079 C 342.921 131.358,343.019 129.738,342.958 128.478 C 342.897 127.218,342.813 126.702,342.772 127.332 M209.297 127.331 C 209.083 127.545,189.443 127.687,152.358 127.741 L 95.745 127.825 152.415 127.906 C 202.455 127.977,209.133 127.929,209.493 127.496 C 209.948 126.947,209.804 126.825,209.297 127.331 M341.979 135.679 C 341.567 139.502,341.089 142.684,340.135 147.954 C 339.956 148.944,339.717 150.270,339.605 150.900 C 339.468 151.666,339.501 151.883,339.703 151.555 C 339.870 151.285,340.260 149.591,340.568 147.791 C 340.877 145.990,341.266 143.900,341.432 143.145 C 341.599 142.390,341.735 141.270,341.735 140.657 C 341.735 140.043,341.890 139.097,342.079 138.554 C 342.268 138.011,342.379 136.627,342.324 135.478 L 342.226 133.388 341.979 135.679 M81.261 143.535 C 81.265 144.255,81.332 144.511,81.410 144.104 C 81.488 143.697,81.485 143.108,81.403 142.795 C 81.321 142.482,81.257 142.815,81.261 143.535 M338.019 157.283 C 336.632 162.687,336.172 165.119,336.999 162.684 C 337.967 159.832,338.134 159.193,338.134 158.343 C 338.134 157.871,338.282 157.394,338.462 157.283 C 338.642 157.172,338.789 156.638,338.789 156.097 C 338.789 155.555,338.945 154.820,339.137 154.462 C 339.328 154.105,339.439 153.489,339.382 153.093 C 339.326 152.697,338.713 154.583,338.019 157.283 M127.250 159.329 C 144.399 159.376,172.459 159.376,189.607 159.329 C 206.755 159.282,192.725 159.244,158.429 159.244 C 124.133 159.244,110.102 159.282,127.250 159.329 M334.843 168.640 C 333.480 172.879,332.533 175.504,331.825 177.004 C 331.634 177.409,331.561 177.824,331.664 177.927 C 331.766 178.029,332.298 176.953,332.845 175.535 C 334.300 171.760,336.588 164.629,336.403 164.444 C 336.315 164.356,335.613 166.244,334.843 168.640 M116.285 168.487 C 116.960 168.558,118.065 168.558,118.740 168.487 C 119.415 168.417,118.863 168.359,117.512 168.359 C 116.162 168.359,115.610 168.417,116.285 168.487 M200.082 168.487 C 200.757 168.558,201.862 168.558,202.537 168.487 C 203.212 168.417,202.660 168.359,201.309 168.359 C 199.959 168.359,199.407 168.417,200.082 168.487 M190.169 173.077 L 188.380 174.959 190.262 173.170 C 192.010 171.508,192.294 171.195,192.051 171.195 C 192.000 171.195,191.153 172.042,190.169 173.077 M330.783 179.774 C 329.545 182.886,327.565 187.225,325.455 191.451 C 324.513 193.338,323.810 194.950,323.893 195.033 C 324.031 195.172,329.624 183.900,329.624 183.482 C 329.624 183.309,330.587 181.061,331.348 179.460 C 331.540 179.056,331.618 178.644,331.520 178.547 C 331.422 178.449,331.091 179.001,330.783 179.774 M185.807 182.242 C 185.537 183.881,185.553 185.350,185.848 185.807 C 185.980 186.012,186.104 185.018,186.124 183.598 C 186.164 180.710,186.103 180.451,185.807 182.242 M132.991 183.797 C 132.993 184.697,133.057 185.027,133.132 184.529 C 133.207 184.031,133.205 183.295,133.127 182.892 C 133.050 182.490,132.988 182.897,132.991 183.797 M101.883 183.797 C 101.887 184.517,101.954 184.773,102.032 184.366 C 102.110 183.959,102.107 183.370,102.025 183.057 C 101.943 182.744,101.879 183.077,101.883 183.797 M128.135 194.845 L 126.841 196.236 128.232 194.942 C 129.526 193.738,129.774 193.453,129.526 193.453 C 129.473 193.453,128.847 194.079,128.135 194.845 M322.419 197.457 C 312.641 215.989,294.395 237.563,277.770 250.250 C 277.065 250.788,275.739 251.806,274.824 252.513 C 269.253 256.815,258.145 263.814,251.443 267.246 C 250.841 267.554,250.418 267.876,250.504 267.962 C 250.589 268.047,251.229 267.795,251.925 267.400 C 252.622 267.006,253.854 266.315,254.664 265.864 C 281.733 250.814,303.473 229.836,319.360 203.437 C 321.795 199.391,323.790 195.694,323.625 195.529 C 323.557 195.461,323.015 196.329,322.419 197.457 M246.809 269.583 C 245.278 270.364,244.190 271.009,244.390 271.017 C 244.725 271.030,249.687 268.589,250.037 268.239 C 250.444 267.832,249.343 268.291,246.809 269.583 M240.917 272.284 C 240.286 272.599,238.519 273.351,236.989 273.955 C 235.458 274.559,233.764 275.236,233.224 275.460 C 231.260 276.273,228.592 277.239,226.412 277.926 C 225.186 278.313,224.252 278.698,224.336 278.782 C 224.597 279.044,230.964 276.882,234.298 275.400 C 235.248 274.978,236.171 274.632,236.348 274.632 C 236.525 274.632,236.926 274.497,237.238 274.332 C 238.471 273.683,241.606 272.340,241.888 272.340 C 242.053 272.340,242.278 272.193,242.390 272.013 C 242.679 271.545,242.231 271.628,240.917 272.284 M221.604 279.439 C 220.013 279.965,218.503 280.400,216.694 280.856 C 216.064 281.014,215.033 281.294,214.403 281.478 L 213.257 281.812 214.403 281.693 C 216.211 281.506,223.895 279.357,223.895 279.038 C 223.895 278.794,223.174 278.920,221.604 279.439 M131.403 282.126 C 131.502 282.287,132.137 282.494,132.813 282.587 C 133.489 282.680,135.000 282.993,136.170 283.283 C 141.227 284.537,149.253 285.730,153.846 285.912 C 156.542 286.018,156.562 286.014,154.501 285.765 C 149.076 285.112,144.008 284.390,141.899 283.970 C 141.358 283.863,140.106 283.617,139.116 283.425 C 138.126 283.232,136.111 282.795,134.639 282.454 C 131.629 281.756,131.143 281.706,131.403 282.126 M211.457 282.160 C 210.675 282.411,210.685 282.424,211.683 282.455 C 212.257 282.473,212.818 282.340,212.930 282.160 C 213.162 281.784,212.632 281.784,211.457 282.160 M208.511 282.815 C 207.709 283.072,207.712 283.078,208.674 283.105 C 209.214 283.120,209.877 282.990,210.147 282.815 C 210.768 282.414,209.762 282.414,208.511 282.815 M205.813 283.330 C 205.634 283.509,204.700 283.679,199.509 284.472 C 192.896 285.483,188.773 285.928,181.506 286.415 L 177.578 286.679 182.160 286.545 C 186.799 286.410,190.948 286.073,195.417 285.469 C 203.795 284.335,209.642 283.142,206.819 283.142 C 206.369 283.142,205.917 283.227,205.813 283.330 M157.447 286.413 C 157.888 286.700,167.241 286.910,166.912 286.625 C 166.837 286.560,164.566 286.413,161.866 286.300 C 158.622 286.163,157.122 286.201,157.447 286.413 " stroke="none" fill="#ececec" fill-rule="evenodd"></path><path id="path4" d="M250.327 43.766 C 250.732 43.844,251.395 43.844,251.800 43.766 C 252.205 43.688,251.874 43.624,251.064 43.624 C 250.254 43.624,249.922 43.688,250.327 43.766 M259.186 43.780 C 262.123 43.835,266.836 43.834,269.661 43.780 C 272.485 43.726,270.082 43.681,264.321 43.681 C 258.560 43.681,256.249 43.726,259.186 43.780 M245.008 45.780 C 242.730 47.186,239.803 50.963,239.136 53.355 C 239.010 53.805,239.449 53.112,240.110 51.815 C 241.243 49.594,243.383 47.188,245.499 45.759 C 246.609 45.009,246.231 45.026,245.008 45.780 M281.342 47.791 C 282.045 48.511,282.694 49.100,282.784 49.100 C 282.874 49.100,282.373 48.511,281.669 47.791 C 280.966 47.070,280.317 46.481,280.227 46.481 C 280.137 46.481,280.639 47.070,281.342 47.791 M285.152 54.010 C 285.152 54.280,285.279 54.795,285.434 55.155 C 285.611 55.568,285.715 55.629,285.715 55.319 C 285.715 55.049,285.588 54.534,285.434 54.173 C 285.256 53.761,285.152 53.700,285.152 54.010 M237.338 57.796 C 236.594 59.722,236.039 61.353,236.105 61.419 C 236.171 61.485,236.844 59.972,237.600 58.058 C 238.356 56.143,238.910 54.513,238.832 54.435 C 238.754 54.357,238.082 55.870,237.338 57.796 M285.859 58.265 C 285.859 59.255,285.921 59.660,285.996 59.165 C 286.071 58.670,286.071 57.860,285.996 57.365 C 285.921 56.870,285.859 57.275,285.859 58.265 M234.403 65.336 C 233.648 67.252,233.087 68.875,233.155 68.944 C 233.223 69.012,233.898 67.501,234.654 65.586 C 235.410 63.672,235.971 62.048,235.901 61.978 C 235.831 61.909,235.157 63.419,234.403 65.336 M284.710 63.675 C 284.609 64.030,284.426 64.615,284.304 64.975 C 284.182 65.336,284.322 65.216,284.615 64.710 C 284.908 64.204,285.091 63.619,285.021 63.409 C 284.951 63.200,284.811 63.319,284.710 63.675 M282.516 67.594 C 281.769 68.584,281.015 69.394,280.840 69.394 C 280.666 69.394,280.524 69.567,280.524 69.779 C 280.524 70.320,282.048 68.839,283.193 67.185 C 284.570 65.196,284.123 65.466,282.516 67.594 M231.727 72.098 L 231.260 73.159 176.596 73.324 L 121.931 73.489 176.694 73.569 L 231.457 73.650 231.951 72.469 C 232.568 70.991,232.363 70.652,231.727 72.098 M272.995 72.995 C 271.895 73.347,273.083 73.347,274.468 72.995 C 275.350 72.771,275.367 72.745,274.632 72.739 C 274.182 72.736,273.445 72.851,272.995 72.995 M263.169 73.821 C 262.941 74.096,262.849 74.415,262.965 74.531 C 263.080 74.646,263.175 74.564,263.175 74.348 C 263.175 74.133,263.507 73.823,263.912 73.660 C 264.410 73.460,264.476 73.357,264.115 73.343 C 263.822 73.332,263.396 73.547,263.169 73.821 M119.313 73.977 C 118.900 74.154,118.839 74.258,119.149 74.258 C 119.419 74.258,119.935 74.132,120.295 73.977 C 120.707 73.800,120.768 73.696,120.458 73.696 C 120.188 73.696,119.673 73.822,119.313 73.977 M117.185 74.795 C 116.735 75.053,116.514 75.263,116.694 75.263 C 116.874 75.263,117.390 75.053,117.840 74.795 C 118.290 74.538,118.511 74.328,118.331 74.328 C 118.151 74.328,117.635 74.538,117.185 74.795 M113.061 77.664 C 111.234 79.659,110.825 80.362,112.527 78.581 C 113.462 77.602,114.183 76.758,114.129 76.704 C 114.075 76.650,113.594 77.082,113.061 77.664 M260.966 79.127 C 260.383 80.369,260.461 80.878,261.058 79.732 C 261.332 79.207,261.516 78.660,261.466 78.516 C 261.416 78.372,261.191 78.647,260.966 79.127 M108.884 85.175 C 108.774 85.587,108.699 86.367,108.717 86.907 C 108.741 87.584,108.836 87.385,109.023 86.262 C 109.309 84.552,109.226 83.900,108.884 85.175 M256.383 90.917 C 255.985 91.928,255.710 92.808,255.774 92.871 C 255.837 92.934,256.221 92.165,256.628 91.162 C 257.036 90.159,257.310 89.279,257.238 89.207 C 257.166 89.135,256.781 89.905,256.383 90.917 M108.746 90.016 C 108.742 90.466,108.857 91.203,109.002 91.653 C 109.354 92.753,109.354 91.565,109.002 90.180 C 108.777 89.298,108.751 89.281,108.746 90.016 M109.984 94.704 C 109.984 96.842,116.842 102.770,119.313 102.767 C 119.673 102.767,119.154 102.432,118.159 102.023 C 114.807 100.644,113.145 99.271,111.159 96.243 C 110.513 95.257,109.984 94.564,109.984 94.704 M253.406 98.469 C 252.658 100.422,252.055 102.154,252.067 102.319 C 252.079 102.484,252.746 100.942,253.551 98.892 C 254.355 96.843,254.958 95.110,254.890 95.043 C 254.822 94.975,254.155 96.517,253.406 98.469 M120.716 103.168 C 121.024 103.291,143.252 103.401,170.112 103.414 C 196.971 103.427,219.023 103.561,219.117 103.712 C 219.210 103.863,218.629 105.655,217.825 107.693 C 217.021 109.731,216.419 111.455,216.488 111.523 C 216.556 111.591,217.298 109.920,218.137 107.810 C 219.388 104.662,219.585 103.897,219.236 103.548 C 218.892 103.203,209.431 103.105,169.483 103.034 C 142.352 102.986,120.407 103.046,120.716 103.168 M251.228 103.978 C 250.953 104.636,250.803 105.250,250.896 105.342 C 250.988 105.435,251.064 105.430,251.064 105.332 C 251.064 105.234,251.287 104.620,251.559 103.968 C 251.832 103.316,251.981 102.782,251.891 102.782 C 251.801 102.782,251.502 103.320,251.228 103.978 M249.467 108.580 C 248.903 109.982,248.449 111.277,248.458 111.457 C 248.466 111.637,248.982 110.543,249.603 109.026 C 250.224 107.510,250.678 106.215,250.612 106.150 C 250.547 106.084,250.031 107.178,249.467 108.580 M214.403 116.444 C 210.969 125.354,209.812 128.117,209.410 128.372 C 209.099 128.570,209.096 128.633,209.399 128.637 C 209.980 128.644,216.681 112.480,216.268 112.067 C 216.197 111.997,215.358 113.966,214.403 116.444 M246.358 116.523 C 245.620 118.369,245.734 118.644,246.511 116.892 C 246.862 116.100,247.091 115.395,247.020 115.323 C 246.949 115.252,246.651 115.792,246.358 116.523 M244.891 120.167 C 244.506 121.095,244.196 122.019,244.204 122.220 C 244.211 122.421,244.579 121.714,245.022 120.649 C 245.464 119.584,245.773 118.659,245.709 118.595 C 245.645 118.531,245.277 119.238,244.891 120.167 M242.103 127.325 C 241.365 129.171,241.478 129.446,242.256 127.694 C 242.607 126.902,242.836 126.197,242.765 126.125 C 242.693 126.054,242.396 126.594,242.103 127.325 M93.453 128.977 C 93.016 129.171,93.288 129.203,94.272 129.073 C 95.082 128.965,95.806 128.825,95.881 128.760 C 96.165 128.513,94.079 128.701,93.453 128.977 M90.998 129.787 C 89.929 130.398,90.303 130.405,91.697 129.800 C 92.303 129.537,92.578 129.321,92.308 129.321 C 92.038 129.320,91.448 129.530,90.998 129.787 M240.970 130.129 C 240.760 130.588,240.595 131.141,240.602 131.357 C 240.609 131.574,240.832 131.250,241.098 130.638 C 241.657 129.349,241.539 128.879,240.970 130.129 M88.024 131.562 C 86.349 132.776,84.122 135.191,84.683 135.186 C 84.826 135.185,85.287 134.678,85.707 134.061 C 86.128 133.443,87.270 132.389,88.244 131.717 C 89.845 130.615,90.234 130.278,89.906 130.278 C 89.845 130.278,88.998 130.856,88.024 131.562 M83.698 136.476 C 83.392 136.994,83.143 137.541,83.144 137.694 C 83.144 137.846,83.447 137.475,83.816 136.870 C 84.185 136.264,84.434 135.717,84.370 135.652 C 84.306 135.588,84.004 135.959,83.698 136.476 M82.517 139.473 C 82.296 140.212,82.175 140.877,82.249 140.951 C 82.323 141.024,82.564 140.480,82.785 139.741 C 83.007 139.002,83.128 138.338,83.054 138.264 C 82.980 138.190,82.739 138.734,82.517 139.473 M237.369 139.294 C 237.160 139.753,236.994 140.306,237.001 140.523 C 237.008 140.739,237.232 140.416,237.497 139.803 C 238.057 138.514,237.938 138.044,237.369 139.294 M235.570 144.081 C 235.274 144.835,235.085 145.505,235.151 145.571 C 235.216 145.636,235.515 145.076,235.816 144.326 C 236.116 143.576,236.304 142.906,236.235 142.836 C 236.165 142.767,235.866 143.327,235.570 144.081 M82.206 146.318 C 82.206 146.588,82.333 147.103,82.488 147.463 C 82.665 147.876,82.769 147.936,82.769 147.627 C 82.769 147.357,82.642 146.841,82.488 146.481 C 82.310 146.069,82.206 146.008,82.206 146.318 M232.894 150.510 C 231.736 152.738,229.418 155.157,227.510 156.130 C 226.747 156.520,226.197 156.912,226.288 157.002 C 226.522 157.237,228.923 155.670,230.465 154.278 C 231.654 153.203,234.296 149.080,233.990 148.775 C 233.920 148.705,233.427 149.486,232.894 150.510 M85.469 153.149 C 86.535 154.523,90.230 157.342,90.547 157.025 C 90.632 156.941,90.068 156.501,89.295 156.047 C 88.521 155.594,87.094 154.435,86.123 153.471 C 84.418 151.778,84.396 151.767,85.469 153.149 M91.921 157.616 C 94.325 158.735,97.507 158.785,160.229 158.687 C 219.296 158.595,222.510 158.560,224.173 157.996 C 225.136 157.670,225.866 157.344,225.794 157.273 C 225.723 157.202,224.935 157.396,224.044 157.704 C 221.935 158.434,96.292 158.586,93.577 157.862 C 92.745 157.640,91.788 157.380,91.450 157.284 C 91.111 157.188,91.323 157.337,91.921 157.616 M116.130 169.144 C 116.900 169.213,118.078 169.212,118.748 169.141 C 119.419 169.071,118.789 169.014,117.349 169.016 C 115.908 169.017,115.360 169.074,116.130 169.144 M196.988 169.535 C 194.799 170.235,192.575 171.480,191.653 172.520 C 191.282 172.938,191.667 172.752,192.542 172.090 C 194.815 170.371,197.378 169.504,200.982 169.236 L 204.092 169.004 201.473 168.971 C 199.758 168.950,198.210 169.145,196.988 169.535 M120.784 169.472 C 123.679 170.012,128.050 173.067,129.663 175.678 C 130.043 176.292,130.430 176.716,130.525 176.622 C 130.764 176.383,129.089 174.224,127.507 172.733 C 125.916 171.234,122.011 169.214,120.823 169.275 L 119.967 169.320 120.784 169.472 M205.401 169.731 C 206.121 169.991,206.858 170.193,207.038 170.181 C 207.618 170.143,205.424 169.260,204.746 169.260 C 204.386 169.260,204.681 169.472,205.401 169.731 M110.580 170.549 C 109.558 171.077,108.609 171.696,108.471 171.925 C 108.271 172.257,108.322 172.259,108.722 171.935 C 108.998 171.712,110.168 171.093,111.322 170.559 C 112.476 170.025,113.200 169.588,112.930 169.589 C 112.660 169.589,111.602 170.021,110.580 170.549 M207.529 170.368 C 207.529 170.453,208.007 170.768,208.592 171.068 C 211.403 172.505,213.548 174.974,214.952 178.388 C 215.362 179.383,215.700 179.962,215.704 179.676 C 215.717 178.833,213.860 175.372,212.616 173.918 C 211.230 172.299,207.529 169.716,207.529 170.368 M106.839 173.241 C 106.299 173.826,105.654 174.599,105.406 174.959 C 104.979 175.576,106.121 174.444,107.498 172.883 C 108.491 171.758,107.923 172.066,106.839 173.241 M189.706 174.507 C 189.234 175.069,188.629 175.990,188.363 176.553 C 188.097 177.117,188.066 177.299,188.293 176.957 C 188.521 176.616,189.185 175.696,189.769 174.912 C 190.999 173.260,190.961 173.016,189.706 174.507 M104.145 177.005 C 103.807 177.680,103.439 178.674,103.328 179.214 C 103.137 180.150,103.144 180.157,103.477 179.378 C 103.670 178.928,104.106 177.934,104.446 177.169 C 105.211 175.450,104.985 175.327,104.145 177.005 M187.120 179.416 C 186.823 180.336,186.594 181.552,186.611 182.116 C 186.635 182.861,186.761 182.603,187.071 181.178 C 187.306 180.098,187.604 178.883,187.732 178.478 C 187.860 178.073,187.897 177.741,187.813 177.741 C 187.729 177.741,187.417 178.495,187.120 179.416 M131.306 178.723 C 131.306 178.993,131.433 179.509,131.588 179.869 C 131.765 180.282,131.869 180.342,131.869 180.033 C 131.869 179.763,131.742 179.247,131.588 178.887 C 131.410 178.474,131.306 178.414,131.306 178.723 M102.905 183.797 C 102.906 185.777,102.959 186.545,103.025 185.504 C 103.090 184.462,103.089 182.842,103.023 181.903 C 102.957 180.964,102.904 181.817,102.905 183.797 M215.848 183.797 C 215.845 186.997,215.877 187.202,216.137 185.640 C 216.307 184.617,216.308 183.111,216.140 182.039 C 215.878 180.370,215.851 180.536,215.848 183.797 M131.990 183.797 C 131.988 186.635,132.027 186.868,132.281 185.549 C 132.452 184.657,132.453 183.301,132.283 182.275 C 132.015 180.666,131.991 180.789,131.990 183.797 M186.752 186.025 C 187.020 189.118,191.408 196.590,192.383 195.614 C 192.459 195.539,191.847 194.855,191.023 194.096 C 189.211 192.426,187.563 189.221,186.998 186.270 L 186.588 184.124 186.752 186.025 M131.291 188.459 C 131.071 189.136,130.808 189.910,130.707 190.180 C 130.585 190.508,130.633 190.562,130.852 190.344 C 131.252 189.946,132.037 187.575,131.836 187.374 C 131.757 187.295,131.512 187.783,131.291 188.459 M103.766 189.623 C 103.763 190.076,104.787 191.885,104.952 191.720 C 105.038 191.634,104.807 191.068,104.438 190.462 C 104.069 189.857,103.766 189.479,103.766 189.623 M214.109 191.003 C 213.152 192.806,210.641 195.300,208.595 196.479 C 207.739 196.972,207.205 197.377,207.410 197.379 C 209.129 197.391,215.865 190.551,214.992 189.678 C 214.927 189.613,214.530 190.209,214.109 191.003 M129.643 191.949 C 129.264 192.561,128.356 193.604,127.623 194.266 C 126.891 194.927,126.356 195.532,126.434 195.610 C 126.625 195.801,129.749 192.478,130.239 191.563 C 130.848 190.425,130.409 190.709,129.643 191.949 M105.896 193.208 C 106.925 194.451,109.114 196.266,110.377 196.922 C 111.983 197.757,111.814 197.393,110.147 196.427 C 108.525 195.487,105.728 192.952,105.728 192.420 C 105.728 192.268,105.568 192.144,105.372 192.144 C 105.176 192.144,105.412 192.623,105.896 193.208 M122.259 197.557 C 121.718 197.804,121.498 198.008,121.768 198.010 C 122.038 198.011,122.627 197.802,123.077 197.545 C 124.112 196.953,123.559 196.961,122.259 197.557 M195.745 197.545 C 196.195 197.802,196.784 198.012,197.054 198.012 C 197.324 198.011,197.049 197.795,196.444 197.532 C 195.050 196.927,194.676 196.934,195.745 197.545 M114.629 198.413 C 115.598 198.686,119.021 198.677,120.295 198.398 C 120.835 198.280,119.611 198.187,117.575 198.191 C 115.540 198.196,114.214 198.295,114.629 198.413 M198.527 198.400 C 199.067 198.517,200.319 198.613,201.309 198.613 C 202.300 198.613,203.552 198.517,204.092 198.400 C 204.632 198.283,203.380 198.187,201.309 198.187 C 199.239 198.187,197.987 198.283,198.527 198.400 " stroke="none" fill="#b4bcca" fill-rule="evenodd"></path><path id="path5" d="M259.021 43.453 C 261.507 43.508,265.485 43.508,267.859 43.452 C 270.234 43.397,268.200 43.351,263.339 43.351 C 258.478 43.351,256.535 43.397,259.021 43.453 M286.164 58.265 C 286.164 58.895,286.232 59.153,286.314 58.838 C 286.396 58.523,286.396 58.007,286.314 57.692 C 286.232 57.377,286.164 57.635,286.164 58.265 M281.654 69.149 L 280.360 70.540 281.751 69.246 C 283.045 68.043,283.293 67.758,283.045 67.758 C 282.992 67.758,282.366 68.384,281.654 69.149 M145.581 103.682 C 158.948 103.730,180.822 103.730,194.190 103.682 C 207.557 103.635,196.620 103.596,169.885 103.596 C 143.151 103.596,132.214 103.635,145.581 103.682 M85.434 153.621 C 85.434 153.678,85.912 154.156,86.498 154.685 L 87.561 155.646 86.600 154.583 C 85.704 153.591,85.434 153.368,85.434 153.621 M116.121 168.816 C 116.886 168.885,118.138 168.885,118.903 168.816 C 119.669 168.747,119.043 168.690,117.512 168.690 C 115.982 168.690,115.356 168.747,116.121 168.816 M199.918 168.816 C 200.683 168.885,201.935 168.885,202.700 168.816 C 203.466 168.747,202.840 168.690,201.309 168.690 C 199.779 168.690,199.153 168.747,199.918 168.816 M106.710 172.995 C 105.915 173.805,105.338 174.468,105.428 174.468 C 105.518 174.468,106.243 173.805,107.038 172.995 C 107.833 172.185,108.410 171.522,108.320 171.522 C 108.230 171.522,107.505 172.185,106.710 172.995 M216.449 183.797 C 216.453 184.517,216.520 184.773,216.598 184.366 C 216.676 183.959,216.673 183.370,216.592 183.057 C 216.510 182.744,216.446 183.077,216.449 183.797 M132.646 183.961 C 132.646 184.591,132.713 184.849,132.795 184.534 C 132.878 184.218,132.878 183.703,132.795 183.388 C 132.713 183.073,132.646 183.331,132.646 183.961 M211.927 194.517 L 210.966 195.581 212.029 194.620 C 212.615 194.091,213.093 193.612,213.093 193.556 C 213.093 193.303,212.823 193.526,211.927 194.517 " stroke="none" fill="#d0d4dc" fill-rule="evenodd"></path><path id="path6" d="M116.939 198.916 C 117.255 198.999,117.770 198.999,118.085 198.916 C 118.400 198.834,118.142 198.767,117.512 198.767 C 116.882 198.767,116.624 198.834,116.939 198.916 " stroke="none" fill="#c8ccd4" fill-rule="evenodd"></path><path id="path7" d="M266.215 73.565 C 267.257 73.630,268.877 73.629,269.816 73.563 C 270.754 73.497,269.902 73.444,267.921 73.445 C 265.941 73.446,265.173 73.500,266.215 73.565 M124.141 128.560 C 139.759 128.607,165.315 128.607,180.933 128.560 C 196.551 128.513,183.773 128.474,152.537 128.474 C 121.301 128.474,108.523 128.513,124.141 128.560 M81.916 143.535 C 81.919 144.255,81.986 144.511,82.065 144.104 C 82.143 143.697,82.140 143.108,82.058 142.795 C 81.976 142.482,81.912 142.815,81.916 143.535 M190.650 173.241 L 189.689 174.304 190.753 173.343 C 191.338 172.814,191.817 172.336,191.817 172.279 C 191.817 172.026,191.547 172.249,190.650 173.241 M102.544 183.633 C 102.544 184.444,102.608 184.775,102.686 184.370 C 102.764 183.965,102.764 183.302,102.686 182.897 C 102.608 182.492,102.544 182.823,102.544 183.633 " stroke="none" fill="#bcc4cc" fill-rule="evenodd"></path><path id="path8" d="M148.854 73.241 C 163.842 73.288,188.367 73.288,203.355 73.241 C 218.343 73.193,206.080 73.155,176.105 73.155 C 146.129 73.155,133.867 73.193,148.854 73.241 M124.141 128.232 C 139.759 128.279,165.315 128.279,180.933 128.232 C 196.551 128.185,183.773 128.147,152.537 128.147 C 121.301 128.147,108.523 128.185,124.141 128.232 M81.588 143.535 C 81.592 144.255,81.659 144.511,81.737 144.104 C 81.816 143.697,81.813 143.108,81.731 142.795 C 81.649 142.482,81.585 142.815,81.588 143.535 M127.879 159.002 C 144.833 159.048,172.672 159.048,189.745 159.002 C 206.817 158.955,192.946 158.916,158.920 158.916 C 124.894 158.916,110.925 158.955,127.879 159.002 M102.232 183.633 C 102.232 184.804,102.292 185.282,102.364 184.697 C 102.437 184.112,102.437 183.155,102.364 182.570 C 102.292 181.984,102.232 182.463,102.232 183.633 M322.321 199.190 C 322.203 199.546,321.961 200.168,321.783 200.573 C 321.606 200.978,321.568 201.309,321.698 201.309 C 322.046 201.309,322.827 199.413,322.671 198.945 C 322.593 198.711,322.447 198.814,322.321 199.190 M320.017 203.427 C 318.750 205.335,318.289 206.988,319.432 205.527 C 320.129 204.635,321.492 201.907,321.324 201.739 C 321.262 201.677,320.674 202.437,320.017 203.427 M317.818 207.131 C 317.562 207.710,317.241 208.183,317.105 208.183 C 316.969 208.183,316.858 208.369,316.858 208.596 C 316.858 208.823,316.489 209.405,316.039 209.891 C 315.589 210.376,315.221 210.860,315.221 210.966 C 315.221 211.223,312.103 215.834,311.542 216.407 C 311.300 216.655,310.666 217.464,310.133 218.206 C 308.706 220.194,306.499 223.074,306.000 223.600 C 305.761 223.852,305.130 224.648,304.599 225.368 C 304.069 226.088,303.406 226.899,303.126 227.169 C 302.847 227.439,301.882 228.541,300.982 229.619 C 299.098 231.875,288.360 242.629,286.375 244.248 C 285.642 244.846,284.504 245.829,283.847 246.432 C 283.189 247.034,282.136 247.918,281.506 248.396 C 280.876 248.873,280.160 249.453,279.915 249.686 C 279.670 249.918,278.270 251.016,276.805 252.125 C 275.340 253.235,274.092 254.260,274.032 254.404 C 273.972 254.547,273.726 254.664,273.486 254.664 C 273.246 254.664,273.001 254.782,272.941 254.927 C 272.787 255.295,268.559 258.265,268.187 258.265 C 268.019 258.265,267.596 258.523,267.247 258.838 C 266.323 259.672,263.899 261.211,263.509 261.211 C 263.326 261.211,263.175 261.358,263.175 261.538 C 263.175 261.718,262.954 261.866,262.684 261.866 C 262.414 261.866,262.193 262.002,262.193 262.169 C 262.193 262.336,261.935 262.540,261.620 262.622 C 261.138 262.748,261.151 262.778,261.702 262.808 C 262.062 262.829,263.167 262.333,264.157 261.707 C 265.147 261.081,266.620 260.235,267.430 259.826 C 268.241 259.418,269.124 258.847,269.394 258.557 C 269.664 258.268,270.217 257.927,270.622 257.799 C 271.027 257.671,271.358 257.439,271.358 257.283 C 271.358 257.127,271.646 256.909,271.996 256.797 C 272.347 256.686,273.070 256.197,273.602 255.712 C 274.134 255.226,275.057 254.534,275.653 254.173 C 277.703 252.935,278.789 252.118,281.856 249.509 C 282.756 248.744,283.604 248.118,283.741 248.118 C 283.879 248.118,285.019 247.124,286.276 245.908 C 287.532 244.693,289.127 243.272,289.820 242.751 C 291.342 241.606,300.164 232.743,300.164 232.359 C 300.164 232.210,300.918 231.329,301.841 230.401 C 302.763 229.474,303.863 228.206,304.286 227.584 C 304.708 226.961,305.510 225.913,306.067 225.255 C 307.359 223.729,311.168 218.614,312.442 216.694 C 312.979 215.884,313.514 215.147,313.629 215.057 C 313.745 214.967,314.166 214.268,314.564 213.502 C 314.961 212.737,315.419 212.111,315.581 212.111 C 315.743 212.111,315.876 211.954,315.876 211.761 C 315.876 211.569,316.285 210.795,316.786 210.043 C 318.088 208.084,318.591 207.002,318.427 206.509 C 318.346 206.265,318.082 206.534,317.818 207.131 M258.637 264.321 C 257.721 264.951,256.710 265.478,256.391 265.492 C 256.026 265.509,255.967 265.581,256.233 265.688 C 256.710 265.879,260.047 264.386,260.780 263.653 C 261.727 262.706,260.370 263.129,258.637 264.321 " stroke="none" fill="#dcdce4" fill-rule="evenodd"></path></g></svg>