<svg id="svg" version="1.1" xmlns="http://www.w3.org/2000/svg" xmlns:xlink="http://www.w3.org/1999/xlink" width="400" height="366.25310173697267" viewBox="0, 0, 400,366.25310173697267"><g id="svgg"><path id="path0" d="M255.238 103.350 C 249.646 104.153,246.024 107.859,242.762 116.117 C 242.563 116.621,240.971 120.659,239.223 125.092 L 236.046 133.150 179.653 133.344 C 140.445 133.479,122.869 133.660,121.978 133.938 C 109.377 137.868,106.837 154.380,117.759 161.367 C 121.368 163.676,117.957 163.530,173.077 163.733 C 230.148 163.943,224.122 163.589,222.914 166.667 C 222.637 167.372,221.997 169.020,221.490 170.330 C 220.121 173.870,218.318 178.471,217.973 179.304 C 217.807 179.707,217.416 180.696,217.106 181.502 C 215.481 185.725,214.183 188.858,213.956 189.102 C 213.816 189.253,187.171 189.417,154.744 189.468 L 95.788 189.560 93.685 190.410 C 78.605 196.500,81.182 217.476,97.292 219.770 C 99.367 220.066,118.063 220.151,163.553 220.073 L 226.923 219.963 229.271 219.116 C 234.596 217.193,237.072 214.320,240.061 206.593 C 243.551 197.573,247.024 188.721,247.605 187.363 C 247.777 186.960,249.028 183.745,250.384 180.220 C 251.741 176.694,253.067 173.315,253.332 172.711 C 253.598 172.106,254.566 169.634,255.484 167.216 C 256.402 164.799,257.313 162.491,257.509 162.088 C 257.705 161.685,258.613 159.377,259.528 156.960 C 260.442 154.542,261.346 152.234,261.535 151.832 C 261.725 151.429,262.805 148.709,263.936 145.788 C 269.333 131.847,268.224 133.334,273.225 133.331 C 280.131 133.327,283.689 132.234,286.946 129.113 C 295.153 121.249,292.017 107.095,281.319 103.715 C 279.892 103.264,257.972 102.958,255.238 103.350 M115.123 231.285 C 102.585 235.333,101.111 253.432,112.862 259.050 C 128.412 266.485,142.427 247.377,130.462 235.054 C 126.878 231.362,120.066 229.689,115.123 231.285 M200.722 231.266 C 186.507 235.879,187.196 256.508,201.692 260.283 C 214.820 263.703,225.364 249.089,218.112 237.526 C 214.678 232.050,206.915 229.256,200.722 231.266 " stroke="none" fill="#8594a4" fill-rule="evenodd"></path><path id="path1" d="M0.000 183.150 L 0.000 366.300 63.828 366.245 C 98.933 366.215,127.202 366.122,126.648 366.038 C 126.089 365.953,125.641 365.652,125.641 365.360 C 125.641 365.044,125.276 364.835,124.725 364.835 C 124.155 364.835,123.810 364.628,123.810 364.286 C 123.810 363.984,123.562 363.736,123.260 363.736 C 122.958 363.736,122.711 363.571,122.711 363.370 C 122.711 363.168,122.216 363.004,121.612 363.004 C 120.879 363.004,120.513 362.821,120.513 362.454 C 120.513 362.152,120.348 361.905,120.147 361.905 C 119.945 361.905,119.780 361.658,119.780 361.355 C 119.780 360.989,119.414 360.806,118.681 360.806 C 118.077 360.806,117.582 360.629,117.582 360.413 C 117.582 359.906,116.651 358.974,116.143 358.974 C 115.928 358.974,115.751 358.727,115.751 358.425 C 115.751 358.059,115.385 357.875,114.652 357.875 C 114.048 357.875,113.553 357.699,113.553 357.483 C 113.553 356.784,112.531 356.044,111.565 356.044 C 110.972 356.044,110.623 355.840,110.623 355.495 C 110.623 355.192,110.458 354.945,110.256 354.945 C 110.055 354.945,109.890 354.698,109.890 354.396 C 109.890 354.093,109.643 353.846,109.341 353.846 C 109.038 353.846,108.791 353.599,108.791 353.297 C 108.791 352.951,108.442 352.747,107.849 352.747 C 106.883 352.747,105.861 352.007,105.861 351.308 C 105.861 351.092,105.614 350.916,105.311 350.916 C 105.009 350.916,104.762 350.668,104.762 350.366 C 104.762 350.064,104.515 349.817,104.212 349.817 C 103.910 349.817,103.663 349.652,103.663 349.451 C 103.663 349.249,103.251 349.084,102.747 349.084 C 101.974 349.084,101.832 348.913,101.832 347.985 C 101.832 347.009,101.709 346.886,100.733 346.886 C 100.128 346.886,99.634 346.710,99.634 346.494 C 99.634 345.987,98.702 345.055,98.195 345.055 C 97.979 345.055,97.802 344.808,97.802 344.505 C 97.802 344.203,97.555 343.956,97.253 343.956 C 96.951 343.956,96.703 343.779,96.703 343.564 C 96.703 343.056,95.771 342.125,95.264 342.125 C 95.048 342.125,94.872 341.877,94.872 341.575 C 94.872 341.273,94.625 341.026,94.322 341.026 C 94.020 341.026,93.773 340.778,93.773 340.476 C 93.773 340.174,93.608 339.927,93.407 339.927 C 93.205 339.927,93.040 339.679,93.040 339.377 C 93.040 339.075,92.793 338.828,92.491 338.828 C 92.189 338.828,91.941 338.663,91.941 338.462 C 91.941 338.260,91.694 338.095,91.392 338.095 C 91.090 338.095,90.842 337.848,90.842 337.546 C 90.842 337.244,90.595 336.996,90.293 336.996 C 89.991 336.996,89.744 336.749,89.744 336.447 C 89.744 336.105,89.398 335.897,88.828 335.897 C 88.095 335.897,87.912 335.714,87.912 334.982 C 87.912 334.412,87.705 334.066,87.363 334.066 C 87.060 334.066,86.813 333.889,86.813 333.673 C 86.813 333.166,85.881 332.234,85.374 332.234 C 85.158 332.234,84.982 331.987,84.982 331.685 C 84.982 331.383,84.734 331.136,84.432 331.136 C 84.130 331.136,83.883 330.888,83.883 330.586 C 83.883 330.284,83.636 330.037,83.333 330.037 C 82.991 330.037,82.784 329.691,82.784 329.121 C 82.784 328.617,82.619 328.205,82.418 328.205 C 82.216 328.205,82.051 327.958,82.051 327.656 C 82.051 327.353,81.804 327.106,81.502 327.106 C 81.200 327.106,80.952 326.859,80.952 326.557 C 80.952 326.255,80.776 326.007,80.560 326.007 C 79.861 326.007,79.121 324.985,79.121 324.019 C 79.121 323.426,78.917 323.077,78.571 323.077 C 78.269 323.077,78.022 322.830,78.022 322.527 C 78.022 322.225,77.775 321.978,77.473 321.978 C 77.170 321.978,76.923 321.823,76.923 321.633 C 76.923 320.722,77.876 320.969,80.133 322.464 C 81.490 323.363,83.342 324.510,84.249 325.013 C 85.156 325.516,86.804 326.450,87.912 327.089 C 89.020 327.728,90.380 328.442,90.934 328.675 C 91.488 328.908,91.941 329.227,91.941 329.384 C 91.941 329.542,92.104 329.670,92.303 329.670 C 92.501 329.670,95.427 330.999,98.805 332.622 C 105.455 335.820,106.389 336.247,108.608 337.104 C 109.414 337.415,111.327 338.172,112.858 338.787 C 119.968 341.637,127.066 343.686,141.026 346.919 C 144.901 347.816,152.360 348.852,161.538 349.767 C 173.130 350.922,195.428 349.826,206.777 347.543 C 208.791 347.137,211.264 346.662,212.271 346.487 C 220.767 345.010,236.319 339.993,245.971 335.616 C 248.473 334.481,260.705 328.375,261.538 327.845 C 261.841 327.653,264.281 326.167,266.961 324.544 C 288.944 311.228,308.247 292.369,322.453 270.330 C 332.983 253.992,342.025 232.701,345.447 216.184 C 345.627 215.315,345.855 214.473,345.953 214.315 C 346.204 213.908,347.983 203.666,348.375 200.366 C 348.554 198.855,348.783 197.207,348.883 196.703 C 351.339 184.298,349.680 152.938,345.782 138.095 C 345.597 137.390,344.940 134.719,344.322 132.160 C 342.700 125.440,339.366 115.496,336.775 109.652 C 336.494 109.017,336.264 108.399,336.264 108.280 C 336.264 107.539,328.735 92.225,327.042 89.521 C 326.271 88.290,325.641 87.109,325.641 86.896 C 325.641 86.682,325.517 86.453,325.366 86.386 C 325.215 86.319,324.762 85.609,324.359 84.808 C 323.956 84.008,323.008 82.421,322.253 81.282 C 320.796 79.087,320.527 78.022,321.429 78.022 C 321.731 78.022,321.978 78.269,321.978 78.571 C 321.978 78.874,322.225 79.121,322.527 79.121 C 322.830 79.121,323.077 79.286,323.077 79.487 C 323.077 79.689,323.324 79.853,323.626 79.853 C 323.929 79.853,324.176 80.101,324.176 80.403 C 324.176 80.705,324.341 80.952,324.542 80.952 C 324.744 80.952,324.908 81.200,324.908 81.502 C 324.908 81.868,325.275 82.051,326.007 82.051 C 326.612 82.051,327.106 82.216,327.106 82.418 C 327.106 82.619,327.353 82.784,327.656 82.784 C 327.958 82.784,328.205 83.031,328.205 83.333 C 328.205 83.636,328.370 83.883,328.571 83.883 C 328.773 83.883,328.938 84.130,328.938 84.432 C 328.938 84.799,329.304 84.982,330.037 84.982 C 330.965 84.982,331.136 85.124,331.136 85.897 C 331.136 86.630,331.319 86.813,332.051 86.813 C 332.621 86.813,332.967 87.021,332.967 87.363 C 332.967 87.665,333.214 87.912,333.516 87.912 C 333.819 87.912,334.066 88.159,334.066 88.462 C 334.066 88.764,334.243 89.011,334.458 89.011 C 334.966 89.011,335.897 89.943,335.897 90.450 C 335.897 90.666,336.145 90.842,336.447 90.842 C 336.749 90.842,336.996 91.090,336.996 91.392 C 336.996 91.694,337.244 91.941,337.546 91.941 C 337.848 91.941,338.095 92.118,338.095 92.334 C 338.095 92.841,339.027 93.773,339.534 93.773 C 339.750 93.773,339.927 94.020,339.927 94.322 C 339.927 94.625,340.174 94.872,340.476 94.872 C 340.778 94.872,341.026 95.048,341.026 95.264 C 341.026 95.771,341.958 96.703,342.465 96.703 C 342.681 96.703,342.857 96.951,342.857 97.253 C 342.857 97.555,343.104 97.802,343.407 97.802 C 343.709 97.802,343.956 98.049,343.956 98.352 C 343.956 98.654,344.203 98.901,344.505 98.901 C 344.847 98.901,345.055 99.247,345.055 99.817 C 345.055 100.549,345.238 100.733,345.971 100.733 C 346.744 100.733,346.886 100.904,346.886 101.832 C 346.886 102.436,347.063 102.930,347.279 102.930 C 347.786 102.930,348.718 103.862,348.718 104.369 C 348.718 104.585,348.965 104.762,349.267 104.762 C 349.570 104.762,349.817 105.009,349.817 105.311 C 349.817 105.614,350.064 105.861,350.366 105.861 C 350.708 105.861,350.916 106.207,350.916 106.777 C 350.916 107.509,351.099 107.692,351.832 107.692 C 352.605 107.692,352.747 107.863,352.747 108.791 C 352.747 109.524,352.930 109.890,353.297 109.890 C 353.599 109.890,353.846 110.055,353.846 110.256 C 353.846 110.458,354.093 110.623,354.396 110.623 C 354.698 110.623,354.945 110.870,354.945 111.172 C 354.945 111.474,355.110 111.722,355.311 111.722 C 355.513 111.722,355.678 112.134,355.678 112.637 C 355.678 113.207,355.885 113.553,356.227 113.553 C 356.529 113.553,356.777 113.800,356.777 114.103 C 356.777 114.405,357.024 114.652,357.326 114.652 C 357.692 114.652,357.875 115.018,357.875 115.751 C 357.875 116.355,358.052 116.850,358.268 116.850 C 358.967 116.850,359.707 117.872,359.707 118.838 C 359.707 119.431,359.910 119.780,360.256 119.780 C 360.559 119.780,360.806 119.945,360.806 120.147 C 360.806 120.348,361.053 120.513,361.355 120.513 C 361.722 120.513,361.905 120.879,361.905 121.612 C 361.905 122.216,362.070 122.711,362.271 122.711 C 362.473 122.711,362.637 122.958,362.637 123.260 C 362.637 123.562,362.885 123.810,363.187 123.810 C 363.529 123.810,363.736 124.155,363.736 124.725 C 363.736 125.295,363.944 125.641,364.286 125.641 C 364.628 125.641,364.835 125.987,364.835 126.557 C 364.835 127.127,365.043 127.473,365.385 127.473 C 365.687 127.473,365.934 127.720,365.934 128.022 C 365.934 128.324,366.099 128.571,366.300 128.571 C 366.502 128.571,366.667 128.819,366.667 129.121 C 366.667 129.423,366.914 129.670,367.216 129.670 C 367.613 129.670,367.766 130.077,367.766 131.136 C 367.766 132.194,367.918 132.601,368.315 132.601 C 368.617 132.601,368.864 132.848,368.864 133.150 C 368.864 133.452,369.029 133.700,369.231 133.700 C 369.432 133.700,369.597 134.112,369.597 134.615 C 369.597 135.185,369.805 135.531,370.147 135.531 C 370.513 135.531,370.696 135.897,370.696 136.630 C 370.696 137.363,370.879 137.729,371.245 137.729 C 371.587 137.729,371.795 138.075,371.795 138.645 C 371.795 139.148,371.960 139.560,372.161 139.560 C 372.363 139.560,372.527 140.220,372.527 141.026 C 372.527 142.084,372.680 142.491,373.077 142.491 C 373.379 142.491,373.626 142.738,373.626 143.040 C 373.626 143.342,373.874 143.590,374.176 143.590 C 374.573 143.590,374.725 143.997,374.725 145.055 C 374.725 146.113,374.878 146.520,375.275 146.520 C 375.632 146.520,375.824 146.878,375.824 147.546 C 375.824 148.848,376.600 150.543,377.198 150.547 C 377.487 150.548,377.656 151.088,377.656 152.015 C 377.656 153.073,377.808 153.480,378.205 153.480 C 378.602 153.480,378.755 153.887,378.755 154.945 C 378.755 155.751,378.919 156.410,379.121 156.410 C 379.322 156.410,379.487 157.070,379.487 157.875 C 379.487 158.934,379.640 159.341,380.037 159.341 C 380.433 159.341,380.586 159.748,380.586 160.806 C 380.586 161.864,380.739 162.271,381.136 162.271 C 381.532 162.271,381.685 162.678,381.685 163.736 C 381.685 164.794,381.838 165.201,382.234 165.201 C 382.641 165.201,382.784 165.629,382.784 166.850 C 382.784 167.756,382.949 168.498,383.150 168.498 C 383.352 168.498,383.516 169.322,383.516 170.330 C 383.516 171.713,383.651 172.161,384.066 172.161 C 384.463 172.161,384.615 172.568,384.615 173.626 C 384.615 174.685,384.768 175.092,385.165 175.092 C 385.601 175.092,385.714 175.621,385.714 177.656 C 385.714 179.121,385.871 180.220,386.081 180.220 C 386.294 180.220,386.447 181.441,386.447 183.150 C 386.447 185.511,386.554 186.081,386.996 186.081 C 387.418 186.081,387.546 186.549,387.546 188.095 C 387.546 189.642,387.673 190.110,388.095 190.110 C 388.554 190.110,388.645 190.863,388.645 194.689 C 388.645 198.514,388.735 199.267,389.194 199.267 C 389.675 199.267,389.744 201.425,389.744 216.484 C 389.744 231.543,389.675 233.700,389.194 233.700 C 388.739 233.700,388.645 234.392,388.645 237.729 C 388.645 241.066,388.550 241.758,388.095 241.758 C 387.663 241.758,387.546 242.267,387.546 244.139 C 387.546 246.011,387.428 246.520,386.996 246.520 C 386.551 246.520,386.447 247.110,386.447 249.634 C 386.447 251.465,386.296 252.747,386.081 252.747 C 385.874 252.747,385.714 253.785,385.714 255.128 C 385.714 257.000,385.597 257.509,385.165 257.509 C 384.768 257.509,384.615 257.916,384.615 258.974 C 384.615 260.033,384.463 260.440,384.066 260.440 C 383.644 260.440,383.516 260.908,383.516 262.454 C 383.516 263.562,383.352 264.469,383.150 264.469 C 382.949 264.469,382.784 265.128,382.784 265.934 C 382.784 266.992,382.631 267.399,382.234 267.399 C 381.868 267.399,381.685 267.766,381.685 268.498 C 381.685 269.231,381.502 269.597,381.136 269.597 C 380.714 269.597,380.586 270.065,380.586 271.612 C 380.586 273.158,380.458 273.626,380.037 273.626 C 379.640 273.626,379.487 274.033,379.487 275.092 C 379.487 275.897,379.322 276.557,379.121 276.557 C 378.919 276.557,378.755 277.216,378.755 278.022 C 378.755 279.080,378.602 279.487,378.205 279.487 C 377.863 279.487,377.656 279.833,377.656 280.403 C 377.656 280.973,377.448 281.319,377.106 281.319 C 376.740 281.319,376.557 281.685,376.557 282.418 C 376.557 283.022,376.392 283.516,376.190 283.516 C 375.989 283.516,375.824 284.176,375.824 284.982 C 375.824 286.040,375.672 286.447,375.275 286.447 C 374.933 286.447,374.725 286.793,374.725 287.363 C 374.725 287.932,374.518 288.278,374.176 288.278 C 373.810 288.278,373.626 288.645,373.626 289.377 C 373.626 290.110,373.443 290.476,373.077 290.476 C 372.680 290.476,372.527 290.883,372.527 291.941 C 372.527 292.747,372.363 293.407,372.161 293.407 C 371.960 293.407,371.795 293.819,371.795 294.322 C 371.795 294.892,371.587 295.238,371.245 295.238 C 370.943 295.238,370.696 295.485,370.696 295.788 C 370.696 296.090,370.449 296.337,370.147 296.337 C 369.805 296.337,369.597 296.683,369.597 297.253 C 369.597 297.756,369.432 298.168,369.231 298.168 C 369.029 298.168,368.864 298.663,368.864 299.267 C 368.864 300.000,368.681 300.366,368.315 300.366 C 367.973 300.366,367.766 300.712,367.766 301.282 C 367.766 301.852,367.558 302.198,367.216 302.198 C 366.870 302.198,366.667 302.547,366.667 303.140 C 366.667 304.106,365.927 305.128,365.228 305.128 C 365.012 305.128,364.835 305.623,364.835 306.227 C 364.835 306.960,364.652 307.326,364.286 307.326 C 363.944 307.326,363.736 307.672,363.736 308.242 C 363.736 308.812,363.529 309.158,363.187 309.158 C 362.885 309.158,362.637 309.405,362.637 309.707 C 362.637 310.009,362.473 310.256,362.271 310.256 C 362.070 310.256,361.905 310.504,361.905 310.806 C 361.905 311.108,361.658 311.355,361.355 311.355 C 361.013 311.355,360.806 311.701,360.806 312.271 C 360.806 312.841,360.598 313.187,360.256 313.187 C 359.954 313.187,359.707 313.434,359.707 313.736 C 359.707 314.038,359.542 314.286,359.341 314.286 C 359.139 314.286,358.974 314.698,358.974 315.201 C 358.974 315.771,358.767 316.117,358.425 316.117 C 358.123 316.117,357.875 316.364,357.875 316.667 C 357.875 316.969,357.628 317.216,357.326 317.216 C 356.984 317.216,356.777 317.562,356.777 318.132 C 356.777 318.702,356.569 319.048,356.227 319.048 C 355.925 319.048,355.678 319.295,355.678 319.597 C 355.678 319.899,355.513 320.147,355.311 320.147 C 355.110 320.147,354.945 320.394,354.945 320.696 C 354.945 320.998,354.698 321.245,354.396 321.245 C 354.093 321.245,353.846 321.410,353.846 321.612 C 353.846 321.813,353.599 321.978,353.297 321.978 C 352.930 321.978,352.747 322.344,352.747 323.077 C 352.747 323.681,352.582 324.176,352.381 324.176 C 352.179 324.176,352.015 324.423,352.015 324.725 C 352.015 325.027,351.767 325.275,351.465 325.275 C 351.163 325.275,350.916 325.440,350.916 325.641 C 350.916 325.842,350.668 326.007,350.366 326.007 C 350.000 326.007,349.817 326.374,349.817 327.106 C 349.817 327.711,349.640 328.205,349.424 328.205 C 349.209 328.205,348.796 328.441,348.509 328.728 C 348.221 329.016,347.985 329.428,347.985 329.644 C 347.985 329.860,347.738 330.037,347.436 330.037 C 347.134 330.037,346.886 330.284,346.886 330.586 C 346.886 330.888,346.639 331.136,346.337 331.136 C 346.035 331.136,345.788 331.383,345.788 331.685 C 345.788 331.987,345.623 332.234,345.421 332.234 C 345.220 332.234,345.055 332.647,345.055 333.150 C 345.055 333.923,344.884 334.066,343.956 334.066 C 343.223 334.066,342.857 334.249,342.857 334.615 C 342.857 334.918,342.610 335.165,342.308 335.165 C 341.966 335.165,341.758 335.511,341.758 336.081 C 341.758 336.813,341.575 336.996,340.842 336.996 C 340.273 336.996,339.927 337.204,339.927 337.546 C 339.927 337.848,339.750 338.095,339.534 338.095 C 339.318 338.095,338.906 338.331,338.619 338.619 C 338.331 338.906,338.095 339.318,338.095 339.534 C 338.095 339.750,337.848 339.927,337.546 339.927 C 337.244 339.927,336.996 340.174,336.996 340.476 C 336.996 340.778,336.749 341.026,336.447 341.026 C 336.145 341.026,335.897 341.202,335.897 341.418 C 335.897 341.634,335.662 342.046,335.374 342.334 C 335.086 342.622,334.674 342.857,334.458 342.857 C 334.243 342.857,334.066 343.352,334.066 343.956 C 334.066 344.892,333.926 345.055,333.124 345.055 C 332.158 345.055,331.136 345.795,331.136 346.494 C 331.136 346.710,330.888 346.886,330.586 346.886 C 330.284 346.886,330.037 347.122,330.037 347.410 C 330.037 347.699,329.666 347.987,329.212 348.051 C 328.683 348.127,328.346 348.463,328.271 348.993 C 328.180 349.633,327.915 349.817,327.081 349.817 C 326.371 349.817,326.007 350.003,326.007 350.366 C 326.007 350.668,325.760 350.916,325.458 350.916 C 325.156 350.916,324.908 351.092,324.908 351.308 C 324.908 351.524,324.673 351.936,324.385 352.224 C 324.097 352.512,323.685 352.747,323.469 352.747 C 323.254 352.747,323.077 352.995,323.077 353.297 C 323.077 353.599,322.830 353.846,322.527 353.846 C 322.225 353.846,321.978 354.093,321.978 354.396 C 321.978 354.737,321.632 354.945,321.062 354.945 C 320.492 354.945,320.147 355.153,320.147 355.495 C 320.147 355.797,319.899 356.044,319.597 356.044 C 319.295 356.044,319.048 356.209,319.048 356.410 C 319.048 356.612,318.636 356.777,318.132 356.777 C 317.562 356.777,317.216 356.984,317.216 357.326 C 317.216 357.628,316.969 357.875,316.667 357.875 C 316.364 357.875,316.117 358.123,316.117 358.425 C 316.117 358.767,315.771 358.974,315.201 358.974 C 314.698 358.974,314.286 359.139,314.286 359.341 C 314.286 359.542,314.038 359.707,313.736 359.707 C 313.434 359.707,313.187 359.954,313.187 360.256 C 313.187 360.559,312.940 360.806,312.637 360.806 C 312.335 360.806,312.088 361.053,312.088 361.355 C 312.088 361.697,311.742 361.905,311.172 361.905 C 310.602 361.905,310.256 362.112,310.256 362.454 C 310.256 362.756,310.009 363.004,309.707 363.004 C 309.405 363.004,309.158 363.168,309.158 363.370 C 309.158 363.571,308.745 363.736,308.242 363.736 C 307.672 363.736,307.326 363.944,307.326 364.286 C 307.326 364.588,307.079 364.835,306.777 364.835 C 306.474 364.835,306.227 365.071,306.227 365.360 C 306.227 365.652,305.779 365.953,305.220 366.038 C 304.666 366.122,325.765 366.215,352.106 366.245 L 400.000 366.300 400.000 183.150 L 400.000 0.000 200.000 0.000 L 0.000 0.000 0.000 183.150 M281.174 102.754 C 285.037 104.034,289.135 107.378,290.622 110.463 C 291.004 111.256,291.469 112.210,291.655 112.583 C 292.601 114.477,292.540 123.060,291.578 123.381 C 291.375 123.449,291.209 123.878,291.209 124.335 C 291.209 126.924,284.017 133.333,281.112 133.333 C 280.702 133.333,280.160 133.539,279.909 133.791 C 279.600 134.100,277.791 134.290,274.344 134.376 L 269.236 134.502 268.598 136.299 C 268.247 137.287,267.834 138.095,267.680 138.095 C 267.525 138.095,267.399 138.419,267.399 138.815 C 267.399 139.212,267.166 140.077,266.880 140.738 C 266.595 141.400,266.092 142.601,265.764 143.407 C 265.435 144.212,265.030 145.124,264.864 145.433 C 264.698 145.742,264.446 146.523,264.304 147.169 C 264.162 147.815,263.894 148.437,263.708 148.552 C 263.522 148.667,263.370 149.068,263.370 149.442 C 263.370 149.817,263.133 150.590,262.843 151.161 C 262.553 151.731,262.051 152.857,261.726 153.663 C 261.402 154.469,260.980 155.414,260.788 155.764 C 260.596 156.114,260.440 156.722,260.440 157.116 C 260.440 157.510,260.299 157.919,260.127 158.026 C 259.954 158.132,259.440 159.337,258.983 160.703 C 258.527 162.069,258.031 163.352,257.882 163.553 C 257.732 163.755,257.502 164.373,257.370 164.927 C 257.237 165.481,256.967 165.934,256.770 165.934 C 256.572 165.934,256.410 166.333,256.410 166.820 C 256.410 167.307,256.178 168.173,255.895 168.743 C 255.611 169.314,255.184 170.275,254.945 170.879 C 254.706 171.484,254.279 172.445,253.995 173.015 C 253.712 173.585,253.480 174.337,253.480 174.685 C 253.480 175.033,253.238 175.638,252.942 176.029 C 252.646 176.420,252.399 177.101,252.393 177.542 C 252.386 177.984,252.229 178.439,252.043 178.554 C 251.857 178.669,251.597 179.256,251.464 179.858 C 251.332 180.460,251.093 180.952,250.933 180.952 C 250.774 180.952,250.538 181.612,250.409 182.418 C 250.280 183.223,250.012 183.883,249.813 183.883 C 249.613 183.883,249.451 184.262,249.451 184.725 C 249.451 185.189,249.311 185.724,249.141 185.916 C 248.971 186.107,248.451 187.335,247.985 188.645 C 247.520 189.954,247.000 191.182,246.830 191.374 C 246.659 191.565,246.520 192.081,246.520 192.519 C 246.520 192.958,246.273 193.522,245.971 193.773 C 245.668 194.024,245.421 194.611,245.421 195.078 C 245.421 195.545,245.275 196.018,245.096 196.128 C 244.918 196.239,244.663 196.908,244.530 197.615 C 244.398 198.322,244.132 198.901,243.939 198.901 C 243.747 198.901,243.585 199.272,243.578 199.725 C 243.572 200.179,243.324 200.869,243.029 201.260 C 242.733 201.652,242.491 202.256,242.491 202.604 C 242.491 202.953,242.259 203.704,241.975 204.274 C 241.284 205.665,240.754 206.968,240.475 207.967 C 240.348 208.420,240.090 208.791,239.902 208.791 C 239.714 208.791,239.560 209.196,239.560 209.691 C 239.560 211.837,233.955 218.681,232.197 218.681 C 231.815 218.681,231.502 218.843,231.502 219.041 C 231.502 219.238,231.049 219.508,230.495 219.641 C 229.940 219.773,229.256 220.065,228.973 220.289 C 228.247 220.864,95.730 220.870,94.469 220.295 C 89.293 217.933,88.235 217.150,85.853 213.919 C 81.774 208.386,81.952 200.134,86.264 194.898 C 87.666 193.196,89.400 191.617,90.119 191.389 C 90.517 191.263,90.842 191.006,90.842 190.818 C 90.842 190.630,91.024 190.476,91.245 190.476 C 91.466 190.476,92.167 190.245,92.802 189.963 C 93.437 189.681,94.368 189.313,94.872 189.145 C 95.375 188.977,122.226 188.755,154.539 188.651 C 206.256 188.484,213.326 188.396,213.587 187.912 C 214.152 186.868,214.950 184.795,215.174 183.791 C 215.298 183.237,215.560 182.784,215.758 182.784 C 215.956 182.784,216.117 182.405,216.117 181.941 C 216.117 181.478,216.262 180.942,216.438 180.751 C 216.615 180.560,217.111 179.369,217.540 178.104 C 218.333 175.769,218.452 175.483,219.535 173.322 C 219.871 172.651,220.147 171.874,220.147 171.594 C 220.147 171.315,220.417 170.463,220.747 169.701 C 221.077 168.939,221.508 167.903,221.705 167.399 C 221.902 166.896,222.223 166.176,222.417 165.799 C 223.081 164.514,222.078 164.486,171.602 164.386 L 121.062 164.286 119.319 163.287 C 115.971 161.369,112.853 158.636,112.830 157.601 C 112.825 157.349,112.672 157.143,112.490 157.143 C 112.167 157.143,111.955 156.673,110.584 152.930 C 109.353 149.567,109.768 145.405,111.752 141.209 C 113.188 138.171,118.366 133.700,120.447 133.700 C 120.853 133.700,121.253 133.494,121.337 133.242 C 121.458 132.879,133.357 132.746,178.544 132.601 L 235.599 132.418 236.139 130.952 C 236.435 130.147,236.766 129.158,236.874 128.755 C 236.981 128.352,237.300 127.503,237.582 126.868 C 237.864 126.233,238.095 125.532,238.095 125.311 C 238.095 125.090,238.260 124.908,238.462 124.908 C 238.663 124.908,238.829 124.620,238.830 124.267 C 238.831 123.915,239.079 123.154,239.380 122.577 C 239.681 122.000,239.927 121.325,239.927 121.077 C 239.927 120.653,240.644 118.927,241.416 117.496 C 241.604 117.146,241.758 116.676,241.758 116.452 C 241.758 116.228,242.018 115.443,242.335 114.707 C 242.652 113.972,243.123 112.875,243.382 112.271 C 244.531 109.591,244.990 108.903,246.912 106.983 C 248.962 104.934,252.172 102.930,253.404 102.930 C 253.768 102.930,254.223 102.778,254.414 102.592 C 255.241 101.789,278.690 101.930,281.174 102.754 M125.337 230.650 C 126.008 230.987,127.040 231.508,127.630 231.808 C 131.488 233.769,134.722 238.357,135.598 243.111 C 136.037 245.489,135.548 250.802,134.848 251.265 C 134.681 251.375,134.434 251.918,134.299 252.473 C 134.163 253.027,133.890 253.480,133.693 253.480 C 133.495 253.480,133.333 253.712,133.333 253.996 C 133.333 254.476,130.107 257.967,128.902 258.791 C 127.626 259.664,126.036 260.440,125.523 260.440 C 125.219 260.440,124.901 260.646,124.817 260.897 C 124.706 261.231,123.414 261.355,120.043 261.355 C 116.834 261.355,115.281 261.215,114.963 260.897 C 114.712 260.646,114.147 260.440,113.708 260.440 C 113.269 260.440,112.705 260.192,112.454 259.890 C 112.203 259.588,111.855 259.341,111.680 259.341 C 111.112 259.341,108.291 256.804,106.880 255.025 C 104.467 251.982,102.987 243.871,104.342 241.112 C 104.514 240.762,104.963 239.817,105.342 239.011 C 106.301 236.966,107.301 235.581,108.763 234.273 C 109.453 233.655,110.202 232.966,110.429 232.740 C 112.853 230.328,122.113 229.030,125.337 230.650 M211.447 230.798 C 212.202 231.082,212.821 231.439,212.821 231.591 C 212.821 231.744,213.062 231.868,213.357 231.868 C 213.653 231.868,214.400 232.363,215.018 232.967 C 215.637 233.571,216.302 234.066,216.496 234.066 C 216.691 234.066,216.850 234.213,216.850 234.394 C 216.850 234.574,217.259 235.110,217.759 235.584 C 218.259 236.059,218.672 236.653,218.675 236.905 C 218.678 237.157,218.814 237.363,218.977 237.363 C 219.389 237.363,220.429 239.817,220.932 241.972 C 221.674 245.152,221.228 250.714,220.143 251.798 C 219.944 251.998,219.780 252.393,219.780 252.676 C 219.780 253.767,214.693 259.341,213.698 259.341 C 213.466 259.341,213.071 259.588,212.821 259.890 C 212.570 260.192,212.006 260.440,211.567 260.440 C 211.128 260.440,210.563 260.646,210.311 260.897 C 209.996 261.212,208.493 261.355,205.495 261.355 C 202.496 261.355,200.993 261.212,200.678 260.897 C 200.426 260.646,199.920 260.440,199.553 260.440 C 197.793 260.440,192.916 256.198,191.402 253.350 C 189.144 249.105,188.930 242.322,190.939 238.724 C 192.164 236.529,195.285 232.967,195.983 232.967 C 196.178 232.967,196.337 232.831,196.337 232.666 C 196.337 232.500,197.120 231.995,198.077 231.544 C 199.034 231.093,200.064 230.574,200.366 230.391 C 201.209 229.879,209.850 230.197,211.447 230.798 " stroke="none" fill="#fafafb" fill-rule="evenodd"></path><path id="path2" d="M254.428 102.779 C 253.438 103.048,252.457 103.440,252.248 103.649 C 252.039 103.858,251.654 104.029,251.393 104.029 C 249.422 104.029,245.017 108.804,243.592 112.484 C 243.170 113.576,242.573 115.046,242.266 115.751 C 241.960 116.456,241.578 117.363,241.418 117.766 C 241.258 118.168,240.857 119.122,240.527 119.884 C 240.197 120.647,239.927 121.497,239.927 121.773 C 239.927 122.050,239.534 123.075,239.053 124.050 C 238.573 125.026,237.898 126.648,237.554 127.656 C 237.209 128.663,236.696 130.007,236.412 130.641 C 236.129 131.276,235.897 131.958,235.897 132.155 C 235.897 132.913,232.737 132.957,178.292 132.962 C 147.515 132.965,122.048 133.109,121.698 133.283 C 121.348 133.456,120.073 134.075,118.864 134.656 C 107.076 140.331,107.539 157.449,119.632 163.047 L 121.913 164.103 172.290 164.103 C 226.282 164.103,223.587 163.998,222.607 166.057 C 222.058 167.211,221.915 167.557,220.690 170.696 C 219.519 173.699,219.016 174.901,218.664 175.544 C 218.472 175.894,218.315 176.364,218.315 176.588 C 218.315 176.812,218.090 177.515,217.815 178.150 C 217.540 178.785,217.024 180.046,216.667 180.952 C 216.310 181.859,215.814 183.095,215.564 183.700 C 215.315 184.304,214.822 185.579,214.468 186.533 C 214.113 187.487,213.626 188.432,213.384 188.633 C 213.097 188.871,192.409 189.032,153.816 189.096 C 95.873 189.192,94.659 189.209,93.223 189.914 C 79.071 196.871,79.846 215.021,94.505 219.948 C 97.050 220.803,226.471 220.786,228.938 219.930 C 234.706 217.929,237.641 214.674,240.471 207.143 C 241.000 205.733,241.672 204.112,241.962 203.542 C 242.253 202.971,242.491 202.284,242.491 202.015 C 242.491 201.745,242.723 201.058,243.006 200.488 C 243.290 199.917,243.682 199.038,243.878 198.535 C 244.074 198.031,244.521 196.877,244.872 195.971 C 245.222 195.064,245.650 193.993,245.821 193.590 C 245.993 193.187,246.472 191.951,246.886 190.842 C 247.300 189.734,247.780 188.498,247.952 188.095 C 248.123 187.692,248.551 186.621,248.901 185.714 C 249.252 184.808,249.677 183.736,249.846 183.333 C 250.832 180.985,252.158 177.552,252.818 175.641 C 253.235 174.432,253.691 173.278,253.830 173.077 C 253.969 172.875,254.627 171.227,255.292 169.414 C 255.957 167.601,256.893 165.247,257.372 164.184 C 257.850 163.121,258.242 162.096,258.242 161.907 C 258.242 161.718,258.475 161.022,258.761 160.360 C 259.613 158.383,260.302 156.670,260.790 155.311 C 261.043 154.606,261.468 153.535,261.734 152.930 C 263.100 149.823,263.370 149.113,263.370 148.632 C 263.370 148.344,263.472 148.006,263.596 147.881 C 263.976 147.501,266.288 141.613,266.294 141.007 C 266.298 140.695,266.456 140.283,266.645 140.092 C 266.835 139.900,267.461 138.507,268.036 136.996 L 269.082 134.249 274.010 134.026 C 282.877 133.625,287.867 131.026,290.457 125.458 C 290.925 124.451,291.484 123.246,291.698 122.780 C 292.219 121.652,292.232 114.629,291.716 113.517 C 291.492 113.033,290.948 111.860,290.507 110.910 C 288.775 107.180,284.644 103.909,280.236 102.780 C 277.222 102.008,257.261 102.007,254.428 102.779 M281.319 103.715 C 292.017 107.095,295.153 121.249,286.946 129.113 C 283.689 132.234,280.131 133.327,273.225 133.331 C 268.224 133.334,269.333 131.847,263.936 145.788 C 262.805 148.709,261.725 151.429,261.535 151.832 C 261.346 152.234,260.442 154.542,259.528 156.960 C 258.613 159.377,257.705 161.685,257.509 162.088 C 257.313 162.491,256.402 164.799,255.484 167.216 C 254.566 169.634,253.598 172.106,253.332 172.711 C 253.067 173.315,251.741 176.694,250.384 180.220 C 249.028 183.745,247.777 186.960,247.605 187.363 C 247.024 188.721,243.551 197.573,240.061 206.593 C 237.072 214.320,234.596 217.193,229.271 219.116 L 226.923 219.963 163.553 220.073 C 118.063 220.151,99.367 220.066,97.292 219.770 C 81.182 217.476,78.605 196.500,93.685 190.410 L 95.788 189.560 154.744 189.468 C 187.171 189.417,213.816 189.253,213.956 189.102 C 214.183 188.858,215.481 185.725,217.106 181.502 C 217.416 180.696,217.807 179.707,217.973 179.304 C 218.318 178.471,220.121 173.870,221.490 170.330 C 221.997 169.020,222.637 167.372,222.914 166.667 C 224.122 163.589,230.148 163.943,173.077 163.733 C 117.957 163.530,121.368 163.676,117.759 161.367 C 106.837 154.380,109.377 137.868,121.978 133.938 C 122.869 133.660,140.445 133.479,179.653 133.344 L 236.046 133.150 239.223 125.092 C 240.971 120.659,242.563 116.621,242.762 116.117 C 246.024 107.859,249.646 104.153,255.238 103.350 C 257.972 102.958,279.892 103.264,281.319 103.715 M346.929 138.736 C 346.898 139.608,347.046 139.927,347.481 139.927 C 347.910 139.927,347.972 139.800,347.703 139.469 C 347.499 139.217,347.251 138.681,347.152 138.278 C 347.033 137.797,346.957 137.955,346.929 138.736 M347.756 141.804 C 347.882 142.434,347.985 143.258,347.985 143.636 C 347.985 144.013,348.150 144.322,348.352 144.322 C 348.757 144.322,348.831 142.766,348.487 141.484 C 348.144 140.203,347.493 140.489,347.756 141.804 M348.718 146.886 C 348.718 147.945,348.871 148.352,349.267 148.352 C 349.664 148.352,349.817 147.945,349.817 146.886 C 349.817 145.828,349.664 145.421,349.267 145.421 C 348.871 145.421,348.718 145.828,348.718 146.886 M349.817 156.777 C 349.817 158.486,349.939 158.974,350.366 158.974 C 350.794 158.974,350.916 158.486,350.916 156.777 C 350.916 155.067,350.794 154.579,350.366 154.579 C 349.939 154.579,349.817 155.067,349.817 156.777 M350.913 160.714 C 350.911 160.865,350.848 167.253,350.773 174.908 C 350.698 182.564,350.451 190.147,350.224 191.758 C 349.334 198.070,349.041 200.288,348.744 202.949 C 348.575 204.471,348.242 206.696,348.005 207.894 C 346.800 213.973,346.435 215.629,346.151 216.300 C 345.980 216.703,345.736 217.692,345.609 218.498 C 345.481 219.304,345.231 220.458,345.053 221.062 C 344.875 221.667,344.463 223.150,344.138 224.359 C 343.813 225.568,343.392 226.843,343.202 227.193 C 343.012 227.543,342.857 228.177,342.857 228.603 C 342.857 229.028,342.626 229.896,342.344 230.531 C 342.062 231.166,341.383 233.004,340.837 234.615 C 339.791 237.698,339.366 238.773,337.434 243.223 C 337.215 243.727,336.689 244.963,336.264 245.971 C 334.828 249.375,334.714 249.633,334.409 250.183 C 334.241 250.485,333.080 252.760,331.829 255.237 C 329.935 258.987,325.985 265.974,324.539 268.132 C 324.337 268.434,324.060 268.929,323.924 269.231 C 323.788 269.533,323.047 270.639,322.278 271.688 C 321.509 272.737,320.879 273.680,320.879 273.784 C 320.879 274.484,310.496 287.971,307.704 290.899 C 307.194 291.433,306.009 292.752,305.071 293.829 C 299.518 300.205,288.873 309.950,281.502 315.406 C 280.293 316.301,279.112 317.198,278.878 317.399 C 278.316 317.882,273.376 321.244,270.147 323.342 C 266.714 325.572,260.895 328.938,260.473 328.938 C 260.287 328.938,260.079 329.067,260.012 329.226 C 259.904 329.481,258.513 330.226,251.465 333.802 C 248.609 335.252,244.844 336.923,241.392 338.275 C 240.485 338.630,239.249 339.129,238.645 339.385 C 238.040 339.640,237.134 340.011,236.630 340.209 C 236.126 340.406,235.220 340.776,234.615 341.031 C 234.011 341.286,232.940 341.625,232.234 341.785 C 231.529 341.944,229.716 342.513,228.205 343.048 C 225.275 344.084,220.674 345.374,218.864 345.665 C 218.260 345.762,217.518 345.942,217.216 346.065 C 215.199 346.884,206.737 348.452,199.084 349.425 C 197.271 349.656,194.551 350.022,193.040 350.239 C 191.529 350.456,184.483 350.718,177.381 350.821 C 166.763 350.975,164.469 351.097,164.469 351.511 C 164.469 351.887,165.074 352.015,166.850 352.015 C 168.193 352.015,169.231 352.174,169.231 352.381 C 169.231 352.607,171.123 352.747,174.176 352.747 C 178.327 352.747,179.121 352.835,179.121 353.297 C 179.121 353.763,180.037 353.846,185.165 353.846 C 190.293 353.846,191.209 353.929,191.209 354.396 C 191.209 354.853,191.941 354.945,195.604 354.945 C 199.267 354.945,200.000 354.853,200.000 354.396 C 200.000 353.929,200.916 353.846,206.044 353.846 C 211.172 353.846,212.088 353.763,212.088 353.297 C 212.088 352.835,212.882 352.747,217.033 352.747 C 220.085 352.747,221.978 352.607,221.978 352.381 C 221.978 352.174,223.016 352.015,224.359 352.015 C 226.231 352.015,226.740 351.897,226.740 351.465 C 226.740 351.043,227.208 350.916,228.755 350.916 C 230.301 350.916,230.769 350.788,230.769 350.366 C 230.769 349.930,231.298 349.817,233.333 349.817 C 234.799 349.817,235.897 349.660,235.897 349.451 C 235.897 349.249,236.557 349.084,237.363 349.084 C 238.421 349.084,238.828 348.932,238.828 348.535 C 238.828 348.138,239.235 347.985,240.293 347.985 C 241.351 347.985,241.758 347.833,241.758 347.436 C 241.758 347.014,242.226 346.886,243.773 346.886 C 245.319 346.886,245.788 346.759,245.788 346.337 C 245.788 345.940,246.195 345.788,247.253 345.788 C 248.059 345.788,248.718 345.623,248.718 345.421 C 248.718 345.220,249.377 345.055,250.183 345.055 C 251.241 345.055,251.648 344.902,251.648 344.505 C 251.648 344.109,252.055 343.956,253.114 343.956 C 254.172 343.956,254.579 343.803,254.579 343.407 C 254.579 343.104,254.826 342.857,255.128 342.857 C 255.430 342.857,255.678 342.692,255.678 342.491 C 255.678 342.289,256.337 342.125,257.143 342.125 C 258.201 342.125,258.608 341.972,258.608 341.575 C 258.608 341.233,258.954 341.026,259.524 341.026 C 260.094 341.026,260.440 340.818,260.440 340.476 C 260.440 340.110,260.806 339.927,261.538 339.927 C 262.271 339.927,262.637 339.744,262.637 339.377 C 262.637 338.980,263.044 338.828,264.103 338.828 C 264.908 338.828,265.568 338.663,265.568 338.462 C 265.568 338.260,265.815 338.095,266.117 338.095 C 266.419 338.095,266.667 337.848,266.667 337.546 C 266.667 337.149,267.074 336.996,268.132 336.996 C 269.190 336.996,269.597 336.844,269.597 336.447 C 269.597 336.105,269.943 335.897,270.513 335.897 C 271.016 335.897,271.429 335.733,271.429 335.531 C 271.429 335.330,271.676 335.165,271.978 335.165 C 272.280 335.165,272.527 334.918,272.527 334.615 C 272.527 334.274,272.873 334.066,273.443 334.066 C 274.013 334.066,274.359 333.858,274.359 333.516 C 274.359 333.171,274.708 332.967,275.301 332.967 C 276.267 332.967,277.289 332.227,277.289 331.528 C 277.289 331.312,277.784 331.136,278.388 331.136 C 279.121 331.136,279.487 330.952,279.487 330.586 C 279.487 330.244,279.833 330.037,280.403 330.037 C 280.973 330.037,281.319 329.829,281.319 329.487 C 281.319 329.185,281.566 328.938,281.868 328.938 C 282.170 328.938,282.418 328.773,282.418 328.571 C 282.418 328.370,282.830 328.205,283.333 328.205 C 283.903 328.205,284.249 327.998,284.249 327.656 C 284.249 327.353,284.496 327.106,284.799 327.106 C 285.101 327.106,285.348 326.859,285.348 326.557 C 285.348 326.215,285.694 326.007,286.264 326.007 C 286.767 326.007,287.179 325.842,287.179 325.641 C 287.179 325.440,287.427 325.275,287.729 325.275 C 288.031 325.275,288.278 325.027,288.278 324.725 C 288.278 324.423,288.526 324.176,288.828 324.176 C 289.130 324.176,289.377 323.929,289.377 323.626 C 289.377 323.284,289.723 323.077,290.293 323.077 C 290.863 323.077,291.209 322.869,291.209 322.527 C 291.209 322.225,291.456 321.978,291.758 321.978 C 292.060 321.978,292.308 321.813,292.308 321.612 C 292.308 321.410,292.555 321.245,292.857 321.245 C 293.159 321.245,293.407 320.998,293.407 320.696 C 293.407 320.354,293.753 320.147,294.322 320.147 C 294.892 320.147,295.238 319.939,295.238 319.597 C 295.238 319.295,295.485 319.048,295.788 319.048 C 296.090 319.048,296.337 318.883,296.337 318.681 C 296.337 318.480,296.584 318.315,296.886 318.315 C 297.189 318.315,297.436 318.068,297.436 317.766 C 297.436 317.463,297.601 317.216,297.802 317.216 C 298.004 317.216,298.168 316.969,298.168 316.667 C 298.168 316.364,298.416 316.117,298.718 316.117 C 299.020 316.117,299.267 315.870,299.267 315.568 C 299.267 315.226,299.613 315.018,300.183 315.018 C 300.687 315.018,301.099 314.853,301.099 314.652 C 301.099 314.451,301.346 314.286,301.648 314.286 C 301.951 314.286,302.198 314.038,302.198 313.736 C 302.198 313.434,302.445 313.187,302.747 313.187 C 303.049 313.187,303.297 312.940,303.297 312.637 C 303.297 312.335,303.473 312.088,303.689 312.088 C 304.196 312.088,305.128 311.156,305.128 310.649 C 305.128 310.433,305.375 310.256,305.678 310.256 C 305.980 310.256,306.227 310.009,306.227 309.707 C 306.227 309.405,306.474 309.158,306.777 309.158 C 307.079 309.158,307.326 308.981,307.326 308.765 C 307.326 308.258,308.258 307.326,308.765 307.326 C 308.981 307.326,309.158 307.079,309.158 306.777 C 309.158 306.474,309.405 306.227,309.707 306.227 C 310.009 306.227,310.256 306.050,310.256 305.835 C 310.256 305.328,311.188 304.396,311.695 304.396 C 311.911 304.396,312.088 304.148,312.088 303.846 C 312.088 303.544,312.335 303.297,312.637 303.297 C 312.940 303.297,313.187 303.049,313.187 302.747 C 313.187 302.445,313.434 302.198,313.736 302.198 C 314.078 302.198,314.286 301.852,314.286 301.282 C 314.286 300.778,314.451 300.366,314.652 300.366 C 314.853 300.366,315.018 300.119,315.018 299.817 C 315.018 299.515,315.266 299.267,315.568 299.267 C 315.870 299.267,316.117 299.020,316.117 298.718 C 316.117 298.416,316.294 298.168,316.510 298.168 C 317.017 298.168,317.949 297.237,317.949 296.729 C 317.949 296.514,318.196 296.337,318.498 296.337 C 318.800 296.337,319.048 296.090,319.048 295.788 C 319.048 295.485,319.295 295.238,319.597 295.238 C 319.939 295.238,320.147 294.892,320.147 294.322 C 320.147 293.753,320.354 293.407,320.696 293.407 C 320.998 293.407,321.245 293.159,321.245 292.857 C 321.245 292.555,321.410 292.308,321.612 292.308 C 321.813 292.308,321.978 292.060,321.978 291.758 C 321.978 291.456,322.225 291.209,322.527 291.209 C 322.830 291.209,323.077 291.044,323.077 290.842 C 323.077 290.641,323.324 290.476,323.626 290.476 C 323.993 290.476,324.176 290.110,324.176 289.377 C 324.176 288.773,324.341 288.278,324.542 288.278 C 324.744 288.278,324.908 287.866,324.908 287.363 C 324.908 286.793,325.116 286.447,325.458 286.447 C 325.760 286.447,326.007 286.200,326.007 285.897 C 326.007 285.595,326.255 285.348,326.557 285.348 C 326.859 285.348,327.106 285.101,327.106 284.799 C 327.106 284.496,327.353 284.249,327.656 284.249 C 327.998 284.249,328.205 283.903,328.205 283.333 C 328.205 282.830,328.370 282.418,328.571 282.418 C 328.773 282.418,328.938 282.170,328.938 281.868 C 328.938 281.566,329.185 281.319,329.487 281.319 C 329.829 281.319,330.037 280.973,330.037 280.403 C 330.037 279.833,330.244 279.487,330.586 279.487 C 330.888 279.487,331.136 279.240,331.136 278.938 C 331.136 278.636,331.300 278.388,331.502 278.388 C 331.703 278.388,331.868 277.976,331.868 277.473 C 331.868 276.903,332.076 276.557,332.418 276.557 C 332.784 276.557,332.967 276.190,332.967 275.458 C 332.967 274.725,333.150 274.359,333.516 274.359 C 333.819 274.359,334.066 274.194,334.066 273.993 C 334.066 273.791,334.313 273.626,334.615 273.626 C 334.982 273.626,335.165 273.260,335.165 272.527 C 335.165 271.923,335.330 271.429,335.531 271.429 C 335.733 271.429,335.897 270.769,335.897 269.963 C 335.897 268.905,336.050 268.498,336.447 268.498 C 336.749 268.498,336.996 268.251,336.996 267.949 C 336.996 267.647,337.244 267.399,337.546 267.399 C 337.888 267.399,338.095 267.053,338.095 266.484 C 338.095 265.980,338.260 265.568,338.462 265.568 C 338.663 265.568,338.828 265.156,338.828 264.652 C 338.828 264.082,339.035 263.736,339.377 263.736 C 339.784 263.736,339.927 263.309,339.927 262.088 C 339.927 260.867,340.069 260.440,340.476 260.440 C 340.818 260.440,341.026 260.094,341.026 259.524 C 341.026 259.020,341.190 258.608,341.392 258.608 C 341.593 258.608,341.758 258.196,341.758 257.692 C 341.758 257.123,341.966 256.777,342.308 256.777 C 342.715 256.777,342.857 256.349,342.857 255.128 C 342.857 253.907,343.000 253.480,343.407 253.480 C 343.748 253.480,343.956 253.134,343.956 252.564 C 343.956 251.994,344.164 251.648,344.505 251.648 C 344.902 251.648,345.055 251.241,345.055 250.183 C 345.055 249.377,345.220 248.718,345.421 248.718 C 345.623 248.718,345.788 247.811,345.788 246.703 C 345.788 245.157,345.915 244.689,346.337 244.689 C 346.734 244.689,346.886 244.282,346.886 243.223 C 346.886 242.165,347.039 241.758,347.436 241.758 C 347.833 241.758,347.985 241.351,347.985 240.293 C 347.985 239.487,348.150 238.828,348.352 238.828 C 348.553 238.828,348.718 237.921,348.718 236.813 C 348.718 235.267,348.846 234.799,349.267 234.799 C 349.689 234.799,349.817 234.330,349.817 232.784 C 349.817 231.237,349.944 230.769,350.366 230.769 C 350.798 230.769,350.916 230.260,350.916 228.388 C 350.916 226.516,351.033 226.007,351.465 226.007 C 351.911 226.007,352.015 225.417,352.015 222.894 C 352.015 221.062,352.165 219.780,352.381 219.780 C 352.599 219.780,352.747 218.376,352.747 216.300 C 352.747 213.451,352.847 212.821,353.297 212.821 C 353.777 212.821,353.846 210.704,353.846 195.971 C 353.846 181.237,353.777 179.121,353.297 179.121 C 352.847 179.121,352.747 178.490,352.747 175.641 C 352.747 173.565,352.599 172.161,352.381 172.161 C 352.152 172.161,352.015 169.963,352.015 166.300 C 352.015 161.335,351.931 160.440,351.465 160.440 C 351.163 160.440,350.914 160.563,350.913 160.714 M115.018 230.735 C 110.658 232.415,108.778 233.908,106.441 237.546 C 101.816 244.749,104.150 254.455,111.629 259.112 C 116.535 262.168,123.058 262.107,128.175 258.958 C 130.092 257.779,133.333 254.398,133.333 253.578 C 133.333 253.322,133.498 253.114,133.700 253.114 C 133.901 253.114,134.067 252.908,134.068 252.656 C 134.069 252.404,134.346 251.703,134.683 251.099 C 135.152 250.259,135.303 249.007,135.322 245.783 C 135.357 240.024,133.646 236.599,128.756 232.642 C 125.793 230.244,118.810 229.275,115.018 230.735 M200.965 230.588 C 200.388 230.889,199.685 231.136,199.401 231.136 C 199.118 231.136,198.200 231.569,197.360 232.099 C 191.712 235.665,188.732 242.213,189.978 248.323 C 192.002 258.253,200.379 263.203,210.623 260.523 C 213.366 259.805,218.681 255.437,218.681 253.900 C 218.681 253.669,218.824 253.480,218.998 253.480 C 219.172 253.480,219.574 252.779,219.892 251.923 C 223.298 242.748,219.215 233.902,210.087 230.679 C 207.756 229.855,202.471 229.803,200.965 230.588 M126.384 232.124 C 140.036 238.870,136.263 259.270,121.101 260.686 C 107.555 261.951,99.427 245.384,108.720 235.449 C 113.163 230.699,120.649 229.290,126.384 232.124 M209.944 231.294 C 220.668 234.548,224.049 248.534,216.022 256.434 C 206.465 265.842,190.440 259.073,190.440 245.628 C 190.440 235.437,200.130 228.315,209.944 231.294 M135.714 347.253 C 136.726 347.688,137.363 347.688,137.363 347.253 C 137.363 347.051,136.827 346.898,136.172 346.912 C 135.175 346.934,135.100 346.989,135.714 347.253 M139.560 348.535 C 140.754 349.217,141.392 349.217,141.392 348.535 C 141.392 348.142,141.001 347.989,140.018 347.998 L 138.645 348.011 139.560 348.535 M145.879 348.961 C 144.924 349.346,145.479 349.817,146.886 349.817 C 148.367 349.817,148.839 349.350,147.772 348.940 C 147.113 348.687,146.541 348.693,145.879 348.961 M149.451 350.366 C 149.451 350.798,149.959 350.916,151.832 350.916 C 153.704 350.916,154.212 350.798,154.212 350.366 C 154.212 349.934,153.704 349.817,151.832 349.817 C 149.959 349.817,149.451 349.934,149.451 350.366 M158.883 350.802 C 157.586 351.141,158.180 352.015,159.707 352.015 C 161.219 352.015,161.780 351.227,160.593 350.772 C 159.979 350.536,159.893 350.538,158.883 350.802 " stroke="none" fill="#e2e4eb" fill-rule="evenodd"></path><path id="path3" d="M338.828 112.953 C 338.828 113.484,338.985 113.919,339.177 113.919 C 339.369 113.919,339.689 114.455,339.887 115.110 C 340.478 117.055,341.239 119.016,341.507 119.285 C 341.645 119.423,341.758 120.085,341.758 120.757 C 341.758 121.429,341.916 121.978,342.108 121.978 C 342.300 121.978,342.557 122.596,342.679 123.352 C 342.801 124.107,343.138 125.163,343.429 125.698 C 343.719 126.232,343.956 127.180,343.956 127.804 C 343.956 128.427,344.104 128.938,344.285 128.938 C 344.467 128.938,344.701 129.638,344.806 130.495 C 345.135 133.180,345.807 136.421,346.171 137.083 C 346.363 137.433,346.540 138.175,346.563 138.731 L 346.607 139.744 346.886 138.645 C 347.081 137.878,347.179 137.773,347.209 138.297 C 347.233 138.710,347.451 139.245,347.692 139.487 C 348.034 139.829,347.993 139.927,347.509 139.927 C 346.795 139.927,346.754 140.242,347.228 142.082 C 347.688 143.870,348.796 150.946,349.413 156.044 L 349.702 158.425 349.759 156.502 C 349.848 153.533,350.916 153.786,350.916 156.777 C 350.916 158.535,350.800 158.974,350.337 158.974 C 349.844 158.974,349.796 159.321,350.010 161.318 C 350.439 165.327,350.871 166.550,350.864 163.736 C 350.856 160.421,350.852 160.440,351.465 160.440 C 351.931 160.440,352.015 161.335,352.015 166.300 C 352.015 169.963,352.152 172.161,352.381 172.161 C 352.599 172.161,352.747 173.565,352.747 175.641 C 352.747 178.490,352.847 179.121,353.297 179.121 C 353.777 179.121,353.846 181.237,353.846 195.971 C 353.846 210.704,353.777 212.821,353.297 212.821 C 352.847 212.821,352.747 213.451,352.747 216.300 C 352.747 218.376,352.599 219.780,352.381 219.780 C 352.165 219.780,352.015 221.062,352.015 222.894 C 352.015 225.417,351.911 226.007,351.465 226.007 C 351.033 226.007,350.916 226.516,350.916 228.388 C 350.916 230.260,350.798 230.769,350.366 230.769 C 349.944 230.769,349.817 231.237,349.817 232.784 C 349.817 234.330,349.689 234.799,349.267 234.799 C 348.846 234.799,348.718 235.267,348.718 236.813 C 348.718 237.921,348.553 238.828,348.352 238.828 C 348.150 238.828,347.985 239.487,347.985 240.293 C 347.985 241.351,347.833 241.758,347.436 241.758 C 347.039 241.758,346.886 242.165,346.886 243.223 C 346.886 244.282,346.734 244.689,346.337 244.689 C 345.915 244.689,345.788 245.157,345.788 246.703 C 345.788 247.811,345.623 248.718,345.421 248.718 C 345.220 248.718,345.055 249.377,345.055 250.183 C 345.055 251.241,344.902 251.648,344.505 251.648 C 344.164 251.648,343.956 251.994,343.956 252.564 C 343.956 253.134,343.748 253.480,343.407 253.480 C 343.000 253.480,342.857 253.907,342.857 255.128 C 342.857 256.349,342.715 256.777,342.308 256.777 C 341.966 256.777,341.758 257.123,341.758 257.692 C 341.758 258.196,341.593 258.608,341.392 258.608 C 341.190 258.608,341.026 259.020,341.026 259.524 C 341.026 260.094,340.818 260.440,340.476 260.440 C 340.069 260.440,339.927 260.867,339.927 262.088 C 339.927 263.309,339.784 263.736,339.377 263.736 C 339.035 263.736,338.828 264.082,338.828 264.652 C 338.828 265.156,338.663 265.568,338.462 265.568 C 338.260 265.568,338.095 265.980,338.095 266.484 C 338.095 267.053,337.888 267.399,337.546 267.399 C 337.244 267.399,336.996 267.647,336.996 267.949 C 336.996 268.251,336.749 268.498,336.447 268.498 C 336.050 268.498,335.897 268.905,335.897 269.963 C 335.897 270.769,335.733 271.429,335.531 271.429 C 335.330 271.429,335.165 271.923,335.165 272.527 C 335.165 273.260,334.982 273.626,334.615 273.626 C 334.313 273.626,334.066 273.791,334.066 273.993 C 334.066 274.194,333.819 274.359,333.516 274.359 C 333.150 274.359,332.967 274.725,332.967 275.458 C 332.967 276.190,332.784 276.557,332.418 276.557 C 332.076 276.557,331.868 276.903,331.868 277.473 C 331.868 277.976,331.703 278.388,331.502 278.388 C 331.300 278.388,331.136 278.636,331.136 278.938 C 331.136 279.240,330.888 279.487,330.586 279.487 C 330.244 279.487,330.037 279.833,330.037 280.403 C 330.037 280.973,329.829 281.319,329.487 281.319 C 329.185 281.319,328.938 281.566,328.938 281.868 C 328.938 282.170,328.773 282.418,328.571 282.418 C 328.370 282.418,328.205 282.830,328.205 283.333 C 328.205 283.903,327.998 284.249,327.656 284.249 C 327.353 284.249,327.106 284.496,327.106 284.799 C 327.106 285.101,326.859 285.348,326.557 285.348 C 326.255 285.348,326.007 285.595,326.007 285.897 C 326.007 286.200,325.760 286.447,325.458 286.447 C 325.116 286.447,324.908 286.793,324.908 287.363 C 324.908 287.866,324.744 288.278,324.542 288.278 C 324.341 288.278,324.176 288.773,324.176 289.377 C 324.176 290.110,323.993 290.476,323.626 290.476 C 323.324 290.476,323.077 290.641,323.077 290.842 C 323.077 291.044,322.830 291.209,322.527 291.209 C 322.225 291.209,321.978 291.456,321.978 291.758 C 321.978 292.060,321.813 292.308,321.612 292.308 C 321.410 292.308,321.245 292.555,321.245 292.857 C 321.245 293.159,320.998 293.407,320.696 293.407 C 320.354 293.407,320.147 293.753,320.147 294.322 C 320.147 294.892,319.939 295.238,319.597 295.238 C 319.295 295.238,319.048 295.485,319.048 295.788 C 319.048 296.090,318.800 296.337,318.498 296.337 C 318.196 296.337,317.949 296.514,317.949 296.729 C 317.949 297.237,317.017 298.168,316.510 298.168 C 316.294 298.168,316.117 298.416,316.117 298.718 C 316.117 299.020,315.870 299.267,315.568 299.267 C 315.266 299.267,315.018 299.515,315.018 299.817 C 315.018 300.119,314.853 300.366,314.652 300.366 C 314.451 300.366,314.286 300.778,314.286 301.282 C 314.286 301.852,314.078 302.198,313.736 302.198 C 313.434 302.198,313.187 302.445,313.187 302.747 C 313.187 303.049,312.940 303.297,312.637 303.297 C 312.335 303.297,312.088 303.544,312.088 303.846 C 312.088 304.148,311.911 304.396,311.695 304.396 C 311.188 304.396,310.256 305.328,310.256 305.835 C 310.256 306.050,310.009 306.227,309.707 306.227 C 309.405 306.227,309.158 306.474,309.158 306.777 C 309.158 307.079,308.981 307.326,308.765 307.326 C 308.258 307.326,307.326 308.258,307.326 308.765 C 307.326 308.981,307.079 309.158,306.777 309.158 C 306.474 309.158,306.227 309.405,306.227 309.707 C 306.227 310.009,305.980 310.256,305.678 310.256 C 305.375 310.256,305.128 310.433,305.128 310.649 C 305.128 311.156,304.196 312.088,303.689 312.088 C 303.473 312.088,303.297 312.335,303.297 312.637 C 303.297 312.940,303.049 313.187,302.747 313.187 C 302.445 313.187,302.198 313.434,302.198 313.736 C 302.198 314.038,301.951 314.286,301.648 314.286 C 301.346 314.286,301.099 314.451,301.099 314.652 C 301.099 314.853,300.687 315.018,300.183 315.018 C 299.613 315.018,299.267 315.226,299.267 315.568 C 299.267 315.870,299.020 316.117,298.718 316.117 C 298.416 316.117,298.168 316.364,298.168 316.667 C 298.168 316.969,298.004 317.216,297.802 317.216 C 297.601 317.216,297.436 317.463,297.436 317.766 C 297.436 318.068,297.189 318.315,296.886 318.315 C 296.584 318.315,296.337 318.480,296.337 318.681 C 296.337 318.883,296.090 319.048,295.788 319.048 C 295.485 319.048,295.238 319.295,295.238 319.597 C 295.238 319.939,294.892 320.147,294.322 320.147 C 293.753 320.147,293.407 320.354,293.407 320.696 C 293.407 320.998,293.159 321.245,292.857 321.245 C 292.555 321.245,292.308 321.410,292.308 321.612 C 292.308 321.813,292.060 321.978,291.758 321.978 C 291.456 321.978,291.209 322.225,291.209 322.527 C 291.209 322.869,290.863 323.077,290.293 323.077 C 289.723 323.077,289.377 323.284,289.377 323.626 C 289.377 323.929,289.130 324.176,288.828 324.176 C 288.526 324.176,288.278 324.423,288.278 324.725 C 288.278 325.027,288.031 325.275,287.729 325.275 C 287.427 325.275,287.179 325.440,287.179 325.641 C 287.179 325.842,286.767 326.007,286.264 326.007 C 285.694 326.007,285.348 326.215,285.348 326.557 C 285.348 326.859,285.101 327.106,284.799 327.106 C 284.496 327.106,284.249 327.353,284.249 327.656 C 284.249 327.998,283.903 328.205,283.333 328.205 C 282.830 328.205,282.418 328.370,282.418 328.571 C 282.418 328.773,282.170 328.938,281.868 328.938 C 281.566 328.938,281.319 329.185,281.319 329.487 C 281.319 329.829,280.973 330.037,280.403 330.037 C 279.833 330.037,279.487 330.244,279.487 330.586 C 279.487 330.952,279.121 331.136,278.388 331.136 C 277.784 331.136,277.289 331.312,277.289 331.528 C 277.289 332.227,276.267 332.967,275.301 332.967 C 274.708 332.967,274.359 333.171,274.359 333.516 C 274.359 333.858,274.013 334.066,273.443 334.066 C 272.873 334.066,272.527 334.274,272.527 334.615 C 272.527 334.918,272.280 335.165,271.978 335.165 C 271.676 335.165,271.429 335.330,271.429 335.531 C 271.429 335.733,271.016 335.897,270.513 335.897 C 269.943 335.897,269.597 336.105,269.597 336.447 C 269.597 336.844,269.190 336.996,268.132 336.996 C 267.074 336.996,266.667 337.149,266.667 337.546 C 266.667 337.848,266.419 338.095,266.117 338.095 C 265.815 338.095,265.568 338.260,265.568 338.462 C 265.568 338.663,264.908 338.828,264.103 338.828 C 263.044 338.828,262.637 338.980,262.637 339.377 C 262.637 339.744,262.271 339.927,261.538 339.927 C 260.806 339.927,260.440 340.110,260.440 340.476 C 260.440 340.818,260.094 341.026,259.524 341.026 C 258.954 341.026,258.608 341.233,258.608 341.575 C 258.608 341.972,258.201 342.125,257.143 342.125 C 256.337 342.125,255.678 342.289,255.678 342.491 C 255.678 342.692,255.430 342.857,255.128 342.857 C 254.826 342.857,254.579 343.104,254.579 343.407 C 254.579 343.803,254.172 343.956,253.114 343.956 C 252.055 343.956,251.648 344.109,251.648 344.505 C 251.648 344.902,251.241 345.055,250.183 345.055 C 249.377 345.055,248.718 345.220,248.718 345.421 C 248.718 345.623,248.059 345.788,247.253 345.788 C 246.195 345.788,245.788 345.940,245.788 346.337 C 245.788 346.759,245.319 346.886,243.773 346.886 C 242.226 346.886,241.758 347.014,241.758 347.436 C 241.758 347.833,241.351 347.985,240.293 347.985 C 239.235 347.985,238.828 348.138,238.828 348.535 C 238.828 348.932,238.421 349.084,237.363 349.084 C 236.557 349.084,235.897 349.249,235.897 349.451 C 235.897 349.660,234.799 349.817,233.333 349.817 C 231.298 349.817,230.769 349.930,230.769 350.366 C 230.769 350.788,230.301 350.916,228.755 350.916 C 227.208 350.916,226.740 351.043,226.740 351.465 C 226.740 351.897,226.231 352.015,224.359 352.015 C 223.016 352.015,221.978 352.174,221.978 352.381 C 221.978 352.607,220.085 352.747,217.033 352.747 C 212.882 352.747,212.088 352.835,212.088 353.297 C 212.088 353.763,211.172 353.846,206.044 353.846 C 200.916 353.846,200.000 353.929,200.000 354.396 C 200.000 354.853,199.267 354.945,195.604 354.945 C 191.941 354.945,191.209 354.853,191.209 354.396 C 191.209 353.929,190.293 353.846,185.165 353.846 C 180.037 353.846,179.121 353.763,179.121 353.297 C 179.121 352.835,178.327 352.747,174.176 352.747 C 171.123 352.747,169.231 352.607,169.231 352.381 C 169.231 352.174,168.193 352.015,166.850 352.015 C 164.978 352.015,164.469 351.897,164.469 351.465 C 164.469 350.991,165.958 350.905,175.366 350.839 L 186.264 350.762 173.077 350.500 C 165.824 350.356,158.613 350.125,157.051 349.988 C 154.583 349.769,154.212 349.814,154.212 350.326 C 154.212 350.808,153.776 350.916,151.832 350.916 C 148.427 350.916,148.341 349.841,151.740 349.768 L 154.029 349.719 152.381 349.433 C 149.569 348.945,147.415 348.703,147.894 348.929 C 148.821 349.367,148.311 349.817,146.886 349.817 C 146.081 349.817,145.421 349.652,145.421 349.451 C 145.421 349.249,145.619 349.084,145.861 349.084 C 147.296 349.084,145.046 348.162,142.595 347.746 C 141.027 347.480,138.672 347.001,137.363 346.682 C 136.053 346.362,134.240 345.958,133.333 345.784 C 128.835 344.917,127.597 344.636,126.923 344.331 C 126.520 344.148,125.655 343.894,125.000 343.765 C 124.345 343.637,123.810 343.380,123.810 343.194 C 123.810 343.009,123.191 342.852,122.436 342.845 C 121.680 342.839,120.742 342.592,120.351 342.296 C 119.960 342.000,119.187 341.758,118.633 341.758 C 118.079 341.758,117.535 341.612,117.424 341.433 C 117.314 341.253,116.770 340.993,116.216 340.854 C 115.662 340.715,115.107 340.436,114.982 340.235 C 114.858 340.033,114.279 339.922,113.697 339.989 L 112.637 340.110 114.396 341.300 C 115.363 341.955,116.362 342.491,116.616 342.491 C 116.870 342.491,117.416 342.805,117.828 343.190 C 118.241 343.574,119.302 344.256,120.187 344.704 C 121.071 345.153,121.877 345.621,121.978 345.745 C 122.366 346.223,136.102 353.201,137.912 353.841 C 138.315 353.983,139.760 354.619,141.124 355.255 C 142.488 355.890,143.829 356.410,144.104 356.410 C 144.380 356.410,145.077 356.656,145.654 356.957 C 146.231 357.258,146.992 357.506,147.344 357.507 C 147.697 357.508,147.985 357.674,147.985 357.875 C 147.985 358.077,148.474 358.242,149.072 358.242 C 149.669 358.242,150.700 358.470,151.361 358.748 C 152.023 359.026,153.471 359.545,154.579 359.901 C 155.687 360.257,156.758 360.668,156.960 360.814 C 157.161 360.960,157.821 361.171,158.425 361.283 C 160.856 361.731,163.245 362.351,164.286 362.804 C 164.890 363.068,166.044 363.387,166.850 363.515 C 170.195 364.044,176.474 365.284,177.839 365.686 C 180.011 366.325,228.845 366.299,230.073 365.658 C 230.557 365.405,231.941 365.045,233.150 364.857 C 237.858 364.127,241.610 363.315,242.633 362.805 C 243.221 362.511,244.213 362.265,244.836 362.258 C 245.460 362.251,246.383 362.010,246.886 361.722 C 247.390 361.434,248.411 361.192,249.154 361.185 C 249.898 361.178,250.602 361.018,250.718 360.829 C 250.835 360.641,252.122 360.126,253.579 359.686 C 258.373 358.236,261.693 357.085,263.655 356.191 C 264.718 355.707,265.834 355.311,266.135 355.311 C 266.437 355.311,267.994 354.652,269.597 353.846 C 271.200 353.040,272.672 352.381,272.869 352.381 C 273.066 352.381,273.853 351.957,274.617 351.438 C 275.382 350.919,276.461 350.404,277.015 350.293 C 277.569 350.182,278.022 349.978,278.022 349.839 C 278.022 349.557,280.410 348.352,280.968 348.352 C 281.164 348.352,282.008 347.857,282.842 347.253 C 283.676 346.648,284.513 346.154,284.702 346.154 C 284.891 346.154,285.814 345.631,286.753 344.991 C 287.693 344.351,288.908 343.527,289.454 343.159 C 290.000 342.792,290.629 342.491,290.852 342.491 C 291.075 342.491,291.798 342.079,292.458 341.575 C 293.119 341.071,293.841 340.659,294.064 340.659 C 294.287 340.659,294.601 340.453,294.762 340.201 C 294.923 339.950,296.291 338.919,297.801 337.912 C 300.815 335.902,304.664 332.930,309.312 329.022 C 310.335 328.162,311.720 327.008,312.390 326.458 C 313.060 325.908,313.801 325.244,314.038 324.983 C 314.661 324.295,318.925 320.000,321.846 317.117 C 325.543 313.469,331.414 306.885,332.538 305.128 C 332.860 304.625,333.665 303.536,334.327 302.710 C 334.989 301.883,335.531 301.093,335.531 300.954 C 335.531 300.816,335.866 300.343,336.275 299.903 C 336.684 299.464,337.632 298.194,338.381 297.080 C 339.131 295.966,339.950 294.923,340.201 294.762 C 340.453 294.601,340.659 294.243,340.659 293.966 C 340.659 293.689,341.032 292.997,341.489 292.427 C 341.945 291.858,342.709 290.650,343.186 289.744 C 343.664 288.837,344.238 287.930,344.463 287.729 C 344.688 287.527,345.266 286.538,345.748 285.531 C 346.229 284.524,347.012 283.175,347.487 282.534 C 347.963 281.892,348.352 281.196,348.352 280.987 C 348.352 280.348,350.221 276.615,350.768 276.161 C 351.051 275.926,351.282 275.504,351.282 275.223 C 351.282 274.941,352.106 273.053,353.114 271.027 C 354.121 269.000,354.945 267.108,354.945 266.822 C 354.945 266.536,355.420 265.272,356.001 264.012 C 356.581 262.752,357.144 261.392,357.252 260.989 C 357.359 260.586,357.797 259.350,358.225 258.242 C 358.653 257.134,359.230 255.321,359.509 254.212 C 359.787 253.104,360.186 251.703,360.395 251.099 C 361.870 246.845,361.967 246.464,363.638 238.462 C 363.995 236.749,364.431 235.125,364.607 234.852 C 364.782 234.579,365.059 233.013,365.222 231.372 C 365.385 229.731,365.685 227.519,365.888 226.457 C 367.536 217.870,367.526 190.269,365.873 181.502 C 365.683 180.495,365.372 178.464,365.181 176.990 C 364.990 175.515,364.687 174.032,364.506 173.693 C 364.326 173.354,363.979 171.758,363.735 170.147 C 363.492 168.535,363.085 166.804,362.832 166.300 C 362.578 165.797,362.258 164.505,362.121 163.430 C 361.983 162.354,361.714 161.200,361.522 160.865 C 360.894 159.767,359.341 154.508,359.341 153.478 C 359.341 152.924,359.111 152.280,358.831 152.048 C 358.551 151.815,358.235 151.177,358.129 150.629 C 357.723 148.529,354.883 141.027,353.799 139.194 C 353.442 138.589,352.813 137.217,352.372 136.081 C 351.478 133.776,350.363 131.569,349.681 130.753 C 349.252 130.240,348.512 128.921,348.035 127.822 C 347.559 126.723,347.025 125.577,346.848 125.275 C 346.671 124.973,346.126 123.973,345.636 123.054 C 345.146 122.135,344.496 121.175,344.191 120.922 C 343.886 120.669,343.540 120.020,343.421 119.480 C 343.302 118.940,342.632 117.774,341.932 116.890 C 341.232 116.005,340.659 115.147,340.659 114.983 C 340.659 114.819,340.247 114.077,339.744 113.335 C 338.851 112.019,338.828 112.010,338.828 112.953 M152.135 132.875 C 167.412 132.928,192.302 132.928,207.446 132.875 C 222.591 132.822,210.092 132.779,179.670 132.779 C 149.249 132.779,136.858 132.823,152.135 132.875 M348.487 141.484 C 348.831 142.766,348.757 144.322,348.352 144.322 C 348.150 144.322,347.985 144.013,347.985 143.636 C 347.985 143.258,347.882 142.434,347.756 141.804 C 347.493 140.489,348.144 140.203,348.487 141.484 M349.817 146.886 C 349.817 147.945,349.664 148.352,349.267 148.352 C 348.871 148.352,348.718 147.945,348.718 146.886 C 348.718 145.828,348.871 145.421,349.267 145.421 C 349.664 145.421,349.817 145.828,349.817 146.886 M148.993 164.377 C 162.541 164.430,184.712 164.430,198.260 164.377 C 211.809 164.324,200.723 164.280,173.626 164.280 C 146.529 164.280,135.444 164.324,148.993 164.377 M350.701 175.458 C 350.701 179.185,350.756 180.710,350.822 178.846 C 350.889 176.983,350.889 173.933,350.822 172.070 C 350.756 170.206,350.701 171.731,350.701 175.458 M350.256 186.118 C 350.216 187.247,350.105 189.225,350.010 190.514 L 349.837 192.857 350.208 191.077 C 350.413 190.098,350.523 188.120,350.454 186.681 C 350.339 184.279,350.323 184.233,350.256 186.118 M155.678 188.645 L 97.985 188.831 155.564 188.921 C 193.653 188.981,213.220 188.887,213.370 188.645 C 213.494 188.443,213.545 188.319,213.483 188.368 C 213.421 188.418,187.408 188.542,155.678 188.645 M349.555 195.055 C 349.558 196.062,349.629 196.431,349.713 195.874 C 349.798 195.317,349.795 194.493,349.708 194.043 C 349.621 193.592,349.553 194.048,349.555 195.055 M349.129 198.168 C 349.099 198.471,348.983 199.130,348.871 199.634 C 348.695 200.425,348.724 200.461,349.083 199.898 C 349.312 199.540,349.428 198.880,349.341 198.433 C 349.255 197.985,349.159 197.866,349.129 198.168 M347.839 206.630 C 347.705 207.470,347.666 208.228,347.754 208.315 C 347.841 208.403,348.028 207.793,348.168 206.960 C 348.309 206.127,348.348 205.368,348.254 205.274 C 348.160 205.180,347.973 205.791,347.839 206.630 M347.115 211.035 C 346.987 211.678,346.949 212.273,347.032 212.356 C 347.115 212.439,347.297 211.989,347.436 211.355 C 347.575 210.722,347.612 210.128,347.519 210.034 C 347.426 209.941,347.244 210.391,347.115 211.035 M344.898 219.990 C 344.763 220.526,344.735 221.048,344.836 221.149 C 344.937 221.249,345.130 220.893,345.264 220.356 C 345.399 219.819,345.427 219.297,345.326 219.197 C 345.225 219.096,345.033 219.453,344.898 219.990 M342.217 229.722 C 341.972 230.372,341.846 230.979,341.938 231.071 C 342.156 231.289,342.913 229.290,342.772 228.866 C 342.712 228.687,342.463 229.072,342.217 229.722 M338.148 240.712 C 337.889 241.125,337.759 241.544,337.857 241.642 C 337.955 241.741,338.227 241.463,338.462 241.026 C 339.015 239.991,338.758 239.734,338.148 240.712 M334.118 250.050 C 333.678 251.032,333.687 251.060,334.266 250.494 C 334.605 250.161,334.817 249.689,334.736 249.445 C 334.654 249.201,334.376 249.473,334.118 250.050 M328.755 260.440 C 328.442 261.044,328.269 261.538,328.369 261.538 C 328.470 261.538,328.808 261.044,329.121 260.440 C 329.433 259.835,329.607 259.341,329.506 259.341 C 329.405 259.341,329.067 259.835,328.755 260.440 M315.541 280.861 C 314.975 281.616,314.113 282.811,313.626 283.516 L 312.739 284.799 313.695 283.700 C 314.927 282.283,316.944 279.487,316.733 279.487 C 316.644 279.487,316.107 280.105,315.541 280.861 M303.297 295.421 C 302.407 296.328,301.761 297.070,301.862 297.070 C 301.963 297.070,302.773 296.328,303.663 295.421 C 304.553 294.515,305.198 293.773,305.098 293.773 C 304.997 293.773,304.186 294.515,303.297 295.421 M294.852 303.938 L 293.590 305.311 294.963 304.049 C 296.242 302.874,296.505 302.564,296.226 302.564 C 296.164 302.564,295.546 303.182,294.852 303.938 M283.136 313.946 L 281.868 315.071 283.242 314.086 C 284.456 313.214,284.851 312.821,284.510 312.821 C 284.452 312.821,283.834 313.327,283.136 313.946 M280.403 315.966 L 279.304 316.910 280.495 316.123 C 281.149 315.689,281.685 315.264,281.685 315.177 C 281.685 314.902,281.530 314.998,280.403 315.966 M276.374 318.897 L 275.275 319.841 276.465 319.053 C 277.120 318.620,277.656 318.194,277.656 318.107 C 277.656 317.833,277.501 317.928,276.374 318.897 M249.817 334.280 C 249.306 334.563,249.144 334.785,249.451 334.781 C 249.753 334.778,250.320 334.533,250.711 334.237 C 251.593 333.571,251.048 333.596,249.817 334.280 M233.150 341.222 C 232.546 341.499,232.299 341.727,232.601 341.729 C 232.903 341.731,233.562 341.497,234.066 341.209 C 235.224 340.547,234.605 340.556,233.150 341.222 M229.487 342.321 C 228.883 342.598,228.636 342.826,228.938 342.828 C 229.240 342.830,229.899 342.596,230.403 342.308 C 231.561 341.646,230.942 341.655,229.487 342.321 M223.260 344.322 C 222.798 344.521,222.731 344.637,223.077 344.637 C 223.379 344.637,223.956 344.495,224.359 344.322 C 224.821 344.124,224.888 344.008,224.542 344.008 C 224.240 344.008,223.663 344.149,223.260 344.322 M219.048 345.421 C 218.293 345.663,218.261 345.720,218.864 345.745 C 219.267 345.762,219.844 345.617,220.147 345.421 C 220.788 345.006,220.343 345.006,219.048 345.421 M137.363 347.253 C 137.363 347.688,136.726 347.688,135.714 347.253 C 135.100 346.989,135.175 346.934,136.172 346.912 C 136.827 346.898,137.363 347.051,137.363 347.253 M211.172 347.253 L 210.440 347.568 211.172 347.588 C 211.575 347.599,212.152 347.448,212.454 347.253 C 213.182 346.782,212.267 346.782,211.172 347.253 M208.150 347.872 C 208.503 347.964,209.080 347.964,209.432 347.872 C 209.785 347.779,209.496 347.704,208.791 347.704 C 208.086 347.704,207.798 347.779,208.150 347.872 M141.392 348.535 C 141.392 349.217,140.754 349.217,139.560 348.535 L 138.645 348.011 140.018 347.998 C 141.001 347.989,141.392 348.142,141.392 348.535 M205.311 348.352 C 204.314 348.605,204.297 348.633,205.128 348.649 C 205.632 348.659,206.374 348.525,206.777 348.352 C 207.680 347.964,206.837 347.964,205.311 348.352 M196.795 349.703 C 197.147 349.795,197.724 349.795,198.077 349.703 C 198.429 349.611,198.141 349.536,197.436 349.536 C 196.731 349.536,196.442 349.611,196.795 349.703 M189.744 350.183 L 188.462 350.453 189.744 350.480 C 190.449 350.495,191.685 350.371,192.491 350.204 L 193.956 349.901 192.491 349.907 C 191.685 349.911,190.449 350.035,189.744 350.183 M160.593 350.772 C 161.780 351.227,161.219 352.015,159.707 352.015 C 157.628 352.015,157.674 350.956,159.769 350.592 C 159.903 350.569,160.274 350.650,160.593 350.772 " stroke="none" fill="#e4ecec" fill-rule="evenodd"></path><path id="path4" d="M320.879 78.617 C 320.879 78.944,321.497 80.143,322.253 81.282 C 323.008 82.421,323.956 84.008,324.359 84.808 C 324.762 85.609,325.215 86.319,325.366 86.386 C 325.517 86.453,325.641 86.682,325.641 86.896 C 325.641 87.109,326.271 88.290,327.042 89.521 C 328.735 92.225,336.264 107.539,336.264 108.280 C 336.264 108.399,336.494 109.017,336.775 109.652 C 339.366 115.496,342.700 125.440,344.322 132.160 C 344.940 134.719,345.597 137.390,345.782 138.095 C 349.680 152.938,351.339 184.298,348.883 196.703 C 348.783 197.207,348.554 198.855,348.375 200.366 C 347.983 203.666,346.204 213.908,345.953 214.315 C 345.855 214.473,345.627 215.315,345.447 216.184 C 343.247 226.802,337.771 241.983,332.024 253.392 C 330.742 255.938,329.763 258.090,329.849 258.176 C 330.045 258.372,334.968 248.414,336.607 244.505 C 337.283 242.894,338.205 240.751,338.656 239.744 C 339.107 238.736,340.262 235.522,341.222 232.601 C 342.183 229.679,343.090 226.960,343.239 226.557 C 344.180 224.003,347.096 211.770,347.648 208.059 C 347.842 206.749,348.076 205.430,348.168 205.128 C 350.531 197.330,351.170 168.345,349.277 154.853 C 349.171 154.098,349.000 152.862,348.898 152.106 C 348.420 148.594,347.499 143.199,347.034 141.185 C 346.751 139.964,346.520 138.684,346.520 138.342 C 346.520 137.999,346.363 137.433,346.171 137.083 C 345.807 136.421,345.135 133.180,344.806 130.495 C 344.701 129.638,344.467 128.938,344.285 128.938 C 344.104 128.938,343.956 128.427,343.956 127.804 C 343.956 127.180,343.719 126.232,343.429 125.698 C 343.138 125.163,342.801 124.107,342.679 123.352 C 342.557 122.596,342.300 121.978,342.108 121.978 C 341.916 121.978,341.758 121.429,341.758 120.757 C 341.758 120.085,341.645 119.423,341.507 119.285 C 341.239 119.016,340.478 117.055,339.887 115.110 C 339.689 114.455,339.369 113.919,339.177 113.919 C 338.985 113.919,338.828 113.484,338.828 112.953 C 338.828 112.010,338.851 112.019,339.744 113.335 C 340.247 114.077,340.659 114.819,340.659 114.983 C 340.659 115.147,341.232 116.005,341.932 116.890 C 342.632 117.774,343.302 118.940,343.421 119.480 C 343.540 120.020,343.886 120.669,344.191 120.922 C 344.496 121.175,345.146 122.135,345.636 123.054 C 346.126 123.973,346.671 124.973,346.848 125.275 C 347.025 125.577,347.559 126.723,348.035 127.822 C 348.512 128.921,349.252 130.240,349.681 130.753 C 350.363 131.569,351.478 133.776,352.372 136.081 C 352.813 137.217,353.442 138.589,353.799 139.194 C 354.883 141.027,357.723 148.529,358.129 150.629 C 358.235 151.177,358.551 151.815,358.831 152.048 C 359.111 152.280,359.341 152.924,359.341 153.478 C 359.341 154.508,360.894 159.767,361.522 160.865 C 361.714 161.200,361.983 162.354,362.121 163.430 C 362.258 164.505,362.578 165.797,362.832 166.300 C 363.085 166.804,363.492 168.535,363.735 170.147 C 363.979 171.758,364.326 173.354,364.506 173.693 C 364.687 174.032,364.990 175.515,365.181 176.990 C 365.372 178.464,365.683 180.495,365.873 181.502 C 367.526 190.269,367.536 217.870,365.888 226.457 C 365.685 227.519,365.385 229.731,365.222 231.372 C 365.059 233.013,364.782 234.579,364.607 234.852 C 364.431 235.125,363.995 236.749,363.638 238.462 C 361.967 246.464,361.870 246.845,360.395 251.099 C 360.186 251.703,359.787 253.104,359.509 254.212 C 359.230 255.321,358.653 257.134,358.225 258.242 C 357.797 259.350,357.359 260.586,357.252 260.989 C 357.144 261.392,356.581 262.752,356.001 264.012 C 355.420 265.272,354.945 266.536,354.945 266.822 C 354.945 267.108,354.121 269.000,353.114 271.027 C 352.106 273.053,351.282 274.941,351.282 275.223 C 351.282 275.504,351.051 275.926,350.768 276.161 C 350.221 276.615,348.352 280.348,348.352 280.987 C 348.352 281.196,347.963 281.892,347.487 282.534 C 347.012 283.175,346.229 284.524,345.748 285.531 C 345.266 286.538,344.688 287.527,344.463 287.729 C 344.238 287.930,343.664 288.837,343.186 289.744 C 342.709 290.650,341.945 291.858,341.489 292.427 C 341.032 292.997,340.659 293.689,340.659 293.966 C 340.659 294.243,340.453 294.601,340.201 294.762 C 339.950 294.923,339.131 295.966,338.381 297.080 C 337.632 298.194,336.684 299.464,336.275 299.903 C 335.866 300.343,335.531 300.816,335.531 300.954 C 335.531 301.093,334.989 301.883,334.327 302.710 C 333.665 303.536,332.860 304.625,332.538 305.128 C 331.414 306.885,325.543 313.469,321.846 317.117 C 318.925 320.000,314.661 324.295,314.038 324.983 C 313.801 325.244,313.060 325.908,312.390 326.458 C 311.720 327.008,310.335 328.162,309.312 329.022 C 304.664 332.930,300.815 335.902,297.801 337.912 C 296.291 338.919,294.923 339.950,294.762 340.201 C 294.601 340.453,294.287 340.659,294.064 340.659 C 293.841 340.659,293.119 341.071,292.458 341.575 C 291.798 342.079,291.075 342.491,290.852 342.491 C 290.629 342.491,290.000 342.792,289.454 343.159 C 288.908 343.527,287.693 344.351,286.753 344.991 C 285.814 345.631,284.891 346.154,284.702 346.154 C 284.513 346.154,283.676 346.648,282.842 347.253 C 282.008 347.857,281.164 348.352,280.968 348.352 C 280.410 348.352,278.022 349.557,278.022 349.839 C 278.022 349.978,277.569 350.182,277.015 350.293 C 276.461 350.404,275.382 350.919,274.617 351.438 C 273.853 351.957,273.066 352.381,272.869 352.381 C 272.672 352.381,271.200 353.040,269.597 353.846 C 267.994 354.652,266.437 355.311,266.135 355.311 C 265.834 355.311,264.718 355.707,263.655 356.191 C 261.693 357.085,258.373 358.236,253.579 359.686 C 252.122 360.126,250.835 360.641,250.718 360.829 C 250.602 361.018,249.898 361.178,249.154 361.185 C 248.411 361.192,247.390 361.434,246.886 361.722 C 246.383 362.010,245.460 362.251,244.836 362.258 C 244.213 362.265,243.221 362.511,242.633 362.805 C 241.610 363.315,237.858 364.127,233.150 364.857 C 231.941 365.045,230.623 365.359,230.220 365.556 C 229.817 365.753,228.828 365.974,228.022 366.046 C 227.216 366.118,243.864 366.203,265.018 366.235 C 303.907 366.293,306.227 366.242,306.227 365.337 C 306.227 365.061,306.474 364.835,306.777 364.835 C 307.079 364.835,307.326 364.588,307.326 364.286 C 307.326 363.944,307.672 363.736,308.242 363.736 C 308.745 363.736,309.158 363.571,309.158 363.370 C 309.158 363.168,309.405 363.004,309.707 363.004 C 310.009 363.004,310.256 362.756,310.256 362.454 C 310.256 362.112,310.602 361.905,311.172 361.905 C 311.742 361.905,312.088 361.697,312.088 361.355 C 312.088 361.053,312.335 360.806,312.637 360.806 C 312.940 360.806,313.187 360.559,313.187 360.256 C 313.187 359.954,313.434 359.707,313.736 359.707 C 314.038 359.707,314.286 359.542,314.286 359.341 C 314.286 359.139,314.698 358.974,315.201 358.974 C 315.771 358.974,316.117 358.767,316.117 358.425 C 316.117 358.123,316.364 357.875,316.667 357.875 C 316.969 357.875,317.216 357.628,317.216 357.326 C 317.216 356.984,317.562 356.777,318.132 356.777 C 318.636 356.777,319.048 356.612,319.048 356.410 C 319.048 356.209,319.295 356.044,319.597 356.044 C 319.899 356.044,320.147 355.797,320.147 355.495 C 320.147 355.153,320.492 354.945,321.062 354.945 C 321.632 354.945,321.978 354.737,321.978 354.396 C 321.978 354.093,322.225 353.846,322.527 353.846 C 322.830 353.846,323.077 353.599,323.077 353.297 C 323.077 352.995,323.254 352.747,323.469 352.747 C 323.977 352.747,324.908 351.815,324.908 351.308 C 324.908 351.092,325.156 350.916,325.458 350.916 C 325.760 350.916,326.007 350.668,326.007 350.366 C 326.007 350.003,326.371 349.817,327.081 349.817 C 327.915 349.817,328.180 349.633,328.271 348.993 C 328.346 348.463,328.683 348.127,329.212 348.051 C 329.666 347.987,330.037 347.699,330.037 347.410 C 330.037 347.122,330.284 346.886,330.586 346.886 C 330.888 346.886,331.136 346.710,331.136 346.494 C 331.136 345.795,332.158 345.055,333.124 345.055 C 333.926 345.055,334.066 344.892,334.066 343.956 C 334.066 343.352,334.243 342.857,334.458 342.857 C 334.966 342.857,335.897 341.925,335.897 341.418 C 335.897 341.202,336.145 341.026,336.447 341.026 C 336.749 341.026,336.996 340.778,336.996 340.476 C 336.996 340.174,337.244 339.927,337.546 339.927 C 337.848 339.927,338.095 339.750,338.095 339.534 C 338.095 339.027,339.027 338.095,339.534 338.095 C 339.750 338.095,339.927 337.848,339.927 337.546 C 339.927 337.204,340.273 336.996,340.842 336.996 C 341.575 336.996,341.758 336.813,341.758 336.081 C 341.758 335.511,341.966 335.165,342.308 335.165 C 342.610 335.165,342.857 334.918,342.857 334.615 C 342.857 334.249,343.223 334.066,343.956 334.066 C 344.884 334.066,345.055 333.923,345.055 333.150 C 345.055 332.647,345.220 332.234,345.421 332.234 C 345.623 332.234,345.788 331.987,345.788 331.685 C 345.788 331.383,346.035 331.136,346.337 331.136 C 346.639 331.136,346.886 330.888,346.886 330.586 C 346.886 330.284,347.134 330.037,347.436 330.037 C 347.738 330.037,347.985 329.860,347.985 329.644 C 347.985 329.137,348.917 328.205,349.424 328.205 C 349.640 328.205,349.817 327.711,349.817 327.106 C 349.817 326.374,350.000 326.007,350.366 326.007 C 350.668 326.007,350.916 325.842,350.916 325.641 C 350.916 325.440,351.163 325.275,351.465 325.275 C 351.767 325.275,352.015 325.027,352.015 324.725 C 352.015 324.423,352.179 324.176,352.381 324.176 C 352.582 324.176,352.747 323.681,352.747 323.077 C 352.747 322.344,352.930 321.978,353.297 321.978 C 353.599 321.978,353.846 321.813,353.846 321.612 C 353.846 321.410,354.093 321.245,354.396 321.245 C 354.698 321.245,354.945 320.998,354.945 320.696 C 354.945 320.394,355.110 320.147,355.311 320.147 C 355.513 320.147,355.678 319.899,355.678 319.597 C 355.678 319.295,355.925 319.048,356.227 319.048 C 356.569 319.048,356.777 318.702,356.777 318.132 C 356.777 317.562,356.984 317.216,357.326 317.216 C 357.628 317.216,357.875 316.969,357.875 316.667 C 357.875 316.364,358.123 316.117,358.425 316.117 C 358.767 316.117,358.974 315.771,358.974 315.201 C 358.974 314.698,359.139 314.286,359.341 314.286 C 359.542 314.286,359.707 314.038,359.707 313.736 C 359.707 313.434,359.954 313.187,360.256 313.187 C 360.598 313.187,360.806 312.841,360.806 312.271 C 360.806 311.701,361.013 311.355,361.355 311.355 C 361.658 311.355,361.905 311.108,361.905 310.806 C 361.905 310.504,362.070 310.256,362.271 310.256 C 362.473 310.256,362.637 310.009,362.637 309.707 C 362.637 309.405,362.885 309.158,363.187 309.158 C 363.529 309.158,363.736 308.812,363.736 308.242 C 363.736 307.672,363.944 307.326,364.286 307.326 C 364.652 307.326,364.835 306.960,364.835 306.227 C 364.835 305.623,365.012 305.128,365.228 305.128 C 365.927 305.128,366.667 304.106,366.667 303.140 C 366.667 302.547,366.870 302.198,367.216 302.198 C 367.558 302.198,367.766 301.852,367.766 301.282 C 367.766 300.712,367.973 300.366,368.315 300.366 C 368.681 300.366,368.864 300.000,368.864 299.267 C 368.864 298.663,369.029 298.168,369.231 298.168 C 369.432 298.168,369.597 297.756,369.597 297.253 C 369.597 296.683,369.805 296.337,370.147 296.337 C 370.449 296.337,370.696 296.090,370.696 295.788 C 370.696 295.485,370.943 295.238,371.245 295.238 C 371.587 295.238,371.795 294.892,371.795 294.322 C 371.795 293.819,371.960 293.407,372.161 293.407 C 372.363 293.407,372.527 292.747,372.527 291.941 C 372.527 290.883,372.680 290.476,373.077 290.476 C 373.443 290.476,373.626 290.110,373.626 289.377 C 373.626 288.645,373.810 288.278,374.176 288.278 C 374.518 288.278,374.725 287.932,374.725 287.363 C 374.725 286.793,374.933 286.447,375.275 286.447 C 375.672 286.447,375.824 286.040,375.824 284.982 C 375.824 284.176,375.989 283.516,376.190 283.516 C 376.392 283.516,376.557 283.022,376.557 282.418 C 376.557 281.685,376.740 281.319,377.106 281.319 C 377.448 281.319,377.656 280.973,377.656 280.403 C 377.656 279.833,377.863 279.487,378.205 279.487 C 378.602 279.487,378.755 279.080,378.755 278.022 C 378.755 277.216,378.919 276.557,379.121 276.557 C 379.322 276.557,379.487 275.897,379.487 275.092 C 379.487 274.033,379.640 273.626,380.037 273.626 C 380.458 273.626,380.586 273.158,380.586 271.612 C 380.586 270.065,380.714 269.597,381.136 269.597 C 381.502 269.597,381.685 269.231,381.685 268.498 C 381.685 267.766,381.868 267.399,382.234 267.399 C 382.631 267.399,382.784 266.992,382.784 265.934 C 382.784 265.128,382.949 264.469,383.150 264.469 C 383.352 264.469,383.516 263.562,383.516 262.454 C 383.516 260.908,383.644 260.440,384.066 260.440 C 384.463 260.440,384.615 260.033,384.615 258.974 C 384.615 257.916,384.768 257.509,385.165 257.509 C 385.597 257.509,385.714 257.000,385.714 255.128 C 385.714 253.785,385.874 252.747,386.081 252.747 C 386.296 252.747,386.447 251.465,386.447 249.634 C 386.447 247.110,386.551 246.520,386.996 246.520 C 387.428 246.520,387.546 246.011,387.546 244.139 C 387.546 242.267,387.663 241.758,388.095 241.758 C 388.550 241.758,388.645 241.066,388.645 237.729 C 388.645 234.392,388.739 233.700,389.194 233.700 C 389.675 233.700,389.744 231.543,389.744 216.484 C 389.744 201.425,389.675 199.267,389.194 199.267 C 388.735 199.267,388.645 198.514,388.645 194.689 C 388.645 190.863,388.554 190.110,388.095 190.110 C 387.673 190.110,387.546 189.642,387.546 188.095 C 387.546 186.549,387.418 186.081,386.996 186.081 C 386.554 186.081,386.447 185.511,386.447 183.150 C 386.447 181.441,386.294 180.220,386.081 180.220 C 385.871 180.220,385.714 179.121,385.714 177.656 C 385.714 175.621,385.601 175.092,385.165 175.092 C 384.768 175.092,384.615 174.685,384.615 173.626 C 384.615 172.568,384.463 172.161,384.066 172.161 C 383.651 172.161,383.516 171.713,383.516 170.330 C 383.516 169.322,383.352 168.498,383.150 168.498 C 382.949 168.498,382.784 167.756,382.784 166.850 C 382.784 165.629,382.641 165.201,382.234 165.201 C 381.838 165.201,381.685 164.794,381.685 163.736 C 381.685 162.678,381.532 162.271,381.136 162.271 C 380.739 162.271,380.586 161.864,380.586 160.806 C 380.586 159.748,380.433 159.341,380.037 159.341 C 379.640 159.341,379.487 158.934,379.487 157.875 C 379.487 157.070,379.322 156.410,379.121 156.410 C 378.919 156.410,378.755 155.751,378.755 154.945 C 378.755 153.887,378.602 153.480,378.205 153.480 C 377.808 153.480,377.656 153.073,377.656 152.015 C 377.656 151.088,377.487 150.548,377.198 150.547 C 376.600 150.543,375.824 148.848,375.824 147.546 C 375.824 146.878,375.632 146.520,375.275 146.520 C 374.878 146.520,374.725 146.113,374.725 145.055 C 374.725 143.997,374.573 143.590,374.176 143.590 C 373.874 143.590,373.626 143.342,373.626 143.040 C 373.626 142.738,373.379 142.491,373.077 142.491 C 372.680 142.491,372.527 142.084,372.527 141.026 C 372.527 140.220,372.363 139.560,372.161 139.560 C 371.960 139.560,371.795 139.148,371.795 138.645 C 371.795 138.075,371.587 137.729,371.245 137.729 C 370.879 137.729,370.696 137.363,370.696 136.630 C 370.696 135.897,370.513 135.531,370.147 135.531 C 369.805 135.531,369.597 135.185,369.597 134.615 C 369.597 134.112,369.432 133.700,369.231 133.700 C 369.029 133.700,368.864 133.452,368.864 133.150 C 368.864 132.848,368.617 132.601,368.315 132.601 C 367.918 132.601,367.766 132.194,367.766 131.136 C 367.766 130.077,367.613 129.670,367.216 129.670 C 366.914 129.670,366.667 129.423,366.667 129.121 C 366.667 128.819,366.502 128.571,366.300 128.571 C 366.099 128.571,365.934 128.324,365.934 128.022 C 365.934 127.720,365.687 127.473,365.385 127.473 C 365.043 127.473,364.835 127.127,364.835 126.557 C 364.835 125.987,364.628 125.641,364.286 125.641 C 363.944 125.641,363.736 125.295,363.736 124.725 C 363.736 124.155,363.529 123.810,363.187 123.810 C 362.885 123.810,362.637 123.562,362.637 123.260 C 362.637 122.958,362.473 122.711,362.271 122.711 C 362.070 122.711,361.905 122.216,361.905 121.612 C 361.905 120.879,361.722 120.513,361.355 120.513 C 361.053 120.513,360.806 120.348,360.806 120.147 C 360.806 119.945,360.559 119.780,360.256 119.780 C 359.910 119.780,359.707 119.431,359.707 118.838 C 359.707 117.872,358.967 116.850,358.268 116.850 C 358.052 116.850,357.875 116.355,357.875 115.751 C 357.875 115.018,357.692 114.652,357.326 114.652 C 357.024 114.652,356.777 114.405,356.777 114.103 C 356.777 113.800,356.529 113.553,356.227 113.553 C 355.885 113.553,355.678 113.207,355.678 112.637 C 355.678 112.134,355.513 111.722,355.311 111.722 C 355.110 111.722,354.945 111.474,354.945 111.172 C 354.945 110.870,354.698 110.623,354.396 110.623 C 354.093 110.623,353.846 110.458,353.846 110.256 C 353.846 110.055,353.599 109.890,353.297 109.890 C 352.930 109.890,352.747 109.524,352.747 108.791 C 352.747 107.863,352.605 107.692,351.832 107.692 C 351.099 107.692,350.916 107.509,350.916 106.777 C 350.916 106.207,350.708 105.861,350.366 105.861 C 350.064 105.861,349.817 105.614,349.817 105.311 C 349.817 105.009,349.570 104.762,349.267 104.762 C 348.965 104.762,348.718 104.585,348.718 104.369 C 348.718 104.154,348.482 103.741,348.195 103.454 C 347.907 103.166,347.495 102.930,347.279 102.930 C 347.063 102.930,346.886 102.436,346.886 101.832 C 346.886 100.904,346.744 100.733,345.971 100.733 C 345.238 100.733,345.055 100.549,345.055 99.817 C 345.055 99.247,344.847 98.901,344.505 98.901 C 344.203 98.901,343.956 98.654,343.956 98.352 C 343.956 98.049,343.709 97.802,343.407 97.802 C 343.104 97.802,342.857 97.555,342.857 97.253 C 342.857 96.951,342.681 96.703,342.465 96.703 C 342.249 96.703,341.837 96.468,341.549 96.180 C 341.261 95.892,341.026 95.480,341.026 95.264 C 341.026 95.048,340.778 94.872,340.476 94.872 C 340.174 94.872,339.927 94.625,339.927 94.322 C 339.927 94.020,339.750 93.773,339.534 93.773 C 339.027 93.773,338.095 92.841,338.095 92.334 C 338.095 92.118,337.848 91.941,337.546 91.941 C 337.244 91.941,336.996 91.694,336.996 91.392 C 336.996 91.090,336.749 90.842,336.447 90.842 C 336.145 90.842,335.897 90.666,335.897 90.450 C 335.897 89.943,334.966 89.011,334.458 89.011 C 334.243 89.011,334.066 88.764,334.066 88.462 C 334.066 88.159,333.819 87.912,333.516 87.912 C 333.214 87.912,332.967 87.665,332.967 87.363 C 332.967 87.021,332.621 86.813,332.051 86.813 C 331.319 86.813,331.136 86.630,331.136 85.897 C 331.136 85.124,330.965 84.982,330.037 84.982 C 329.304 84.982,328.938 84.799,328.938 84.432 C 328.938 84.130,328.773 83.883,328.571 83.883 C 328.370 83.883,328.205 83.636,328.205 83.333 C 328.205 83.031,327.958 82.784,327.656 82.784 C 327.353 82.784,327.106 82.619,327.106 82.418 C 327.106 82.216,326.612 82.051,326.007 82.051 C 325.275 82.051,324.908 81.868,324.908 81.502 C 324.908 81.200,324.744 80.952,324.542 80.952 C 324.341 80.952,324.176 80.705,324.176 80.403 C 324.176 80.101,323.929 79.853,323.626 79.853 C 323.324 79.853,323.077 79.689,323.077 79.487 C 323.077 79.286,322.830 79.121,322.527 79.121 C 322.225 79.121,321.978 78.874,321.978 78.571 C 321.978 78.269,321.731 78.022,321.429 78.022 C 321.126 78.022,320.879 78.290,320.879 78.617 M257.418 102.090 C 257.871 102.177,258.613 102.177,259.066 102.090 C 259.519 102.003,259.148 101.931,258.242 101.931 C 257.335 101.931,256.964 102.003,257.418 102.090 M279.487 102.564 C 279.789 102.759,280.284 102.919,280.586 102.919 C 281.074 102.919,281.074 102.880,280.586 102.564 C 280.284 102.369,279.789 102.209,279.487 102.209 C 278.999 102.209,278.999 102.248,279.487 102.564 M244.674 109.545 C 244.235 110.161,243.937 110.726,244.012 110.801 C 244.087 110.875,244.518 110.371,244.971 109.681 C 245.992 108.123,245.761 108.018,244.674 109.545 M271.703 134.337 C 272.962 134.409,275.023 134.409,276.282 134.337 C 277.541 134.266,276.511 134.207,273.993 134.207 C 271.474 134.207,270.444 134.266,271.703 134.337 M109.975 146.520 C 109.975 147.225,110.050 147.514,110.143 147.161 C 110.235 146.809,110.235 146.232,110.143 145.879 C 110.050 145.527,109.975 145.815,109.975 146.520 M129.762 220.788 C 147.440 220.840,176.369 220.840,194.048 220.788 C 211.726 220.735,197.262 220.692,161.905 220.692 C 126.548 220.692,112.083 220.735,129.762 220.788 M135.645 245.604 C 135.647 246.813,135.715 247.264,135.797 246.605 C 135.878 245.947,135.876 244.958,135.793 244.407 C 135.709 243.857,135.643 244.396,135.645 245.604 M221.311 245.483 C 221.275 246.423,221.151 247.495,221.035 247.864 C 220.837 248.493,220.850 248.495,221.238 247.891 C 221.465 247.536,221.590 246.465,221.515 245.510 L 221.377 243.773 221.311 245.483 M328.430 260.283 C 327.904 261.226,327.473 262.060,327.473 262.138 C 327.473 262.281,323.985 267.979,322.459 270.330 C 307.959 292.662,288.970 311.212,266.961 324.544 C 264.281 326.167,261.841 327.653,261.538 327.845 C 260.705 328.375,248.473 334.481,245.971 335.616 C 236.319 339.993,220.767 345.010,212.271 346.487 C 211.264 346.662,208.791 347.137,206.777 347.543 C 195.428 349.826,173.130 350.922,161.538 349.767 C 152.360 348.852,144.901 347.816,141.026 346.919 C 127.066 343.686,119.968 341.637,112.858 338.787 C 111.327 338.172,109.414 337.415,108.608 337.104 C 106.389 336.247,105.455 335.820,98.805 332.622 C 95.427 330.999,92.501 329.670,92.303 329.670 C 92.104 329.670,91.941 329.542,91.941 329.384 C 91.941 329.227,91.488 328.908,90.934 328.675 C 90.380 328.442,89.020 327.728,87.912 327.089 C 86.804 326.450,85.156 325.516,84.249 325.013 C 83.342 324.510,81.490 323.363,80.133 322.464 C 77.876 320.969,76.923 320.722,76.923 321.633 C 76.923 321.823,77.170 321.978,77.473 321.978 C 77.775 321.978,78.022 322.225,78.022 322.527 C 78.022 322.830,78.269 323.077,78.571 323.077 C 78.917 323.077,79.121 323.426,79.121 324.019 C 79.121 324.985,79.861 326.007,80.560 326.007 C 80.776 326.007,80.952 326.255,80.952 326.557 C 80.952 326.859,81.200 327.106,81.502 327.106 C 81.804 327.106,82.051 327.353,82.051 327.656 C 82.051 327.958,82.216 328.205,82.418 328.205 C 82.619 328.205,82.784 328.617,82.784 329.121 C 82.784 329.691,82.991 330.037,83.333 330.037 C 83.636 330.037,83.883 330.284,83.883 330.586 C 83.883 330.888,84.130 331.136,84.432 331.136 C 84.734 331.136,84.982 331.383,84.982 331.685 C 84.982 331.987,85.158 332.234,85.374 332.234 C 85.881 332.234,86.813 333.166,86.813 333.673 C 86.813 333.889,87.060 334.066,87.363 334.066 C 87.705 334.066,87.912 334.412,87.912 334.982 C 87.912 335.714,88.095 335.897,88.828 335.897 C 89.398 335.897,89.744 336.105,89.744 336.447 C 89.744 336.749,89.991 336.996,90.293 336.996 C 90.595 336.996,90.842 337.244,90.842 337.546 C 90.842 337.848,91.090 338.095,91.392 338.095 C 91.694 338.095,91.941 338.260,91.941 338.462 C 91.941 338.663,92.189 338.828,92.491 338.828 C 92.793 338.828,93.040 339.075,93.040 339.377 C 93.040 339.679,93.205 339.927,93.407 339.927 C 93.608 339.927,93.773 340.174,93.773 340.476 C 93.773 340.778,94.020 341.026,94.322 341.026 C 94.625 341.026,94.872 341.273,94.872 341.575 C 94.872 341.877,95.048 342.125,95.264 342.125 C 95.771 342.125,96.703 343.056,96.703 343.564 C 96.703 343.779,96.951 343.956,97.253 343.956 C 97.555 343.956,97.802 344.203,97.802 344.505 C 97.802 344.808,97.979 345.055,98.195 345.055 C 98.702 345.055,99.634 345.987,99.634 346.494 C 99.634 346.710,100.128 346.886,100.733 346.886 C 101.709 346.886,101.832 347.009,101.832 347.985 C 101.832 348.913,101.974 349.084,102.747 349.084 C 103.251 349.084,103.663 349.249,103.663 349.451 C 103.663 349.652,103.910 349.817,104.212 349.817 C 104.515 349.817,104.762 350.064,104.762 350.366 C 104.762 350.668,105.009 350.916,105.311 350.916 C 105.614 350.916,105.861 351.092,105.861 351.308 C 105.861 352.007,106.883 352.747,107.849 352.747 C 108.442 352.747,108.791 352.951,108.791 353.297 C 108.791 353.599,109.038 353.846,109.341 353.846 C 109.643 353.846,109.890 354.093,109.890 354.396 C 109.890 354.698,110.055 354.945,110.256 354.945 C 110.458 354.945,110.623 355.192,110.623 355.495 C 110.623 355.840,110.972 356.044,111.565 356.044 C 112.531 356.044,113.553 356.784,113.553 357.483 C 113.553 357.699,114.048 357.875,114.652 357.875 C 115.385 357.875,115.751 358.059,115.751 358.425 C 115.751 358.727,115.928 358.974,116.143 358.974 C 116.651 358.974,117.582 359.906,117.582 360.413 C 117.582 360.629,118.077 360.806,118.681 360.806 C 119.414 360.806,119.780 360.989,119.780 361.355 C 119.780 361.658,119.945 361.905,120.147 361.905 C 120.348 361.905,120.513 362.152,120.513 362.454 C 120.513 362.821,120.879 363.004,121.612 363.004 C 122.216 363.004,122.711 363.168,122.711 363.370 C 122.711 363.571,122.958 363.736,123.260 363.736 C 123.562 363.736,123.810 363.984,123.810 364.286 C 123.810 364.628,124.155 364.835,124.725 364.835 C 125.256 364.835,125.641 365.046,125.641 365.337 C 125.641 365.632,126.207 365.932,127.015 366.065 C 129.100 366.410,180.597 366.262,179.121 365.915 C 178.416 365.750,176.438 365.350,174.725 365.028 C 173.013 364.705,171.035 364.298,170.330 364.122 C 169.625 363.947,168.223 363.691,167.216 363.555 C 166.209 363.418,164.890 363.086,164.286 362.816 C 163.250 362.354,160.899 361.739,158.425 361.283 C 157.821 361.171,157.161 360.960,156.960 360.814 C 156.758 360.668,155.687 360.257,154.579 359.901 C 153.471 359.545,152.023 359.026,151.361 358.748 C 150.700 358.470,149.669 358.242,149.072 358.242 C 148.474 358.242,147.985 358.077,147.985 357.875 C 147.985 357.674,147.697 357.508,147.344 357.507 C 146.992 357.506,146.231 357.258,145.654 356.957 C 145.077 356.656,144.380 356.410,144.104 356.410 C 143.829 356.410,142.488 355.890,141.124 355.255 C 139.760 354.619,138.315 353.983,137.912 353.841 C 136.102 353.201,122.366 346.223,121.978 345.745 C 121.877 345.621,121.071 345.153,120.187 344.704 C 119.302 344.256,118.241 343.574,117.828 343.190 C 117.416 342.805,116.870 342.491,116.616 342.491 C 116.362 342.491,115.363 341.955,114.396 341.300 L 112.637 340.110 113.697 339.989 C 114.279 339.922,114.858 340.033,114.982 340.235 C 115.107 340.436,115.662 340.715,116.216 340.854 C 116.770 340.993,117.314 341.253,117.424 341.433 C 117.535 341.612,118.079 341.758,118.633 341.758 C 119.187 341.758,119.960 342.000,120.351 342.296 C 120.742 342.592,121.680 342.839,122.436 342.845 C 123.191 342.852,123.810 343.009,123.810 343.194 C 123.810 343.380,124.345 343.637,125.000 343.765 C 125.655 343.894,126.520 344.148,126.923 344.331 C 127.597 344.636,128.835 344.917,133.333 345.784 C 134.240 345.958,136.053 346.362,137.363 346.682 C 143.253 348.117,148.481 348.933,160.073 350.226 C 164.349 350.703,187.744 350.467,193.956 349.884 C 198.317 349.474,201.790 348.987,205.311 348.291 C 206.319 348.092,208.049 347.777,209.158 347.591 C 214.037 346.774,223.960 344.283,228.388 342.762 C 229.799 342.278,231.941 341.573,233.150 341.196 C 234.359 340.819,235.595 340.393,235.897 340.250 C 236.200 340.107,237.353 339.637,238.462 339.206 C 239.570 338.775,240.806 338.283,241.209 338.113 C 241.612 337.943,242.518 337.563,243.223 337.269 C 253.641 332.921,267.797 325.107,275.856 319.257 C 283.628 313.615,285.121 312.439,291.000 307.330 C 303.843 296.170,315.273 282.684,324.534 267.766 C 327.114 263.608,329.717 258.899,329.535 258.717 C 329.454 258.636,328.957 259.341,328.430 260.283 " stroke="none" fill="#ececec" fill-rule="evenodd"></path></g></svg>