<svg id="svg" version="1.1" xmlns="http://www.w3.org/2000/svg" xmlns:xlink="http://www.w3.org/1999/xlink" width="400" height="327.1641791044776" viewBox="0, 0, 400,327.1641791044776"><g id="svgg"><path id="path0" d="M325.859 6.953 C 324.143 7.095,322.273 7.471,321.380 7.853 C 320.536 8.215,319.550 8.511,319.189 8.511 C 318.828 8.511,318.444 8.654,318.336 8.829 C 318.228 9.004,317.520 9.424,316.762 9.764 C 313.211 11.354,304.746 19.762,304.746 21.700 C 304.746 21.860,304.452 22.366,304.092 22.824 C 303.732 23.282,303.437 23.931,303.437 24.268 C 303.437 24.604,303.142 25.429,302.782 26.101 C 302.422 26.773,302.128 27.583,302.128 27.901 C 302.128 28.220,301.833 29.030,301.473 29.702 C 301.113 30.374,300.818 31.143,300.818 31.413 C 300.818 31.926,299.869 34.539,298.818 36.915 C 298.478 37.685,298.200 38.602,298.200 38.953 C 298.200 39.304,297.906 40.074,297.546 40.663 C 297.187 41.253,296.892 41.928,296.892 42.165 C 296.891 42.402,296.522 43.400,296.072 44.384 C 295.622 45.368,295.253 46.427,295.252 46.736 C 295.251 47.046,295.018 47.741,294.734 48.282 C 294.120 49.452,293.395 51.334,292.781 53.355 C 292.535 54.165,291.947 55.859,291.474 57.119 C 291.000 58.380,290.387 60.147,290.111 61.047 C 289.834 61.948,289.502 62.831,289.372 63.011 C 289.242 63.191,288.950 64.028,288.722 64.870 C 288.494 65.713,287.967 66.722,287.551 67.113 L 286.794 67.824 182.268 67.873 L 77.741 67.921 74.795 68.883 C 67.364 71.307,60.959 76.981,57.765 83.967 C 57.108 85.404,56.380 86.948,56.147 87.398 C 53.176 93.139,54.137 108.542,57.761 113.257 C 57.969 113.527,58.327 114.190,58.557 114.730 C 60.602 119.530,70.784 127.958,74.566 127.982 C 74.980 127.985,75.790 128.245,76.367 128.560 C 77.355 129.100,82.660 129.142,170.867 129.296 L 264.321 129.460 264.420 130.155 C 264.475 130.538,264.204 131.716,263.818 132.774 C 263.432 133.832,263.000 135.139,262.858 135.679 C 262.716 136.219,262.361 137.103,262.071 137.643 C 261.780 138.183,261.542 138.879,261.540 139.189 C 261.539 139.500,261.262 140.383,260.925 141.153 C 260.176 142.862,259.635 144.376,259.079 146.318 C 258.847 147.128,258.422 148.232,258.136 148.773 C 257.849 149.313,257.614 149.953,257.612 150.195 C 257.611 150.437,257.388 151.026,257.115 151.504 C 256.843 151.982,256.327 153.220,255.969 154.255 C 254.383 158.846,253.976 159.903,253.675 160.204 C 253.499 160.380,253.355 160.868,253.355 161.290 C 253.355 161.711,253.079 162.602,252.740 163.270 C 252.402 163.938,252.015 164.995,251.880 165.619 C 251.746 166.244,251.509 166.980,251.355 167.256 C 251.007 167.878,249.823 171.297,249.433 172.804 C 249.274 173.419,248.921 174.377,248.648 174.932 C 248.375 175.487,247.907 176.630,247.608 177.472 C 247.309 178.314,246.781 179.309,246.433 179.682 L 245.801 180.360 137.221 180.374 C 73.258 180.383,28.104 180.511,27.332 180.686 C 24.325 181.370,22.063 182.091,21.578 182.521 C 21.294 182.773,20.847 182.979,20.584 182.979 C 19.086 182.979,12.006 188.837,10.147 191.615 C 9.697 192.288,9.173 193.013,8.982 193.227 C 8.791 193.442,8.410 194.059,8.135 194.599 C 7.861 195.139,7.342 196.097,6.982 196.727 C 2.944 203.806,2.698 216.849,6.459 224.386 C 8.774 229.026,12.559 234.139,14.685 235.495 C 15.340 235.914,16.438 236.707,17.124 237.258 C 19.592 239.238,23.685 240.837,27.987 241.501 C 30.890 241.949,44.603 242.008,149.264 242.024 C 273.071 242.043,273.049 242.043,274.666 240.697 C 274.919 240.487,275.567 240.210,276.107 240.082 C 277.410 239.774,279.936 238.276,283.810 235.516 C 285.770 234.119,291.326 227.315,291.326 226.312 C 291.326 226.207,291.532 225.658,291.785 225.090 C 293.612 220.987,293.944 220.153,293.944 219.670 C 293.944 219.370,294.473 217.878,295.119 216.354 C 295.765 214.831,296.479 212.921,296.705 212.111 C 296.931 211.301,297.360 210.167,297.658 209.591 C 297.956 209.015,298.201 208.352,298.202 208.118 C 298.203 207.884,298.411 207.295,298.665 206.809 C 298.918 206.323,299.361 205.115,299.649 204.125 C 299.937 203.135,300.318 202.235,300.495 202.125 C 300.673 202.015,300.823 201.603,300.829 201.208 C 300.836 200.814,301.125 199.902,301.473 199.182 C 301.821 198.462,302.115 197.651,302.128 197.381 C 302.140 197.111,302.434 196.301,302.782 195.581 C 303.130 194.861,303.420 193.933,303.426 193.518 C 303.432 193.104,303.715 192.220,304.056 191.554 C 304.396 190.888,304.855 189.828,305.075 189.198 C 306.649 184.699,307.080 183.539,307.932 181.506 C 308.461 180.245,308.996 178.773,309.122 178.232 C 309.248 177.692,309.549 176.809,309.791 176.268 C 310.263 175.214,310.755 173.868,311.524 171.522 C 311.790 170.712,312.136 169.755,312.293 169.394 C 312.696 168.472,313.902 165.030,314.300 163.666 C 314.484 163.036,314.759 162.367,314.911 162.180 C 315.062 161.993,315.328 161.257,315.501 160.544 C 315.673 159.831,316.359 157.995,317.025 156.465 C 317.690 154.935,318.351 153.167,318.494 152.537 C 318.637 151.907,319.285 150.145,319.934 148.621 C 320.582 147.098,321.113 145.582,321.113 145.253 C 321.113 144.924,321.408 144.077,321.768 143.372 C 322.128 142.666,322.423 141.825,322.424 141.502 C 322.425 141.180,322.664 140.475,322.955 139.935 C 323.245 139.394,323.601 138.511,323.745 137.971 C 323.889 137.430,324.471 135.810,325.039 134.370 C 325.606 132.930,326.224 131.236,326.411 130.606 C 326.598 129.975,327.029 128.913,327.369 128.245 C 327.709 127.577,327.987 126.765,327.987 126.440 C 327.987 126.115,328.282 125.300,328.642 124.628 C 329.002 123.956,329.296 123.168,329.296 122.877 C 329.296 122.586,329.572 121.812,329.908 121.157 C 330.244 120.503,330.670 119.378,330.855 118.658 C 331.039 117.938,331.516 116.538,331.916 115.548 C 332.316 114.558,332.830 113.085,333.060 112.275 C 333.290 111.465,333.703 110.286,333.979 109.656 C 334.508 108.448,337.928 99.286,338.682 97.054 C 338.926 96.334,339.344 95.354,339.612 94.876 C 339.879 94.398,340.098 93.692,340.098 93.308 C 340.098 92.924,340.393 92.031,340.753 91.326 C 341.113 90.620,341.408 89.810,341.408 89.525 C 341.408 89.241,341.702 88.431,342.062 87.725 C 342.422 87.019,342.718 86.178,342.719 85.856 C 342.720 85.534,342.959 84.828,343.249 84.288 C 343.540 83.748,343.900 82.864,344.050 82.324 C 344.516 80.640,345.678 77.473,346.339 76.083 C 346.687 75.351,346.972 74.551,346.972 74.304 C 346.972 74.058,347.252 73.258,347.594 72.526 C 347.936 71.794,348.390 70.641,348.603 69.965 C 349.180 68.125,349.397 68.085,358.730 68.085 C 369.429 68.085,371.061 67.731,377.566 63.994 C 382.975 60.886,390.445 51.186,390.498 47.201 C 390.503 46.787,390.760 45.977,391.069 45.401 C 392.040 43.591,391.887 31.002,390.860 28.151 C 386.698 16.601,379.831 9.791,369.885 7.346 C 367.838 6.843,331.165 6.516,325.859 6.953 M65.630 263.066 C 56.362 265.077,46.221 274.638,44.358 283.122 C 44.236 283.677,43.892 284.608,43.594 285.192 C 42.803 286.740,42.821 299.437,43.618 301.146 C 43.911 301.776,44.322 302.949,44.529 303.752 C 47.631 315.741,62.422 325.655,74.194 323.635 C 79.411 322.740,80.607 322.448,81.179 321.931 C 81.477 321.661,81.978 321.440,82.292 321.440 C 83.071 321.440,85.496 320.013,88.052 318.049 C 93.769 313.657,98.174 306.494,99.153 300.000 C 99.343 298.740,99.648 297.194,99.831 296.565 C 100.245 295.143,100.239 291.645,99.819 289.689 C 99.645 288.879,99.347 287.259,99.157 286.088 C 98.966 284.918,98.526 283.336,98.178 282.573 C 97.830 281.810,97.545 281.057,97.545 280.900 C 97.545 280.743,96.956 279.542,96.236 278.232 C 95.516 276.922,94.926 275.727,94.926 275.576 C 94.926 275.425,94.572 275.069,94.139 274.786 C 93.706 274.502,93.267 273.929,93.162 273.513 C 92.449 270.671,82.207 263.944,77.414 263.169 C 75.495 262.859,66.930 262.784,65.630 263.066 M224.877 263.135 C 222.286 263.696,217.077 266.054,215.686 267.296 C 215.402 267.550,215.054 267.758,214.914 267.758 C 214.499 267.758,211.098 270.978,210.134 272.283 C 209.645 272.945,208.967 273.781,208.627 274.141 C 204.651 278.354,201.856 287.938,202.472 295.254 C 202.773 298.830,203.483 302.795,203.896 303.209 C 204.094 303.406,204.257 303.870,204.259 304.239 C 204.263 305.258,205.607 307.906,207.505 310.638 C 208.443 311.989,209.518 313.535,209.892 314.075 C 211.441 316.307,218.404 321.440,219.883 321.440 C 220.209 321.440,220.783 321.655,221.157 321.917 C 221.853 322.405,224.945 323.162,228.890 323.812 C 231.404 324.226,237.750 323.247,240.589 322.008 C 245.392 319.912,245.628 319.767,248.993 316.861 C 257.475 309.536,261.945 294.160,258.366 284.615 C 258.097 283.895,257.797 282.864,257.702 282.324 C 257.606 281.784,257.413 281.195,257.273 281.015 C 257.133 280.835,256.438 279.565,255.729 278.193 C 252.137 271.238,246.427 266.338,238.789 263.654 C 236.998 263.025,227.095 262.655,224.877 263.135 " stroke="none" fill="#8493a4" fill-rule="evenodd"></path><path id="path1" d="M0.000 163.666 L 0.000 327.332 200.000 327.332 L 400.000 327.332 400.000 163.666 L 400.000 0.000 200.000 0.000 L 0.000 0.000 0.000 163.666 M369.885 7.346 C 379.831 9.791,386.698 16.601,390.860 28.151 C 391.887 31.002,392.040 43.591,391.069 45.401 C 390.760 45.977,390.503 46.787,390.498 47.201 C 390.445 51.186,382.975 60.886,377.566 63.994 C 371.061 67.731,369.429 68.085,358.730 68.085 C 349.397 68.085,349.180 68.125,348.603 69.965 C 348.390 70.641,347.936 71.794,347.594 72.526 C 347.252 73.258,346.972 74.058,346.972 74.304 C 346.972 74.551,346.687 75.351,346.339 76.083 C 345.678 77.473,344.516 80.640,344.050 82.324 C 343.900 82.864,343.540 83.748,343.249 84.288 C 342.959 84.828,342.720 85.534,342.719 85.856 C 342.718 86.178,342.422 87.019,342.062 87.725 C 341.702 88.431,341.408 89.241,341.408 89.525 C 341.408 89.810,341.113 90.620,340.753 91.326 C 340.393 92.031,340.098 92.924,340.098 93.308 C 340.098 93.692,339.879 94.398,339.612 94.876 C 339.344 95.354,338.926 96.334,338.682 97.054 C 337.928 99.286,334.508 108.448,333.979 109.656 C 333.703 110.286,333.290 111.465,333.060 112.275 C 332.830 113.085,332.316 114.558,331.916 115.548 C 331.516 116.538,331.039 117.938,330.855 118.658 C 330.670 119.378,330.244 120.503,329.908 121.157 C 329.572 121.812,329.296 122.586,329.296 122.877 C 329.296 123.168,329.002 123.956,328.642 124.628 C 328.282 125.300,327.987 126.115,327.987 126.440 C 327.987 126.765,327.709 127.577,327.369 128.245 C 327.029 128.913,326.598 129.975,326.411 130.606 C 326.224 131.236,325.606 132.930,325.039 134.370 C 324.471 135.810,323.889 137.430,323.745 137.971 C 323.601 138.511,323.245 139.394,322.955 139.935 C 322.664 140.475,322.425 141.180,322.424 141.502 C 322.423 141.825,322.128 142.666,321.768 143.372 C 321.408 144.077,321.113 144.924,321.113 145.253 C 321.113 145.582,320.582 147.098,319.934 148.621 C 319.285 150.145,318.637 151.907,318.494 152.537 C 318.351 153.167,317.690 154.935,317.025 156.465 C 316.359 157.995,315.673 159.831,315.501 160.544 C 315.328 161.257,315.062 161.993,314.911 162.180 C 314.759 162.367,314.484 163.036,314.300 163.666 C 313.902 165.030,312.696 168.472,312.293 169.394 C 312.136 169.755,311.790 170.712,311.524 171.522 C 310.755 173.868,310.263 175.214,309.791 176.268 C 309.549 176.809,309.248 177.692,309.122 178.232 C 308.996 178.773,308.461 180.245,307.932 181.506 C 307.080 183.539,306.649 184.699,305.075 189.198 C 304.855 189.828,304.396 190.888,304.056 191.554 C 303.715 192.220,303.432 193.104,303.426 193.518 C 303.420 193.933,303.130 194.861,302.782 195.581 C 302.434 196.301,302.140 197.111,302.128 197.381 C 302.115 197.651,301.821 198.462,301.473 199.182 C 301.125 199.902,300.836 200.814,300.829 201.208 C 300.823 201.603,300.673 202.015,300.495 202.125 C 300.318 202.235,299.937 203.135,299.649 204.125 C 299.361 205.115,298.918 206.323,298.665 206.809 C 298.411 207.295,298.203 207.884,298.202 208.118 C 298.201 208.352,297.956 209.015,297.658 209.591 C 297.360 210.167,296.931 211.301,296.705 212.111 C 296.479 212.921,295.765 214.831,295.119 216.354 C 294.473 217.878,293.944 219.370,293.944 219.670 C 293.944 220.153,293.612 220.987,291.785 225.090 C 291.532 225.658,291.326 226.207,291.326 226.312 C 291.326 227.315,285.770 234.119,283.810 235.516 C 279.936 238.276,277.410 239.774,276.107 240.082 C 275.567 240.210,274.919 240.487,274.666 240.697 C 273.049 242.043,273.071 242.043,149.264 242.024 C 44.603 242.008,30.890 241.949,27.987 241.501 C 23.685 240.837,19.592 239.238,17.124 237.258 C 16.438 236.707,15.340 235.914,14.685 235.495 C 12.559 234.139,8.774 229.026,6.459 224.386 C 2.698 216.849,2.944 203.806,6.982 196.727 C 7.342 196.097,7.861 195.139,8.135 194.599 C 8.410 194.059,8.791 193.442,8.982 193.227 C 9.173 193.013,9.697 192.288,10.147 191.615 C 12.006 188.837,19.086 182.979,20.584 182.979 C 20.847 182.979,21.294 182.773,21.578 182.521 C 22.063 182.091,24.325 181.370,27.332 180.686 C 28.104 180.511,73.258 180.383,137.221 180.374 L 245.801 180.360 246.433 179.682 C 246.781 179.309,247.309 178.314,247.608 177.472 C 247.907 176.630,248.375 175.487,248.648 174.932 C 248.921 174.377,249.274 173.419,249.433 172.804 C 249.823 171.297,251.007 167.878,251.355 167.256 C 251.509 166.980,251.746 166.244,251.880 165.619 C 252.015 164.995,252.402 163.938,252.740 163.270 C 253.079 162.602,253.355 161.711,253.355 161.290 C 253.355 160.868,253.499 160.380,253.675 160.204 C 253.976 159.903,254.383 158.846,255.969 154.255 C 256.327 153.220,256.843 151.982,257.115 151.504 C 257.388 151.026,257.611 150.437,257.612 150.195 C 257.614 149.953,257.849 149.313,258.136 148.773 C 258.422 148.232,258.847 147.128,259.079 146.318 C 259.635 144.376,260.176 142.862,260.925 141.153 C 261.262 140.383,261.539 139.500,261.540 139.189 C 261.542 138.879,261.780 138.183,262.071 137.643 C 262.361 137.103,262.716 136.219,262.858 135.679 C 263.000 135.139,263.432 133.832,263.818 132.774 C 264.204 131.716,264.475 130.538,264.420 130.155 L 264.321 129.460 170.867 129.296 C 82.660 129.142,77.355 129.100,76.367 128.560 C 75.790 128.245,74.980 127.985,74.566 127.982 C 70.784 127.958,60.602 119.530,58.557 114.730 C 58.327 114.190,57.969 113.527,57.761 113.257 C 54.137 108.542,53.176 93.139,56.147 87.398 C 56.380 86.948,57.108 85.404,57.765 83.967 C 60.959 76.981,67.364 71.307,74.795 68.883 L 77.741 67.921 182.268 67.873 L 286.794 67.824 287.551 67.113 C 287.967 66.722,288.494 65.713,288.722 64.870 C 288.950 64.028,289.242 63.191,289.372 63.011 C 289.502 62.831,289.834 61.948,290.111 61.047 C 290.387 60.147,291.000 58.380,291.474 57.119 C 291.947 55.859,292.535 54.165,292.781 53.355 C 293.395 51.334,294.120 49.452,294.734 48.282 C 295.018 47.741,295.251 47.046,295.252 46.736 C 295.253 46.427,295.622 45.368,296.072 44.384 C 296.522 43.400,296.891 42.402,296.892 42.165 C 296.892 41.928,297.187 41.253,297.546 40.663 C 297.906 40.074,298.200 39.304,298.200 38.953 C 298.200 38.602,298.478 37.685,298.818 36.915 C 299.869 34.539,300.818 31.926,300.818 31.413 C 300.818 31.143,301.113 30.374,301.473 29.702 C 301.833 29.030,302.128 28.220,302.128 27.901 C 302.128 27.583,302.422 26.773,302.782 26.101 C 303.142 25.429,303.437 24.604,303.437 24.268 C 303.437 23.931,303.732 23.282,304.092 22.824 C 304.452 22.366,304.746 21.860,304.746 21.700 C 304.746 19.762,313.211 11.354,316.762 9.764 C 317.520 9.424,318.228 9.004,318.336 8.829 C 318.444 8.654,318.828 8.511,319.189 8.511 C 319.550 8.511,320.536 8.215,321.380 7.853 C 323.751 6.837,327.232 6.703,348.445 6.807 C 363.572 6.881,368.499 7.005,369.885 7.346 M77.414 263.169 C 82.207 263.944,92.449 270.671,93.162 273.513 C 93.267 273.929,93.706 274.502,94.139 274.786 C 94.572 275.069,94.926 275.425,94.926 275.576 C 94.926 275.727,95.516 276.922,96.236 278.232 C 96.956 279.542,97.545 280.743,97.545 280.900 C 97.545 281.057,97.830 281.810,98.178 282.573 C 98.526 283.336,98.966 284.918,99.157 286.088 C 99.347 287.259,99.645 288.879,99.819 289.689 C 100.239 291.645,100.245 295.143,99.831 296.565 C 99.648 297.194,99.343 298.740,99.153 300.000 C 98.174 306.494,93.769 313.657,88.052 318.049 C 85.496 320.013,83.071 321.440,82.292 321.440 C 81.978 321.440,81.477 321.661,81.179 321.931 C 80.607 322.448,79.411 322.740,74.194 323.635 C 66.475 324.960,57.985 321.722,51.123 314.837 C 48.727 312.433,45.273 306.626,44.529 303.752 C 44.322 302.949,43.911 301.776,43.618 301.146 C 42.821 299.437,42.803 286.740,43.594 285.192 C 43.892 284.608,44.236 283.677,44.358 283.122 C 46.221 274.638,56.362 265.077,65.630 263.066 C 66.930 262.784,75.495 262.859,77.414 263.169 M238.789 263.654 C 246.427 266.338,252.137 271.238,255.729 278.193 C 256.438 279.565,257.133 280.835,257.273 281.015 C 257.413 281.195,257.606 281.784,257.702 282.324 C 257.797 282.864,258.097 283.895,258.366 284.615 C 261.945 294.160,257.475 309.536,248.993 316.861 C 245.628 319.767,245.392 319.912,240.589 322.008 C 237.750 323.247,231.404 324.226,228.890 323.812 C 224.945 323.162,221.853 322.405,221.157 321.917 C 220.783 321.655,220.209 321.440,219.883 321.440 C 218.404 321.440,211.441 316.307,209.892 314.075 C 209.518 313.535,208.443 311.989,207.505 310.638 C 205.607 307.906,204.263 305.258,204.259 304.239 C 204.257 303.870,204.094 303.406,203.896 303.209 C 203.483 302.795,202.773 298.830,202.472 295.254 C 201.856 287.938,204.651 278.354,208.627 274.141 C 208.967 273.781,209.645 272.945,210.134 272.283 C 211.098 270.978,214.499 267.758,214.914 267.758 C 215.054 267.758,215.402 267.550,215.686 267.296 C 217.077 266.054,222.286 263.696,224.877 263.135 C 227.095 262.655,236.998 263.025,238.789 263.654 " stroke="none" fill="#ffffff" fill-rule="evenodd"></path></g></svg>