<svg id="svg" version="1.1" xmlns="http://www.w3.org/2000/svg" xmlns:xlink="http://www.w3.org/1999/xlink" width="400" height="343.4869739478958" viewBox="0, 0, 400,343.4869739478958"><g id="svgg"><path id="path0" d="M328.840 6.894 C 321.595 7.708,313.683 12.837,309.415 19.487 C 307.073 23.137,306.731 24.013,300.179 43.127 C 299.532 45.017,297.216 51.665,295.033 57.900 C 292.851 64.135,291.065 69.429,291.065 69.663 C 291.065 70.448,289.930 70.457,186.254 70.539 L 82.990 70.621 80.625 71.382 C 51.201 80.847,53.073 127.757,83.106 133.535 C 85.238 133.946,99.736 134.021,177.006 134.021 C 235.670 134.021,268.385 134.140,268.385 134.353 C 268.385 134.536,267.206 138.054,265.766 142.171 C 263.109 149.765,261.238 155.198,259.460 160.481 C 257.532 166.212,256.353 169.598,256.049 170.275 C 255.879 170.653,254.451 174.711,252.875 179.292 L 250.010 187.621 141.757 187.711 L 33.505 187.801 30.928 188.598 C 1.951 197.564,2.429 244.087,31.564 250.531 C 36.375 251.595,270.559 251.571,275.126 250.506 C 282.095 248.881,288.546 243.938,292.496 237.198 C 294.459 233.848,295.673 230.634,301.358 213.746 C 301.899 212.139,303.424 207.732,304.747 203.952 C 311.829 183.722,314.184 176.949,315.798 172.165 C 316.968 168.697,320.952 157.247,324.406 147.423 C 325.769 143.548,327.317 139.064,327.845 137.457 C 328.374 135.851,329.380 132.912,330.080 130.928 C 330.780 128.943,331.940 125.619,332.658 123.540 C 333.376 121.460,335.124 116.435,336.541 112.371 C 337.959 108.308,340.305 101.581,341.755 97.423 C 343.206 93.265,344.750 88.780,345.186 87.457 C 346.077 84.760,350.661 71.622,351.022 70.732 C 351.231 70.219,352.303 70.143,361.109 70.023 C 372.171 69.871,372.238 69.859,377.693 66.952 C 401.963 54.020,396.956 12.715,370.447 7.176 C 368.271 6.721,332.537 6.479,328.840 6.894 M71.408 273.869 C 52.652 277.303,42.235 301.755,51.595 320.372 C 63.385 343.820,94.094 341.153,102.186 315.979 C 109.446 293.398,92.367 270.032,71.408 273.869 M229.579 273.890 C 211.449 277.728,201.063 299.612,208.644 317.999 C 220.661 347.143,258.545 340.386,261.847 308.511 C 263.963 288.077,247.253 270.148,229.579 273.890 " stroke="none" fill="#fbfbfb" fill-rule="evenodd"></path><path id="path1" d="M0.000 171.821 L 0.000 343.643 200.000 343.643 L 400.000 343.643 400.000 171.821 L 400.000 0.000 200.000 0.000 L 0.000 0.000 0.000 171.821 M368.729 6.541 C 396.825 10.184,403.208 53.348,377.730 67.412 C 373.202 69.911,371.563 70.204,360.861 70.425 L 351.447 70.619 349.398 76.460 C 348.271 79.674,346.369 85.163,345.172 88.660 C 342.921 95.238,339.779 104.304,335.229 117.354 C 333.779 121.512,332.227 125.997,331.780 127.320 C 331.333 128.643,329.785 133.127,328.341 137.285 C 325.384 145.803,323.265 151.923,319.300 163.402 C 316.060 172.782,310.639 188.400,309.281 192.268 C 305.819 202.131,298.906 222.072,297.242 226.998 C 292.408 241.312,285.894 248.324,274.869 251.084 C 271.072 252.035,35.129 252.068,31.767 251.119 C 23.427 248.763,15.218 242.091,12.747 235.660 C 12.582 235.231,12.058 234.029,11.583 232.990 C 4.667 217.863,11.531 197.375,25.945 190.119 C 31.027 187.560,19.007 187.821,140.717 187.629 L 249.648 187.457 253.675 175.945 C 255.890 169.613,258.651 161.649,259.811 158.247 C 261.670 152.796,267.523 135.936,267.951 134.798 C 268.078 134.461,248.887 134.353,175.379 134.277 C 89.915 134.189,82.502 134.136,80.809 133.608 C 52.373 124.734,51.647 81.632,79.758 71.218 L 82.302 70.275 186.305 70.186 C 284.768 70.101,290.320 70.065,290.543 69.498 C 290.674 69.169,292.172 64.880,293.873 59.966 C 295.575 55.052,298.974 45.232,301.428 38.144 C 303.882 31.057,306.528 23.973,307.307 22.402 C 311.498 13.959,319.862 7.652,328.340 6.544 C 331.356 6.149,365.690 6.147,368.729 6.541 M82.385 274.048 C 108.792 281.123,112.219 321.814,87.457 334.279 C 73.245 341.433,56.584 334.201,50.164 318.091 C 40.662 294.244,59.853 268.012,82.385 274.048 M240.349 274.039 C 259.821 278.978,268.681 304.145,257.598 323.031 C 247.168 340.807,223.111 341.671,211.813 324.677 C 195.845 300.660,214.537 267.491,240.349 274.039 " stroke="none" fill="#1c1c1c" fill-rule="evenodd"></path><path id="path2" d="M329.128 6.772 C 329.555 6.854,330.174 6.851,330.502 6.765 C 330.831 6.679,330.481 6.612,329.725 6.616 C 328.969 6.620,328.700 6.690,329.128 6.772 M366.928 6.772 C 367.356 6.854,367.974 6.851,368.303 6.765 C 368.632 6.679,368.282 6.612,367.526 6.616 C 366.770 6.620,366.501 6.690,366.928 6.772 M313.384 14.347 L 312.199 15.636 313.488 14.451 C 314.687 13.349,314.935 13.058,314.672 13.058 C 314.615 13.058,314.035 13.638,313.384 14.347 M393.584 38.660 C 393.585 39.983,393.647 40.482,393.722 39.769 C 393.796 39.056,393.795 37.974,393.719 37.363 C 393.643 36.753,393.582 37.337,393.584 38.660 M384.008 62.285 L 382.302 64.089 384.107 62.384 C 385.099 61.446,385.911 60.634,385.911 60.580 C 385.911 60.324,385.592 60.609,384.008 62.285 M137.715 70.361 C 165.735 70.409,211.585 70.409,239.605 70.361 C 267.625 70.312,244.699 70.273,188.660 70.273 C 132.620 70.273,109.695 70.312,137.715 70.361 M75.859 73.049 C 74.574 73.746,74.653 74.036,75.945 73.368 C 76.512 73.074,76.976 72.761,76.976 72.672 C 76.976 72.450,76.939 72.463,75.859 73.049 M59.186 102.749 C 59.186 103.411,59.257 103.681,59.343 103.351 C 59.430 103.020,59.430 102.479,59.343 102.148 C 59.257 101.817,59.186 102.088,59.186 102.749 M65.979 123.024 C 66.383 123.591,66.791 124.055,66.885 124.055 C 66.980 124.055,66.727 123.591,66.323 123.024 C 65.919 122.457,65.512 121.993,65.417 121.993 C 65.323 121.993,65.576 122.457,65.979 123.024 M131.701 134.278 C 156.791 134.327,197.848 134.327,222.938 134.278 C 248.028 134.230,227.500 134.190,177.320 134.190 C 127.139 134.190,106.611 134.230,131.701 134.278 M17.676 196.649 L 16.667 197.766 17.784 196.757 C 18.398 196.202,18.900 195.699,18.900 195.640 C 18.900 195.375,18.617 195.608,17.676 196.649 M287.788 243.385 L 286.082 245.189 287.887 243.484 C 289.563 241.899,289.848 241.581,289.592 241.581 C 289.538 241.581,288.726 242.393,287.788 243.385 M18.729 243.643 C 19.467 244.399,20.148 245.017,20.243 245.017 C 20.337 245.017,19.810 244.399,19.072 243.643 C 18.334 242.887,17.653 242.268,17.558 242.268 C 17.464 242.268,17.990 242.887,18.729 243.643 M20.962 245.486 C 20.962 245.580,21.426 245.988,21.993 246.392 C 22.560 246.795,23.024 247.049,23.024 246.954 C 23.024 246.860,22.560 246.452,21.993 246.048 C 21.426 245.644,20.962 245.391,20.962 245.486 M94.244 251.460 C 126.705 251.509,179.824 251.509,212.285 251.460 C 244.747 251.412,218.187 251.373,153.265 251.373 C 88.342 251.373,61.783 251.412,94.244 251.460 M57.206 281.529 L 55.155 283.677 57.302 281.626 C 59.297 279.721,59.607 279.381,59.354 279.381 C 59.300 279.381,58.334 280.348,57.206 281.529 M215.445 281.357 L 214.261 282.646 215.550 281.462 C 216.749 280.360,216.996 280.069,216.734 280.069 C 216.677 280.069,216.097 280.649,215.445 281.357 M94.845 281.894 C 94.845 281.954,95.348 282.456,95.962 283.011 L 97.079 284.021 96.070 282.904 C 95.129 281.863,94.845 281.629,94.845 281.894 M261.954 302.234 C 261.957 303.179,262.023 303.525,262.102 303.002 C 262.181 302.480,262.179 301.707,262.098 301.284 C 262.016 300.861,261.951 301.289,261.954 302.234 M103.906 304.983 C 103.906 306.873,103.964 307.602,104.034 306.604 C 104.103 305.605,104.103 304.059,104.032 303.167 C 103.962 302.276,103.905 303.093,103.906 304.983 M261.949 307.904 C 261.949 308.754,262.016 309.102,262.098 308.677 C 262.180 308.252,262.180 307.556,262.098 307.131 C 262.016 306.705,261.949 307.053,261.949 307.904 M94.661 328.608 L 92.955 330.412 94.759 328.707 C 95.752 327.769,96.564 326.957,96.564 326.903 C 96.564 326.647,96.245 326.932,94.661 328.608 M251.353 329.983 L 250.344 331.100 251.460 330.090 C 252.075 329.535,252.577 329.033,252.577 328.974 C 252.577 328.708,252.294 328.942,251.353 329.983 M73.625 336.663 C 73.956 336.749,74.497 336.749,74.828 336.663 C 75.159 336.577,74.888 336.506,74.227 336.506 C 73.565 336.506,73.295 336.577,73.625 336.663 M231.533 336.669 C 231.961 336.751,232.579 336.748,232.908 336.662 C 233.236 336.576,232.887 336.509,232.131 336.513 C 231.375 336.517,231.106 336.587,231.533 336.669 M235.481 336.663 C 235.812 336.749,236.353 336.749,236.684 336.663 C 237.015 336.577,236.744 336.506,236.082 336.506 C 235.421 336.506,235.150 336.577,235.481 336.663 " stroke="none" fill="#9c9c9c" fill-rule="evenodd"></path><path id="path3" d="M355.604 70.360 C 357.930 70.419,361.641 70.419,363.851 70.360 C 366.061 70.300,364.158 70.251,359.622 70.251 C 355.086 70.252,353.278 70.300,355.604 70.360 M205.952 305.155 C 205.952 306.383,206.014 306.886,206.091 306.271 C 206.167 305.657,206.167 304.652,206.091 304.038 C 206.014 303.424,205.952 303.926,205.952 305.155 M262.279 305.155 C 262.279 305.816,262.350 306.087,262.436 305.756 C 262.523 305.425,262.523 304.884,262.436 304.553 C 262.350 304.223,262.279 304.493,262.279 305.155 " stroke="none" fill="#8c8c8c" fill-rule="evenodd"></path><path id="path4" d="M339.237 6.443 C 344.279 6.497,352.630 6.497,357.794 6.443 C 362.957 6.390,358.832 6.346,348.625 6.346 C 338.419 6.346,334.194 6.389,339.237 6.443 M383.162 13.574 C 383.803 14.235,384.405 14.777,384.499 14.777 C 384.594 14.777,384.146 14.235,383.505 13.574 C 382.864 12.912,382.262 12.371,382.168 12.371 C 382.073 12.371,382.520 12.912,383.162 13.574 M313.214 14.175 L 311.856 15.636 313.316 14.277 C 314.674 13.014,314.935 12.715,314.675 12.715 C 314.618 12.715,313.961 13.372,313.214 14.175 M307.028 22.712 C 306.726 23.297,306.540 23.836,306.614 23.911 C 306.689 23.985,307.007 23.507,307.321 22.848 C 308.028 21.366,307.783 21.253,307.028 22.712 M393.564 34.708 C 393.564 35.558,393.631 35.906,393.713 35.481 C 393.795 35.056,393.795 34.360,393.713 33.935 C 393.631 33.509,393.564 33.857,393.564 34.708 M393.557 42.096 C 393.561 42.852,393.632 43.121,393.714 42.694 C 393.796 42.266,393.793 41.648,393.707 41.319 C 393.621 40.990,393.554 41.340,393.557 42.096 M384.192 62.371 C 383.358 63.222,382.752 63.918,382.847 63.918 C 382.941 63.918,383.701 63.222,384.536 62.371 C 385.371 61.521,385.976 60.825,385.882 60.825 C 385.787 60.825,385.027 61.521,384.192 62.371 M368.127 70.340 C 368.458 70.426,368.999 70.426,369.330 70.340 C 369.661 70.254,369.390 70.183,368.729 70.183 C 368.067 70.183,367.796 70.254,368.127 70.340 M59.193 98.797 C 59.197 99.553,59.267 99.822,59.350 99.395 C 59.432 98.967,59.429 98.349,59.343 98.020 C 59.257 97.691,59.189 98.041,59.193 98.797 M59.186 105.842 C 59.186 106.503,59.257 106.774,59.343 106.443 C 59.430 106.113,59.430 105.571,59.343 105.241 C 59.257 104.910,59.186 105.180,59.186 105.842 M318.939 163.612 C 318.727 164.219,318.614 164.776,318.687 164.850 C 318.761 164.923,318.994 164.487,319.206 163.879 C 319.418 163.272,319.531 162.715,319.457 162.642 C 319.384 162.568,319.150 163.005,318.939 163.612 M18.020 195.962 L 17.010 197.079 18.127 196.070 C 19.168 195.129,19.402 194.845,19.136 194.845 C 19.077 194.845,18.575 195.348,18.020 195.962 M9.057 219.416 C 9.056 221.117,9.114 221.856,9.186 221.058 C 9.258 220.261,9.259 218.869,9.188 217.966 C 9.117 217.062,9.058 217.715,9.057 219.416 M287.785 243.729 L 286.426 245.189 287.887 243.831 C 288.690 243.083,289.347 242.426,289.347 242.370 C 289.347 242.110,289.048 242.370,287.785 243.729 M33.419 251.440 C 33.750 251.526,34.291 251.526,34.622 251.440 C 34.953 251.353,34.682 251.282,34.021 251.282 C 33.359 251.282,33.088 251.353,33.419 251.440 M36.512 251.783 C 36.843 251.870,37.384 251.870,37.715 251.783 C 38.046 251.697,37.775 251.626,37.113 251.626 C 36.452 251.626,36.181 251.697,36.512 251.783 M38.918 251.783 C 39.248 251.870,39.790 251.870,40.120 251.783 C 40.451 251.697,40.180 251.626,39.519 251.626 C 38.857 251.626,38.587 251.697,38.918 251.783 M41.323 251.783 C 41.654 251.870,42.195 251.870,42.526 251.783 C 42.857 251.697,42.586 251.626,41.924 251.626 C 41.263 251.626,40.992 251.697,41.323 251.783 M43.729 251.783 C 44.059 251.870,44.601 251.870,44.931 251.783 C 45.262 251.697,44.991 251.626,44.330 251.626 C 43.668 251.626,43.398 251.697,43.729 251.783 M46.134 251.783 C 46.465 251.870,47.006 251.870,47.337 251.783 C 47.668 251.697,47.397 251.626,46.735 251.626 C 46.074 251.626,45.803 251.697,46.134 251.783 M48.540 251.783 C 48.870 251.870,49.412 251.870,49.742 251.783 C 50.073 251.697,49.802 251.626,49.141 251.626 C 48.479 251.626,48.209 251.697,48.540 251.783 M50.945 251.783 C 51.276 251.870,51.817 251.870,52.148 251.783 C 52.479 251.697,52.208 251.626,51.546 251.626 C 50.885 251.626,50.614 251.697,50.945 251.783 M53.351 251.783 C 53.681 251.870,54.223 251.870,54.553 251.783 C 54.884 251.697,54.613 251.626,53.952 251.626 C 53.290 251.626,53.020 251.697,53.351 251.783 M55.756 251.783 C 56.087 251.870,56.628 251.870,56.959 251.783 C 57.290 251.697,57.019 251.626,56.357 251.626 C 55.696 251.626,55.425 251.697,55.756 251.783 M58.162 251.783 C 58.492 251.870,59.034 251.870,59.364 251.783 C 59.695 251.697,59.424 251.626,58.763 251.626 C 58.101 251.626,57.831 251.697,58.162 251.783 M60.567 251.783 C 60.898 251.870,61.439 251.870,61.770 251.783 C 62.101 251.697,61.830 251.626,61.168 251.626 C 60.507 251.626,60.236 251.697,60.567 251.783 M62.973 251.783 C 63.303 251.870,63.845 251.870,64.175 251.783 C 64.506 251.697,64.235 251.626,63.574 251.626 C 62.912 251.626,62.642 251.697,62.973 251.783 M65.378 251.783 C 65.709 251.870,66.250 251.870,66.581 251.783 C 66.912 251.697,66.641 251.626,65.979 251.626 C 65.318 251.626,65.047 251.697,65.378 251.783 M67.784 251.783 C 68.114 251.870,68.655 251.870,68.986 251.783 C 69.317 251.697,69.046 251.626,68.385 251.626 C 67.723 251.626,67.453 251.697,67.784 251.783 M70.189 251.783 C 70.520 251.870,71.061 251.870,71.392 251.783 C 71.723 251.697,71.452 251.626,70.790 251.626 C 70.129 251.626,69.858 251.697,70.189 251.783 M72.595 251.783 C 72.925 251.870,73.466 251.870,73.797 251.783 C 74.128 251.697,73.857 251.626,73.196 251.626 C 72.534 251.626,72.264 251.697,72.595 251.783 M75.000 251.783 C 75.331 251.870,75.872 251.870,76.203 251.783 C 76.534 251.697,76.263 251.626,75.601 251.626 C 74.940 251.626,74.669 251.697,75.000 251.783 M77.405 251.783 C 77.736 251.870,78.277 251.870,78.608 251.783 C 78.939 251.697,78.668 251.626,78.007 251.626 C 77.345 251.626,77.075 251.697,77.405 251.783 M79.811 251.783 C 80.142 251.870,80.683 251.870,81.014 251.783 C 81.345 251.697,81.074 251.626,80.412 251.626 C 79.751 251.626,79.480 251.697,79.811 251.783 M82.216 251.783 C 82.547 251.870,83.088 251.870,83.419 251.783 C 83.750 251.697,83.479 251.626,82.818 251.626 C 82.156 251.626,81.886 251.697,82.216 251.783 M84.622 251.783 C 84.953 251.870,85.494 251.870,85.825 251.783 C 86.155 251.697,85.885 251.626,85.223 251.626 C 84.562 251.626,84.291 251.697,84.622 251.783 M87.027 251.783 C 87.358 251.870,87.899 251.870,88.230 251.783 C 88.561 251.697,88.290 251.626,87.629 251.626 C 86.967 251.626,86.697 251.697,87.027 251.783 M89.433 251.783 C 89.764 251.870,90.305 251.870,90.636 251.783 C 90.966 251.697,90.696 251.626,90.034 251.626 C 89.373 251.626,89.102 251.697,89.433 251.783 M91.838 251.783 C 92.169 251.870,92.710 251.870,93.041 251.783 C 93.372 251.697,93.101 251.626,92.440 251.626 C 91.778 251.626,91.508 251.697,91.838 251.783 M94.244 251.783 C 94.575 251.870,95.116 251.870,95.447 251.783 C 95.777 251.697,95.507 251.626,94.845 251.626 C 94.184 251.626,93.913 251.697,94.244 251.783 M96.649 251.783 C 96.980 251.870,97.521 251.870,97.852 251.783 C 98.183 251.697,97.912 251.626,97.251 251.626 C 96.589 251.626,96.319 251.697,96.649 251.783 M99.055 251.783 C 99.386 251.870,99.927 251.870,100.258 251.783 C 100.588 251.697,100.318 251.626,99.656 251.626 C 98.995 251.626,98.724 251.697,99.055 251.783 M101.460 251.783 C 101.791 251.870,102.332 251.870,102.663 251.783 C 102.994 251.697,102.723 251.626,102.062 251.626 C 101.400 251.626,101.130 251.697,101.460 251.783 M103.866 251.783 C 104.197 251.870,104.738 251.870,105.069 251.783 C 105.399 251.697,105.129 251.626,104.467 251.626 C 103.806 251.626,103.535 251.697,103.866 251.783 M106.271 251.783 C 106.602 251.870,107.143 251.870,107.474 251.783 C 107.805 251.697,107.534 251.626,106.873 251.626 C 106.211 251.626,105.941 251.697,106.271 251.783 M108.677 251.783 C 109.008 251.870,109.549 251.870,109.880 251.783 C 110.210 251.697,109.940 251.626,109.278 251.626 C 108.617 251.626,108.346 251.697,108.677 251.783 M111.082 251.783 C 111.413 251.870,111.954 251.870,112.285 251.783 C 112.616 251.697,112.345 251.626,111.684 251.626 C 111.022 251.626,110.752 251.697,111.082 251.783 M113.488 251.783 C 113.819 251.870,114.360 251.870,114.691 251.783 C 115.021 251.697,114.751 251.626,114.089 251.626 C 113.428 251.626,113.157 251.697,113.488 251.783 M115.893 251.783 C 116.224 251.870,116.765 251.870,117.096 251.783 C 117.427 251.697,117.156 251.626,116.495 251.626 C 115.833 251.626,115.563 251.697,115.893 251.783 M118.299 251.783 C 118.630 251.870,119.171 251.870,119.502 251.783 C 119.832 251.697,119.562 251.626,118.900 251.626 C 118.239 251.626,117.968 251.697,118.299 251.783 M120.704 251.783 C 121.035 251.870,121.576 251.870,121.907 251.783 C 122.238 251.697,121.967 251.626,121.306 251.626 C 120.644 251.626,120.374 251.697,120.704 251.783 M123.110 251.783 C 123.441 251.870,123.982 251.870,124.313 251.783 C 124.643 251.697,124.373 251.626,123.711 251.626 C 123.050 251.626,122.779 251.697,123.110 251.783 M162.285 251.783 C 162.616 251.870,163.157 251.870,163.488 251.783 C 163.819 251.697,163.548 251.626,162.887 251.626 C 162.225 251.626,161.954 251.697,162.285 251.783 M164.691 251.783 C 165.021 251.870,165.563 251.870,165.893 251.783 C 166.224 251.697,165.954 251.626,165.292 251.626 C 164.631 251.626,164.360 251.697,164.691 251.783 M167.096 251.783 C 167.427 251.870,167.968 251.870,168.299 251.783 C 168.630 251.697,168.359 251.626,167.698 251.626 C 167.036 251.626,166.765 251.697,167.096 251.783 M169.502 251.783 C 169.832 251.870,170.374 251.870,170.704 251.783 C 171.035 251.697,170.765 251.626,170.103 251.626 C 169.442 251.626,169.171 251.697,169.502 251.783 M171.907 251.783 C 172.238 251.870,172.779 251.870,173.110 251.783 C 173.441 251.697,173.170 251.626,172.509 251.626 C 171.847 251.626,171.576 251.697,171.907 251.783 M174.313 251.783 C 174.643 251.870,175.185 251.870,175.515 251.783 C 175.846 251.697,175.576 251.626,174.914 251.626 C 174.253 251.626,173.982 251.697,174.313 251.783 M176.718 251.783 C 177.049 251.870,177.590 251.870,177.921 251.783 C 178.252 251.697,177.981 251.626,177.320 251.626 C 176.658 251.626,176.387 251.697,176.718 251.783 M179.124 251.783 C 179.454 251.870,179.996 251.870,180.326 251.783 C 180.657 251.697,180.387 251.626,179.725 251.626 C 179.064 251.626,178.793 251.697,179.124 251.783 M181.529 251.783 C 181.860 251.870,182.401 251.870,182.732 251.783 C 183.063 251.697,182.792 251.626,182.131 251.626 C 181.469 251.626,181.198 251.697,181.529 251.783 M183.935 251.783 C 184.265 251.870,184.807 251.870,185.137 251.783 C 185.468 251.697,185.198 251.626,184.536 251.626 C 183.875 251.626,183.604 251.697,183.935 251.783 M186.340 251.783 C 186.671 251.870,187.212 251.870,187.543 251.783 C 187.874 251.697,187.603 251.626,186.942 251.626 C 186.280 251.626,186.009 251.697,186.340 251.783 M188.746 251.783 C 189.076 251.870,189.618 251.870,189.948 251.783 C 190.279 251.697,190.009 251.626,189.347 251.626 C 188.686 251.626,188.415 251.697,188.746 251.783 M191.151 251.783 C 191.482 251.870,192.023 251.870,192.354 251.783 C 192.685 251.697,192.414 251.626,191.753 251.626 C 191.091 251.626,190.820 251.697,191.151 251.783 M193.557 251.783 C 193.887 251.870,194.429 251.870,194.759 251.783 C 195.090 251.697,194.820 251.626,194.158 251.626 C 193.497 251.626,193.226 251.697,193.557 251.783 M195.962 251.783 C 196.293 251.870,196.834 251.870,197.165 251.783 C 197.496 251.697,197.225 251.626,196.564 251.626 C 195.902 251.626,195.631 251.697,195.962 251.783 M198.368 251.783 C 198.698 251.870,199.240 251.870,199.570 251.783 C 199.901 251.697,199.631 251.626,198.969 251.626 C 198.308 251.626,198.037 251.697,198.368 251.783 M200.773 251.783 C 201.104 251.870,201.645 251.870,201.976 251.783 C 202.307 251.697,202.036 251.626,201.375 251.626 C 200.713 251.626,200.442 251.697,200.773 251.783 M203.179 251.783 C 203.509 251.870,204.051 251.870,204.381 251.783 C 204.712 251.697,204.442 251.626,203.780 251.626 C 203.119 251.626,202.848 251.697,203.179 251.783 M205.584 251.783 C 205.915 251.870,206.456 251.870,206.787 251.783 C 207.118 251.697,206.847 251.626,206.186 251.626 C 205.524 251.626,205.253 251.697,205.584 251.783 M207.990 251.783 C 208.320 251.870,208.862 251.870,209.192 251.783 C 209.523 251.697,209.253 251.626,208.591 251.626 C 207.930 251.626,207.659 251.697,207.990 251.783 M210.395 251.783 C 210.726 251.870,211.267 251.870,211.598 251.783 C 211.929 251.697,211.658 251.626,210.997 251.626 C 210.335 251.626,210.064 251.697,210.395 251.783 M212.801 251.783 C 213.131 251.870,213.673 251.870,214.003 251.783 C 214.334 251.697,214.064 251.626,213.402 251.626 C 212.741 251.626,212.470 251.697,212.801 251.783 M215.206 251.783 C 215.537 251.870,216.078 251.870,216.409 251.783 C 216.740 251.697,216.469 251.626,215.808 251.626 C 215.146 251.626,214.875 251.697,215.206 251.783 M217.612 251.783 C 217.942 251.870,218.484 251.870,218.814 251.783 C 219.145 251.697,218.875 251.626,218.213 251.626 C 217.552 251.626,217.281 251.697,217.612 251.783 M220.017 251.783 C 220.348 251.870,220.889 251.870,221.220 251.783 C 221.551 251.697,221.280 251.626,220.619 251.626 C 219.957 251.626,219.686 251.697,220.017 251.783 M222.423 251.783 C 222.753 251.870,223.295 251.870,223.625 251.783 C 223.956 251.697,223.686 251.626,223.024 251.626 C 222.363 251.626,222.092 251.697,222.423 251.783 M224.828 251.783 C 225.159 251.870,225.700 251.870,226.031 251.783 C 226.362 251.697,226.091 251.626,225.430 251.626 C 224.768 251.626,224.497 251.697,224.828 251.783 M227.234 251.783 C 227.564 251.870,228.106 251.870,228.436 251.783 C 228.767 251.697,228.497 251.626,227.835 251.626 C 227.174 251.626,226.903 251.697,227.234 251.783 M229.639 251.783 C 229.970 251.870,230.511 251.870,230.842 251.783 C 231.173 251.697,230.902 251.626,230.241 251.626 C 229.579 251.626,229.308 251.697,229.639 251.783 M232.045 251.783 C 232.375 251.870,232.917 251.870,233.247 251.783 C 233.578 251.697,233.308 251.626,232.646 251.626 C 231.985 251.626,231.714 251.697,232.045 251.783 M234.450 251.783 C 234.781 251.870,235.322 251.870,235.653 251.783 C 235.984 251.697,235.713 251.626,235.052 251.626 C 234.390 251.626,234.119 251.697,234.450 251.783 M236.856 251.783 C 237.186 251.870,237.728 251.870,238.058 251.783 C 238.389 251.697,238.119 251.626,237.457 251.626 C 236.796 251.626,236.525 251.697,236.856 251.783 M239.261 251.783 C 239.592 251.870,240.133 251.870,240.464 251.783 C 240.795 251.697,240.524 251.626,239.863 251.626 C 239.201 251.626,238.930 251.697,239.261 251.783 M241.667 251.783 C 241.997 251.870,242.539 251.870,242.869 251.783 C 243.200 251.697,242.930 251.626,242.268 251.626 C 241.607 251.626,241.336 251.697,241.667 251.783 M244.072 251.783 C 244.403 251.870,244.944 251.870,245.275 251.783 C 245.606 251.697,245.335 251.626,244.674 251.626 C 244.012 251.626,243.741 251.697,244.072 251.783 M246.478 251.783 C 246.808 251.870,247.350 251.870,247.680 251.783 C 248.011 251.697,247.741 251.626,247.079 251.626 C 246.418 251.626,246.147 251.697,246.478 251.783 M248.883 251.783 C 249.214 251.870,249.755 251.870,250.086 251.783 C 250.417 251.697,250.146 251.626,249.485 251.626 C 248.823 251.626,248.552 251.697,248.883 251.783 M251.289 251.783 C 251.619 251.870,252.161 251.870,252.491 251.783 C 252.822 251.697,252.552 251.626,251.890 251.626 C 251.229 251.626,250.958 251.697,251.289 251.783 M253.694 251.783 C 254.025 251.870,254.566 251.870,254.897 251.783 C 255.228 251.697,254.957 251.626,254.296 251.626 C 253.634 251.626,253.363 251.697,253.694 251.783 M256.100 251.783 C 256.430 251.870,256.972 251.870,257.302 251.783 C 257.633 251.697,257.363 251.626,256.701 251.626 C 256.040 251.626,255.769 251.697,256.100 251.783 M258.505 251.783 C 258.836 251.870,259.377 251.870,259.708 251.783 C 260.039 251.697,259.768 251.626,259.107 251.626 C 258.445 251.626,258.174 251.697,258.505 251.783 M260.911 251.783 C 261.241 251.870,261.783 251.870,262.113 251.783 C 262.444 251.697,262.174 251.626,261.512 251.626 C 260.851 251.626,260.580 251.697,260.911 251.783 M263.316 251.783 C 263.647 251.870,264.188 251.870,264.519 251.783 C 264.850 251.697,264.579 251.626,263.918 251.626 C 263.256 251.626,262.985 251.697,263.316 251.783 M265.722 251.783 C 266.052 251.870,266.594 251.870,266.924 251.783 C 267.255 251.697,266.985 251.626,266.323 251.626 C 265.662 251.626,265.391 251.697,265.722 251.783 M268.127 251.783 C 268.458 251.870,268.999 251.870,269.330 251.783 C 269.661 251.697,269.390 251.626,268.729 251.626 C 268.067 251.626,267.796 251.697,268.127 251.783 M74.325 273.450 C 75.419 273.519,77.120 273.518,78.105 273.449 C 79.091 273.380,78.196 273.324,76.117 273.324 C 74.038 273.325,73.232 273.382,74.325 273.450 M232.216 273.449 C 233.209 273.519,234.832 273.519,235.825 273.449 C 236.817 273.380,236.005 273.323,234.021 273.323 C 232.036 273.323,231.224 273.380,232.216 273.449 M94.502 281.271 C 95.719 282.500,96.793 283.505,96.887 283.505 C 96.982 283.505,96.063 282.500,94.845 281.271 C 93.628 280.043,92.554 279.038,92.460 279.038 C 92.365 279.038,93.284 280.043,94.502 281.271 M57.204 281.186 L 55.498 282.990 57.302 281.284 C 58.295 280.346,59.107 279.535,59.107 279.480 C 59.107 279.224,58.788 279.509,57.204 281.186 M258.658 289.515 C 258.973 290.174,259.291 290.652,259.365 290.577 C 259.522 290.420,258.479 288.316,258.244 288.316 C 258.158 288.316,258.344 288.855,258.658 289.515 M47.860 302.405 C 47.860 303.256,47.927 303.604,48.009 303.179 C 48.091 302.753,48.091 302.058,48.009 301.632 C 47.927 301.207,47.860 301.555,47.860 302.405 M205.922 302.062 C 205.922 302.723,205.992 302.994,206.079 302.663 C 206.165 302.332,206.165 301.791,206.079 301.460 C 205.992 301.130,205.922 301.400,205.922 302.062 M104.234 305.155 C 104.234 306.383,104.296 306.886,104.372 306.271 C 104.449 305.657,104.449 304.652,104.372 304.038 C 104.296 303.424,104.234 303.926,104.234 305.155 M47.865 307.732 C 47.867 308.677,47.934 309.023,48.013 308.500 C 48.092 307.978,48.090 307.205,48.008 306.782 C 47.927 306.360,47.862 306.787,47.865 307.732 M205.883 308.276 C 205.905 308.922,206.049 309.914,206.203 310.481 C 206.387 311.159,206.417 310.806,206.291 309.450 C 206.080 307.178,205.819 306.427,205.883 308.276 M252.738 328.952 L 250.687 331.100 252.835 329.049 C 254.016 327.920,254.983 326.954,254.983 326.901 C 254.983 326.647,254.644 326.957,252.738 328.952 M94.317 329.296 L 92.612 331.100 94.416 329.394 C 95.408 328.456,96.220 327.645,96.220 327.590 C 96.220 327.334,95.902 327.619,94.317 329.296 M74.485 337.021 C 75.288 337.094,76.602 337.094,77.405 337.021 C 78.209 336.949,77.552 336.890,75.945 336.890 C 74.338 336.890,73.681 336.949,74.485 337.021 M232.221 337.013 C 232.648 337.095,233.267 337.092,233.595 337.006 C 233.924 336.920,233.574 336.853,232.818 336.856 C 232.062 336.860,231.793 336.931,232.221 337.013 M234.970 337.013 C 235.397 337.095,236.016 337.092,236.344 337.006 C 236.673 336.920,236.323 336.853,235.567 336.856 C 234.811 336.860,234.542 336.931,234.970 337.013 " stroke="none" fill="#747474" fill-rule="evenodd"></path></g></svg>