<svg id="svg" version="1.1" xmlns="http://www.w3.org/2000/svg" xmlns:xlink="http://www.w3.org/1999/xlink" width="400" height="400" viewBox="0, 0, 400,400"><g id="svgg"><path id="path0" d="M0.000 200.000 L 0.000 400.000 200.000 400.000 L 400.000 400.000 400.000 200.000 L 400.000 0.000 200.000 0.000 L 0.000 0.000 0.000 200.000 M202.400 7.223 C 206.153 7.826,210.025 9.911,214.431 13.703 C 218.993 17.629,235.675 32.070,249.199 43.800 C 253.004 47.100,256.963 50.520,257.998 51.400 C 259.032 52.280,261.211 54.159,262.839 55.575 C 264.468 56.991,273.810 65.080,283.600 73.551 C 293.390 82.021,303.380 90.684,305.800 92.800 C 308.220 94.916,313.710 99.680,318.000 103.386 C 322.290 107.093,326.970 111.151,328.400 112.404 C 329.830 113.658,337.210 120.067,344.800 126.646 C 352.390 133.225,360.559 140.317,362.954 142.404 C 365.348 144.492,368.156 146.920,369.192 147.800 C 383.453 159.905,388.543 164.744,389.982 167.565 C 395.352 178.090,390.206 191.621,379.267 195.737 C 377.215 196.509,375.956 196.609,366.000 196.795 L 355.000 197.000 354.919 286.271 L 354.838 375.541 353.672 378.545 C 351.576 383.943,347.652 387.991,342.497 390.072 L 340.200 391.000 300.200 391.000 L 260.200 391.000 258.313 390.062 C 255.483 388.656,253.109 386.356,251.785 383.741 L 250.600 381.400 250.400 327.000 L 250.200 272.600 249.243 270.224 C 248.102 267.393,245.469 264.603,242.600 263.187 L 240.600 262.200 199.200 262.200 L 157.800 262.200 155.946 263.123 C 152.949 264.614,150.948 266.600,149.517 269.508 L 148.200 272.183 148.000 326.791 L 147.800 381.400 146.615 383.741 C 145.291 386.356,142.917 388.656,140.087 390.062 L 138.200 391.000 98.200 391.000 L 58.200 391.000 55.871 390.060 C 50.986 388.090,46.710 383.793,44.707 378.841 L 43.800 376.600 43.600 286.800 L 43.400 197.000 32.400 196.790 C 23.059 196.612,21.098 196.470,19.400 195.844 C 6.579 191.123,2.021 174.690,10.660 164.338 C 11.507 163.324,15.890 159.303,20.400 155.403 C 24.910 151.503,30.295 146.847,32.366 145.056 C 35.730 142.147,45.178 133.938,56.600 123.998 C 58.800 122.083,65.550 116.228,71.600 110.986 C 77.650 105.744,93.928 91.632,107.773 79.627 C 121.619 67.622,135.040 56.000,137.599 53.800 C 140.158 51.600,145.463 47.010,149.387 43.600 C 153.312 40.190,157.368 36.680,158.400 35.800 C 159.433 34.920,163.394 31.500,167.203 28.200 C 171.011 24.900,174.774 21.660,175.564 21.000 C 176.354 20.340,179.415 17.692,182.366 15.115 C 190.677 7.859,195.217 6.071,202.400 7.223 " stroke="none" fill="#1c1c1c" fill-rule="evenodd"></path><path id="path1" d="M193.119 8.372 C 189.889 9.405,187.968 10.644,183.352 14.670 C 181.126 16.611,177.728 19.550,175.801 21.200 C 173.874 22.850,172.095 24.386,171.849 24.614 C 170.746 25.631,145.337 47.724,134.581 57.018 C 130.858 60.236,117.087 72.180,107.800 80.247 C 104.280 83.305,97.440 89.222,92.600 93.397 C 87.760 97.571,83.170 101.554,82.400 102.246 C 80.826 103.662,32.418 145.598,25.199 151.800 C 10.957 164.034,10.291 164.692,8.599 168.188 C 2.401 180.988,10.479 194.995,24.990 196.608 C 25.436 196.657,29.895 196.721,34.900 196.749 L 44.000 196.800 44.005 285.700 C 44.009 361.477,44.094 374.917,44.581 376.747 C 46.263 383.065,50.859 387.930,57.200 390.105 L 59.800 390.996 96.600 391.117 C 135.467 391.244,136.868 391.190,140.372 389.414 C 142.660 388.255,145.383 385.364,146.536 382.870 L 147.400 381.000 147.600 326.600 C 147.791 274.703,147.834 272.111,148.547 270.272 C 149.502 267.808,152.955 264.070,155.458 262.792 L 157.400 261.800 198.738 261.694 L 240.075 261.589 242.427 262.644 C 245.202 263.890,248.246 266.915,249.645 269.818 L 250.600 271.800 250.800 326.400 L 251.000 381.000 251.864 382.870 C 253.017 385.364,255.740 388.255,258.028 389.414 C 261.531 391.190,262.935 391.244,301.800 391.119 L 338.600 391.000 341.185 390.067 C 347.756 387.696,352.204 383.064,353.802 376.928 C 354.324 374.924,354.400 363.340,354.400 285.754 L 354.400 196.877 365.100 196.708 C 377.140 196.518,378.710 196.230,382.903 193.447 C 392.841 186.850,394.877 172.575,387.084 164.121 C 385.507 162.410,383.876 160.973,365.800 145.373 C 357.174 137.929,349.108 130.953,339.200 122.368 C 337.330 120.747,330.490 114.822,324.000 109.200 C 317.510 103.578,310.670 97.653,308.800 96.032 C 302.714 90.759,291.521 81.066,288.207 78.200 C 286.427 76.660,281.662 72.520,277.619 69.000 C 273.575 65.480,267.449 60.170,264.006 57.200 C 257.196 51.327,253.855 48.427,239.580 36.000 C 234.398 31.490,229.006 26.810,227.596 25.600 C 226.187 24.390,224.119 22.590,223.001 21.600 C 217.851 17.037,211.002 11.298,209.510 10.295 C 205.590 7.662,198.093 6.782,193.119 8.372 " stroke="none" fill="#fcfcfc" fill-rule="evenodd"></path><path id="path2" d="M198.300 7.082 C 198.795 7.178,199.605 7.178,200.100 7.082 C 200.595 6.987,200.190 6.909,199.200 6.909 C 198.210 6.909,197.805 6.987,198.300 7.082 M229.200 26.525 C 229.200 26.594,229.785 27.179,230.500 27.825 L 231.800 29.000 230.625 27.700 C 229.530 26.488,229.200 26.216,229.200 26.525 M132.175 58.500 L 131.000 59.800 132.300 58.625 C 133.512 57.530,133.784 57.200,133.475 57.200 C 133.406 57.200,132.821 57.785,132.175 58.500 M125.775 64.100 L 124.600 65.400 125.900 64.225 C 127.112 63.130,127.384 62.800,127.075 62.800 C 127.006 62.800,126.421 63.385,125.775 64.100 M304.000 91.325 C 304.000 91.394,304.585 91.979,305.300 92.625 L 306.600 93.800 305.425 92.500 C 304.330 91.288,304.000 91.016,304.000 91.325 M179.300 261.900 C 190.245 261.959,208.155 261.959,219.100 261.900 C 230.045 261.841,221.090 261.792,199.200 261.792 C 177.310 261.792,168.355 261.841,179.300 261.900 M47.600 384.125 C 47.600 384.194,48.185 384.779,48.900 385.425 L 50.200 386.600 49.025 385.300 C 47.930 384.088,47.600 383.816,47.600 384.125 M143.978 387.100 L 142.600 388.600 144.100 387.222 C 145.496 385.938,145.784 385.600,145.478 385.600 C 145.412 385.600,144.737 386.275,143.978 387.100 M254.000 387.000 C 254.746 387.770,255.447 388.400,255.557 388.400 C 255.667 388.400,255.146 387.770,254.400 387.000 C 253.654 386.230,252.953 385.600,252.843 385.600 C 252.733 385.600,253.254 386.230,254.000 387.000 " stroke="none" fill="#747474" fill-rule="evenodd"></path><path id="path3" d="M197.891 7.489 C 198.601 7.577,199.861 7.579,200.691 7.492 C 201.521 7.405,200.940 7.333,199.400 7.331 C 197.860 7.329,197.181 7.400,197.891 7.489 M222.400 20.925 C 222.400 20.994,222.985 21.579,223.700 22.225 L 225.000 23.400 223.825 22.100 C 222.730 20.888,222.400 20.616,222.400 20.925 M256.800 51.000 C 257.546 51.770,258.247 52.400,258.357 52.400 C 258.467 52.400,257.946 51.770,257.200 51.000 C 256.454 50.230,255.753 49.600,255.643 49.600 C 255.533 49.600,256.054 50.230,256.800 51.000 M286.000 76.125 C 286.000 76.194,286.585 76.779,287.300 77.425 L 288.600 78.600 287.425 77.300 C 286.330 76.088,286.000 75.816,286.000 76.125 M292.000 81.325 C 292.000 81.394,292.585 81.979,293.300 82.625 L 294.600 83.800 293.425 82.500 C 292.330 81.288,292.000 81.016,292.000 81.325 M102.175 84.900 L 101.000 86.200 102.300 85.025 C 103.512 83.930,103.784 83.600,103.475 83.600 C 103.406 83.600,102.821 84.185,102.175 84.900 M304.000 91.725 C 304.000 91.794,304.585 92.379,305.300 93.025 L 306.600 94.200 305.425 92.900 C 304.330 91.688,304.000 91.416,304.000 91.725 M69.375 113.300 L 68.200 114.600 69.500 113.425 C 70.712 112.330,70.984 112.000,70.675 112.000 C 70.606 112.000,70.021 112.585,69.375 113.300 M354.800 135.725 C 354.800 135.794,355.385 136.379,356.100 137.025 L 357.400 138.200 356.225 136.900 C 355.130 135.688,354.800 135.416,354.800 135.725 M30.175 147.300 L 29.000 148.600 30.300 147.425 C 31.015 146.779,31.600 146.194,31.600 146.125 C 31.600 145.816,31.270 146.088,30.175 147.300 M12.175 162.900 L 11.000 164.200 12.300 163.025 C 13.015 162.379,13.600 161.794,13.600 161.725 C 13.600 161.416,13.270 161.688,12.175 162.900 M384.800 161.725 C 384.800 161.794,385.385 162.379,386.100 163.025 L 387.400 164.200 386.225 162.900 C 385.130 161.688,384.800 161.416,384.800 161.725 M354.596 285.000 C 354.596 333.620,354.643 353.569,354.700 329.332 C 354.757 305.095,354.757 265.315,354.700 240.932 C 354.643 216.549,354.596 236.380,354.596 285.000 M43.796 286.400 C 43.796 334.470,43.843 354.135,43.900 330.100 C 43.957 306.065,43.957 266.735,43.900 242.700 C 43.843 218.665,43.796 238.330,43.796 286.400 M147.794 326.200 C 147.794 355.460,147.842 367.371,147.900 352.669 C 147.958 337.967,147.958 314.027,147.900 299.469 C 147.842 284.911,147.794 296.940,147.794 326.200 M250.594 326.200 C 250.594 355.460,250.642 367.371,250.700 352.669 C 250.758 337.967,250.758 314.027,250.700 299.469 C 250.642 284.911,250.594 296.940,250.594 326.200 M348.778 385.500 L 347.400 387.000 348.900 385.622 C 350.296 384.338,350.584 384.000,350.278 384.000 C 350.212 384.000,349.537 384.675,348.778 385.500 M252.713 385.000 C 252.945 385.440,253.818 386.430,254.653 387.200 C 256.033 388.472,254.857 386.958,252.478 384.400 C 252.375 384.290,252.481 384.560,252.713 385.000 M143.578 387.100 L 142.200 388.600 143.700 387.222 C 145.096 385.938,145.384 385.600,145.078 385.600 C 145.012 385.600,144.337 386.275,143.578 387.100 " stroke="none" fill="#b7b7b7" fill-rule="evenodd"></path><path id="path4" d="" stroke="none" fill="#8c8c8c" fill-rule="evenodd"></path></g></svg>