<svg id="svg" version="1.1" xmlns="http://www.w3.org/2000/svg" xmlns:xlink="http://www.w3.org/1999/xlink" width="400" height="362.54180602006693" viewBox="0, 0, 400,362.54180602006693"><g id="svgg"><path id="path0" d="M0.000 181.324 L 0.000 362.647 200.000 362.647 L 400.000 362.647 400.000 181.324 L 400.000 0.000 200.000 0.000 L 0.000 0.000 0.000 181.324 M203.989 4.336 C 207.730 4.944,211.050 6.561,215.148 9.772 C 216.790 11.058,220.009 13.578,222.303 15.371 C 224.597 17.164,227.371 19.335,228.468 20.194 C 230.870 22.077,230.486 21.782,234.270 24.642 C 237.558 27.126,241.176 29.948,247.098 34.644 C 249.118 36.246,253.382 39.550,256.573 41.986 C 259.764 44.423,264.334 47.959,266.727 49.845 C 272.711 54.560,275.736 56.906,281.233 61.093 C 283.826 63.068,286.029 64.778,286.129 64.892 C 286.228 65.006,286.963 65.585,287.761 66.179 C 288.558 66.773,289.456 67.459,289.755 67.703 C 293.303 70.599,300.732 76.359,305.712 80.076 C 307.208 81.193,308.665 82.336,308.951 82.616 C 309.236 82.897,311.684 84.817,314.391 86.884 C 317.097 88.951,320.617 91.707,322.212 93.008 C 323.808 94.309,325.530 95.660,326.039 96.010 C 327.103 96.740,336.566 104.057,344.685 110.426 C 347.736 112.820,353.213 117.063,356.857 119.855 C 361.988 123.788,371.077 130.892,375.521 134.444 C 375.721 134.603,377.271 135.781,378.966 137.062 C 385.299 141.846,390.516 146.148,391.824 147.664 C 399.883 157.002,395.303 171.359,382.858 175.774 C 380.325 176.673,379.870 176.710,369.538 176.880 C 362.136 177.002,358.757 177.183,358.573 177.467 C 358.427 177.693,358.304 213.794,358.301 257.691 C 358.295 345.832,358.455 339.189,356.233 343.685 C 355.118 345.942,350.465 350.680,349.364 350.680 C 349.222 350.680,348.848 350.898,348.533 351.165 C 348.218 351.431,346.818 352.043,345.422 352.525 L 342.883 353.400 302.448 353.397 L 262.013 353.394 259.952 352.465 C 257.910 351.544,254.216 348.722,254.216 348.082 C 254.216 347.899,253.901 347.307,253.517 346.767 C 251.697 344.207,251.677 343.625,251.677 292.845 C 251.677 240.494,251.841 244.032,249.273 240.898 C 247.653 238.921,245.670 237.633,242.611 236.570 L 240.254 235.752 200.220 235.736 C 161.007 235.721,160.136 235.736,157.713 236.458 C 154.138 237.522,151.285 239.750,149.496 242.873 L 148.504 244.606 148.323 294.288 L 148.141 343.971 146.904 346.254 C 145.510 348.824,143.125 350.960,139.982 352.453 L 137.987 353.400 97.371 353.400 L 56.754 353.400 54.276 352.394 C 47.507 349.648,43.778 345.566,42.471 339.474 C 42.181 338.120,42.067 315.064,42.067 257.687 C 42.067 194.204,41.974 177.710,41.614 177.418 C 41.342 177.197,36.876 176.978,30.462 176.870 C 16.893 176.641,14.690 176.012,9.541 170.901 C 4.780 166.175,2.597 157.933,4.924 153.473 C 5.205 152.934,5.436 152.245,5.437 151.943 C 5.447 149.689,9.555 145.779,20.934 137.194 C 23.482 135.272,26.301 133.094,27.199 132.354 C 28.096 131.614,32.339 128.290,36.627 124.967 C 40.916 121.644,45.058 118.401,45.832 117.759 C 46.606 117.116,47.835 116.183,48.562 115.684 C 49.289 115.186,50.691 114.125,51.677 113.327 C 52.663 112.529,53.719 111.682,54.024 111.444 C 63.396 104.126,63.483 104.059,71.985 97.570 C 74.180 95.896,76.056 94.422,76.156 94.296 C 76.256 94.169,77.724 93.021,79.420 91.743 C 81.115 90.466,82.684 89.252,82.905 89.044 C 83.127 88.837,83.933 88.178,84.697 87.579 C 85.460 86.981,86.722 85.961,87.501 85.313 C 88.280 84.665,89.024 84.134,89.155 84.134 C 89.286 84.134,90.005 83.603,90.754 82.955 C 91.503 82.307,93.426 80.798,95.027 79.601 C 96.628 78.404,99.051 76.528,100.412 75.431 C 101.773 74.334,103.739 72.783,104.781 71.985 C 105.823 71.188,108.031 69.474,109.688 68.178 C 111.345 66.881,113.495 65.213,114.465 64.472 C 117.206 62.375,129.511 52.872,130.797 51.858 C 133.010 50.114,140.837 44.018,147.328 38.985 C 150.928 36.192,154.951 33.056,156.266 32.016 C 157.582 30.975,160.780 28.501,163.373 26.518 C 165.966 24.534,168.413 22.651,168.812 22.332 C 169.211 22.013,171.659 20.124,174.252 18.133 C 176.845 16.142,179.609 13.982,180.393 13.331 C 190.478 4.974,195.686 2.989,203.989 4.336 " stroke="none" fill="#ffffff" fill-rule="evenodd"></path><path id="path1" d="M196.192 4.238 C 191.774 4.967,187.560 7.393,180.393 13.331 C 179.609 13.982,176.845 16.142,174.252 18.133 C 171.659 20.124,169.211 22.013,168.812 22.332 C 168.413 22.651,165.966 24.534,163.373 26.518 C 160.780 28.501,157.582 30.975,156.266 32.016 C 154.951 33.056,150.928 36.192,147.328 38.985 C 140.837 44.018,133.010 50.114,130.797 51.858 C 129.511 52.872,117.206 62.375,114.465 64.472 C 113.495 65.213,111.345 66.881,109.688 68.178 C 108.031 69.474,105.823 71.188,104.781 71.985 C 103.739 72.783,101.773 74.334,100.412 75.431 C 99.051 76.528,96.628 78.404,95.027 79.601 C 93.426 80.798,91.503 82.307,90.754 82.955 C 90.005 83.603,89.286 84.134,89.155 84.134 C 89.024 84.134,88.280 84.665,87.501 85.313 C 86.722 85.961,85.460 86.981,84.697 87.579 C 83.933 88.178,83.127 88.837,82.905 89.044 C 82.684 89.252,81.115 90.466,79.420 91.743 C 77.724 93.021,76.256 94.169,76.156 94.296 C 76.056 94.422,74.180 95.896,71.985 97.570 C 63.483 104.059,63.396 104.126,54.024 111.444 C 53.719 111.682,52.663 112.529,51.677 113.327 C 50.691 114.125,49.289 115.186,48.562 115.684 C 47.835 116.183,46.606 117.116,45.832 117.759 C 45.058 118.401,40.916 121.644,36.627 124.967 C 32.339 128.290,28.096 131.614,27.199 132.354 C 26.301 133.094,23.482 135.272,20.934 137.194 C 9.555 145.779,5.447 149.689,5.437 151.943 C 5.436 152.245,5.205 152.934,4.924 153.473 C 2.597 157.933,4.780 166.175,9.541 170.901 C 14.690 176.012,16.893 176.641,30.462 176.870 C 36.876 176.978,41.342 177.197,41.614 177.418 C 41.974 177.710,42.067 194.204,42.067 257.687 C 42.067 315.064,42.181 338.120,42.471 339.474 C 43.778 345.566,47.507 349.648,54.276 352.394 L 56.754 353.400 97.371 353.400 L 137.987 353.400 139.982 352.453 C 143.125 350.960,145.510 348.824,146.904 346.254 L 148.141 343.971 148.323 294.288 L 148.504 244.606 149.496 242.873 C 151.285 239.750,154.138 237.522,157.713 236.458 C 160.136 235.736,161.007 235.721,200.220 235.736 L 240.254 235.752 242.611 236.570 C 245.670 237.633,247.653 238.921,249.273 240.898 C 251.841 244.032,251.677 240.494,251.677 292.845 C 251.677 343.625,251.697 344.207,253.517 346.767 C 253.901 347.307,254.216 347.899,254.216 348.082 C 254.216 348.722,257.910 351.544,259.952 352.465 L 262.013 353.394 302.448 353.397 L 342.883 353.400 345.422 352.525 C 346.818 352.043,348.218 351.431,348.533 351.165 C 348.848 350.898,349.222 350.680,349.364 350.680 C 350.465 350.680,355.118 345.942,356.233 343.685 C 358.455 339.189,358.295 345.832,358.301 257.691 C 358.304 213.794,358.427 177.693,358.573 177.467 C 358.757 177.183,362.136 177.002,369.538 176.880 C 379.870 176.710,380.325 176.673,382.858 175.774 C 395.303 171.359,399.883 157.002,391.824 147.664 C 390.516 146.148,385.299 141.846,378.966 137.062 C 377.271 135.781,375.721 134.603,375.521 134.444 C 371.077 130.892,361.988 123.788,356.857 119.855 C 353.213 117.063,347.736 112.820,344.685 110.426 C 336.566 104.057,327.103 96.740,326.039 96.010 C 325.530 95.660,323.808 94.309,322.212 93.008 C 320.617 91.707,317.097 88.951,314.391 86.884 C 311.684 84.817,309.236 82.897,308.951 82.616 C 308.665 82.336,307.208 81.193,305.712 80.076 C 300.732 76.359,293.303 70.599,289.755 67.703 C 289.456 67.459,288.558 66.773,287.761 66.179 C 286.963 65.585,286.228 65.006,286.129 64.892 C 286.029 64.778,283.826 63.068,281.233 61.093 C 275.736 56.906,272.711 54.560,266.727 49.845 C 264.334 47.959,259.764 44.423,256.573 41.986 C 253.382 39.550,249.118 36.246,247.098 34.644 C 241.176 29.948,237.558 27.126,234.270 24.642 C 230.486 21.782,230.870 22.077,228.468 20.194 C 227.371 19.335,224.597 17.164,222.303 15.371 C 220.009 13.578,216.790 11.058,215.148 9.772 C 209.020 4.970,202.784 3.150,196.192 4.238 " stroke="none" fill="#8393a4" fill-rule="evenodd"></path></g></svg>