<svg id="svg" version="1.1" xmlns="http://www.w3.org/2000/svg" xmlns:xlink="http://www.w3.org/1999/xlink" width="400" height="400" viewBox="0, 0, 400,400"><g id="svgg"><path id="path0" d="M195.202 0.643 C 191.416 2.018,188.875 4.399,187.112 8.222 C 185.800 11.067,185.677 45.094,186.965 48.800 C 190.408 58.709,204.454 60.325,210.395 51.495 C 212.763 47.975,212.855 47.032,212.720 27.541 L 212.600 10.200 211.546 7.952 C 208.588 1.643,201.355 -1.591,195.202 0.643 M326.688 65.420 C 324.265 66.195,296.643 86.829,295.319 88.853 C 288.074 99.936,299.447 114.278,311.242 108.931 C 313.688 107.822,340.037 88.023,341.340 86.314 C 349.243 75.953,339.078 61.458,326.688 65.420 M59.580 70.921 C 50.913 73.372,47.217 83.867,52.379 91.369 C 53.829 93.477,79.433 113.011,82.758 114.547 C 93.787 119.641,105.469 106.758,99.576 96.000 C 98.191 93.472,97.778 93.116,84.576 83.095 C 67.549 70.170,65.597 69.219,59.580 70.921 M189.800 79.047 C 171.342 81.677,159.110 86.081,146.218 94.737 C 98.639 126.682,89.465 189.730,125.684 235.840 C 133.577 245.888,143.918 260.824,151.335 272.887 L 155.200 279.174 155.200 294.987 L 155.200 310.800 199.200 310.800 L 243.200 310.800 243.200 295.339 L 243.200 279.877 246.236 274.929 C 253.582 262.955,265.720 245.301,273.139 235.800 C 319.560 176.353,288.723 93.118,215.400 79.953 C 210.787 79.125,193.539 78.515,189.800 79.047 M73.400 201.050 C 69.237 202.127,41.018 211.496,39.767 212.216 C 28.006 218.982,33.369 237.386,46.907 236.719 C 49.895 236.572,69.883 230.564,80.711 226.558 C 95.358 221.140,88.481 197.146,73.400 201.050 M320.976 205.151 C 309.203 208.197,307.207 224.410,317.920 229.972 C 321.704 231.937,350.989 240.800,353.695 240.800 C 364.893 240.798,370.893 227.147,363.361 218.810 C 360.993 216.188,359.516 215.568,342.840 210.185 C 326.829 205.017,324.007 204.367,320.976 205.151 M161.912 326.381 C 152.718 328.167,151.230 341.363,159.785 345.249 C 162.291 346.387,236.509 346.387,239.015 345.249 C 247.896 341.215,245.844 327.584,236.155 326.256 C 233.588 325.904,163.761 326.022,161.912 326.381 M159.206 362.500 C 159.251 372.335,168.640 382.641,178.726 383.924 L 180.892 384.200 181.578 386.422 C 187.163 404.489,211.637 404.489,217.222 386.422 L 217.908 384.200 220.074 383.924 C 230.229 382.632,239.530 372.328,239.593 362.300 L 239.600 361.200 199.400 361.200 L 159.200 361.200 159.206 362.500 " stroke="none" fill="#8494a4" fill-rule="evenodd"></path><path id="path1" d="M189.800 53.600 C 190.659 54.480,191.452 55.200,191.562 55.200 C 191.672 55.200,191.059 54.480,190.200 53.600 C 189.341 52.720,188.548 52.000,188.438 52.000 C 188.328 52.000,188.941 52.720,189.800 53.600 M53.578 74.300 L 52.200 75.800 53.700 74.422 C 55.096 73.138,55.384 72.800,55.078 72.800 C 55.012 72.800,54.337 73.475,53.578 74.300 M344.128 78.000 C 344.128 79.430,344.201 80.015,344.289 79.300 C 344.378 78.585,344.378 77.415,344.289 76.700 C 344.201 75.985,344.128 76.570,344.128 78.000 M196.518 78.698 C 198.233 78.773,200.933 78.772,202.518 78.697 C 204.103 78.621,202.700 78.559,199.400 78.560 C 196.100 78.561,194.803 78.622,196.518 78.698 M49.693 83.600 C 49.693 84.370,49.775 84.685,49.876 84.300 C 49.976 83.915,49.976 83.285,49.876 82.900 C 49.775 82.515,49.693 82.830,49.693 83.600 M340.175 87.700 L 339.000 89.000 340.300 87.825 C 341.015 87.179,341.600 86.594,341.600 86.525 C 341.600 86.216,341.270 86.488,340.175 87.700 M261.600 101.325 C 261.600 101.394,262.185 101.979,262.900 102.625 L 264.200 103.800 263.025 102.500 C 261.930 101.288,261.600 101.016,261.600 101.325 M131.186 106.700 L 129.000 109.000 131.300 106.814 C 133.437 104.782,133.783 104.400,133.486 104.400 C 133.424 104.400,132.389 105.435,131.186 106.700 M267.200 106.600 C 268.395 107.810,269.463 108.800,269.573 108.800 C 269.683 108.800,268.795 107.810,267.600 106.600 C 266.405 105.390,265.337 104.400,265.227 104.400 C 265.117 104.400,266.005 105.390,267.200 106.600 M126.975 111.300 L 125.800 112.600 127.100 111.425 C 127.815 110.779,128.400 110.194,128.400 110.125 C 128.400 109.816,128.070 110.088,126.975 111.300 M270.400 110.125 C 270.400 110.194,270.985 110.779,271.700 111.425 L 273.000 112.600 271.825 111.300 C 270.730 110.088,270.400 109.816,270.400 110.125 M97.178 111.900 L 95.800 113.400 97.300 112.022 C 98.696 110.738,98.984 110.400,98.678 110.400 C 98.612 110.400,97.937 111.075,97.178 111.900 M103.693 166.000 C 103.693 166.770,103.775 167.085,103.876 166.700 C 103.976 166.315,103.976 165.685,103.876 165.300 C 103.775 164.915,103.693 165.230,103.693 166.000 M294.893 166.000 C 294.893 166.770,294.975 167.085,295.076 166.700 C 295.176 166.315,295.176 165.685,295.076 165.300 C 294.975 164.915,294.893 165.230,294.893 166.000 M103.344 174.400 C 103.344 176.490,103.412 177.345,103.494 176.300 C 103.576 175.255,103.576 173.545,103.494 172.500 C 103.412 171.455,103.344 172.310,103.344 174.400 M295.344 174.400 C 295.344 176.490,295.412 177.345,295.494 176.300 C 295.576 175.255,295.576 173.545,295.494 172.500 C 295.412 171.455,295.344 172.310,295.344 174.400 M294.893 182.800 C 294.893 183.570,294.975 183.885,295.076 183.500 C 295.176 183.115,295.176 182.485,295.076 182.100 C 294.975 181.715,294.893 182.030,294.893 182.800 M314.175 208.900 L 313.000 210.200 314.300 209.025 C 315.015 208.379,315.600 207.794,315.600 207.725 C 315.600 207.416,315.270 207.688,314.175 208.900 M36.778 214.300 L 35.400 215.800 36.900 214.422 C 37.725 213.663,38.400 212.988,38.400 212.922 C 38.400 212.616,38.062 212.904,36.778 214.300 M362.800 218.200 C 363.546 218.970,364.247 219.600,364.357 219.600 C 364.467 219.600,363.946 218.970,363.200 218.200 C 362.454 217.430,361.753 216.800,361.643 216.800 C 361.533 216.800,362.054 217.430,362.800 218.200 M362.581 237.300 L 361.000 239.000 362.700 237.419 C 364.281 235.948,364.584 235.600,364.281 235.600 C 364.216 235.600,363.451 236.365,362.581 237.300 M45.507 237.090 C 46.226 237.179,47.306 237.177,47.907 237.086 C 48.508 236.995,47.920 236.922,46.600 236.924 C 45.280 236.926,44.788 237.001,45.507 237.090 M352.500 241.087 C 353.105 241.178,354.095 241.178,354.700 241.087 C 355.305 240.995,354.810 240.920,353.600 240.920 C 352.390 240.920,351.895 240.995,352.500 241.087 M154.709 294.838 L 154.817 311.200 199.109 311.102 L 243.400 311.004 199.300 310.900 L 155.200 310.796 155.200 294.822 C 155.200 286.036,155.065 278.764,154.900 278.662 C 154.735 278.560,154.649 285.839,154.709 294.838 M158.344 327.624 L 157.400 328.447 158.600 327.745 C 160.179 326.820,160.203 326.800,159.711 326.800 C 159.479 326.800,158.864 327.171,158.344 327.624 M155.113 341.400 C 155.345 341.840,156.218 342.830,157.053 343.600 C 158.433 344.872,157.257 343.358,154.878 340.800 C 154.775 340.690,154.881 340.960,155.113 341.400 M241.578 343.500 L 240.200 345.000 241.700 343.622 C 243.096 342.338,243.384 342.000,243.078 342.000 C 243.012 342.000,242.337 342.675,241.578 343.500 M180.670 346.300 C 190.828 346.359,207.568 346.359,217.870 346.300 C 228.171 346.241,219.860 346.192,199.400 346.192 C 178.940 346.192,170.511 346.240,180.670 346.300 M179.330 361.100 C 190.512 361.159,208.692 361.159,219.730 361.100 C 230.769 361.041,221.620 360.992,199.400 360.992 C 177.180 360.992,168.149 361.041,179.330 361.100 M165.800 377.600 C 166.883 378.700,167.860 379.600,167.970 379.600 C 168.080 379.600,167.283 378.700,166.200 377.600 C 165.117 376.500,164.140 375.600,164.030 375.600 C 163.920 375.600,164.717 376.500,165.800 377.600 M232.585 377.700 L 230.600 379.800 232.700 377.815 C 233.855 376.723,234.800 375.778,234.800 375.715 C 234.800 375.417,234.429 375.749,232.585 377.700 M178.800 384.155 C 178.800 384.240,179.330 384.387,179.979 384.482 C 180.627 384.577,181.067 384.508,180.955 384.328 C 180.757 384.007,178.800 383.850,178.800 384.155 M217.867 384.267 C 217.720 384.413,217.603 384.728,217.606 384.967 C 217.610 385.255,217.711 385.246,217.906 384.940 C 218.068 384.688,218.650 384.397,219.200 384.295 L 220.200 384.109 219.167 384.054 C 218.598 384.025,218.013 384.120,217.867 384.267 M185.983 394.500 C 187.641 396.266,188.000 396.584,188.000 396.283 C 188.000 396.219,187.145 395.364,186.100 394.383 L 184.200 392.600 185.983 394.500 M212.400 394.600 C 211.428 395.590,210.723 396.400,210.833 396.400 C 210.943 396.400,211.828 395.590,212.800 394.600 C 213.772 393.610,214.477 392.800,214.367 392.800 C 214.257 392.800,213.372 393.610,212.400 394.600 " stroke="none" fill="#848ca4" fill-rule="evenodd"></path></g></svg>