<svg id="svg" version="1.1" xmlns="http://www.w3.org/2000/svg" xmlns:xlink="http://www.w3.org/1999/xlink" width="400" height="417.1548117154812" viewBox="0, 0, 400,417.1548117154812"><g id="svgg"><path id="path0" d="M196.200 0.554 C 191.454 1.708,187.165 5.309,185.622 9.434 C 184.532 12.346,184.340 46.328,185.394 49.827 C 189.084 62.089,208.202 62.992,214.447 51.200 L 215.400 49.400 215.515 30.554 C 215.625 12.480,215.596 11.621,214.822 9.554 C 212.255 2.702,203.924 -1.324,196.200 0.554 M350.900 68.218 C 347.679 69.086,346.515 69.783,330.420 80.489 C 313.610 91.672,313.771 91.546,311.945 94.944 C 305.856 106.281,319.682 118.423,332.555 113.044 C 335.936 111.632,366.053 91.110,367.579 89.178 C 375.797 78.782,364.481 64.561,350.900 68.218 M35.353 74.165 C 24.977 76.683,20.972 88.710,28.072 96.027 C 29.523 97.521,58.638 117.085,61.853 118.725 C 74.033 124.939,88.874 112.624,83.052 101.134 C 81.228 97.536,77.945 95.113,51.600 77.928 C 44.998 73.621,41.209 72.744,35.353 74.165 M189.800 82.462 C 127.068 87.698,81.364 137.316,88.166 192.800 C 90.378 210.842,99.291 230.128,111.552 243.400 C 112.569 244.500,114.236 246.390,115.259 247.600 C 116.281 248.810,118.353 251.240,119.863 253.000 C 125.675 259.774,137.397 275.046,142.637 282.670 C 144.122 284.831,145.977 287.500,146.758 288.600 L 148.179 290.600 148.193 307.200 L 148.207 323.800 199.704 323.902 L 251.200 324.003 251.200 308.057 L 251.200 292.112 252.127 290.756 C 255.636 285.625,258.099 282.126,260.400 279.000 C 261.858 277.020,264.101 273.960,265.384 272.200 C 270.676 264.939,286.893 245.008,289.630 242.400 C 293.299 238.904,300.629 227.587,304.352 219.669 C 336.631 151.030,273.548 75.472,189.800 82.462 M51.000 209.868 C 19.997 218.373,11.023 221.400,8.408 224.238 C -0.325 233.711,8.665 248.500,22.000 246.599 C 25.770 246.061,60.358 236.033,62.918 234.735 C 73.218 229.514,72.226 214.994,61.281 210.761 C 59.017 209.886,52.880 209.353,51.000 209.868 M342.400 214.211 C 331.443 217.252,327.905 229.758,335.987 236.883 C 338.673 239.251,339.788 239.702,350.031 242.558 C 355.184 243.995,363.360 246.366,368.200 247.827 C 377.883 250.750,381.528 251.294,385.544 250.413 C 396.201 248.073,400.463 236.271,393.453 228.512 C 390.944 225.735,388.418 224.774,369.000 219.212 C 348.961 213.473,346.636 213.036,342.400 214.211 M154.652 340.650 C 145.931 343.347,144.052 353.388,151.349 358.295 C 154.597 360.479,153.178 360.421,201.068 360.307 L 245.800 360.200 247.445 359.320 C 255.609 354.952,255.365 344.971,247.000 341.120 L 245.000 340.200 200.800 340.123 C 162.405 340.057,156.344 340.126,154.652 340.650 M152.988 376.820 C 152.845 377.051,153.032 378.626,153.404 380.320 C 155.640 390.524,164.211 398.112,175.367 399.762 L 178.534 400.231 179.209 402.215 C 185.623 421.071,215.482 421.490,220.825 402.800 C 221.545 400.284,221.713 400.144,224.342 399.869 C 236.385 398.610,247.126 388.096,247.193 377.500 L 247.200 376.400 200.224 376.400 C 167.869 376.400,153.166 376.531,152.988 376.820 " stroke="none" fill="#fbfbfb" fill-rule="evenodd"></path><path id="path1" d="M0.000 208.400 L 0.000 416.800 98.100 416.767 C 183.641 416.738,195.900 416.661,193.858 416.166 C 187.156 414.544,181.313 409.318,179.000 402.877 L 178.200 400.650 175.081 400.125 C 163.246 398.135,153.671 389.048,152.918 379.091 L 152.685 376.000 200.200 376.000 L 247.716 376.000 247.484 378.765 C 246.597 389.350,234.301 400.400,223.409 400.400 C 222.664 400.400,222.261 400.701,221.939 401.500 C 218.598 409.772,213.635 414.448,206.313 416.220 C 204.578 416.641,221.699 416.738,302.100 416.766 L 400.000 416.800 400.000 208.400 L 400.000 0.000 301.900 0.027 C 220.144 0.049,204.081 0.141,205.486 0.580 C 209.373 1.795,213.185 4.937,214.859 8.306 L 215.800 10.200 215.915 28.946 C 216.043 49.775,215.983 50.387,213.479 53.670 C 206.406 62.943,191.000 61.931,185.678 51.843 L 184.600 49.800 184.486 30.554 C 184.374 11.771,184.392 11.253,185.220 9.038 C 186.612 5.318,190.427 2.011,195.000 0.561 C 196.302 0.148,178.303 0.049,98.300 0.027 L 0.000 0.000 0.000 208.400 M359.416 67.817 C 370.074 70.575,374.362 82.515,367.378 89.983 C 365.614 91.868,364.279 92.799,345.288 105.388 C 331.941 114.235,331.271 114.551,325.779 114.579 C 312.655 114.647,305.255 101.082,313.455 91.989 C 315.847 89.336,346.613 69.016,349.735 68.026 C 352.746 67.072,356.245 66.996,359.416 67.817 M46.489 74.522 C 49.560 75.896,79.448 95.801,81.124 97.588 C 87.465 104.351,85.218 114.618,76.462 118.896 C 72.754 120.707,65.567 120.842,62.000 119.167 C 58.191 117.378,28.930 97.670,27.251 95.763 C 17.278 84.433,32.089 68.079,46.489 74.522 M208.181 82.004 C 256.159 85.111,298.042 115.544,309.189 155.400 C 309.682 157.160,310.244 159.050,310.439 159.600 C 313.319 167.711,314.034 187.093,311.850 197.851 C 308.300 215.334,301.870 228.352,289.648 242.800 C 282.815 250.879,272.914 262.905,271.172 265.242 C 270.418 266.255,267.715 269.855,265.167 273.242 C 262.619 276.629,258.659 282.060,256.367 285.312 L 252.200 291.223 252.000 307.712 L 251.800 324.200 199.900 324.301 C 171.355 324.357,147.975 324.267,147.945 324.101 C 147.914 323.936,147.863 316.406,147.830 307.370 L 147.771 290.940 146.212 288.570 C 138.522 276.876,124.033 258.163,112.727 245.325 C 103.948 235.356,97.355 225.108,93.586 215.569 C 66.569 147.204,127.018 76.748,208.181 82.004 M62.000 210.645 C 71.211 214.982,73.520 225.596,66.706 232.283 C 63.867 235.068,61.932 235.936,52.800 238.519 C 48.510 239.733,40.240 242.099,34.422 243.777 C 22.891 247.103,20.596 247.509,17.042 246.846 C 4.863 244.574,0.186 231.496,8.703 223.529 C 11.972 220.471,11.053 220.799,38.200 213.009 C 53.902 208.502,56.831 208.211,62.000 210.645 M358.600 215.765 C 363.000 217.018,368.580 218.650,371.000 219.390 C 373.420 220.130,378.366 221.567,381.992 222.584 C 392.219 225.451,395.932 228.513,397.183 235.109 C 399.260 246.062,387.827 253.667,374.783 250.008 C 341.250 240.602,339.464 240.038,336.770 238.014 C 325.253 229.361,332.591 212.646,347.600 213.346 C 349.723 213.445,352.940 214.152,358.600 215.765 M247.200 340.753 C 256.258 345.550,255.938 356.472,246.637 359.952 C 243.470 361.137,157.654 361.305,154.026 360.133 C 143.714 356.802,144.231 343.010,154.776 340.142 C 156.185 339.758,166.702 339.663,201.000 339.723 L 245.400 339.800 247.200 340.753 " stroke="none" fill="#1c1c1c" fill-rule="evenodd"></path><path id="path2" d="M184.584 30.000 C 184.584 39.790,184.636 43.795,184.700 38.900 C 184.763 34.005,184.763 25.995,184.700 21.100 C 184.636 16.205,184.584 20.210,184.584 30.000 M215.784 29.800 C 215.784 39.480,215.836 43.383,215.900 38.473 C 215.963 33.563,215.963 25.643,215.900 20.873 C 215.836 16.103,215.784 20.120,215.784 29.800 M366.400 72.200 C 367.146 72.970,367.847 73.600,367.957 73.600 C 368.067 73.600,367.546 72.970,366.800 72.200 C 366.054 71.430,365.353 70.800,365.243 70.800 C 365.133 70.800,365.654 71.430,366.400 72.200 M38.900 73.476 C 39.285 73.576,39.915 73.576,40.300 73.476 C 40.685 73.375,40.370 73.293,39.600 73.293 C 38.830 73.293,38.515 73.375,38.900 73.476 M191.700 82.276 C 192.085 82.376,192.715 82.376,193.100 82.276 C 193.485 82.175,193.170 82.093,192.400 82.093 C 191.630 82.093,191.315 82.175,191.700 82.276 M206.700 82.282 C 207.195 82.378,208.005 82.378,208.500 82.282 C 208.995 82.187,208.590 82.109,207.600 82.109 C 206.610 82.109,206.205 82.187,206.700 82.282 M310.093 100.800 C 310.093 101.570,310.175 101.885,310.276 101.500 C 310.376 101.115,310.376 100.485,310.276 100.100 C 310.175 99.715,310.093 100.030,310.093 100.800 M87.346 181.800 C 87.347 184.000,87.414 184.849,87.495 183.687 C 87.576 182.524,87.576 180.724,87.493 179.687 C 87.411 178.649,87.345 179.600,87.346 181.800 M53.700 209.487 C 54.305 209.578,55.295 209.578,55.900 209.487 C 56.505 209.395,56.010 209.320,54.800 209.320 C 53.590 209.320,53.095 209.395,53.700 209.487 M65.200 212.925 C 65.200 212.994,65.785 213.579,66.500 214.225 L 67.800 215.400 66.625 214.100 C 65.530 212.888,65.200 212.616,65.200 212.925 M331.314 227.400 C 331.317 228.500,331.395 228.903,331.487 228.295 C 331.579 227.686,331.577 226.786,331.482 226.295 C 331.387 225.803,331.311 226.300,331.314 227.400 M110.800 242.925 C 110.800 242.994,111.385 243.579,112.100 244.225 L 113.400 245.400 112.225 244.100 C 111.130 242.888,110.800 242.616,110.800 242.925 M380.900 251.076 C 381.285 251.176,381.915 251.176,382.300 251.076 C 382.685 250.975,382.370 250.893,381.600 250.893 C 380.830 250.893,380.515 250.975,380.900 251.076 M251.382 308.000 C 251.382 316.910,251.435 320.555,251.500 316.100 C 251.564 311.645,251.564 304.355,251.500 299.900 C 251.435 295.445,251.382 299.090,251.382 308.000 M249.600 342.525 C 249.600 342.594,250.185 343.179,250.900 343.825 L 252.200 345.000 251.025 343.700 C 249.930 342.488,249.600 342.216,249.600 342.525 M250.378 357.100 L 249.000 358.600 250.500 357.222 C 251.896 355.938,252.184 355.600,251.878 355.600 C 251.812 355.600,251.137 356.275,250.378 357.100 M157.500 376.289 C 158.215 376.378,159.385 376.378,160.100 376.289 C 160.815 376.201,160.230 376.128,158.800 376.128 C 157.370 376.128,156.785 376.201,157.500 376.289 M166.100 376.291 C 166.925 376.378,168.275 376.378,169.100 376.291 C 169.925 376.205,169.250 376.134,167.600 376.134 C 165.950 376.134,165.275 376.205,166.100 376.291 M175.300 376.291 C 176.125 376.378,177.475 376.378,178.300 376.291 C 179.125 376.205,178.450 376.134,176.800 376.134 C 175.150 376.134,174.475 376.205,175.300 376.291 M184.500 376.291 C 185.325 376.378,186.675 376.378,187.500 376.291 C 188.325 376.205,187.650 376.134,186.000 376.134 C 184.350 376.134,183.675 376.205,184.500 376.291 M193.700 376.291 C 194.525 376.378,195.875 376.378,196.700 376.291 C 197.525 376.205,196.850 376.134,195.200 376.134 C 193.550 376.134,192.875 376.205,193.700 376.291 M202.900 376.291 C 203.725 376.378,205.075 376.378,205.900 376.291 C 206.725 376.205,206.050 376.134,204.400 376.134 C 202.750 376.134,202.075 376.205,202.900 376.291 M212.100 376.291 C 212.925 376.378,214.275 376.378,215.100 376.291 C 215.925 376.205,215.250 376.134,213.600 376.134 C 211.950 376.134,211.275 376.205,212.100 376.291 M221.100 376.289 C 221.815 376.378,222.985 376.378,223.700 376.289 C 224.415 376.201,223.830 376.128,222.400 376.128 C 220.970 376.128,220.385 376.201,221.100 376.289 M229.700 376.291 C 230.525 376.378,231.875 376.378,232.700 376.291 C 233.525 376.205,232.850 376.134,231.200 376.134 C 229.550 376.134,228.875 376.205,229.700 376.291 M238.900 376.291 C 239.725 376.378,241.075 376.378,241.900 376.291 C 242.725 376.205,242.050 376.134,240.400 376.134 C 238.750 376.134,238.075 376.205,238.900 376.291 M247.152 377.287 C 247.337 378.398,247.393 378.455,247.519 377.654 C 247.601 377.133,247.503 376.543,247.301 376.341 C 247.079 376.119,247.021 376.493,247.152 377.287 M159.400 392.000 C 160.483 393.100,161.460 394.000,161.570 394.000 C 161.680 394.000,160.883 393.100,159.800 392.000 C 158.717 390.900,157.740 390.000,157.630 390.000 C 157.520 390.000,158.317 390.900,159.400 392.000 M240.575 392.100 L 239.400 393.400 240.700 392.225 C 241.415 391.579,242.000 390.994,242.000 390.925 C 242.000 390.616,241.670 390.888,240.575 392.100 M182.400 408.925 C 182.400 408.994,182.985 409.579,183.700 410.225 L 185.000 411.400 183.825 410.100 C 182.730 408.888,182.400 408.616,182.400 408.925 " stroke="none" fill="#9c9c9c" fill-rule="evenodd"></path><path id="path3" d="M370.509 81.200 C 370.509 82.190,370.587 82.595,370.682 82.100 C 370.778 81.605,370.778 80.795,370.682 80.300 C 370.587 79.805,370.509 80.210,370.509 81.200 M114.378 116.700 L 113.000 118.200 114.500 116.822 C 115.325 116.063,116.000 115.388,116.000 115.322 C 116.000 115.016,115.662 115.304,114.378 116.700 M312.909 180.800 C 312.909 181.790,312.987 182.195,313.082 181.700 C 313.178 181.205,313.178 180.395,313.082 179.900 C 312.987 179.405,312.909 179.810,312.909 180.800 M346.100 213.476 C 346.485 213.576,347.115 213.576,347.500 213.476 C 347.885 213.375,347.570 213.293,346.800 213.293 C 346.030 213.293,345.715 213.375,346.100 213.476 M179.131 339.900 C 190.862 339.959,209.942 339.959,221.531 339.900 C 233.119 339.841,223.520 339.793,200.200 339.793 C 176.880 339.793,167.399 339.841,179.131 339.900 M178.531 360.700 C 190.593 360.759,210.213 360.759,222.131 360.700 C 234.049 360.641,224.180 360.593,200.200 360.593 C 176.220 360.593,166.469 360.641,178.531 360.700 " stroke="none" fill="#8c8c8c" fill-rule="evenodd"></path><path id="path4" d="M352.500 67.476 C 352.885 67.576,353.515 67.576,353.900 67.476 C 354.285 67.375,353.970 67.293,353.200 67.293 C 352.430 67.293,352.115 67.375,352.500 67.476 M27.978 77.900 L 26.600 79.400 28.100 78.022 C 28.925 77.263,29.600 76.588,29.600 76.522 C 29.600 76.216,29.262 76.504,27.978 77.900 M197.700 81.896 C 198.965 81.975,201.035 81.975,202.300 81.896 C 203.565 81.816,202.530 81.751,200.000 81.751 C 197.470 81.751,196.435 81.816,197.700 81.896 M84.531 106.600 C 84.533 108.140,84.605 108.721,84.692 107.891 C 84.779 107.061,84.777 105.801,84.689 105.091 C 84.600 104.381,84.529 105.060,84.531 106.600 M284.800 115.800 C 286.881 117.890,288.674 119.600,288.784 119.600 C 288.894 119.600,287.281 117.890,285.200 115.800 C 283.119 113.710,281.326 112.000,281.216 112.000 C 281.106 112.000,282.719 113.710,284.800 115.800 M324.291 114.689 C 325.001 114.777,326.261 114.779,327.091 114.692 C 327.921 114.605,327.340 114.533,325.800 114.531 C 324.260 114.529,323.581 114.600,324.291 114.689 M87.301 174.600 C 87.305 175.480,87.387 175.793,87.483 175.295 C 87.579 174.798,87.575 174.078,87.475 173.695 C 87.375 173.313,87.296 173.720,87.301 174.600 M312.920 176.400 C 312.920 177.610,312.995 178.105,313.087 177.500 C 313.178 176.895,313.178 175.905,313.087 175.300 C 312.995 174.695,312.920 175.190,312.920 176.400 M312.924 187.400 C 312.926 188.720,313.001 189.212,313.090 188.493 C 313.179 187.774,313.177 186.694,313.086 186.093 C 312.995 185.492,312.922 186.080,312.924 187.400 M87.301 189.000 C 87.305 189.880,87.387 190.193,87.483 189.695 C 87.579 189.198,87.575 188.478,87.475 188.095 C 87.375 187.713,87.296 188.120,87.301 189.000 M312.493 192.400 C 312.493 193.170,312.575 193.485,312.676 193.100 C 312.776 192.715,312.776 192.085,312.676 191.700 C 312.575 191.315,312.493 191.630,312.493 192.400 M87.693 192.800 C 87.693 193.570,87.775 193.885,87.876 193.500 C 87.976 193.115,87.976 192.485,87.876 192.100 C 87.775 191.715,87.693 192.030,87.693 192.800 M334.981 218.100 L 333.400 219.800 335.100 218.219 C 336.681 216.748,336.984 216.400,336.681 216.400 C 336.616 216.400,335.851 217.165,334.981 218.100 M70.501 223.000 C 70.505 223.880,70.587 224.193,70.683 223.695 C 70.779 223.198,70.775 222.478,70.675 222.095 C 70.575 221.713,70.496 222.120,70.501 223.000 M7.200 241.325 C 7.200 241.394,7.785 241.979,8.500 242.625 L 9.800 243.800 8.625 242.500 C 7.530 241.288,7.200 241.016,7.200 241.325 M19.107 247.090 C 19.826 247.179,20.906 247.177,21.507 247.086 C 22.108 246.995,21.520 246.922,20.200 246.924 C 18.880 246.926,18.388 247.001,19.107 247.090 M284.378 248.700 L 283.000 250.200 284.500 248.822 C 285.325 248.063,286.000 247.388,286.000 247.322 C 286.000 247.016,285.662 247.304,284.378 248.700 M251.695 307.699 L 251.600 323.997 199.700 324.100 L 147.800 324.203 199.713 324.302 C 240.983 324.380,251.664 324.297,251.817 323.899 C 251.923 323.624,251.960 316.199,251.900 307.399 L 251.791 291.400 251.695 307.699 M147.693 300.800 C 147.693 301.570,147.775 301.885,147.876 301.500 C 147.976 301.115,147.976 300.485,147.876 300.100 C 147.775 299.715,147.693 300.030,147.693 300.800 M147.693 310.000 C 147.693 310.770,147.775 311.085,147.876 310.700 C 147.976 310.315,147.976 309.685,147.876 309.300 C 147.775 308.915,147.693 309.230,147.693 310.000 M147.693 319.200 C 147.693 319.970,147.775 320.285,147.876 319.900 C 147.976 319.515,147.976 318.885,147.876 318.500 C 147.775 318.115,147.693 318.430,147.693 319.200 M148.975 343.700 L 147.800 345.000 149.100 343.825 C 150.312 342.730,150.584 342.400,150.275 342.400 C 150.206 342.400,149.621 342.985,148.975 343.700 M250.378 357.500 L 249.000 359.000 250.500 357.622 C 251.896 356.338,252.184 356.000,251.878 356.000 C 251.812 356.000,251.137 356.675,250.378 357.500 M159.400 392.400 C 160.259 393.280,161.052 394.000,161.162 394.000 C 161.272 394.000,160.659 393.280,159.800 392.400 C 158.941 391.520,158.148 390.800,158.038 390.800 C 157.928 390.800,158.541 391.520,159.400 392.400 " stroke="none" fill="#747474" fill-rule="evenodd"></path></g></svg>