<svg id="svg" version="1.1" xmlns="http://www.w3.org/2000/svg" xmlns:xlink="http://www.w3.org/1999/xlink" width="400" height="316.950852557673" viewBox="0, 0, 400,316.950852557673"><g id="svgg"><path id="path0" d="M0.000 158.479 L 0.000 316.957 200.000 316.957 L 400.000 316.957 400.000 158.479 L 400.000 0.000 200.000 0.000 L 0.000 0.000 0.000 158.479 M320.222 20.799 C 325.953 23.701,324.606 29.640,317.106 34.539 C 316.399 35.001,312.670 37.822,301.156 46.602 C 298.306 48.776,295.568 50.840,295.071 51.189 C 294.268 51.752,282.987 60.277,275.277 66.147 C 273.708 67.342,268.003 71.653,262.599 75.729 C 257.195 79.805,252.345 83.476,251.823 83.888 C 250.578 84.868,250.894 84.630,245.800 88.434 C 241.700 91.497,232.163 98.735,231.062 99.620 C 230.800 99.830,228.304 101.704,225.515 103.783 C 222.726 105.862,220.372 107.652,220.285 107.760 C 220.198 107.868,219.420 108.448,218.556 109.050 C 217.692 109.651,216.694 110.382,216.337 110.675 C 207.007 118.338,203.096 120.315,198.821 119.527 C 195.914 118.991,195.732 118.879,186.739 112.088 C 182.322 108.752,178.304 105.737,177.809 105.388 C 177.315 105.040,175.532 103.685,173.847 102.377 C 172.162 101.070,169.808 99.287,168.617 98.415 C 167.426 97.544,161.938 93.407,156.421 89.223 C 150.905 85.040,145.631 81.046,144.702 80.349 C 143.772 79.651,139.346 76.300,134.864 72.900 C 130.383 69.501,126.314 66.434,125.822 66.086 C 124.628 65.240,114.940 57.892,114.739 57.680 C 114.651 57.588,112.013 55.592,108.875 53.244 C 105.737 50.897,102.956 48.802,102.694 48.588 C 102.246 48.223,92.862 41.121,87.322 36.955 C 85.927 35.906,84.643 34.934,84.469 34.794 C 84.295 34.654,82.970 33.654,81.526 32.571 C 76.350 28.692,75.982 23.667,80.679 21.006 L 81.933 20.296 200.570 20.290 C 309.327 20.286,319.292 20.328,320.222 20.799 M30.347 64.650 C 31.442 65.147,33.826 66.774,34.548 67.516 C 34.635 67.606,36.204 68.808,38.035 70.188 C 39.865 71.568,42.433 73.516,43.740 74.516 C 47.473 77.372,55.862 83.763,60.380 87.193 C 62.647 88.913,65.856 91.363,67.512 92.637 C 69.168 93.911,72.891 96.753,75.784 98.953 C 78.678 101.153,83.029 104.469,85.452 106.320 C 87.875 108.172,92.425 111.633,95.563 114.012 C 98.700 116.391,102.003 118.918,102.902 119.628 C 103.801 120.338,105.487 121.632,106.648 122.504 C 107.810 123.376,109.499 124.667,110.402 125.374 C 111.305 126.081,114.469 128.497,117.433 130.743 C 127.269 138.196,130.725 140.826,132.805 142.442 C 133.938 143.322,135.864 144.806,137.084 145.738 C 138.304 146.671,140.444 148.306,141.838 149.371 C 143.233 150.437,146.300 152.761,148.653 154.537 C 151.006 156.313,154.715 159.141,156.894 160.821 C 170.870 171.596,173.228 173.165,179.715 176.006 C 189.006 180.074,203.585 181.486,211.569 179.091 C 212.092 178.934,213.370 178.637,214.410 178.431 C 219.771 177.370,228.335 173.029,234.707 168.145 C 239.536 164.443,243.289 161.580,248.653 157.507 C 254.342 153.187,271.313 140.252,274.802 137.577 C 275.935 136.708,280.428 133.286,284.786 129.973 C 289.144 126.659,292.853 123.831,293.027 123.688 C 293.327 123.441,294.614 122.457,304.437 114.960 C 306.704 113.230,309.892 110.797,311.522 109.553 C 313.153 108.308,317.361 105.104,320.873 102.432 C 324.385 99.760,328.328 96.756,329.635 95.756 C 333.848 92.535,336.962 90.159,342.837 85.683 C 346.001 83.272,350.280 80.005,352.346 78.422 C 354.411 76.839,357.956 74.142,360.222 72.429 C 362.488 70.716,365.127 68.699,366.086 67.949 C 369.291 65.438,369.533 65.275,371.027 64.614 C 374.981 62.865,380.389 65.607,381.602 69.976 C 382.068 71.654,382.061 263.675,381.595 267.093 C 379.814 280.153,369.531 292.701,358.003 295.879 C 356.957 296.168,355.531 296.564,354.834 296.760 C 353.071 297.255,53.963 297.491,49.101 297.001 C 45.839 296.672,40.753 295.298,39.216 294.331 C 38.828 294.086,37.803 293.518,36.939 293.067 C 36.075 292.616,34.255 291.370,32.894 290.298 C 25.256 284.281,21.097 276.691,19.455 265.769 C 19.021 262.876,19.086 72.310,19.522 70.610 C 20.833 65.505,25.983 62.669,30.347 64.650 " stroke="none" fill="#1c1c1c" fill-rule="evenodd"></path><path id="path1" d="M81.775 20.973 C 78.562 21.880,77.044 25.777,78.629 29.050 C 79.145 30.117,80.149 31.052,83.304 33.409 C 85.514 35.060,89.319 37.927,91.759 39.781 C 94.200 41.635,97.501 44.129,99.096 45.323 C 100.690 46.517,102.259 47.713,102.582 47.982 C 102.905 48.251,104.097 49.161,105.230 50.006 C 106.363 50.850,108.484 52.460,109.944 53.584 C 111.403 54.707,112.901 55.835,113.272 56.091 C 113.880 56.511,117.814 59.476,127.403 66.744 C 131.103 69.548,144.302 79.520,155.626 88.067 C 159.723 91.159,165.499 95.533,168.463 97.788 C 171.426 100.043,176.062 103.554,178.764 105.590 C 181.466 107.627,186.173 111.176,189.223 113.479 C 196.149 118.705,196.707 118.974,200.634 118.985 C 205.055 118.997,203.247 120.167,228.685 100.838 C 236.871 94.618,243.010 89.987,244.082 89.223 C 244.571 88.875,246.870 87.143,249.189 85.374 C 251.509 83.606,256.189 80.052,259.588 77.476 C 262.987 74.901,269.168 70.215,273.323 67.063 C 277.478 63.910,281.281 61.046,281.774 60.697 C 282.267 60.349,285.487 57.924,288.928 55.309 C 292.370 52.694,299.051 47.643,303.774 44.085 C 314.032 36.357,317.907 33.414,318.528 32.883 C 318.781 32.666,319.631 32.028,320.416 31.467 C 324.617 28.461,324.160 22.690,319.593 21.061 C 318.083 20.523,83.678 20.435,81.775 20.973 M25.561 64.679 C 23.271 65.243,21.615 66.694,20.447 69.162 L 19.648 70.848 19.738 168.784 L 19.828 266.719 20.515 269.731 C 23.658 283.501,34.664 294.469,47.227 296.349 C 51.920 297.051,354.440 296.645,356.577 295.933 C 369.595 291.599,377.616 282.748,380.752 269.255 L 381.415 266.403 381.521 169.098 C 381.639 60.665,381.817 69.739,379.515 67.191 C 375.990 63.289,372.290 63.633,366.086 68.442 C 363.083 70.769,352.989 78.470,350.912 80.019 C 350.454 80.360,348.231 82.072,345.972 83.822 C 343.714 85.573,341.266 87.433,340.533 87.956 C 339.801 88.479,338.368 89.559,337.350 90.356 C 335.658 91.682,327.707 97.744,318.054 105.069 C 315.956 106.661,313.282 108.707,312.113 109.614 C 308.776 112.203,304.918 115.154,303.959 115.848 C 303.478 116.197,301.130 117.979,298.741 119.810 C 296.353 121.640,294.006 123.423,293.526 123.772 C 293.046 124.120,292.149 124.809,291.533 125.302 C 290.917 125.795,289.702 126.723,288.832 127.363 C 287.257 128.522,284.390 130.708,279.873 134.194 C 278.566 135.203,275.071 137.870,272.108 140.120 C 269.144 142.369,265.365 145.250,263.708 146.521 C 259.600 149.674,253.260 154.508,248.494 158.123 C 246.315 159.775,243.677 161.790,242.631 162.599 C 232.506 170.434,229.562 172.475,225.060 174.777 C 208.215 183.394,186.272 182.285,171.224 172.057 C 169.337 170.775,154.281 159.399,141.521 149.616 C 134.551 144.271,135.106 144.695,129.601 140.524 C 124.638 136.763,121.415 134.302,114.918 129.310 C 112.314 127.310,108.106 124.098,105.567 122.173 C 103.028 120.248,99.739 117.743,98.257 116.607 C 96.775 115.471,93.423 112.919,90.808 110.935 C 85.669 107.037,83.229 105.171,76.862 100.271 C 74.596 98.527,70.605 95.487,67.994 93.514 C 65.382 91.542,62.530 89.364,61.654 88.676 C 60.779 87.988,56.783 84.931,52.773 81.883 C 48.764 78.835,44.200 75.361,42.631 74.162 C 41.062 72.964,38.872 71.298,37.765 70.461 C 36.658 69.623,34.875 68.241,33.803 67.389 C 30.639 64.873,28.127 64.048,25.561 64.679 " stroke="none" fill="#fcfcfc" fill-rule="evenodd"></path><path id="path2" d="M79.378 22.266 L 78.447 23.296 79.477 22.365 C 80.437 21.498,80.653 21.236,80.408 21.236 C 80.353 21.236,79.890 21.700,79.378 22.266 M77.734 26.466 C 77.738 27.163,77.803 27.411,77.879 27.017 C 77.955 26.623,77.952 26.052,77.872 25.749 C 77.793 25.446,77.731 25.769,77.734 26.466 M97.306 44.172 C 97.306 44.260,97.734 44.636,98.257 45.008 C 98.780 45.380,99.208 45.614,99.208 45.527 C 99.208 45.439,98.780 45.063,98.257 44.691 C 97.734 44.319,97.306 44.085,97.306 44.172 M296.117 49.782 C 295.202 50.484,294.453 51.128,294.453 51.213 C 294.453 51.298,295.238 50.775,296.197 50.051 C 297.710 48.909,298.170 48.479,297.861 48.500 C 297.817 48.502,297.032 49.079,296.117 49.782 M289.065 55.189 C 287.960 56.158,287.960 56.159,288.976 55.483 C 289.537 55.110,290.081 54.668,290.183 54.502 C 290.489 54.007,290.236 54.163,289.065 55.189 M115.169 57.614 C 115.420 58.020,117.274 59.392,117.274 59.172 C 117.274 59.093,116.751 58.630,116.111 58.142 C 115.471 57.654,115.047 57.416,115.169 57.614 M280.921 61.354 L 280.032 62.170 281.062 61.453 C 281.628 61.059,282.092 60.692,282.092 60.638 C 282.092 60.388,281.741 60.602,280.921 61.354 M270.669 69.120 L 269.572 70.093 270.761 69.240 C 271.811 68.487,272.153 68.146,271.858 68.146 C 271.808 68.146,271.273 68.584,270.669 69.120 M361.648 71.671 C 360.544 72.639,360.543 72.641,361.559 71.965 C 362.121 71.591,362.664 71.150,362.767 70.984 C 363.072 70.489,362.819 70.645,361.648 71.671 M19.491 167.670 C 19.491 220.404,19.527 241.977,19.572 215.610 C 19.617 189.243,19.617 146.097,19.572 119.731 C 19.527 93.364,19.491 114.937,19.491 167.670 M381.773 167.670 C 381.773 220.230,381.809 241.731,381.854 215.452 C 381.899 189.172,381.899 146.169,381.854 119.889 C 381.809 93.609,381.773 115.111,381.773 167.670 M142.314 78.077 C 142.314 78.164,142.884 78.687,143.582 79.239 C 144.279 79.792,144.849 80.172,144.849 80.085 C 144.849 79.998,144.279 79.475,143.582 78.922 C 142.884 78.370,142.314 77.990,142.314 78.077 M256.418 79.912 C 255.314 80.880,255.313 80.882,256.330 80.206 C 256.891 79.832,257.434 79.391,257.537 79.225 C 257.843 78.730,257.589 78.886,256.418 79.912 M243.203 89.880 L 242.314 90.696 243.344 89.979 C 243.910 89.585,244.374 89.218,244.374 89.164 C 244.374 88.914,244.023 89.128,243.203 89.880 M160.697 92.017 C 160.697 92.095,161.221 92.559,161.861 93.047 C 162.501 93.535,162.924 93.772,162.802 93.575 C 162.551 93.169,160.697 91.797,160.697 92.017 M168.621 98.055 C 168.621 98.142,169.049 98.518,169.572 98.891 C 170.095 99.263,170.523 99.496,170.523 99.409 C 170.523 99.322,170.095 98.946,169.572 98.574 C 169.049 98.201,168.621 97.968,168.621 98.055 M81.255 103.573 C 81.506 103.979,83.360 105.351,83.360 105.131 C 83.360 105.052,82.836 104.589,82.196 104.101 C 81.556 103.612,81.133 103.375,81.255 103.573 M181.300 107.542 C 181.300 107.623,181.970 108.239,182.790 108.911 C 183.610 109.583,184.179 109.967,184.054 109.764 C 183.787 109.333,181.300 107.326,181.300 107.542 M304.437 115.253 C 303.867 115.738,303.751 115.931,304.147 115.735 C 304.728 115.446,305.817 114.403,305.506 114.433 C 305.441 114.439,304.960 114.808,304.437 115.253 M199.762 119.403 C 200.242 119.476,201.026 119.476,201.506 119.403 C 201.985 119.330,201.593 119.271,200.634 119.271 C 199.675 119.271,199.283 119.330,199.762 119.403 M276.387 136.647 C 275.282 137.616,275.282 137.617,276.298 136.941 C 276.859 136.568,277.402 136.126,277.505 135.960 C 277.811 135.465,277.557 135.621,276.387 136.647 M146.751 153.507 C 146.751 153.585,147.275 154.048,147.915 154.537 C 148.555 155.025,148.978 155.262,148.856 155.064 C 148.605 154.659,146.751 153.286,146.751 153.507 M250.872 156.129 L 249.921 156.946 250.951 156.265 C 251.517 155.890,251.981 155.521,251.981 155.446 C 251.981 155.209,251.847 155.291,250.872 156.129 M150.872 156.692 C 150.872 156.779,151.300 157.155,151.823 157.528 C 152.345 157.900,152.773 158.133,152.773 158.046 C 152.773 157.959,152.345 157.583,151.823 157.211 C 151.300 156.838,150.872 156.605,150.872 156.692 M181.300 177.126 C 181.561 177.287,182.132 177.515,182.567 177.631 C 183.118 177.779,183.215 177.754,182.884 177.550 C 182.623 177.388,182.052 177.160,181.616 177.044 C 181.066 176.897,180.969 176.921,181.300 177.126 M207.052 180.250 C 207.357 180.330,207.857 180.330,208.162 180.250 C 208.467 180.170,208.217 180.105,207.607 180.105 C 206.997 180.105,206.747 180.170,207.052 180.250 M195.642 180.576 C 196.121 180.648,196.906 180.648,197.385 180.576 C 197.865 180.503,197.472 180.444,196.513 180.444 C 195.555 180.444,195.162 180.503,195.642 180.576 M204.041 180.572 C 204.433 180.648,205.075 180.648,205.468 180.572 C 205.860 180.497,205.539 180.435,204.754 180.435 C 203.970 180.435,203.649 180.497,204.041 180.572 M381.390 265.135 C 381.393 266.006,381.454 266.325,381.527 265.844 C 381.600 265.362,381.598 264.649,381.523 264.259 C 381.447 263.869,381.388 264.263,381.390 265.135 M22.979 277.655 C 23.250 278.177,23.542 278.605,23.630 278.605 C 23.717 278.605,23.567 278.177,23.296 277.655 C 23.026 277.132,22.733 276.704,22.646 276.704 C 22.559 276.704,22.709 277.132,22.979 277.655 M25.990 282.726 C 26.363 283.249,26.739 283.677,26.826 283.677 C 26.913 283.677,26.680 283.249,26.307 282.726 C 25.935 282.203,25.559 281.775,25.472 281.775 C 25.385 281.775,25.618 282.203,25.990 282.726 M30.111 287.639 C 31.058 288.597,31.904 289.382,31.991 289.382 C 32.078 289.382,31.375 288.597,30.428 287.639 C 29.481 286.680,28.635 285.895,28.548 285.895 C 28.461 285.895,29.164 286.680,30.111 287.639 M371.157 287.322 C 370.387 288.106,369.828 288.748,369.916 288.748 C 370.003 288.748,370.704 288.106,371.474 287.322 C 372.244 286.537,372.802 285.895,372.715 285.895 C 372.628 285.895,371.927 286.537,371.157 287.322 M41.680 295.064 C 42.377 295.400,43.162 295.679,43.423 295.685 C 43.966 295.698,42.344 294.950,41.184 294.652 C 40.759 294.544,40.983 294.729,41.680 295.064 M124.643 296.910 C 166.438 296.954,234.830 296.954,276.624 296.910 C 318.419 296.865,284.223 296.829,200.634 296.829 C 117.044 296.829,82.849 296.865,124.643 296.910 " stroke="none" fill="#aeaeae" fill-rule="evenodd"></path><path id="path3" d="M141.125 20.523 C 173.855 20.567,227.413 20.567,260.143 20.523 C 292.872 20.478,266.094 20.442,200.634 20.442 C 135.174 20.442,108.395 20.478,141.125 20.523 M77.962 23.789 C 77.770 24.148,77.660 24.582,77.718 24.754 C 77.775 24.926,77.986 24.633,78.186 24.102 C 78.603 22.999,78.478 22.825,77.962 23.789 M77.417 26.466 C 77.421 27.163,77.486 27.411,77.562 27.017 C 77.638 26.623,77.635 26.052,77.555 25.749 C 77.476 25.446,77.414 25.769,77.417 26.466 M295.721 50.444 C 295.111 50.979,294.899 51.272,295.249 51.094 C 295.828 50.801,297.264 49.428,296.959 49.458 C 296.888 49.465,296.331 49.909,295.721 50.444 M283.835 59.457 L 282.884 60.274 283.914 59.593 C 284.481 59.218,284.945 58.849,284.945 58.774 C 284.945 58.537,284.810 58.619,283.835 59.457 M26.228 64.255 C 26.795 64.325,27.722 64.325,28.288 64.255 C 28.855 64.184,28.391 64.127,27.258 64.127 C 26.125 64.127,25.662 64.184,26.228 64.255 M372.985 64.255 C 373.555 64.326,374.411 64.324,374.887 64.252 C 375.363 64.180,374.897 64.122,373.851 64.124 C 372.805 64.125,372.415 64.185,372.985 64.255 M375.938 64.460 C 376.264 64.752,378.130 65.610,378.130 65.468 C 378.130 65.285,376.373 64.342,376.033 64.342 C 375.908 64.342,375.865 64.395,375.938 64.460 M275.911 65.479 L 274.960 66.296 275.990 65.615 C 276.557 65.240,277.021 64.871,277.021 64.796 C 277.021 64.559,276.886 64.642,275.911 65.479 M378.447 65.709 C 378.447 65.764,378.910 66.227,379.477 66.739 L 380.507 67.670 379.576 66.640 C 378.708 65.680,378.447 65.464,378.447 65.709 M128.051 67.617 C 128.051 67.704,128.621 68.227,129.319 68.780 C 130.016 69.332,130.586 69.713,130.586 69.625 C 130.586 69.538,130.016 69.015,129.319 68.463 C 128.621 67.910,128.051 67.530,128.051 67.617 M380.886 68.934 C 381.176 69.542,381.469 69.983,381.538 69.915 C 381.683 69.770,380.721 67.829,380.504 67.829 C 380.424 67.829,380.596 68.326,380.886 68.934 M358.954 73.403 L 358.003 74.220 359.033 73.539 C 359.600 73.164,360.063 72.795,360.063 72.720 C 360.063 72.483,359.929 72.566,358.954 73.403 M146.548 81.703 C 146.799 82.108,148.653 83.481,148.653 83.260 C 148.653 83.182,148.129 82.719,147.489 82.231 C 146.849 81.742,146.426 81.505,146.548 81.703 M246.117 87.983 L 245.166 88.800 246.197 88.119 C 246.763 87.744,247.227 87.375,247.227 87.300 C 247.227 87.063,247.092 87.146,246.117 87.983 M154.358 87.596 C 154.358 87.683,154.786 88.059,155.309 88.431 C 155.832 88.803,156.260 89.037,156.260 88.950 C 156.260 88.863,155.832 88.486,155.309 88.114 C 154.786 87.742,154.358 87.508,154.358 87.596 M337.547 89.722 L 336.450 90.696 337.639 89.843 C 338.689 89.089,339.031 88.748,338.736 88.748 C 338.686 88.748,338.151 89.186,337.547 89.722 M165.882 96.283 C 166.133 96.689,167.987 98.061,167.987 97.841 C 167.987 97.762,167.464 97.299,166.824 96.811 C 166.184 96.322,165.760 96.085,165.882 96.283 M227.734 101.930 L 226.783 102.747 227.813 102.065 C 228.380 101.690,228.843 101.322,228.843 101.246 C 228.843 101.009,228.709 101.092,227.734 101.930 M96.038 114.521 C 96.038 114.599,96.562 115.063,97.202 115.551 C 97.842 116.039,98.265 116.276,98.143 116.079 C 97.892 115.673,96.038 114.301,96.038 114.521 M301.585 117.143 L 300.634 117.960 301.664 117.279 C 302.231 116.904,302.694 116.535,302.694 116.460 C 302.694 116.223,302.560 116.306,301.585 117.143 M199.921 119.717 C 200.313 119.792,200.955 119.792,201.347 119.717 C 201.739 119.641,201.418 119.579,200.634 119.579 C 199.849 119.579,199.529 119.641,199.921 119.717 M128.051 138.927 C 128.051 139.005,128.574 139.468,129.214 139.956 C 129.854 140.445,130.278 140.682,130.156 140.484 C 129.905 140.079,128.051 138.706,128.051 138.927 M132.171 142.112 C 132.171 142.199,132.599 142.575,133.122 142.948 C 133.645 143.320,134.073 143.553,134.073 143.466 C 134.073 143.379,133.645 143.003,133.122 142.631 C 132.599 142.258,132.171 142.025,132.171 142.112 M265.610 144.571 C 264.506 145.540,264.505 145.541,265.521 144.865 C 266.083 144.491,266.626 144.050,266.729 143.884 C 267.034 143.389,266.781 143.545,265.610 144.571 M244.045 161.037 L 242.948 162.011 244.136 161.158 C 245.187 160.404,245.528 160.063,245.234 160.063 C 245.184 160.063,244.649 160.502,244.045 161.037 M188.590 179.081 C 189.673 179.428,190.507 179.428,189.699 179.081 C 189.350 178.931,188.780 178.813,188.431 178.818 C 187.921 178.825,187.953 178.877,188.590 179.081 M206.898 179.939 C 207.292 180.015,207.862 180.012,208.165 179.933 C 208.468 179.853,208.146 179.791,207.448 179.795 C 206.751 179.798,206.503 179.863,206.898 179.939 M195.959 180.250 C 196.264 180.330,196.763 180.330,197.068 180.250 C 197.373 180.170,197.124 180.105,196.513 180.105 C 195.903 180.105,195.654 180.170,195.959 180.250 M204.200 180.250 C 204.505 180.330,205.004 180.330,205.309 180.250 C 205.614 180.170,205.365 180.105,204.754 180.105 C 204.144 180.105,203.895 180.170,204.200 180.250 M19.408 264.659 C 19.408 265.269,19.473 265.519,19.553 265.214 C 19.633 264.909,19.633 264.410,19.553 264.105 C 19.473 263.800,19.408 264.049,19.408 264.659 M380.864 269.770 C 380.599 271.091,380.856 271.347,381.141 270.048 C 381.261 269.500,381.294 268.985,381.213 268.905 C 381.132 268.824,380.975 269.213,380.864 269.770 M20.330 270.681 C 20.330 270.943,20.452 271.442,20.602 271.791 C 20.774 272.190,20.875 272.249,20.875 271.949 C 20.875 271.688,20.752 271.189,20.602 270.840 C 20.431 270.440,20.330 270.382,20.330 270.681 M379.132 275.291 C 378.601 276.456,378.703 276.705,379.277 275.646 C 379.545 275.151,379.705 274.687,379.633 274.614 C 379.560 274.542,379.335 274.846,379.132 275.291 M26.301 283.667 C 26.669 284.185,27.133 284.708,27.331 284.831 C 27.528 284.953,27.291 284.529,26.803 283.889 C 25.743 282.500,25.344 282.324,26.301 283.667 M29.319 287.163 C 30.354 288.209,31.272 289.065,31.359 289.065 C 31.446 289.065,30.671 288.209,29.635 287.163 C 28.600 286.117,27.682 285.261,27.595 285.261 C 27.508 285.261,28.283 286.117,29.319 287.163 M370.987 287.876 L 369.414 289.540 371.078 287.968 C 371.993 287.102,372.742 286.354,372.742 286.304 C 372.742 286.067,372.448 286.330,370.987 287.876 M44.849 296.355 C 45.198 296.505,45.769 296.623,46.117 296.618 C 46.627 296.611,46.596 296.559,45.959 296.355 C 44.875 296.008,44.042 296.008,44.849 296.355 M125.436 297.227 C 166.795 297.271,234.473 297.271,275.832 297.227 C 317.191 297.182,283.352 297.146,200.634 297.146 C 117.916 297.146,84.077 297.182,125.436 297.227 " stroke="none" fill="#747474" fill-rule="evenodd"></path><path id="path4" d="" stroke="none" fill="#8c8c8c" fill-rule="evenodd"></path></g></svg>