<svg id="svg" version="1.1" xmlns="http://www.w3.org/2000/svg" xmlns:xlink="http://www.w3.org/1999/xlink" width="400" height="295.65217391304344" viewBox="0, 0, 400,295.65217391304344"><g id="svgg"><path id="path0" d="M0.000 147.929 L 0.000 295.858 200.000 295.858 L 400.000 295.858 400.000 147.929 L 400.000 0.000 200.000 0.000 L 0.000 0.000 0.000 147.929 M321.391 25.962 C 323.059 27.228,323.869 29.875,323.239 31.998 C 322.738 33.685,322.310 34.142,319.231 36.276 C 318.173 37.009,316.233 38.367,314.919 39.293 C 310.435 42.454,307.905 44.231,307.254 44.675 C 305.390 45.946,304.095 46.855,302.219 48.208 C 301.080 49.030,299.749 49.960,299.260 50.275 C 298.208 50.953,297.268 51.607,294.649 53.485 C 293.578 54.253,292.494 55.015,292.240 55.178 C 291.987 55.340,290.667 56.243,289.307 57.183 C 287.947 58.124,285.969 59.487,284.911 60.213 C 283.854 60.939,282.189 62.109,281.213 62.814 C 280.237 63.519,278.306 64.871,276.923 65.818 C 275.540 66.766,274.133 67.788,273.797 68.090 C 273.462 68.392,273.051 68.639,272.884 68.639 C 272.718 68.639,271.780 69.271,270.799 70.044 C 269.819 70.817,268.632 71.684,268.162 71.970 C 267.692 72.257,266.376 73.159,265.237 73.976 C 262.732 75.773,261.021 76.969,260.386 77.367 C 260.126 77.530,259.475 78.029,258.940 78.476 C 258.405 78.924,257.848 79.290,257.702 79.290 C 257.555 79.290,256.606 79.956,255.592 80.769 C 254.579 81.583,253.630 82.249,253.484 82.249 C 253.339 82.249,252.728 82.637,252.128 83.112 C 251.527 83.587,250.288 84.486,249.373 85.109 C 248.459 85.733,246.676 86.975,245.411 87.870 C 244.146 88.765,242.819 89.697,242.461 89.941 C 242.103 90.185,241.241 90.784,240.545 91.272 C 239.850 91.760,238.854 92.426,238.332 92.751 C 237.810 93.077,236.804 93.809,236.095 94.379 C 235.386 94.948,234.376 95.680,233.852 96.006 C 231.723 97.326,228.723 99.424,228.540 99.721 C 228.433 99.894,228.058 100.162,227.708 100.315 C 227.358 100.469,226.472 101.057,225.740 101.622 C 225.007 102.188,224.009 102.869,223.521 103.135 C 223.033 103.402,222.367 103.853,222.041 104.139 C 221.716 104.425,220.610 105.241,219.585 105.954 C 215.902 108.510,214.279 109.629,212.993 110.498 C 212.274 110.984,210.846 112.016,209.820 112.791 C 208.793 113.567,207.822 114.201,207.663 114.201 C 207.503 114.201,207.012 114.458,206.571 114.771 C 203.133 117.216,196.999 116.185,191.716 112.274 C 189.853 110.895,189.385 110.572,186.538 108.703 C 185.399 107.956,184.334 107.184,184.172 106.987 C 184.009 106.791,182.544 105.742,180.917 104.655 C 178.068 102.752,174.820 100.521,172.337 98.760 C 171.686 98.299,170.259 97.308,169.165 96.560 C 168.071 95.811,167.023 95.014,166.836 94.789 C 166.649 94.563,166.371 94.379,166.218 94.379 C 166.066 94.379,164.584 93.410,162.926 92.225 C 161.268 91.041,159.578 89.847,159.172 89.573 C 158.765 89.299,157.300 88.273,155.917 87.294 C 151.590 84.232,149.380 82.704,148.794 82.370 C 148.483 82.193,147.995 81.839,147.709 81.583 C 147.096 81.034,141.945 77.432,140.719 76.694 C 140.252 76.413,139.187 75.638,138.352 74.971 C 137.517 74.304,136.395 73.532,135.857 73.254 C 135.320 72.977,134.639 72.524,134.344 72.248 C 134.049 71.971,132.715 71.013,131.378 70.118 C 130.042 69.223,128.122 67.892,127.111 67.160 C 126.101 66.428,125.061 65.695,124.800 65.533 C 123.926 64.988,120.954 62.884,119.111 61.505 C 118.108 60.754,116.892 59.936,116.409 59.686 C 115.926 59.436,115.278 58.952,114.968 58.610 C 114.659 58.268,114.279 57.988,114.124 57.988 C 113.969 57.988,113.467 57.689,113.007 57.322 C 112.547 56.956,111.729 56.355,111.189 55.986 C 110.649 55.618,109.342 54.686,108.284 53.915 C 107.226 53.145,105.944 52.249,105.434 51.923 C 104.924 51.598,103.937 50.932,103.242 50.444 C 102.546 49.956,101.684 49.357,101.326 49.112 C 100.968 48.868,99.645 47.936,98.385 47.041 C 97.125 46.146,95.672 45.148,95.156 44.822 C 94.640 44.497,93.488 43.686,92.597 43.021 C 91.706 42.356,90.643 41.638,90.237 41.425 C 89.830 41.212,88.879 40.525,88.125 39.898 C 87.370 39.270,86.663 38.757,86.554 38.757 C 86.444 38.757,85.771 38.325,85.057 37.796 C 84.344 37.267,83.000 36.302,82.071 35.651 C 78.045 32.831,77.565 28.332,81.015 25.756 C 81.801 25.170,82.412 25.167,201.062 25.157 L 320.319 25.148 321.391 25.962 M30.769 65.415 C 31.664 65.641,33.129 66.331,34.024 66.949 C 36.941 68.962,37.693 69.488,39.793 70.983 C 40.932 71.794,42.796 73.084,43.935 73.851 C 45.074 74.617,46.354 75.522,46.778 75.862 C 47.203 76.201,47.851 76.679,48.218 76.923 C 48.584 77.167,49.460 77.800,50.164 78.328 C 50.868 78.857,51.511 79.290,51.594 79.290 C 51.676 79.290,52.650 79.955,53.757 80.768 C 55.705 82.200,56.487 82.756,58.741 84.320 C 59.328 84.726,60.363 85.465,61.043 85.962 C 61.722 86.459,63.476 87.692,64.941 88.704 C 66.405 89.715,69.001 91.538,70.710 92.754 C 72.419 93.971,74.749 95.592,75.888 96.357 C 77.027 97.122,78.092 97.893,78.254 98.071 C 78.417 98.250,79.529 99.056,80.724 99.863 C 81.920 100.671,83.318 101.631,83.831 101.998 C 86.273 103.744,86.916 104.201,87.991 104.956 C 88.627 105.403,89.435 105.969,89.787 106.213 C 92.383 108.016,94.040 109.178,96.746 111.094 C 98.454 112.304,100.717 113.901,101.775 114.642 C 102.833 115.383,104.697 116.719,105.917 117.611 C 107.138 118.503,108.529 119.449,109.009 119.714 C 109.489 119.979,110.069 120.382,110.298 120.611 C 110.526 120.839,111.598 121.625,112.679 122.358 C 113.760 123.090,115.643 124.410,116.864 125.292 C 118.084 126.173,120.148 127.623,121.450 128.515 C 122.751 129.406,124.777 130.844,125.950 131.710 C 127.123 132.576,128.454 133.511,128.908 133.789 C 129.362 134.067,131.132 135.301,132.840 136.531 C 134.549 137.760,136.413 139.093,136.982 139.491 C 137.552 139.889,138.550 140.596,139.201 141.060 C 139.852 141.525,141.296 142.532,142.411 143.297 C 144.133 144.480,145.145 145.209,146.893 146.525 C 147.056 146.647,147.922 147.229,148.817 147.817 C 149.712 148.405,150.577 149.050,150.740 149.250 C 150.902 149.450,151.435 149.839,151.923 150.115 C 152.905 150.670,154.647 151.860,155.309 152.427 C 155.544 152.628,157.008 153.647,158.563 154.692 C 160.118 155.736,161.474 156.720,161.576 156.878 C 161.678 157.036,162.231 157.450,162.805 157.799 C 164.711 158.956,168.008 161.235,168.181 161.515 C 168.319 161.738,171.177 163.541,173.373 164.789 C 174.789 165.594,180.167 168.037,180.917 168.216 C 181.405 168.332,182.271 168.657,182.840 168.937 C 183.410 169.217,184.408 169.538,185.059 169.649 C 185.710 169.760,187.041 170.103,188.018 170.411 C 189.864 170.993,194.763 171.577,199.852 171.821 C 205.085 172.072,212.823 171.014,217.973 169.343 C 221.147 168.313,222.163 167.931,223.853 167.130 C 224.849 166.658,225.798 166.272,225.962 166.272 C 226.125 166.272,226.414 166.086,226.603 165.857 C 226.792 165.629,227.288 165.357,227.704 165.253 C 228.810 164.975,233.099 162.173,240.680 156.775 C 241.820 155.964,243.217 154.974,243.787 154.574 C 244.357 154.175,245.288 153.514,245.858 153.107 C 246.428 152.699,247.359 152.038,247.929 151.639 C 248.499 151.239,249.896 150.239,251.036 149.415 C 252.175 148.591,253.506 147.661,253.994 147.349 C 254.482 147.036,255.025 146.656,255.201 146.503 C 255.376 146.350,256.042 145.879,256.680 145.455 C 257.318 145.031,259.238 143.683,260.947 142.459 C 263.713 140.477,265.403 139.286,268.935 136.831 C 269.504 136.435,270.636 135.630,271.450 135.041 C 272.263 134.453,273.328 133.718,273.817 133.408 C 274.305 133.098,275.303 132.378,276.036 131.808 C 276.768 131.238,277.653 130.646,278.004 130.493 C 278.354 130.339,278.729 130.072,278.836 129.898 C 278.943 129.724,279.988 128.958,281.158 128.196 C 282.327 127.434,283.442 126.670,283.636 126.497 C 283.830 126.325,284.429 125.880,284.968 125.509 C 287.824 123.541,292.014 120.617,293.012 119.895 C 293.520 119.529,294.401 118.903,294.970 118.506 C 295.540 118.108,296.938 117.115,298.077 116.300 C 299.216 115.484,301.213 114.080,302.515 113.179 C 303.817 112.279,306.280 110.541,307.988 109.318 C 309.697 108.094,311.428 106.866,311.834 106.589 C 312.241 106.311,313.306 105.547,314.201 104.891 C 315.096 104.235,316.039 103.565,316.297 103.402 C 317.022 102.945,319.664 101.102,323.077 98.674 C 324.786 97.458,326.516 96.232,326.923 95.948 C 327.330 95.665,328.395 94.896,329.290 94.240 C 330.185 93.584,331.132 92.914,331.395 92.751 C 332.016 92.368,335.459 89.979,337.722 88.362 C 338.698 87.665,340.629 86.313,342.012 85.357 C 343.395 84.402,345.259 83.080,346.154 82.420 C 347.049 81.761,348.713 80.586,349.852 79.811 C 353.448 77.364,355.749 75.711,356.380 75.124 C 356.716 74.812,357.075 74.556,357.179 74.556 C 357.364 74.556,358.760 73.601,361.095 71.877 C 361.746 71.396,363.669 70.056,365.368 68.900 C 367.068 67.743,368.798 66.555,369.214 66.260 C 372.784 63.726,378.515 65.461,380.870 69.788 L 381.664 71.248 381.587 161.437 C 381.523 235.067,381.438 251.789,381.121 252.508 C 380.907 252.992,380.544 254.286,380.314 255.382 C 380.083 256.478,379.625 257.877,379.296 258.491 C 378.967 259.105,378.698 259.811,378.698 260.060 C 378.698 260.309,378.365 261.003,377.959 261.602 C 377.552 262.201,377.219 262.784,377.219 262.897 C 377.219 263.996,368.413 273.669,367.413 273.669 C 367.223 273.669,366.656 273.982,366.152 274.364 C 364.923 275.298,362.390 276.627,361.837 276.628 C 361.591 276.629,360.938 276.905,360.385 277.242 C 359.832 277.580,358.035 278.145,356.391 278.499 L 353.402 279.142 201.479 279.227 C 67.596 279.302,49.328 279.259,47.633 278.870 C 46.575 278.627,45.178 278.341,44.527 278.235 C 43.876 278.128,42.933 277.807,42.432 277.521 C 41.930 277.236,41.037 276.843,40.448 276.648 C 39.477 276.328,38.720 275.935,35.533 274.100 C 31.948 272.035,24.259 263.516,24.260 261.609 C 24.261 261.489,23.876 260.592,23.405 259.615 C 22.422 257.576,21.426 254.531,21.179 252.811 C 20.756 249.870,21.000 70.100,21.428 69.287 C 22.613 67.033,27.023 64.440,28.846 64.926 C 29.009 64.969,29.874 65.189,30.769 65.415 " stroke="none" fill="#ffffff" fill-rule="evenodd"></path><path id="path1" d="M81.015 25.756 C 77.565 28.332,78.045 32.831,82.071 35.651 C 83.000 36.302,84.344 37.267,85.057 37.796 C 85.771 38.325,86.444 38.757,86.554 38.757 C 86.663 38.757,87.370 39.270,88.125 39.898 C 88.879 40.525,89.830 41.212,90.237 41.425 C 90.643 41.638,91.706 42.356,92.597 43.021 C 93.488 43.686,94.640 44.497,95.156 44.822 C 95.672 45.148,97.125 46.146,98.385 47.041 C 99.645 47.936,100.968 48.868,101.326 49.112 C 101.684 49.357,102.546 49.956,103.242 50.444 C 103.937 50.932,104.924 51.598,105.434 51.923 C 105.944 52.249,107.226 53.145,108.284 53.915 C 109.342 54.686,110.649 55.618,111.189 55.986 C 111.729 56.355,112.547 56.956,113.007 57.322 C 113.467 57.689,113.969 57.988,114.124 57.988 C 114.279 57.988,114.659 58.268,114.968 58.610 C 115.278 58.952,115.926 59.436,116.409 59.686 C 116.892 59.936,118.108 60.754,119.111 61.505 C 120.954 62.884,123.926 64.988,124.800 65.533 C 125.061 65.695,126.101 66.428,127.111 67.160 C 128.122 67.892,130.042 69.223,131.378 70.118 C 132.715 71.013,134.049 71.971,134.344 72.248 C 134.639 72.524,135.320 72.977,135.857 73.254 C 136.395 73.532,137.517 74.304,138.352 74.971 C 139.187 75.638,140.252 76.413,140.719 76.694 C 141.945 77.432,147.096 81.034,147.709 81.583 C 147.995 81.839,148.483 82.193,148.794 82.370 C 149.380 82.704,151.590 84.232,155.917 87.294 C 157.300 88.273,158.765 89.299,159.172 89.573 C 159.578 89.847,161.268 91.041,162.926 92.225 C 164.584 93.410,166.066 94.379,166.218 94.379 C 166.371 94.379,166.649 94.563,166.836 94.789 C 167.023 95.014,168.071 95.811,169.165 96.560 C 170.259 97.308,171.686 98.299,172.337 98.760 C 174.820 100.521,178.068 102.752,180.917 104.655 C 182.544 105.742,184.009 106.791,184.172 106.987 C 184.334 107.184,185.399 107.956,186.538 108.703 C 189.385 110.572,189.853 110.895,191.716 112.274 C 196.999 116.185,203.133 117.216,206.571 114.771 C 207.012 114.458,207.503 114.201,207.663 114.201 C 207.822 114.201,208.793 113.567,209.820 112.791 C 210.846 112.016,212.274 110.984,212.993 110.498 C 214.279 109.629,215.902 108.510,219.585 105.954 C 220.610 105.241,221.716 104.425,222.041 104.139 C 222.367 103.853,223.033 103.402,223.521 103.135 C 224.009 102.869,225.007 102.188,225.740 101.622 C 226.472 101.057,227.358 100.469,227.708 100.315 C 228.058 100.162,228.433 99.894,228.540 99.721 C 228.723 99.424,231.723 97.326,233.852 96.006 C 234.376 95.680,235.386 94.948,236.095 94.379 C 236.804 93.809,237.810 93.077,238.332 92.751 C 238.854 92.426,239.850 91.760,240.545 91.272 C 241.241 90.784,242.103 90.185,242.461 89.941 C 242.819 89.697,244.146 88.765,245.411 87.870 C 246.676 86.975,248.459 85.733,249.373 85.109 C 250.288 84.486,251.527 83.587,252.128 83.112 C 252.728 82.637,253.339 82.249,253.484 82.249 C 253.630 82.249,254.579 81.583,255.592 80.769 C 256.606 79.956,257.555 79.290,257.702 79.290 C 257.848 79.290,258.405 78.924,258.940 78.476 C 259.475 78.029,260.126 77.530,260.386 77.367 C 261.021 76.969,262.732 75.773,265.237 73.976 C 266.376 73.159,267.692 72.257,268.162 71.970 C 268.632 71.684,269.819 70.817,270.799 70.044 C 271.780 69.271,272.718 68.639,272.884 68.639 C 273.051 68.639,273.462 68.392,273.797 68.090 C 274.133 67.788,275.540 66.766,276.923 65.818 C 278.306 64.871,280.237 63.519,281.213 62.814 C 282.189 62.109,283.854 60.939,284.911 60.213 C 285.969 59.487,287.947 58.124,289.307 57.183 C 290.667 56.243,291.987 55.340,292.240 55.178 C 292.494 55.015,293.578 54.253,294.649 53.485 C 297.268 51.607,298.208 50.953,299.260 50.275 C 299.749 49.960,301.080 49.030,302.219 48.208 C 304.095 46.855,305.390 45.946,307.254 44.675 C 307.905 44.231,310.435 42.454,314.919 39.293 C 316.233 38.367,318.173 37.009,319.231 36.276 C 322.310 34.142,322.738 33.685,323.239 31.998 C 323.869 29.875,323.059 27.228,321.391 25.962 L 320.319 25.148 201.062 25.157 C 82.412 25.167,81.801 25.170,81.015 25.756 M26.513 65.389 C 24.377 65.958,22.369 67.496,21.428 69.287 C 21.000 70.100,20.756 249.870,21.179 252.811 C 21.426 254.531,22.422 257.576,23.405 259.615 C 23.876 260.592,24.261 261.489,24.260 261.609 C 24.259 263.516,31.948 272.035,35.533 274.100 C 38.720 275.935,39.477 276.328,40.448 276.648 C 41.037 276.843,41.930 277.236,42.432 277.521 C 42.933 277.807,43.876 278.128,44.527 278.235 C 45.178 278.341,46.575 278.627,47.633 278.870 C 49.328 279.259,67.596 279.302,201.479 279.227 L 353.402 279.142 356.391 278.499 C 358.035 278.145,359.832 277.580,360.385 277.242 C 360.938 276.905,361.591 276.629,361.837 276.628 C 362.390 276.627,364.923 275.298,366.152 274.364 C 366.656 273.982,367.223 273.669,367.413 273.669 C 368.413 273.669,377.219 263.996,377.219 262.897 C 377.219 262.784,377.552 262.201,377.959 261.602 C 378.365 261.003,378.698 260.309,378.698 260.060 C 378.698 259.811,378.967 259.105,379.296 258.491 C 379.625 257.877,380.083 256.478,380.314 255.382 C 380.544 254.286,380.907 252.992,381.121 252.508 C 381.438 251.789,381.523 235.067,381.587 161.437 L 381.664 71.248 380.870 69.788 C 378.515 65.461,372.784 63.726,369.214 66.260 C 368.798 66.555,367.068 67.743,365.368 68.900 C 363.669 70.056,361.746 71.396,361.095 71.877 C 358.760 73.601,357.364 74.556,357.179 74.556 C 357.075 74.556,356.716 74.812,356.380 75.124 C 355.749 75.711,353.448 77.364,349.852 79.811 C 348.713 80.586,347.049 81.761,346.154 82.420 C 345.259 83.080,343.395 84.402,342.012 85.357 C 340.629 86.313,338.698 87.665,337.722 88.362 C 335.459 89.979,332.016 92.368,331.395 92.751 C 331.132 92.914,330.185 93.584,329.290 94.240 C 328.395 94.896,327.330 95.665,326.923 95.948 C 326.516 96.232,324.786 97.458,323.077 98.674 C 319.664 101.102,317.022 102.945,316.297 103.402 C 316.039 103.565,315.096 104.235,314.201 104.891 C 313.306 105.547,312.241 106.311,311.834 106.589 C 311.428 106.866,309.697 108.094,307.988 109.318 C 306.280 110.541,303.817 112.279,302.515 113.179 C 301.213 114.080,299.216 115.484,298.077 116.300 C 296.938 117.115,295.540 118.108,294.970 118.506 C 294.401 118.903,293.520 119.529,293.012 119.895 C 292.014 120.617,287.824 123.541,284.968 125.509 C 284.429 125.880,283.830 126.325,283.636 126.497 C 283.442 126.670,282.327 127.434,281.158 128.196 C 279.988 128.958,278.943 129.724,278.836 129.898 C 278.729 130.072,278.354 130.339,278.004 130.493 C 277.653 130.646,276.768 131.238,276.036 131.808 C 275.303 132.378,274.305 133.098,273.817 133.408 C 273.328 133.718,272.263 134.453,271.450 135.041 C 270.636 135.630,269.504 136.435,268.935 136.831 C 265.403 139.286,263.713 140.477,260.947 142.459 C 259.238 143.683,257.318 145.031,256.680 145.455 C 256.042 145.879,255.376 146.350,255.201 146.503 C 255.025 146.656,254.482 147.036,253.994 147.349 C 253.506 147.661,252.175 148.591,251.036 149.415 C 249.896 150.239,248.499 151.239,247.929 151.639 C 247.359 152.038,246.428 152.699,245.858 153.107 C 245.288 153.514,244.357 154.175,243.787 154.574 C 243.217 154.974,241.820 155.964,240.680 156.775 C 233.099 162.173,228.810 164.975,227.704 165.253 C 227.288 165.357,226.792 165.629,226.603 165.857 C 226.414 166.086,226.125 166.272,225.962 166.272 C 225.798 166.272,224.849 166.658,223.853 167.130 C 219.053 169.404,213.065 170.928,206.213 171.620 C 201.061 172.140,191.481 171.503,188.018 170.411 C 187.041 170.103,185.710 169.760,185.059 169.649 C 184.408 169.538,183.410 169.217,182.840 168.937 C 182.271 168.657,181.405 168.332,180.917 168.216 C 180.167 168.037,174.789 165.594,173.373 164.789 C 171.177 163.541,168.319 161.738,168.181 161.515 C 168.008 161.235,164.711 158.956,162.805 157.799 C 162.231 157.450,161.678 157.036,161.576 156.878 C 161.474 156.720,160.118 155.736,158.563 154.692 C 157.008 153.647,155.544 152.628,155.309 152.427 C 154.647 151.860,152.905 150.670,151.923 150.115 C 151.435 149.839,150.902 149.450,150.740 149.250 C 150.577 149.050,149.712 148.405,148.817 147.817 C 147.922 147.229,147.056 146.647,146.893 146.525 C 145.145 145.209,144.133 144.480,142.411 143.297 C 141.296 142.532,139.852 141.525,139.201 141.060 C 138.550 140.596,137.552 139.889,136.982 139.491 C 136.413 139.093,134.549 137.760,132.840 136.531 C 131.132 135.301,129.362 134.067,128.908 133.789 C 128.454 133.511,127.123 132.576,125.950 131.710 C 124.777 130.844,122.751 129.406,121.450 128.515 C 120.148 127.623,118.084 126.173,116.864 125.292 C 115.643 124.410,113.760 123.090,112.679 122.358 C 111.598 121.625,110.526 120.839,110.298 120.611 C 110.069 120.382,109.489 119.979,109.009 119.714 C 108.529 119.449,107.138 118.503,105.917 117.611 C 104.697 116.719,102.833 115.383,101.775 114.642 C 100.717 113.901,98.454 112.304,96.746 111.094 C 94.040 109.178,92.383 108.016,89.787 106.213 C 89.435 105.969,88.627 105.403,87.991 104.956 C 86.916 104.201,86.273 103.744,83.831 101.998 C 83.318 101.631,81.920 100.671,80.724 99.863 C 79.529 99.056,78.417 98.250,78.254 98.071 C 78.092 97.893,77.027 97.122,75.888 96.357 C 74.749 95.592,72.419 93.971,70.710 92.754 C 69.001 91.538,66.405 89.715,64.941 88.704 C 63.476 87.692,61.722 86.459,61.043 85.962 C 60.363 85.465,59.328 84.726,58.741 84.320 C 56.487 82.756,55.705 82.200,53.757 80.768 C 52.650 79.955,51.676 79.290,51.594 79.290 C 51.511 79.290,50.868 78.857,50.164 78.328 C 49.460 77.800,48.584 77.167,48.218 76.923 C 47.851 76.679,47.203 76.201,46.778 75.862 C 46.354 75.522,45.074 74.617,43.935 73.851 C 42.796 73.084,40.932 71.794,39.793 70.983 C 37.693 69.488,36.941 68.962,34.024 66.949 C 33.129 66.331,31.664 65.641,30.769 65.415 C 29.874 65.189,29.009 64.969,28.846 64.926 C 28.683 64.882,27.634 65.091,26.513 65.389 " stroke="none" fill="#8493a4" fill-rule="evenodd"></path></g></svg>