<svg id="svg" version="1.1" xmlns="http://www.w3.org/2000/svg" xmlns:xlink="http://www.w3.org/1999/xlink" width="400" height="459.5744680851064" viewBox="0, 0, 400,459.5744680851064"><g id="svgg"><path id="path0" d="M194.139 15.210 C 193.446 15.360,190.508 15.612,187.611 15.769 C 184.713 15.927,181.678 16.290,180.866 16.577 C 180.054 16.863,178.582 17.220,177.595 17.371 C 175.232 17.730,169.117 19.453,166.600 20.469 C 165.500 20.913,164.039 21.414,163.353 21.584 C 161.328 22.084,149.911 27.601,148.769 28.631 C 148.421 28.944,147.957 29.200,147.737 29.200 C 147.374 29.200,143.338 31.957,138.365 35.600 C 133.701 39.017,124.444 48.234,120.487 53.400 C 118.655 55.792,114.658 61.556,114.247 62.400 C 114.086 62.730,113.435 63.900,112.801 65.000 C 112.166 66.100,111.329 67.630,110.939 68.400 C 110.550 69.170,110.022 70.070,109.766 70.400 C 109.510 70.730,109.076 71.720,108.800 72.600 C 108.524 73.480,108.072 74.470,107.794 74.800 C 107.516 75.130,107.156 76.030,106.994 76.800 C 106.832 77.570,106.384 78.830,105.998 79.600 C 104.990 81.612,104.007 84.619,103.410 87.513 C 103.125 88.895,102.521 91.415,102.067 93.113 C 100.194 100.121,98.989 116.463,99.966 121.600 C 100.196 122.810,100.647 126.072,100.967 128.848 C 101.634 134.624,103.429 141.510,106.585 150.400 C 111.239 163.506,123.284 180.148,135.256 190.012 C 139.315 193.356,140.027 193.901,142.400 195.482 C 143.610 196.288,144.690 197.053,144.800 197.182 C 144.910 197.311,145.450 197.643,146.000 197.921 C 146.550 198.199,147.990 199.043,149.200 199.799 C 150.410 200.554,151.850 201.358,152.400 201.585 C 152.950 201.813,153.670 202.183,154.000 202.408 C 154.330 202.632,155.230 203.092,156.000 203.428 C 156.770 203.765,157.940 204.292,158.600 204.600 C 161.851 206.114,164.447 207.146,165.659 207.407 C 166.397 207.566,167.476 207.940,168.058 208.237 C 168.640 208.534,170.260 209.036,171.658 209.353 C 173.056 209.670,175.280 210.205,176.600 210.541 C 192.532 214.597,215.291 213.654,229.408 208.354 C 230.512 207.939,231.683 207.600,232.011 207.600 C 232.338 207.600,233.452 207.150,234.485 206.600 C 235.518 206.050,236.579 205.600,236.842 205.600 C 237.300 205.600,238.979 204.848,244.200 202.306 C 246.272 201.297,250.486 198.877,252.400 197.596 C 252.730 197.376,254.050 196.521,255.333 195.697 C 256.617 194.874,257.990 193.930,258.386 193.600 C 258.782 193.270,260.425 191.920,262.039 190.600 C 269.552 184.453,278.379 174.505,282.444 167.600 C 283.157 166.390,284.158 164.891,284.670 164.269 C 285.181 163.647,285.600 162.803,285.600 162.393 C 285.600 161.983,285.773 161.540,285.985 161.410 C 286.918 160.832,291.740 149.904,292.968 145.582 C 293.252 144.581,293.675 143.408,293.907 142.974 C 294.139 142.539,294.622 140.769,294.979 139.039 C 295.337 137.309,295.787 135.598,295.980 135.237 C 296.173 134.877,296.619 131.886,296.971 128.591 C 297.324 125.296,297.789 121.599,298.006 120.376 C 298.509 117.539,298.515 110.526,298.018 108.306 C 297.807 107.368,297.350 103.720,297.002 100.200 C 296.635 96.481,296.046 92.878,295.598 91.600 C 295.173 90.390,294.820 88.983,294.813 88.474 C 294.806 87.965,294.455 86.705,294.034 85.674 C 293.613 84.643,293.163 83.170,293.033 82.400 C 292.903 81.630,292.533 80.460,292.211 79.800 C 291.889 79.140,291.066 77.250,290.382 75.600 C 289.288 72.961,288.140 70.558,285.478 65.336 C 284.640 63.692,278.732 54.947,276.713 52.362 C 269.409 43.009,257.729 33.199,246.757 27.203 C 245.350 26.434,243.750 25.644,243.200 25.446 C 242.650 25.248,241.739 24.764,241.176 24.370 C 240.612 23.976,239.622 23.521,238.976 23.359 C 238.329 23.197,237.260 22.736,236.600 22.334 C 235.940 21.932,235.076 21.602,234.680 21.601 C 234.284 21.601,233.424 21.323,232.768 20.984 C 231.327 20.238,225.573 18.521,222.000 17.769 C 220.570 17.469,218.500 16.957,217.400 16.633 C 214.086 15.656,196.925 14.606,194.139 15.210 M189.000 243.808 C 188.484 244.045,182.368 244.698,176.000 245.196 C 173.250 245.411,169.830 245.861,168.400 246.195 C 166.970 246.530,164.450 247.065,162.800 247.384 C 155.564 248.786,151.715 249.672,150.575 250.200 C 149.901 250.512,148.551 250.889,147.575 251.040 C 146.599 251.190,145.132 251.647,144.316 252.056 C 143.500 252.465,142.468 252.800,142.024 252.800 C 141.579 252.800,140.087 253.233,138.708 253.763 C 137.329 254.292,134.850 255.210,133.200 255.801 C 131.550 256.392,129.282 257.309,128.160 257.838 C 127.038 258.367,125.958 258.800,125.760 258.799 C 125.365 258.798,124.582 259.164,117.200 262.810 C 110.687 266.026,107.689 267.655,103.887 270.044 C 102.174 271.120,100.627 272.000,100.449 272.000 C 100.270 272.000,99.798 272.360,99.400 272.800 C 99.002 273.240,98.514 273.600,98.317 273.600 C 97.910 273.600,91.834 277.726,90.574 278.858 C 90.120 279.266,89.614 279.600,89.450 279.600 C 89.286 279.600,87.678 280.820,85.876 282.310 C 84.074 283.801,82.126 285.322,81.546 285.689 C 79.322 287.101,68.859 296.978,62.764 303.421 C 56.028 310.541,42.400 328.333,42.400 330.006 C 42.400 330.169,42.117 330.537,41.771 330.824 C 41.425 331.111,40.788 331.989,40.356 332.773 C 39.924 333.558,39.136 334.920,38.606 335.800 C 34.884 341.980,28.339 355.488,26.010 361.800 C 25.523 363.120,24.795 364.920,24.392 365.800 C 23.990 366.680,23.543 367.850,23.399 368.400 C 23.254 368.950,22.811 370.300,22.413 371.400 C 20.683 376.183,17.590 387.087,17.591 388.400 C 17.591 388.950,17.302 390.300,16.949 391.400 C 11.072 409.704,20.302 428.516,36.600 431.453 C 41.057 432.257,357.405 432.229,361.607 431.424 C 365.074 430.761,370.177 428.148,373.465 425.354 C 375.357 423.745,380.400 416.924,380.400 415.973 C 380.400 415.750,380.765 414.852,381.212 413.976 C 383.159 410.161,383.153 399.439,381.201 392.000 C 380.768 390.350,380.411 388.606,380.407 388.125 C 380.403 387.643,379.967 385.843,379.437 384.125 C 378.908 382.406,378.082 379.650,377.603 378.000 C 376.666 374.774,375.984 372.622,375.194 370.400 C 374.921 369.630,374.255 367.740,373.716 366.200 C 373.176 364.660,372.403 362.680,371.998 361.800 C 371.593 360.920,371.138 359.750,370.989 359.200 C 370.839 358.650,370.030 356.760,369.190 355.000 C 368.351 353.240,367.297 350.990,366.849 350.000 C 366.402 349.010,365.414 347.058,364.654 345.662 C 363.895 344.266,363.170 342.826,363.044 342.462 C 362.918 342.098,362.316 340.965,361.707 339.943 C 361.098 338.922,359.970 337.032,359.200 335.743 C 358.430 334.455,357.730 333.220,357.643 333.000 C 357.556 332.780,356.611 331.328,355.543 329.772 C 354.474 328.217,353.600 326.811,353.600 326.649 C 353.600 326.486,353.087 325.689,352.459 324.877 C 351.832 324.064,349.989 321.600,348.363 319.400 C 342.306 311.205,338.877 307.231,330.931 299.200 C 322.525 290.705,313.163 282.597,306.800 278.303 C 305.590 277.487,303.547 276.094,302.260 275.209 C 300.972 274.324,299.785 273.600,299.622 273.600 C 299.458 273.600,298.998 273.240,298.600 272.800 C 298.202 272.360,297.720 272.000,297.529 272.000 C 297.339 272.000,296.512 271.575,295.691 271.055 C 291.700 268.526,287.177 266.000,286.639 266.000 C 286.310 266.000,285.896 265.769,285.720 265.487 C 285.372 264.928,278.798 261.645,274.000 259.633 C 272.350 258.941,270.460 258.121,269.800 257.811 C 267.699 256.824,262.358 254.800,261.854 254.800 C 261.587 254.800,260.686 254.452,259.851 254.026 C 259.016 253.600,257.439 253.060,256.346 252.826 C 255.254 252.592,253.874 252.155,253.280 251.856 C 252.686 251.556,251.416 251.191,250.458 251.044 C 249.500 250.897,248.224 250.523,247.622 250.211 C 247.020 249.900,245.284 249.436,243.764 249.180 C 242.244 248.924,239.795 248.388,238.322 247.989 C 236.849 247.590,234.599 247.141,233.322 246.993 C 232.045 246.844,230.087 246.466,228.972 246.154 C 227.856 245.841,224.706 245.406,221.972 245.188 C 219.237 244.969,215.650 244.607,214.000 244.381 C 210.931 243.963,189.723 243.476,189.000 243.808 " stroke="none" fill="#8494a4" fill-rule="evenodd"></path><path id="path1" d="M0.000 229.600 L 0.000 459.200 200.000 459.200 L 400.000 459.200 400.000 229.600 L 400.000 0.000 200.000 0.000 L 0.000 0.000 0.000 229.600 M209.200 15.584 C 212.610 15.837,216.300 16.309,217.400 16.633 C 218.500 16.957,220.570 17.469,222.000 17.769 C 225.573 18.521,231.327 20.238,232.768 20.984 C 233.424 21.323,234.284 21.601,234.680 21.601 C 235.076 21.602,235.940 21.932,236.600 22.334 C 237.260 22.736,238.329 23.197,238.976 23.359 C 239.622 23.521,240.612 23.976,241.176 24.370 C 241.739 24.764,242.650 25.248,243.200 25.446 C 250.720 28.152,265.335 39.371,273.969 49.063 C 276.939 52.398,283.899 62.238,285.478 65.336 C 288.140 70.558,289.288 72.961,290.382 75.600 C 291.066 77.250,291.889 79.140,292.211 79.800 C 292.533 80.460,292.903 81.630,293.033 82.400 C 293.163 83.170,293.613 84.643,294.034 85.674 C 294.455 86.705,294.806 87.965,294.813 88.474 C 294.820 88.983,295.173 90.390,295.598 91.600 C 296.046 92.878,296.635 96.481,297.002 100.200 C 297.350 103.720,297.807 107.368,298.018 108.306 C 298.515 110.526,298.509 117.539,298.006 120.376 C 297.789 121.599,297.324 125.296,296.971 128.591 C 296.619 131.886,296.173 134.877,295.980 135.237 C 295.787 135.598,295.337 137.309,294.979 139.039 C 294.622 140.769,294.139 142.539,293.907 142.974 C 293.675 143.408,293.252 144.581,292.968 145.582 C 291.740 149.904,286.918 160.832,285.985 161.410 C 285.773 161.540,285.600 161.983,285.600 162.393 C 285.600 162.803,285.181 163.647,284.670 164.269 C 284.158 164.891,283.157 166.390,282.444 167.600 C 278.379 174.505,269.552 184.453,262.039 190.600 C 260.425 191.920,258.782 193.270,258.386 193.600 C 257.990 193.930,256.617 194.874,255.333 195.697 C 254.050 196.521,252.730 197.376,252.400 197.596 C 250.486 198.877,246.272 201.297,244.200 202.306 C 238.979 204.848,237.300 205.600,236.842 205.600 C 236.579 205.600,235.518 206.050,234.485 206.600 C 233.452 207.150,232.338 207.600,232.011 207.600 C 231.683 207.600,230.512 207.939,229.408 208.354 C 215.291 213.654,192.532 214.597,176.600 210.541 C 175.280 210.205,173.056 209.670,171.658 209.353 C 170.260 209.036,168.640 208.534,168.058 208.237 C 167.476 207.940,166.397 207.566,165.659 207.407 C 164.447 207.146,161.851 206.114,158.600 204.600 C 157.940 204.292,156.770 203.765,156.000 203.428 C 155.230 203.092,154.330 202.632,154.000 202.408 C 153.670 202.183,152.950 201.813,152.400 201.585 C 151.850 201.358,150.410 200.554,149.200 199.799 C 147.990 199.043,146.550 198.199,146.000 197.921 C 145.450 197.643,144.910 197.311,144.800 197.182 C 144.690 197.053,143.610 196.288,142.400 195.482 C 135.919 191.165,126.025 181.891,121.252 175.660 C 114.427 166.748,109.184 157.720,106.585 150.400 C 103.429 141.510,101.634 134.624,100.967 128.848 C 100.647 126.072,100.196 122.810,99.966 121.600 C 98.989 116.463,100.194 100.121,102.067 93.113 C 102.521 91.415,103.125 88.895,103.410 87.513 C 104.007 84.619,104.990 81.612,105.998 79.600 C 106.384 78.830,106.832 77.570,106.994 76.800 C 107.156 76.030,107.516 75.130,107.794 74.800 C 108.072 74.470,108.524 73.480,108.800 72.600 C 109.076 71.720,109.510 70.730,109.766 70.400 C 110.022 70.070,110.550 69.170,110.939 68.400 C 111.329 67.630,112.166 66.100,112.801 65.000 C 113.435 63.900,114.086 62.730,114.247 62.400 C 114.658 61.556,118.655 55.792,120.487 53.400 C 124.444 48.234,133.701 39.017,138.365 35.600 C 143.338 31.957,147.374 29.200,147.737 29.200 C 147.957 29.200,148.421 28.944,148.769 28.631 C 149.911 27.601,161.328 22.084,163.353 21.584 C 164.039 21.414,165.500 20.913,166.600 20.469 C 169.117 19.453,175.232 17.730,177.595 17.371 C 178.582 17.220,180.054 16.863,180.866 16.577 C 181.678 16.290,184.713 15.927,187.611 15.769 C 190.508 15.612,193.446 15.360,194.139 15.210 C 195.746 14.862,201.310 15.000,209.200 15.584 M214.000 244.381 C 215.650 244.607,219.237 244.969,221.972 245.188 C 224.706 245.406,227.856 245.841,228.972 246.154 C 230.087 246.466,232.045 246.844,233.322 246.993 C 234.599 247.141,236.849 247.590,238.322 247.989 C 239.795 248.388,242.244 248.924,243.764 249.180 C 245.284 249.436,247.020 249.900,247.622 250.211 C 248.224 250.523,249.500 250.897,250.458 251.044 C 251.416 251.191,252.686 251.556,253.280 251.856 C 253.874 252.155,255.254 252.592,256.346 252.826 C 257.439 253.060,259.016 253.600,259.851 254.026 C 260.686 254.452,261.587 254.800,261.854 254.800 C 262.358 254.800,267.699 256.824,269.800 257.811 C 270.460 258.121,272.350 258.941,274.000 259.633 C 278.798 261.645,285.372 264.928,285.720 265.487 C 285.896 265.769,286.310 266.000,286.639 266.000 C 287.177 266.000,291.700 268.526,295.691 271.055 C 296.512 271.575,297.339 272.000,297.529 272.000 C 297.720 272.000,298.202 272.360,298.600 272.800 C 298.998 273.240,299.458 273.600,299.622 273.600 C 299.785 273.600,300.972 274.324,302.260 275.209 C 303.547 276.094,305.590 277.487,306.800 278.303 C 317.734 285.682,335.353 302.543,344.937 314.800 C 345.195 315.130,346.737 317.200,348.363 319.400 C 349.989 321.600,351.832 324.064,352.459 324.877 C 353.087 325.689,353.600 326.486,353.600 326.649 C 353.600 326.811,354.474 328.217,355.543 329.772 C 356.611 331.328,357.556 332.780,357.643 333.000 C 357.730 333.220,358.430 334.455,359.200 335.743 C 359.970 337.032,361.098 338.922,361.707 339.943 C 362.316 340.965,362.918 342.098,363.044 342.462 C 363.170 342.826,363.895 344.266,364.654 345.662 C 365.414 347.058,366.402 349.010,366.849 350.000 C 367.297 350.990,368.351 353.240,369.190 355.000 C 370.030 356.760,370.839 358.650,370.989 359.200 C 371.138 359.750,371.593 360.920,371.998 361.800 C 372.403 362.680,373.176 364.660,373.716 366.200 C 374.255 367.740,374.921 369.630,375.194 370.400 C 375.984 372.622,376.666 374.774,377.603 378.000 C 378.082 379.650,378.908 382.406,379.437 384.125 C 379.967 385.843,380.403 387.643,380.407 388.125 C 380.411 388.606,380.768 390.350,381.201 392.000 C 383.153 399.439,383.159 410.161,381.212 413.976 C 380.765 414.852,380.400 415.750,380.400 415.973 C 380.400 416.924,375.357 423.745,373.465 425.354 C 370.177 428.148,365.074 430.761,361.607 431.424 C 357.405 432.229,41.057 432.257,36.600 431.453 C 20.302 428.516,11.072 409.704,16.949 391.400 C 17.302 390.300,17.591 388.950,17.591 388.400 C 17.590 387.087,20.683 376.183,22.413 371.400 C 22.811 370.300,23.254 368.950,23.399 368.400 C 23.543 367.850,23.990 366.680,24.392 365.800 C 24.795 364.920,25.523 363.120,26.010 361.800 C 28.339 355.488,34.884 341.980,38.606 335.800 C 39.136 334.920,39.924 333.558,40.356 332.773 C 40.788 331.989,41.425 331.111,41.771 330.824 C 42.117 330.537,42.400 330.169,42.400 330.006 C 42.400 328.333,56.028 310.541,62.764 303.421 C 68.859 296.978,79.322 287.101,81.546 285.689 C 82.126 285.322,84.074 283.801,85.876 282.310 C 87.678 280.820,89.286 279.600,89.450 279.600 C 89.614 279.600,90.120 279.266,90.574 278.858 C 91.834 277.726,97.910 273.600,98.317 273.600 C 98.514 273.600,99.002 273.240,99.400 272.800 C 99.798 272.360,100.270 272.000,100.449 272.000 C 100.627 272.000,102.174 271.120,103.887 270.044 C 107.689 267.655,110.687 266.026,117.200 262.810 C 124.582 259.164,125.365 258.798,125.760 258.799 C 125.958 258.800,127.038 258.367,128.160 257.838 C 129.282 257.309,131.550 256.392,133.200 255.801 C 134.850 255.210,137.329 254.292,138.708 253.763 C 140.087 253.233,141.579 252.800,142.024 252.800 C 142.468 252.800,143.500 252.465,144.316 252.056 C 145.132 251.647,146.599 251.190,147.575 251.040 C 148.551 250.889,149.901 250.512,150.575 250.200 C 151.715 249.672,155.564 248.786,162.800 247.384 C 164.450 247.065,166.970 246.530,168.400 246.195 C 169.830 245.861,173.250 245.411,176.000 245.196 C 182.368 244.698,188.484 244.045,189.000 243.808 C 189.723 243.476,210.931 243.963,214.000 244.381 " stroke="none" fill="#ffffff" fill-rule="evenodd"></path></g></svg>