<svg id="svg" version="1.1" xmlns="http://www.w3.org/2000/svg" xmlns:xlink="http://www.w3.org/1999/xlink" width="400" height="456.23471882640587" viewBox="0, 0, 400,456.23471882640587"><g id="svgg"><path id="path0" d="M0.000 228.000 L 0.000 456.000 200.000 456.000 L 400.000 456.000 400.000 228.000 L 400.000 0.000 200.000 0.000 L 0.000 0.000 0.000 228.000 M215.400 8.936 C 245.567 13.372,274.877 32.827,289.321 58.000 C 292.083 62.814,293.597 65.719,295.159 69.200 C 296.097 71.290,297.025 73.360,297.222 73.800 C 300.079 80.175,302.992 92.790,304.010 103.200 C 305.131 114.649,303.243 132.949,300.007 142.000 C 299.810 142.550,298.986 144.890,298.176 147.200 C 297.365 149.510,295.914 153.070,294.951 155.111 C 293.988 157.152,293.200 158.896,293.200 158.986 C 293.200 159.077,291.907 161.367,290.326 164.075 C 282.472 177.535,271.000 189.876,259.000 197.774 C 257.020 199.077,254.876 200.498,254.235 200.931 C 252.054 202.408,241.009 207.884,238.400 208.783 C 236.970 209.276,234.000 210.304,231.800 211.068 C 229.600 211.832,226.023 212.808,223.851 213.236 C 221.679 213.663,219.789 214.082,219.651 214.166 C 216.792 215.901,192.986 216.380,184.600 214.870 C 174.976 213.138,172.083 212.426,166.000 210.294 C 107.184 189.682,79.637 124.383,105.759 67.495 C 112.262 53.332,126.291 36.244,137.854 28.400 C 138.341 28.070,140.328 26.703,142.269 25.363 C 162.321 11.524,190.286 5.243,215.400 8.936 M210.800 248.424 C 212.450 248.593,216.452 248.934,219.693 249.184 C 225.429 249.625,234.132 250.913,239.800 252.160 C 248.947 254.171,255.276 255.822,258.324 256.992 C 259.136 257.304,260.610 257.766,261.600 258.019 C 267.259 259.466,284.305 266.908,292.732 271.610 C 302.131 276.855,304.433 278.282,313.400 284.419 C 325.642 292.798,344.662 311.100,354.134 323.616 C 354.390 323.955,355.429 325.305,356.441 326.616 C 362.501 334.461,372.189 350.334,376.019 358.696 C 376.701 360.183,377.776 362.480,378.409 363.800 C 384.574 376.660,391.833 400.674,393.190 412.702 C 395.045 429.131,384.020 443.484,367.600 446.017 C 362.491 446.805,32.224 446.329,29.594 445.530 C 15.323 441.192,6.800 430.346,6.800 416.522 C 6.800 413.884,7.786 406.269,8.219 405.570 C 8.314 405.416,8.734 403.604,9.152 401.545 C 11.004 392.423,16.130 376.393,19.814 368.200 C 20.408 366.880,21.338 364.810,21.882 363.600 C 35.178 333.996,57.573 306.117,83.400 287.019 C 85.160 285.717,87.230 284.182,88.000 283.608 C 96.267 277.441,110.062 269.715,123.400 263.782 C 139.273 256.721,163.104 250.566,179.828 249.209 C 182.893 248.960,187.110 248.615,189.200 248.442 C 194.076 248.039,206.914 248.028,210.800 248.424 " stroke="none" fill="#1c1c1c" fill-rule="evenodd"></path><path id="path1" d="M191.000 8.652 C 187.556 8.934,178.724 10.411,175.800 11.195 C 169.543 12.872,168.063 13.312,165.000 14.409 C 131.805 26.300,106.552 54.739,98.945 88.800 C 88.899 133.775,108.727 178.914,148.614 201.873 C 151.246 203.388,154.030 204.877,154.800 205.182 C 155.570 205.487,157.232 206.247,158.493 206.871 C 168.067 211.606,184.621 215.144,198.400 215.400 C 258.913 216.526,307.570 165.628,303.597 105.358 C 299.762 47.165,249.356 3.872,191.000 8.652 M189.400 248.810 C 160.453 250.401,129.407 259.399,105.703 273.068 C 103.670 274.241,101.908 275.200,101.787 275.200 C 101.666 275.200,101.080 275.529,100.484 275.931 C 99.888 276.334,98.410 277.295,97.200 278.068 C 93.425 280.481,87.809 284.190,87.600 284.410 C 87.490 284.526,86.050 285.598,84.400 286.792 C 63.404 301.992,42.638 325.684,29.524 349.400 C 25.293 357.052,18.322 372.329,16.646 377.620 C 16.336 378.599,15.331 381.560,14.412 384.200 C 10.979 394.061,7.198 411.060,7.207 416.600 C 7.228 430.305,18.026 443.208,31.153 445.214 C 32.914 445.483,90.032 445.581,201.800 445.509 L 369.800 445.400 372.989 444.273 C 384.965 440.041,392.841 429.086,392.887 416.600 C 392.939 402.540,381.054 366.698,370.445 348.919 C 363.455 337.203,359.428 331.159,353.711 323.800 C 330.248 293.598,298.798 271.359,261.200 258.382 C 250.623 254.731,235.034 251.286,223.200 249.984 C 221.110 249.754,218.860 249.485,218.200 249.385 C 212.819 248.573,198.811 248.293,189.400 248.810 " stroke="none" fill="#fcfcfc" fill-rule="evenodd"></path><path id="path2" d="M191.700 8.287 C 192.305 8.378,193.295 8.378,193.900 8.287 C 194.505 8.195,194.010 8.120,192.800 8.120 C 191.590 8.120,191.095 8.195,191.700 8.287 M206.500 8.287 C 207.105 8.378,208.095 8.378,208.700 8.287 C 209.305 8.195,208.810 8.120,207.600 8.120 C 206.390 8.120,205.895 8.195,206.500 8.287 M131.578 33.500 L 130.200 35.000 131.700 33.622 C 132.525 32.863,133.200 32.188,133.200 32.122 C 133.200 31.816,132.862 32.104,131.578 33.500 M268.800 33.725 C 268.800 33.794,269.385 34.379,270.100 35.025 L 271.400 36.200 270.225 34.900 C 269.130 33.688,268.800 33.416,268.800 33.725 M275.800 40.800 C 277.106 42.120,278.265 43.200,278.375 43.200 C 278.485 43.200,277.506 42.120,276.200 40.800 C 274.894 39.480,273.735 38.400,273.625 38.400 C 273.515 38.400,274.494 39.480,275.800 40.800 M120.975 44.100 L 119.800 45.400 121.100 44.225 C 122.312 43.130,122.584 42.800,122.275 42.800 C 122.206 42.800,121.621 43.385,120.975 44.100 M107.000 64.800 C 106.443 65.900,106.077 66.800,106.187 66.800 C 106.297 66.800,106.843 65.900,107.400 64.800 C 107.957 63.700,108.323 62.800,108.213 62.800 C 108.103 62.800,107.557 63.700,107.000 64.800 M297.267 74.820 C 297.501 75.492,297.767 75.967,297.857 75.876 C 298.056 75.678,297.301 73.600,297.031 73.600 C 296.927 73.600,297.033 74.149,297.267 74.820 M303.709 102.000 C 303.709 102.990,303.787 103.395,303.882 102.900 C 303.978 102.405,303.978 101.595,303.882 101.100 C 303.787 100.605,303.709 101.010,303.709 102.000 M96.101 105.800 C 96.105 106.680,96.187 106.993,96.283 106.495 C 96.379 105.998,96.375 105.278,96.275 104.895 C 96.175 104.513,96.096 104.920,96.101 105.800 M304.163 112.000 C 304.163 115.630,304.223 117.115,304.298 115.300 C 304.372 113.485,304.372 110.515,304.298 108.700 C 304.223 106.885,304.163 108.370,304.163 112.000 M96.101 117.800 C 96.105 118.680,96.187 118.993,96.283 118.495 C 96.379 117.998,96.375 117.278,96.275 116.895 C 96.175 116.513,96.096 116.920,96.101 117.800 M303.663 121.200 C 303.623 121.970,303.506 123.320,303.402 124.200 L 303.212 125.800 303.623 124.200 C 303.848 123.320,303.966 121.970,303.884 121.200 L 303.734 119.800 303.663 121.200 M278.929 179.700 C 278.484 180.195,277.976 180.870,277.801 181.200 C 277.463 181.837,277.555 181.750,279.176 179.900 C 279.706 179.295,280.049 178.800,279.939 178.800 C 279.829 178.800,279.375 179.205,278.929 179.700 M273.191 185.900 L 269.800 189.400 273.300 186.009 C 275.225 184.144,276.800 182.569,276.800 182.509 C 276.800 182.218,276.341 182.649,273.191 185.900 M130.200 189.200 C 131.283 190.300,132.260 191.200,132.370 191.200 C 132.480 191.200,131.683 190.300,130.600 189.200 C 129.517 188.100,128.540 187.200,128.430 187.200 C 128.320 187.200,129.117 188.100,130.200 189.200 M138.400 195.746 C 138.400 195.856,138.940 196.330,139.600 196.800 C 140.260 197.270,140.800 197.564,140.800 197.454 C 140.800 197.344,140.260 196.870,139.600 196.400 C 138.940 195.930,138.400 195.636,138.400 195.746 M149.600 202.979 C 149.600 203.089,150.140 203.459,150.800 203.800 C 151.460 204.141,152.000 204.331,152.000 204.221 C 152.000 204.111,151.460 203.741,150.800 203.400 C 150.140 203.059,149.600 202.869,149.600 202.979 M153.600 204.997 C 153.600 205.268,156.849 206.884,157.030 206.703 C 157.114 206.619,156.376 206.159,155.391 205.681 C 154.406 205.202,153.600 204.894,153.600 204.997 M172.200 212.400 C 172.640 212.589,173.360 212.738,173.800 212.732 C 174.443 212.723,174.404 212.657,173.600 212.400 C 172.232 211.962,171.181 211.962,172.200 212.400 M188.705 215.483 C 189.202 215.579,189.922 215.575,190.305 215.475 C 190.687 215.375,190.280 215.296,189.400 215.301 C 188.520 215.305,188.207 215.387,188.705 215.483 M209.905 215.483 C 210.402 215.579,211.122 215.575,211.505 215.475 C 211.887 215.375,211.480 215.296,210.600 215.301 C 209.720 215.305,209.407 215.387,209.905 215.483 M194.307 215.890 C 195.026 215.979,196.106 215.977,196.707 215.886 C 197.308 215.795,196.720 215.722,195.400 215.724 C 194.080 215.726,193.588 215.801,194.307 215.890 M203.700 215.887 C 204.305 215.978,205.295 215.978,205.900 215.887 C 206.505 215.795,206.010 215.720,204.800 215.720 C 203.590 215.720,203.095 215.795,203.700 215.887 M196.900 248.297 C 198.605 248.372,201.395 248.372,203.100 248.297 C 204.805 248.222,203.410 248.161,200.000 248.161 C 196.590 248.161,195.195 248.222,196.900 248.297 M188.705 248.683 C 189.202 248.779,189.922 248.775,190.305 248.675 C 190.687 248.575,190.280 248.496,189.400 248.501 C 188.520 248.505,188.207 248.587,188.705 248.683 M210.100 248.676 C 210.485 248.776,211.115 248.776,211.500 248.676 C 211.885 248.575,211.570 248.493,210.800 248.493 C 210.030 248.493,209.715 248.575,210.100 248.676 M287.600 268.984 C 287.600 269.094,288.320 269.551,289.200 270.000 C 290.080 270.449,290.800 270.726,290.800 270.616 C 290.800 270.506,290.080 270.049,289.200 269.600 C 288.320 269.151,287.600 268.874,287.600 268.984 M72.175 296.100 L 71.000 297.400 72.300 296.225 C 73.512 295.130,73.784 294.800,73.475 294.800 C 73.406 294.800,72.821 295.385,72.175 296.100 M328.000 296.125 C 328.000 296.194,328.585 296.779,329.300 297.425 L 330.600 298.600 329.425 297.300 C 328.330 296.088,328.000 295.816,328.000 296.125 M68.181 299.700 L 66.600 301.400 68.300 299.819 C 69.881 298.348,70.184 298.000,69.881 298.000 C 69.816 298.000,69.051 298.765,68.181 299.700 M337.993 305.700 C 341.887 309.694,342.400 310.182,342.400 309.893 C 342.400 309.834,340.465 307.899,338.100 305.593 L 333.800 301.400 337.993 305.700 M356.791 327.588 C 357.257 328.241,357.842 328.902,358.091 329.056 C 358.341 329.211,358.041 328.676,357.425 327.868 C 356.088 326.115,355.584 325.892,356.791 327.588 M374.481 356.191 C 374.959 357.176,375.419 357.914,375.503 357.830 C 375.684 357.649,374.068 354.400,373.797 354.400 C 373.694 354.400,374.002 355.206,374.481 356.191 M18.865 370.217 C 18.195 371.688,18.323 372.002,19.047 370.665 C 19.386 370.040,19.588 369.454,19.496 369.363 C 19.405 369.271,19.121 369.656,18.865 370.217 M9.849 397.815 C 9.712 398.173,9.615 398.766,9.634 399.133 C 9.653 399.500,9.827 399.269,10.021 398.620 C 10.398 397.358,10.265 396.733,9.849 397.815 M393.309 416.400 C 393.309 417.390,393.387 417.795,393.482 417.300 C 393.578 416.805,393.578 415.995,393.482 415.500 C 393.387 415.005,393.309 415.410,393.309 416.400 M15.200 437.400 C 15.946 438.170,16.647 438.800,16.757 438.800 C 16.867 438.800,16.346 438.170,15.600 437.400 C 14.854 436.630,14.153 436.000,14.043 436.000 C 13.933 436.000,14.454 436.630,15.200 437.400 M116.700 446.300 C 162.515 446.356,237.485 446.356,283.300 446.300 C 329.115 446.244,291.630 446.198,200.000 446.198 C 108.370 446.198,70.885 446.244,116.700 446.300 " stroke="none" fill="#747474" fill-rule="evenodd"></path><path id="path3" d="M197.282 8.296 C 198.758 8.373,201.278 8.373,202.882 8.297 C 204.487 8.221,203.280 8.158,200.200 8.158 C 197.120 8.157,195.807 8.219,197.282 8.296 M198.691 215.889 C 199.401 215.977,200.661 215.979,201.491 215.892 C 202.321 215.805,201.740 215.733,200.200 215.731 C 198.660 215.729,197.981 215.800,198.691 215.889 " stroke="none" fill="#8c8c8c" fill-rule="evenodd"></path><path id="path4" d="M190.900 8.676 C 191.285 8.776,191.915 8.776,192.300 8.676 C 192.685 8.575,192.370 8.493,191.600 8.493 C 190.830 8.493,190.515 8.575,190.900 8.676 M269.200 34.600 C 269.946 35.370,270.647 36.000,270.757 36.000 C 270.867 36.000,270.346 35.370,269.600 34.600 C 268.854 33.830,268.153 33.200,268.043 33.200 C 267.933 33.200,268.454 33.830,269.200 34.600 M126.391 38.700 L 123.000 42.200 126.500 38.809 C 128.425 36.944,130.000 35.369,130.000 35.309 C 130.000 35.018,129.541 35.449,126.391 38.700 M276.400 41.725 C 276.400 41.794,276.985 42.379,277.700 43.025 L 279.000 44.200 277.825 42.900 C 276.730 41.688,276.400 41.416,276.400 41.725 M291.000 62.000 C 291.341 62.660,291.711 63.200,291.821 63.200 C 291.931 63.200,291.741 62.660,291.400 62.000 C 291.059 61.340,290.689 60.800,290.579 60.800 C 290.469 60.800,290.659 61.340,291.000 62.000 M303.714 107.000 C 303.717 108.100,303.795 108.503,303.887 107.895 C 303.979 107.286,303.977 106.386,303.882 105.895 C 303.787 105.403,303.711 105.900,303.714 107.000 M96.151 112.000 C 96.151 114.530,96.216 115.565,96.296 114.300 C 96.375 113.035,96.375 110.965,96.296 109.700 C 96.216 108.435,96.151 109.470,96.151 112.000 M303.720 116.800 C 303.720 118.010,303.795 118.505,303.887 117.900 C 303.978 117.295,303.978 116.305,303.887 115.700 C 303.795 115.095,303.720 115.590,303.720 116.800 M273.591 185.100 L 270.200 188.600 273.700 185.209 C 275.625 183.344,277.200 181.769,277.200 181.709 C 277.200 181.418,276.741 181.849,273.591 185.100 M130.600 189.200 C 131.459 190.080,132.252 190.800,132.362 190.800 C 132.472 190.800,131.859 190.080,131.000 189.200 C 130.141 188.320,129.348 187.600,129.238 187.600 C 129.128 187.600,129.741 188.320,130.600 189.200 M140.000 196.546 C 140.000 196.656,140.540 197.130,141.200 197.600 C 141.860 198.070,142.400 198.364,142.400 198.254 C 142.400 198.144,141.860 197.670,141.200 197.200 C 140.540 196.730,140.000 196.436,140.000 196.546 M223.600 212.800 C 222.796 213.057,222.757 213.123,223.400 213.132 C 223.840 213.138,224.560 212.989,225.000 212.800 C 226.019 212.362,224.968 212.362,223.600 212.800 M184.900 214.676 C 185.285 214.776,185.915 214.776,186.300 214.676 C 186.685 214.575,186.370 214.493,185.600 214.493 C 184.830 214.493,184.515 214.575,184.900 214.676 M188.305 215.083 C 188.802 215.179,189.522 215.175,189.905 215.075 C 190.287 214.975,189.880 214.896,189.000 214.901 C 188.120 214.905,187.807 214.987,188.305 215.083 M210.500 215.076 C 210.885 215.176,211.515 215.176,211.900 215.076 C 212.285 214.975,211.970 214.893,211.200 214.893 C 210.430 214.893,210.115 214.975,210.500 215.076 M192.500 215.476 C 192.885 215.576,193.515 215.576,193.900 215.476 C 194.285 215.375,193.970 215.293,193.200 215.293 C 192.430 215.293,192.115 215.375,192.500 215.476 M206.100 215.476 C 206.485 215.576,207.115 215.576,207.500 215.476 C 207.885 215.375,207.570 215.293,206.800 215.293 C 206.030 215.293,205.715 215.375,206.100 215.476 M191.705 248.687 C 192.314 248.779,193.214 248.777,193.705 248.682 C 194.197 248.587,193.700 248.511,192.600 248.514 C 191.500 248.517,191.097 248.595,191.705 248.687 M206.700 248.682 C 207.195 248.778,208.005 248.778,208.500 248.682 C 208.995 248.587,208.590 248.509,207.600 248.509 C 206.610 248.509,206.205 248.587,206.700 248.682 M180.100 249.476 C 180.485 249.576,181.115 249.576,181.500 249.476 C 181.885 249.375,181.570 249.293,180.800 249.293 C 180.030 249.293,179.715 249.375,180.100 249.476 M218.900 249.476 C 219.285 249.576,219.915 249.576,220.300 249.476 C 220.685 249.375,220.370 249.293,219.600 249.293 C 218.830 249.293,218.515 249.375,218.900 249.476 M176.500 249.876 C 176.885 249.976,177.515 249.976,177.900 249.876 C 178.285 249.775,177.970 249.693,177.200 249.693 C 176.430 249.693,176.115 249.775,176.500 249.876 M222.100 249.876 C 222.485 249.976,223.115 249.976,223.500 249.876 C 223.885 249.775,223.570 249.693,222.800 249.693 C 222.030 249.693,221.715 249.775,222.100 249.876 M68.985 299.300 L 67.000 301.400 69.100 299.415 C 70.255 298.323,71.200 297.378,71.200 297.315 C 71.200 297.017,70.829 297.349,68.985 299.300 M332.400 300.600 C 333.146 301.370,333.847 302.000,333.957 302.000 C 334.067 302.000,333.546 301.370,332.800 300.600 C 332.054 299.830,331.353 299.200,331.243 299.200 C 331.133 299.200,331.654 299.830,332.400 300.600 M340.800 308.925 C 340.800 308.994,341.385 309.579,342.100 310.225 L 343.400 311.400 342.225 310.100 C 341.130 308.888,340.800 308.616,340.800 308.925 M344.800 313.325 C 344.800 313.394,345.385 313.979,346.100 314.625 L 347.400 315.800 346.225 314.500 C 345.130 313.288,344.800 313.016,344.800 313.325 M16.044 378.444 C 15.798 379.151,15.666 379.800,15.752 379.885 C 15.838 379.971,16.109 379.462,16.356 378.756 C 16.602 378.049,16.734 377.400,16.648 377.315 C 16.562 377.229,16.291 377.738,16.044 378.444 M392.901 413.800 C 392.905 414.680,392.987 414.993,393.083 414.495 C 393.179 413.998,393.175 413.278,393.075 412.895 C 392.975 412.513,392.896 412.920,392.901 413.800 M6.901 416.200 C 6.905 417.080,6.987 417.393,7.083 416.895 C 7.179 416.398,7.175 415.678,7.075 415.295 C 6.975 414.913,6.896 415.320,6.901 416.200 M392.914 419.000 C 392.917 420.100,392.995 420.503,393.087 419.895 C 393.179 419.286,393.177 418.386,393.082 417.895 C 392.987 417.403,392.911 417.900,392.914 419.000 M15.200 437.000 C 15.946 437.770,16.647 438.400,16.757 438.400 C 16.867 438.400,16.346 437.770,15.600 437.000 C 14.854 436.230,14.153 435.600,14.043 435.600 C 13.933 435.600,14.454 436.230,15.200 437.000 M116.500 445.900 C 162.425 445.956,237.575 445.956,283.500 445.900 C 329.425 445.844,291.850 445.798,200.000 445.798 C 108.150 445.798,70.575 445.844,116.500 445.900 " stroke="none" fill="#9c9c9c" fill-rule="evenodd"></path></g></svg>