<svg id="svg" version="1.1" xmlns="http://www.w3.org/2000/svg" xmlns:xlink="http://www.w3.org/1999/xlink" width="400" height="375.72559366754615" viewBox="0, 0, 400,375.72559366754615"><g id="svgg"><path id="path0" d="M154.699 14.089 C 151.598 14.370,147.823 14.868,146.310 15.195 C 144.797 15.522,142.925 15.789,142.149 15.789 C 141.373 15.789,139.855 16.052,138.776 16.372 C 137.698 16.692,135.341 17.295,133.539 17.711 C 126.785 19.270,126.056 19.460,125.323 19.852 C 124.910 20.073,123.569 20.505,122.343 20.812 C 121.116 21.119,118.929 21.823,117.481 22.376 C 116.034 22.929,114.173 23.623,113.346 23.919 C 112.519 24.215,111.504 24.607,111.090 24.791 C 110.677 24.975,109.070 25.669,107.519 26.334 C 102.527 28.472,96.653 31.450,89.397 35.521 C 86.032 37.409,72.124 47.300,69.500 49.671 C 68.957 50.162,67.350 51.575,65.929 52.810 C 62.072 56.163,52.560 65.849,49.909 69.121 C 48.630 70.700,47.482 72.077,47.357 72.180 C 47.232 72.284,46.381 73.383,45.466 74.624 C 44.550 75.865,43.700 76.964,43.575 77.068 C 43.242 77.344,40.217 81.716,38.880 83.852 C 38.243 84.870,37.463 86.001,37.146 86.366 C 36.565 87.038,34.847 89.993,32.197 94.882 C 31.399 96.353,30.511 97.823,30.223 98.150 C 29.935 98.476,29.701 98.899,29.702 99.090 C 29.704 99.280,29.042 100.789,28.232 102.444 C 27.422 104.098,26.221 106.720,25.563 108.271 C 24.906 109.821,24.146 111.598,23.875 112.218 C 23.603 112.838,23.129 114.107,22.820 115.038 C 22.510 115.968,21.753 118.167,21.137 119.925 C 13.437 141.895,10.615 170.843,14.041 192.713 C 14.361 194.756,14.781 197.444,14.974 198.684 C 15.565 202.482,16.848 208.369,17.462 210.104 C 17.783 211.008,18.045 212.079,18.045 212.482 C 18.045 213.351,21.192 223.217,22.158 225.376 C 22.529 226.203,22.958 227.472,23.113 228.196 C 23.268 228.919,23.542 229.695,23.723 229.920 C 23.903 230.144,24.284 230.990,24.570 231.799 C 25.557 234.593,31.150 246.147,32.107 247.368 C 32.350 247.679,32.841 248.524,33.199 249.248 C 34.250 251.372,38.229 257.879,38.717 258.271 C 38.846 258.374,39.534 259.397,40.246 260.543 C 40.959 261.689,42.218 263.516,43.045 264.602 C 45.481 267.802,49.730 273.090,50.190 273.496 C 50.424 273.703,51.609 275.056,52.823 276.504 C 57.293 281.835,67.408 291.271,73.647 295.931 C 75.218 297.104,77.249 298.627,78.160 299.314 C 79.071 300.001,80.370 300.902,81.046 301.316 C 81.723 301.729,83.684 303.016,85.405 304.174 C 87.126 305.333,88.788 306.393,89.098 306.530 C 89.408 306.667,90.423 307.267,91.353 307.863 C 94.544 309.908,108.586 316.776,112.174 318.046 C 116.361 319.528,117.511 319.960,118.233 320.324 C 118.647 320.532,119.915 320.940,121.053 321.231 C 122.190 321.523,124.558 322.214,126.316 322.767 C 128.073 323.321,130.273 323.934,131.203 324.129 C 132.133 324.325,133.794 324.740,134.893 325.051 C 137.921 325.910,144.376 327.038,149.624 327.627 C 152.209 327.916,155.761 328.341,157.519 328.570 C 161.282 329.060,178.702 329.047,183.835 328.551 C 190.380 327.918,196.790 327.104,198.120 326.737 C 198.844 326.537,200.367 326.264,201.504 326.130 C 202.641 325.996,204.545 325.560,205.735 325.161 C 206.924 324.762,208.316 324.436,208.828 324.436 C 209.340 324.436,210.904 324.084,212.304 323.654 C 213.704 323.225,216.288 322.438,218.045 321.907 C 221.463 320.874,225.354 319.491,227.362 318.596 C 228.041 318.293,228.820 318.045,229.092 318.045 C 229.364 318.045,230.383 317.622,231.355 317.105 C 232.327 316.588,233.287 316.165,233.488 316.165 C 234.369 316.165,250.637 307.784,251.573 306.848 C 251.824 306.597,252.227 306.391,252.468 306.391 C 252.709 306.391,253.352 306.040,253.897 305.612 C 255.426 304.409,254.574 303.643,280.919 329.917 C 306.243 355.174,310.448 358.957,313.290 359.034 C 313.528 359.041,314.568 359.462,315.602 359.971 C 316.635 360.479,317.841 360.897,318.281 360.899 C 318.721 360.901,319.736 361.191,320.537 361.544 C 323.002 362.631,334.995 362.499,338.722 361.344 C 351.828 357.280,361.885 348.184,364.983 337.594 C 365.194 336.870,365.611 335.602,365.909 334.774 C 367.509 330.333,367.509 318.539,365.909 314.098 C 365.611 313.271,365.196 312.028,364.987 311.336 C 364.777 310.643,364.281 309.544,363.883 308.892 C 363.486 308.240,363.160 307.499,363.159 307.245 C 363.152 304.952,358.237 299.564,333.566 274.798 C 319.860 261.040,308.646 249.536,308.646 249.234 C 308.645 248.932,310.143 245.639,311.973 241.917 C 316.338 233.045,316.917 231.785,316.919 231.162 C 316.919 230.874,317.238 230.117,317.627 229.480 C 318.016 228.842,318.461 227.743,318.616 227.036 C 318.771 226.330,319.191 225.075,319.548 224.248 C 320.526 221.986,321.444 219.186,321.829 217.293 C 322.019 216.363,322.419 215.009,322.719 214.286 C 323.760 211.779,326.164 200.755,326.737 195.865 C 326.918 194.314,327.239 192.115,327.449 190.977 C 328.761 183.890,328.929 159.812,327.714 153.008 C 327.401 151.250,327.035 148.628,326.902 147.180 C 326.769 145.733,326.479 143.872,326.258 143.045 C 326.036 142.218,325.548 139.934,325.173 137.970 C 324.798 136.006,324.148 133.130,323.729 131.579 C 323.309 130.028,322.675 127.660,322.320 126.316 C 321.965 124.972,321.366 123.184,320.988 122.344 C 320.610 121.503,320.301 120.534,320.301 120.190 C 320.301 119.540,318.855 115.618,317.624 112.929 C 317.235 112.079,316.917 111.252,316.917 111.090 C 316.917 110.348,310.837 97.942,308.302 93.512 C 307.148 91.494,305.949 89.380,305.639 88.812 C 305.328 88.245,304.356 86.705,303.477 85.389 C 302.598 84.073,301.880 82.947,301.880 82.886 C 301.880 82.825,300.768 81.279,299.410 79.451 C 298.052 77.623,296.656 75.727,296.309 75.237 C 295.469 74.054,291.748 69.531,289.339 66.765 C 287.636 64.809,278.878 56.037,275.728 53.130 C 272.943 50.562,266.199 45.150,262.970 42.893 C 257.512 39.079,249.229 33.835,248.663 33.835 C 248.500 33.835,248.100 33.601,247.774 33.315 C 247.448 33.030,246.081 32.255,244.737 31.594 C 243.393 30.932,242.039 30.249,241.729 30.075 C 240.434 29.348,236.487 27.480,234.211 26.516 C 232.867 25.947,231.259 25.252,230.639 24.971 C 229.239 24.338,227.631 23.756,222.368 21.979 C 220.094 21.211,217.384 20.265,216.346 19.878 C 215.308 19.490,214.124 19.173,213.715 19.173 C 213.305 19.173,211.955 18.846,210.714 18.445 C 206.304 17.023,197.793 15.411,188.534 14.246 C 183.495 13.612,161.108 13.508,154.699 14.089 M179.699 92.087 C 183.498 92.583,189.879 93.892,191.541 94.516 C 192.368 94.826,193.339 95.087,193.699 95.096 C 194.361 95.113,198.492 96.600,200.564 97.568 C 201.184 97.857,202.159 98.204,202.729 98.337 C 203.300 98.470,203.857 98.725,203.967 98.903 C 204.077 99.082,205.555 99.921,207.253 100.769 C 212.651 103.465,215.546 105.314,220.106 108.980 C 225.514 113.329,227.962 115.727,231.849 120.489 C 235.281 124.694,234.804 124.045,237.235 127.820 C 239.803 131.808,240.051 132.213,240.919 133.835 C 241.306 134.558,241.899 135.658,242.238 136.278 C 242.576 136.898,242.854 137.681,242.855 138.018 C 242.856 138.354,243.094 138.827,243.384 139.067 C 243.674 139.308,244.025 139.957,244.164 140.510 C 244.302 141.063,244.742 142.231,245.140 143.105 C 245.539 143.980,245.865 144.970,245.865 145.304 C 245.865 145.639,246.201 146.706,246.612 147.675 C 247.739 150.332,248.944 155.912,249.599 161.509 C 251.228 175.424,248.718 192.497,243.445 203.383 C 241.427 207.549,238.986 212.191,238.701 212.406 C 238.563 212.509,238.150 213.186,237.783 213.910 C 237.416 214.633,236.504 216.012,235.757 216.973 C 235.010 217.933,234.060 219.197,233.647 219.780 C 230.856 223.714,222.646 231.819,218.647 234.586 C 217.900 235.103,216.994 235.738,216.633 235.996 C 212.139 239.217,201.339 245.113,199.934 245.113 C 199.644 245.113,198.763 245.441,197.975 245.843 C 197.188 246.244,196.010 246.686,195.358 246.825 C 194.706 246.964,193.158 247.383,191.917 247.758 C 184.433 250.018,182.921 250.188,170.301 250.188 C 159.291 250.188,158.247 250.130,155.451 249.366 C 153.797 248.914,150.667 248.077,148.496 247.506 C 146.325 246.935,144.211 246.267,143.797 246.023 C 143.383 245.778,142.551 245.463,141.948 245.322 C 140.651 245.020,130.951 240.238,128.695 238.789 C 120.422 233.474,114.029 227.693,107.832 219.925 C 103.343 214.297,99.084 206.839,96.561 200.188 C 95.933 198.534,95.192 196.648,94.915 195.997 C 94.637 195.345,94.297 194.161,94.160 193.365 C 94.023 192.569,93.608 190.902,93.238 189.662 C 91.183 182.764,90.346 167.141,91.676 160.526 C 91.905 159.389,92.342 157.190,92.648 155.639 C 93.566 150.982,94.296 148.018,94.869 146.622 C 95.167 145.895,95.956 143.863,96.622 142.105 C 99.046 135.711,103.509 127.900,107.950 122.283 C 111.313 118.029,113.386 115.806,117.900 111.614 C 120.401 109.291,128.581 103.383,129.296 103.383 C 129.467 103.383,129.806 103.144,130.049 102.851 C 130.541 102.258,138.838 98.120,139.535 98.120 C 139.779 98.120,140.245 97.902,140.572 97.635 C 141.126 97.183,144.177 96.131,150.000 94.386 C 152.182 93.732,159.230 92.344,162.218 91.980 C 164.513 91.700,177.337 91.779,179.699 92.087 " stroke="none" fill="#8494a4" fill-rule="evenodd"></path><path id="path1" d="M0.000 187.970 L 0.000 375.940 200.000 375.940 L 400.000 375.940 400.000 187.970 L 400.000 0.000 200.000 0.000 L 0.000 0.000 0.000 187.970 M188.534 14.246 C 197.793 15.411,206.304 17.023,210.714 18.445 C 211.955 18.846,213.305 19.173,213.715 19.173 C 214.124 19.173,215.308 19.490,216.346 19.878 C 217.384 20.265,220.094 21.211,222.368 21.979 C 227.631 23.756,229.239 24.338,230.639 24.971 C 231.259 25.252,232.867 25.947,234.211 26.516 C 236.487 27.480,240.434 29.348,241.729 30.075 C 242.039 30.249,243.393 30.932,244.737 31.594 C 246.081 32.255,247.448 33.030,247.774 33.315 C 248.100 33.601,248.500 33.835,248.663 33.835 C 249.229 33.835,257.512 39.079,262.970 42.893 C 266.199 45.150,272.943 50.562,275.728 53.130 C 278.878 56.037,287.636 64.809,289.339 66.765 C 291.748 69.531,295.469 74.054,296.309 75.237 C 296.656 75.727,298.052 77.623,299.410 79.451 C 300.768 81.279,301.880 82.825,301.880 82.886 C 301.880 82.947,302.598 84.073,303.477 85.389 C 304.356 86.705,305.328 88.245,305.639 88.812 C 305.949 89.380,307.148 91.494,308.302 93.512 C 310.837 97.942,316.917 110.348,316.917 111.090 C 316.917 111.252,317.235 112.079,317.624 112.929 C 318.855 115.618,320.301 119.540,320.301 120.190 C 320.301 120.534,320.610 121.503,320.988 122.344 C 321.366 123.184,321.965 124.972,322.320 126.316 C 322.675 127.660,323.309 130.028,323.729 131.579 C 324.148 133.130,324.798 136.006,325.173 137.970 C 325.548 139.934,326.036 142.218,326.258 143.045 C 326.479 143.872,326.769 145.733,326.902 147.180 C 327.035 148.628,327.401 151.250,327.714 153.008 C 328.929 159.812,328.761 183.890,327.449 190.977 C 327.239 192.115,326.918 194.314,326.737 195.865 C 326.164 200.755,323.760 211.779,322.719 214.286 C 322.419 215.009,322.019 216.363,321.829 217.293 C 321.444 219.186,320.526 221.986,319.548 224.248 C 319.191 225.075,318.771 226.330,318.616 227.036 C 318.461 227.743,318.016 228.842,317.627 229.480 C 317.238 230.117,316.919 230.874,316.919 231.162 C 316.917 231.785,316.338 233.045,311.973 241.917 C 310.143 245.639,308.645 248.932,308.646 249.234 C 308.646 249.536,319.860 261.040,333.566 274.798 C 358.237 299.564,363.152 304.952,363.159 307.245 C 363.160 307.499,363.486 308.240,363.883 308.892 C 364.281 309.544,364.777 310.643,364.987 311.336 C 365.196 312.028,365.611 313.271,365.909 314.098 C 367.509 318.539,367.509 330.333,365.909 334.774 C 365.611 335.602,365.194 336.870,364.983 337.594 C 361.885 348.184,351.828 357.280,338.722 361.344 C 334.995 362.499,323.002 362.631,320.537 361.544 C 319.736 361.191,318.721 360.901,318.281 360.899 C 317.841 360.897,316.635 360.479,315.602 359.971 C 314.568 359.462,313.528 359.041,313.290 359.034 C 310.448 358.957,306.243 355.174,280.919 329.917 C 254.574 303.643,255.426 304.409,253.897 305.612 C 253.352 306.040,252.709 306.391,252.468 306.391 C 252.227 306.391,251.824 306.597,251.573 306.848 C 250.637 307.784,234.369 316.165,233.488 316.165 C 233.287 316.165,232.327 316.588,231.355 317.105 C 230.383 317.622,229.364 318.045,229.092 318.045 C 228.820 318.045,228.041 318.293,227.362 318.596 C 225.354 319.491,221.463 320.874,218.045 321.907 C 216.288 322.438,213.704 323.225,212.304 323.654 C 210.904 324.084,209.340 324.436,208.828 324.436 C 208.316 324.436,206.924 324.762,205.735 325.161 C 204.545 325.560,202.641 325.996,201.504 326.130 C 200.367 326.264,198.844 326.537,198.120 326.737 C 196.790 327.104,190.380 327.918,183.835 328.551 C 178.702 329.047,161.282 329.060,157.519 328.570 C 155.761 328.341,152.209 327.916,149.624 327.627 C 144.376 327.038,137.921 325.910,134.893 325.051 C 133.794 324.740,132.133 324.325,131.203 324.129 C 130.273 323.934,128.073 323.321,126.316 322.767 C 124.558 322.214,122.190 321.523,121.053 321.231 C 119.915 320.940,118.647 320.532,118.233 320.324 C 117.511 319.960,116.361 319.528,112.174 318.046 C 108.586 316.776,94.544 309.908,91.353 307.863 C 90.423 307.267,89.408 306.667,89.098 306.530 C 88.788 306.393,87.126 305.333,85.405 304.174 C 83.684 303.016,81.723 301.729,81.046 301.316 C 80.370 300.902,79.071 300.001,78.160 299.314 C 77.249 298.627,75.218 297.104,73.647 295.931 C 67.408 291.271,57.293 281.835,52.823 276.504 C 51.609 275.056,50.424 273.703,50.190 273.496 C 49.730 273.090,45.481 267.802,43.045 264.602 C 42.218 263.516,40.959 261.689,40.246 260.543 C 39.534 259.397,38.846 258.374,38.717 258.271 C 38.229 257.879,34.250 251.372,33.199 249.248 C 32.841 248.524,32.350 247.679,32.107 247.368 C 31.150 246.147,25.557 234.593,24.570 231.799 C 24.284 230.990,23.903 230.144,23.723 229.920 C 23.542 229.695,23.268 228.919,23.113 228.196 C 22.958 227.472,22.529 226.203,22.158 225.376 C 21.192 223.217,18.045 213.351,18.045 212.482 C 18.045 212.079,17.783 211.008,17.462 210.104 C 16.848 208.369,15.565 202.482,14.974 198.684 C 14.781 197.444,14.361 194.756,14.041 192.713 C 10.615 170.843,13.437 141.895,21.137 119.925 C 21.753 118.167,22.510 115.968,22.820 115.038 C 23.129 114.107,23.603 112.838,23.875 112.218 C 24.146 111.598,24.906 109.821,25.563 108.271 C 26.221 106.720,27.422 104.098,28.232 102.444 C 29.042 100.789,29.704 99.280,29.702 99.090 C 29.701 98.899,29.935 98.476,30.223 98.150 C 30.511 97.823,31.399 96.353,32.197 94.882 C 34.847 89.993,36.565 87.038,37.146 86.366 C 37.463 86.001,38.243 84.870,38.880 83.852 C 40.217 81.716,43.242 77.344,43.575 77.068 C 43.700 76.964,44.550 75.865,45.466 74.624 C 46.381 73.383,47.232 72.284,47.357 72.180 C 47.482 72.077,48.630 70.700,49.909 69.121 C 52.560 65.849,62.072 56.163,65.929 52.810 C 67.350 51.575,68.957 50.162,69.500 49.671 C 72.124 47.300,86.032 37.409,89.397 35.521 C 96.653 31.450,102.527 28.472,107.519 26.334 C 109.070 25.669,110.677 24.975,111.090 24.791 C 111.504 24.607,112.519 24.215,113.346 23.919 C 114.173 23.623,116.034 22.929,117.481 22.376 C 118.929 21.823,121.116 21.119,122.343 20.812 C 123.569 20.505,124.910 20.073,125.323 19.852 C 126.056 19.460,126.785 19.270,133.539 17.711 C 135.341 17.295,137.698 16.692,138.776 16.372 C 139.855 16.052,141.373 15.789,142.149 15.789 C 142.925 15.789,144.797 15.522,146.310 15.195 C 153.359 13.671,179.325 13.087,188.534 14.246 M162.218 91.980 C 159.230 92.344,152.182 93.732,150.000 94.386 C 144.177 96.131,141.126 97.183,140.572 97.635 C 140.245 97.902,139.779 98.120,139.535 98.120 C 138.838 98.120,130.541 102.258,130.049 102.851 C 129.806 103.144,129.467 103.383,129.296 103.383 C 128.581 103.383,120.401 109.291,117.900 111.614 C 113.386 115.806,111.313 118.029,107.950 122.283 C 103.509 127.900,99.046 135.711,96.622 142.105 C 95.956 143.863,95.167 145.895,94.869 146.622 C 94.296 148.018,93.566 150.982,92.648 155.639 C 92.342 157.190,91.905 159.389,91.676 160.526 C 90.346 167.141,91.183 182.764,93.238 189.662 C 93.608 190.902,94.023 192.569,94.160 193.365 C 94.297 194.161,94.637 195.345,94.915 195.997 C 95.192 196.648,95.933 198.534,96.561 200.188 C 98.540 205.406,101.925 211.718,105.531 216.917 C 111.048 224.871,119.599 232.945,128.695 238.789 C 130.951 240.238,140.651 245.020,141.948 245.322 C 142.551 245.463,143.383 245.778,143.797 246.023 C 144.211 246.267,146.325 246.935,148.496 247.506 C 150.667 248.077,153.797 248.914,155.451 249.366 C 158.247 250.130,159.291 250.188,170.301 250.188 C 182.921 250.188,184.433 250.018,191.917 247.758 C 193.158 247.383,194.706 246.964,195.358 246.825 C 196.010 246.686,197.188 246.244,197.975 245.843 C 198.763 245.441,199.644 245.113,199.934 245.113 C 201.339 245.113,212.139 239.217,216.633 235.996 C 216.994 235.738,217.900 235.103,218.647 234.586 C 222.646 231.819,230.856 223.714,233.647 219.780 C 234.060 219.197,235.010 217.933,235.757 216.973 C 236.504 216.012,237.416 214.633,237.783 213.910 C 238.150 213.186,238.563 212.509,238.701 212.406 C 238.986 212.191,241.427 207.549,243.445 203.383 C 248.718 192.497,251.228 175.424,249.599 161.509 C 248.944 155.912,247.739 150.332,246.612 147.675 C 246.201 146.706,245.865 145.639,245.865 145.304 C 245.865 144.970,245.539 143.980,245.140 143.105 C 244.742 142.231,244.302 141.063,244.164 140.510 C 244.025 139.957,243.674 139.308,243.384 139.067 C 243.094 138.827,242.856 138.354,242.855 138.018 C 242.854 137.681,242.576 136.898,242.238 136.278 C 241.899 135.658,241.306 134.558,240.919 133.835 C 240.051 132.213,239.803 131.808,237.235 127.820 C 234.804 124.045,235.281 124.694,231.849 120.489 C 227.962 115.727,225.514 113.329,220.106 108.980 C 215.546 105.314,212.651 103.465,207.253 100.769 C 205.555 99.921,204.077 99.082,203.967 98.903 C 203.857 98.725,203.300 98.470,202.729 98.337 C 202.159 98.204,201.184 97.857,200.564 97.568 C 198.492 96.600,194.361 95.113,193.699 95.096 C 193.339 95.087,192.368 94.826,191.541 94.516 C 189.879 93.892,183.498 92.583,179.699 92.087 C 177.337 91.779,164.513 91.700,162.218 91.980 " stroke="none" fill="#ffffff" fill-rule="evenodd"></path></g></svg>