<svg id="svg" version="1.1" xmlns="http://www.w3.org/2000/svg" xmlns:xlink="http://www.w3.org/1999/xlink" width="400" height="400" viewBox="0, 0, 400,400"><g id="svgg"><path id="path0" d="M0.055 84.100 C 0.086 131.810,0.253 166.556,0.442 164.400 C 4.997 112.177,30.169 66.515,71.469 35.550 C 98.820 15.044,132.678 2.634,167.282 0.430 C 169.987 0.258,133.455 0.091,86.100 0.059 L 0.000 0.000 0.055 84.100 M186.600 0.267 C 317.885 8.339,396.631 145.096,336.676 260.901 L 333.414 267.201 362.254 296.101 C 380.109 313.992,391.703 325.914,392.692 327.400 C 395.873 332.180,398.038 337.288,399.217 342.800 C 399.924 346.107,399.944 341.440,399.972 173.100 L 400.000 0.000 292.300 0.072 C 233.065 0.112,185.500 0.200,186.600 0.267 M174.400 88.660 C 96.997 93.301,60.322 184.338,113.220 240.525 C 162.302 292.659,251.168 267.618,266.195 197.419 C 278.446 140.189,232.038 85.204,174.400 88.660 M0.055 294.500 L 0.000 400.000 200.000 400.000 L 400.000 400.000 399.946 378.700 C 399.916 366.985,399.815 357.850,399.722 358.400 C 394.438 389.607,359.424 404.665,333.000 387.095 C 331.513 386.106,319.869 374.789,302.389 357.342 L 274.179 329.186 269.789 331.809 C 210.082 367.490,132.935 364.809,76.400 325.089 C 32.440 294.205,5.069 246.537,0.438 192.800 C 0.257 190.709,0.085 236.456,0.055 294.500 " stroke="none" fill="#1c1c1c" fill-rule="evenodd"></path><path id="path1" d="M165.200 0.828 C 43.542 9.919,-33.394 136.339,14.459 248.523 C 56.558 347.216,178.941 386.835,269.943 331.230 L 274.085 328.698 302.343 356.896 C 330.154 384.649,332.179 386.517,337.711 389.528 C 348.211 395.241,363.062 395.818,374.097 390.941 C 395.124 381.649,405.087 358.347,397.234 336.829 C 394.128 328.317,393.590 327.699,360.729 294.888 L 332.975 267.177 337.587 257.864 C 355.427 221.846,361.016 178.525,352.573 141.700 C 352.258 140.325,351.724 137.985,351.386 136.500 C 349.693 129.054,344.814 114.491,341.702 107.600 C 309.845 37.036,240.667 -4.812,165.200 0.828 M188.400 88.848 C 252.170 95.627,288.550 167.206,256.645 223.122 C 220.893 285.777,129.164 282.942,97.374 218.200 C 66.024 154.353,117.429 81.304,188.400 88.848 " stroke="none" fill="#fcfcfc" fill-rule="evenodd"></path><path id="path2" d="M176.900 0.291 C 177.725 0.378,179.075 0.378,179.900 0.291 C 180.725 0.205,180.050 0.134,178.400 0.134 C 176.750 0.134,176.075 0.205,176.900 0.291 M88.131 178.600 C 88.133 180.140,88.205 180.721,88.292 179.891 C 88.379 179.061,88.377 177.801,88.289 177.091 C 88.200 176.381,88.129 177.060,88.131 178.600 M177.305 268.687 C 177.914 268.779,178.814 268.777,179.305 268.682 C 179.797 268.587,179.300 268.511,178.200 268.514 C 177.100 268.517,176.697 268.595,177.305 268.687 M292.800 347.725 C 292.800 347.794,293.385 348.379,294.100 349.025 L 295.400 350.200 294.225 348.900 C 293.130 347.688,292.800 347.416,292.800 347.725 M301.583 356.500 C 302.564 357.545,303.419 358.400,303.483 358.400 C 303.784 358.400,303.466 358.041,301.700 356.383 L 299.800 354.600 301.583 356.500 M309.983 364.900 C 311.641 366.666,312.000 366.984,312.000 366.683 C 312.000 366.619,311.145 365.764,310.100 364.783 L 308.200 363.000 309.983 364.900 M318.200 373.200 C 319.059 374.080,319.852 374.800,319.962 374.800 C 320.072 374.800,319.459 374.080,318.600 373.200 C 317.741 372.320,316.948 371.600,316.838 371.600 C 316.728 371.600,317.341 372.320,318.200 373.200 M326.783 381.700 C 327.764 382.745,328.619 383.600,328.683 383.600 C 328.984 383.600,328.666 383.241,326.900 381.583 L 325.000 379.800 326.783 381.700 " stroke="none" fill="#8c8c8c" fill-rule="evenodd"></path><path id="path3" d="M298.000 46.525 C 298.000 46.594,298.585 47.179,299.300 47.825 L 300.600 49.000 299.425 47.700 C 298.330 46.488,298.000 46.216,298.000 46.525 M51.993 52.700 L 47.800 57.000 52.100 52.807 C 56.094 48.913,56.582 48.400,56.293 48.400 C 56.234 48.400,54.299 50.335,51.993 52.700 M308.000 56.600 C 309.195 57.810,310.263 58.800,310.373 58.800 C 310.483 58.800,309.595 57.810,308.400 56.600 C 307.205 55.390,306.137 54.400,306.027 54.400 C 305.917 54.400,306.805 55.390,308.000 56.600 M177.305 88.287 C 177.914 88.379,178.814 88.377,179.305 88.282 C 179.797 88.187,179.300 88.111,178.200 88.114 C 177.100 88.117,176.697 88.195,177.305 88.287 M240.200 113.200 C 241.059 114.080,241.852 114.800,241.962 114.800 C 242.072 114.800,241.459 114.080,240.600 113.200 C 239.741 112.320,238.948 111.600,238.838 111.600 C 238.728 111.600,239.341 112.320,240.200 113.200 M356.109 169.200 C 356.109 170.190,356.187 170.595,356.282 170.100 C 356.378 169.605,356.378 168.795,356.282 168.300 C 356.187 167.805,356.109 168.210,356.109 169.200 M0.093 173.600 C 0.093 174.370,0.175 174.685,0.276 174.300 C 0.376 173.915,0.376 173.285,0.276 172.900 C 0.175 172.515,0.093 172.830,0.093 173.600 M88.109 174.400 C 88.109 175.390,88.187 175.795,88.282 175.300 C 88.378 174.805,88.378 173.995,88.282 173.500 C 88.187 173.005,88.109 173.410,88.109 174.400 M88.101 182.600 C 88.105 183.480,88.187 183.793,88.283 183.295 C 88.379 182.798,88.375 182.078,88.275 181.695 C 88.175 181.313,88.096 181.720,88.101 182.600 M0.093 183.200 C 0.093 183.970,0.175 184.285,0.276 183.900 C 0.376 183.515,0.376 182.885,0.276 182.500 C 0.175 182.115,0.093 182.430,0.093 183.200 M356.120 187.200 C 356.120 188.410,356.195 188.905,356.287 188.300 C 356.378 187.695,356.378 186.705,356.287 186.100 C 356.195 185.495,356.120 185.990,356.120 187.200 M114.400 242.200 C 116.260 244.070,117.872 245.600,117.982 245.600 C 118.092 245.600,116.660 244.070,114.800 242.200 C 112.940 240.330,111.328 238.800,111.218 238.800 C 111.108 238.800,112.540 240.330,114.400 242.200 M336.600 270.800 C 338.792 273.000,340.675 274.800,340.785 274.800 C 340.895 274.800,339.192 273.000,337.000 270.800 C 334.808 268.600,332.925 266.800,332.815 266.800 C 332.705 266.800,334.408 268.600,336.600 270.800 M174.305 268.683 C 174.802 268.779,175.522 268.775,175.905 268.675 C 176.287 268.575,175.880 268.496,175.000 268.501 C 174.120 268.505,173.807 268.587,174.305 268.683 M180.705 268.683 C 181.202 268.779,181.922 268.775,182.305 268.675 C 182.687 268.575,182.280 268.496,181.400 268.501 C 180.520 268.505,180.207 268.587,180.705 268.683 M353.800 288.000 C 360.617 294.820,366.285 300.400,366.395 300.400 C 366.505 300.400,361.017 294.820,354.200 288.000 C 347.383 281.180,341.715 275.600,341.605 275.600 C 341.495 275.600,346.983 281.180,353.800 288.000 M47.600 299.800 C 48.346 300.570,49.047 301.200,49.157 301.200 C 49.267 301.200,48.746 300.570,48.000 299.800 C 47.254 299.030,46.553 298.400,46.443 298.400 C 46.333 298.400,46.854 299.030,47.600 299.800 M374.600 308.800 C 378.996 313.200,382.682 316.800,382.792 316.800 C 382.902 316.800,379.396 313.200,375.000 308.800 C 370.604 304.400,366.918 300.800,366.808 300.800 C 366.698 300.800,370.204 304.400,374.600 308.800 M56.200 308.400 C 57.283 309.500,58.260 310.400,58.370 310.400 C 58.480 310.400,57.683 309.500,56.600 308.400 C 55.517 307.300,54.540 306.400,54.430 306.400 C 54.320 306.400,55.117 307.300,56.200 308.400 M385.800 320.000 C 387.328 321.540,388.669 322.800,388.779 322.800 C 388.889 322.800,387.728 321.540,386.200 320.000 C 384.672 318.460,383.331 317.200,383.221 317.200 C 383.111 317.200,384.272 318.460,385.800 320.000 M273.647 328.900 C 273.746 328.955,276.071 331.160,278.813 333.800 L 283.800 338.600 279.006 333.700 C 276.370 331.005,274.045 328.800,273.840 328.800 C 273.634 328.800,273.548 328.845,273.647 328.900 M288.800 343.800 C 290.217 345.230,291.467 346.400,291.577 346.400 C 291.687 346.400,290.617 345.230,289.200 343.800 C 287.783 342.370,286.533 341.200,286.423 341.200 C 286.313 341.200,287.383 342.370,288.800 343.800 M297.400 352.400 C 298.706 353.720,299.865 354.800,299.975 354.800 C 300.085 354.800,299.106 353.720,297.800 352.400 C 296.494 351.080,295.335 350.000,295.225 350.000 C 295.115 350.000,296.094 351.080,297.400 352.400 M165.505 356.283 C 166.002 356.379,166.722 356.375,167.105 356.275 C 167.487 356.175,167.080 356.096,166.200 356.101 C 165.320 356.105,165.007 356.187,165.505 356.283 M189.905 356.283 C 190.402 356.379,191.122 356.375,191.505 356.275 C 191.887 356.175,191.480 356.096,190.600 356.101 C 189.720 356.105,189.407 356.187,189.905 356.283 M175.100 356.698 C 176.915 356.772,179.885 356.772,181.700 356.698 C 183.515 356.623,182.030 356.563,178.400 356.563 C 174.770 356.563,173.285 356.623,175.100 356.698 M305.800 360.800 C 307.106 362.120,308.265 363.200,308.375 363.200 C 308.485 363.200,307.506 362.120,306.200 360.800 C 304.894 359.480,303.735 358.400,303.625 358.400 C 303.515 358.400,304.494 359.480,305.800 360.800 M314.200 369.200 C 315.506 370.520,316.665 371.600,316.775 371.600 C 316.885 371.600,315.906 370.520,314.600 369.200 C 313.294 367.880,312.135 366.800,312.025 366.800 C 311.915 366.800,312.894 367.880,314.200 369.200 M323.400 378.400 C 324.259 379.280,325.052 380.000,325.162 380.000 C 325.272 380.000,324.659 379.280,323.800 378.400 C 322.941 377.520,322.148 376.800,322.038 376.800 C 321.928 376.800,322.541 377.520,323.400 378.400 " stroke="none" fill="#9c9c9c" fill-rule="evenodd"></path><path id="path4" d="M172.905 0.287 C 173.514 0.379,174.414 0.377,174.905 0.282 C 175.397 0.187,174.900 0.111,173.800 0.114 C 172.700 0.117,172.297 0.195,172.905 0.287 M182.105 0.287 C 182.714 0.379,183.614 0.377,184.105 0.282 C 184.597 0.187,184.100 0.111,183.000 0.114 C 181.900 0.117,181.497 0.195,182.105 0.287 M295.200 43.725 C 295.200 43.794,295.785 44.379,296.500 45.025 L 297.800 46.200 296.625 44.900 C 295.530 43.688,295.200 43.416,295.200 43.725 M58.378 46.300 L 57.000 47.800 58.500 46.422 C 59.325 45.663,60.000 44.988,60.000 44.922 C 60.000 44.616,59.662 44.904,58.378 46.300 M304.394 52.500 C 309.406 57.609,310.000 58.181,310.000 57.894 C 310.000 57.836,307.525 55.361,304.500 52.394 L 299.000 47.000 304.394 52.500 M52.000 52.200 C 50.361 53.850,49.110 55.200,49.220 55.200 C 49.330 55.200,50.761 53.850,52.400 52.200 C 54.039 50.550,55.290 49.200,55.180 49.200 C 55.070 49.200,53.639 50.550,52.000 52.200 M45.775 58.900 L 44.600 60.200 45.900 59.025 C 47.112 57.930,47.384 57.600,47.075 57.600 C 47.006 57.600,46.421 58.185,45.775 58.900 M173.900 88.682 C 174.395 88.778,175.205 88.778,175.700 88.682 C 176.195 88.587,175.790 88.509,174.800 88.509 C 173.810 88.509,173.405 88.587,173.900 88.682 M180.700 88.682 C 181.195 88.778,182.005 88.778,182.500 88.682 C 182.995 88.587,182.590 88.509,181.600 88.509 C 180.610 88.509,180.205 88.587,180.700 88.682 M114.400 115.000 C 112.761 116.650,111.510 118.000,111.620 118.000 C 111.730 118.000,113.161 116.650,114.800 115.000 C 116.439 113.350,117.690 112.000,117.580 112.000 C 117.470 112.000,116.039 113.350,114.400 115.000 M88.493 171.600 C 88.493 172.370,88.575 172.685,88.676 172.300 C 88.776 171.915,88.776 171.285,88.676 170.900 C 88.575 170.515,88.493 170.830,88.493 171.600 M356.563 178.400 C 356.563 182.030,356.623 183.515,356.698 181.700 C 356.772 179.885,356.772 176.915,356.698 175.100 C 356.623 173.285,356.563 174.770,356.563 178.400 M268.093 180.800 C 268.093 181.570,268.175 181.885,268.276 181.500 C 268.376 181.115,268.376 180.485,268.276 180.100 C 268.175 179.715,268.093 180.030,268.093 180.800 M243.375 240.500 L 242.200 241.800 243.500 240.625 C 244.215 239.979,244.800 239.394,244.800 239.325 C 244.800 239.016,244.470 239.288,243.375 240.500 M239.978 243.900 L 238.600 245.400 240.100 244.022 C 241.496 242.738,241.784 242.400,241.478 242.400 C 241.412 242.400,240.737 243.075,239.978 243.900 M339.665 254.217 C 338.995 255.688,339.123 256.002,339.847 254.665 C 340.186 254.040,340.388 253.454,340.296 253.363 C 340.205 253.271,339.921 253.656,339.665 254.217 M44.400 296.600 C 45.146 297.370,45.847 298.000,45.957 298.000 C 46.067 298.000,45.546 297.370,44.800 296.600 C 44.054 295.830,43.353 295.200,43.243 295.200 C 43.133 295.200,43.654 295.830,44.400 296.600 M52.600 305.200 C 55.674 308.280,58.279 310.800,58.389 310.800 C 58.499 310.800,56.074 308.280,53.000 305.200 C 49.926 302.120,47.321 299.600,47.211 299.600 C 47.101 299.600,49.526 302.120,52.600 305.200 M168.100 356.676 C 168.485 356.776,169.115 356.776,169.500 356.676 C 169.885 356.575,169.570 356.493,168.800 356.493 C 168.030 356.493,167.715 356.575,168.100 356.676 M187.300 356.676 C 187.685 356.776,188.315 356.776,188.700 356.676 C 189.085 356.575,188.770 356.493,188.000 356.493 C 187.230 356.493,186.915 356.575,187.300 356.676 M387.387 382.100 L 385.000 384.600 387.500 382.213 C 388.875 380.899,390.000 379.774,390.000 379.713 C 390.000 379.417,389.605 379.778,387.387 382.100 M356.705 394.683 C 357.202 394.779,357.922 394.775,358.305 394.675 C 358.687 394.575,358.280 394.496,357.400 394.501 C 356.520 394.505,356.207 394.587,356.705 394.683 " stroke="none" fill="#747474" fill-rule="evenodd"></path></g></svg>