<svg id="svg" version="1.1" xmlns="http://www.w3.org/2000/svg" xmlns:xlink="http://www.w3.org/1999/xlink" width="400" height="389.69555035128803" viewBox="0, 0, 400,389.69555035128803"><g id="svgg"><path id="path0" d="M0.000 194.932 L 0.000 389.864 200.000 389.864 L 400.000 389.864 400.000 194.932 L 400.000 0.000 200.000 0.000 L 0.000 0.000 0.000 194.932 M209.357 8.955 C 212.877 9.351,216.495 9.924,219.688 10.591 C 224.888 11.677,226.406 12.032,227.485 12.412 C 228.129 12.639,230.121 13.293,231.914 13.865 C 233.706 14.437,235.636 15.147,236.202 15.442 C 236.769 15.738,237.468 15.981,237.757 15.982 C 238.045 15.983,238.747 16.232,239.316 16.534 C 239.885 16.837,242.632 18.187,245.419 19.536 C 248.207 20.885,250.926 22.278,251.462 22.632 C 251.998 22.986,254.252 24.486,256.471 25.965 C 258.690 27.445,260.796 28.830,261.150 29.045 C 261.504 29.259,261.881 29.539,261.988 29.668 C 262.096 29.796,263.674 31.092,265.497 32.549 C 269.999 36.148,273.880 39.952,278.029 44.834 C 279.942 47.086,281.751 49.193,282.049 49.517 C 288.561 56.594,298.647 77.706,301.416 90.058 C 301.632 91.023,301.980 92.427,302.189 93.177 C 302.931 95.847,304.150 103.970,304.500 108.577 C 304.696 111.150,304.949 113.641,305.062 114.113 L 305.268 114.970 328.365 115.087 C 351.398 115.204,351.467 115.207,353.292 116.082 C 354.299 116.564,355.211 116.959,355.320 116.959 C 355.870 116.959,359.375 119.642,360.962 121.276 C 362.729 123.097,363.720 124.742,365.168 128.252 C 366.286 130.963,366.292 354.786,365.174 357.518 C 362.198 364.790,357.874 368.654,350.755 370.402 C 345.907 371.592,50.318 371.574,45.679 370.383 C 37.643 368.320,32.357 362.853,30.636 354.825 C 29.537 349.700,29.714 135.069,30.821 130.408 C 32.363 123.917,35.747 119.770,42.023 116.683 L 45.029 115.205 67.836 115.096 C 94.287 114.970,91.994 115.380,92.026 110.776 C 92.078 103.080,93.737 92.981,96.292 84.795 C 96.693 83.509,97.135 81.888,97.274 81.194 C 97.412 80.499,97.688 79.831,97.886 79.709 C 98.084 79.586,98.246 79.211,98.246 78.876 C 98.246 78.337,98.615 77.373,100.756 72.320 C 102.465 68.287,107.257 59.128,108.219 58.059 C 108.523 57.720,108.772 57.326,108.772 57.182 C 108.772 55.695,119.007 43.197,124.701 37.733 C 130.599 32.071,135.916 28.079,144.175 23.111 C 144.966 22.634,146.707 21.702,148.043 21.039 C 149.379 20.376,150.561 19.689,150.671 19.512 C 150.780 19.335,151.311 19.079,151.850 18.944 C 152.389 18.808,154.116 18.087,155.688 17.341 C 157.260 16.595,158.759 15.984,159.020 15.984 C 159.280 15.984,160.054 15.693,160.741 15.338 C 161.427 14.982,162.515 14.553,163.158 14.385 C 163.801 14.217,165.117 13.821,166.082 13.505 C 172.646 11.359,180.019 9.847,188.889 8.828 C 191.574 8.520,206.295 8.611,209.357 8.955 M190.253 56.722 C 183.052 57.654,171.252 61.898,167.697 64.835 C 167.406 65.075,166.854 65.454,166.471 65.677 C 158.221 70.468,148.759 81.526,144.442 91.423 C 143.881 92.710,143.288 94.025,143.124 94.347 C 141.497 97.547,139.560 106.726,139.566 111.209 L 139.571 115.010 198.060 115.010 L 256.550 115.010 256.912 114.057 C 257.354 112.895,256.344 104.556,255.524 102.593 C 255.220 101.865,254.971 100.858,254.971 100.355 C 254.971 99.365,251.852 91.121,250.634 88.892 C 248.180 84.399,247.057 82.607,244.808 79.597 C 241.917 75.727,237.357 71.018,234.288 68.733 C 233.120 67.863,231.742 66.779,231.227 66.324 C 230.712 65.869,230.149 65.497,229.977 65.497 C 229.805 65.497,229.002 65.048,228.192 64.498 C 218.814 58.134,203.535 55.002,190.253 56.722 M111.306 115.249 C 107.235 115.867,101.914 118.708,98.595 122.037 C 97.016 123.620,93.957 127.887,93.957 128.506 C 93.957 128.630,93.708 129.285,93.403 129.961 C 89.960 137.592,92.235 149.364,98.333 155.470 C 100.241 157.381,104.767 160.620,105.537 160.626 C 105.708 160.628,106.374 160.905,107.018 161.243 C 108.947 162.256,115.534 163.082,117.801 162.596 C 118.860 162.369,120.187 162.183,120.749 162.183 C 124.691 162.183,132.417 156.971,135.418 152.288 C 141.503 142.792,140.980 132.230,133.999 123.616 C 131.162 120.115,129.116 118.698,122.902 115.927 C 121.622 115.356,113.667 114.891,111.306 115.249 M276.413 115.362 C 266.993 116.977,258.989 125.446,257.492 135.380 C 256.934 139.083,257.513 145.149,258.632 147.322 C 258.921 147.884,259.561 149.133,260.055 150.097 C 261.224 152.381,264.045 156.067,265.402 157.084 C 265.990 157.525,266.713 158.091,267.009 158.342 C 272.738 163.206,287.346 164.136,292.428 159.960 C 292.767 159.682,293.169 159.454,293.322 159.454 C 294.776 159.454,300.462 153.552,302.179 150.260 C 304.714 145.399,305.674 136.443,304.140 131.969 C 301.500 124.270,297.349 119.903,289.195 116.247 C 287.141 115.326,279.647 114.807,276.413 115.362 " stroke="none" fill="#ffffff" fill-rule="evenodd"></path><path id="path1" d="M188.889 8.828 C 180.019 9.847,172.646 11.359,166.082 13.505 C 165.117 13.821,163.801 14.217,163.158 14.385 C 162.515 14.553,161.427 14.982,160.741 15.338 C 160.054 15.693,159.280 15.984,159.020 15.984 C 158.759 15.984,157.260 16.595,155.688 17.341 C 154.116 18.087,152.389 18.808,151.850 18.944 C 151.311 19.079,150.780 19.335,150.671 19.512 C 150.561 19.689,149.379 20.376,148.043 21.039 C 142.874 23.605,137.573 27.062,130.806 32.283 C 124.102 37.454,108.772 54.778,108.772 57.182 C 108.772 57.326,108.523 57.720,108.219 58.059 C 107.257 59.128,102.465 68.287,100.756 72.320 C 98.615 77.373,98.246 78.337,98.246 78.876 C 98.246 79.211,98.084 79.586,97.886 79.709 C 97.688 79.831,97.412 80.499,97.274 81.194 C 97.135 81.888,96.693 83.509,96.292 84.795 C 93.737 92.981,92.078 103.080,92.026 110.776 C 91.994 115.380,94.287 114.970,67.836 115.096 L 45.029 115.205 42.023 116.683 C 35.747 119.770,32.363 123.917,30.821 130.408 C 29.714 135.069,29.537 349.700,30.636 354.825 C 32.357 362.853,37.643 368.320,45.679 370.383 C 50.318 371.574,345.907 371.592,350.755 370.402 C 357.874 368.654,362.198 364.790,365.174 357.518 C 366.292 354.786,366.286 130.963,365.168 128.252 C 363.720 124.742,362.729 123.097,360.962 121.276 C 359.375 119.642,355.870 116.959,355.320 116.959 C 355.211 116.959,354.299 116.564,353.292 116.082 C 351.467 115.207,351.398 115.204,328.365 115.087 L 305.268 114.970 305.062 114.113 C 304.949 113.641,304.696 111.150,304.500 108.577 C 304.150 103.970,302.931 95.847,302.189 93.177 C 301.980 92.427,301.632 91.023,301.416 90.058 C 298.647 77.706,288.561 56.594,282.049 49.517 C 281.751 49.193,279.942 47.086,278.029 44.834 C 273.880 39.952,269.999 36.148,265.497 32.549 C 263.674 31.092,262.096 29.796,261.988 29.668 C 261.881 29.539,261.504 29.259,261.150 29.045 C 260.796 28.830,258.690 27.445,256.471 25.965 C 254.252 24.486,251.998 22.986,251.462 22.632 C 250.926 22.278,248.207 20.885,245.419 19.536 C 242.632 18.187,239.885 16.837,239.316 16.534 C 238.747 16.232,238.045 15.983,237.757 15.982 C 237.468 15.981,236.769 15.738,236.202 15.442 C 235.636 15.147,233.706 14.437,231.914 13.865 C 230.121 13.293,228.129 12.639,227.485 12.412 C 225.940 11.867,219.648 10.506,215.205 9.756 C 208.977 8.704,194.430 8.192,188.889 8.828 M205.863 56.716 C 213.835 57.744,222.888 60.899,228.192 64.498 C 229.002 65.048,229.805 65.497,229.977 65.497 C 230.149 65.497,230.712 65.869,231.227 66.324 C 231.742 66.779,233.120 67.863,234.288 68.733 C 237.357 71.018,241.917 75.727,244.808 79.597 C 247.057 82.607,248.180 84.399,250.634 88.892 C 251.852 91.121,254.971 99.365,254.971 100.355 C 254.971 100.858,255.220 101.865,255.524 102.593 C 256.344 104.556,257.354 112.895,256.912 114.057 L 256.550 115.010 198.060 115.010 L 139.571 115.010 139.566 111.209 C 139.560 106.726,141.497 97.547,143.124 94.347 C 143.288 94.025,143.881 92.710,144.442 91.423 C 148.759 81.526,158.221 70.468,166.471 65.677 C 166.854 65.454,167.406 65.075,167.697 64.835 C 168.644 64.053,176.096 60.431,178.428 59.618 C 187.599 56.426,196.391 55.495,205.863 56.716 M122.902 115.927 C 129.116 118.698,131.162 120.115,133.999 123.616 C 140.980 132.230,141.503 142.792,135.418 152.288 C 132.417 156.971,124.691 162.183,120.749 162.183 C 120.187 162.183,118.860 162.369,117.801 162.596 C 115.534 163.082,108.947 162.256,107.018 161.243 C 106.374 160.905,105.708 160.628,105.537 160.626 C 104.767 160.620,100.241 157.381,98.333 155.470 C 92.235 149.364,89.960 137.592,93.403 129.961 C 93.708 129.285,93.957 128.630,93.957 128.506 C 93.957 125.464,101.949 118.402,107.797 116.277 C 111.615 114.889,120.132 114.692,122.902 115.927 M289.195 116.247 C 296.039 119.316,300.183 123.028,302.611 128.265 C 305.787 135.115,305.619 143.664,302.179 150.260 C 300.462 153.552,294.776 159.454,293.322 159.454 C 293.169 159.454,292.767 159.682,292.428 159.960 C 287.346 164.136,272.738 163.206,267.009 158.342 C 266.713 158.091,265.990 157.525,265.402 157.084 C 264.045 156.067,261.224 152.381,260.055 150.097 C 259.561 149.133,258.921 147.884,258.632 147.322 C 257.513 145.149,256.934 139.083,257.492 135.380 C 258.340 129.751,260.076 126.313,264.133 122.229 C 270.665 115.653,281.893 112.973,289.195 116.247 " stroke="none" fill="#8493a4" fill-rule="evenodd"></path></g></svg>