<svg id="svg" version="1.1" xmlns="http://www.w3.org/2000/svg" xmlns:xlink="http://www.w3.org/1999/xlink" width="400" height="402.40722166499495" viewBox="0, 0, 400,402.40722166499495"><g id="svgg"><path id="path0" d="M0.000 201.200 L 0.000 402.400 200.000 402.400 L 400.000 402.400 400.000 201.200 L 400.000 0.000 200.000 0.000 L 0.000 0.000 0.000 201.200 M208.073 8.797 C 258.472 12.062,300.361 45.112,313.782 92.200 C 316.221 100.755,318.398 113.627,318.400 119.500 L 318.400 121.200 349.941 121.200 L 381.482 121.200 382.804 122.100 C 383.531 122.595,384.503 123.508,384.963 124.129 L 385.800 125.259 385.902 256.146 L 386.004 387.034 384.948 388.663 C 384.367 389.559,383.331 390.631,382.646 391.046 C 381.430 391.782,377.038 391.800,200.800 391.800 L 20.200 391.800 18.731 390.806 C 17.923 390.260,16.933 389.270,16.531 388.606 C 15.827 387.445,15.800 382.556,15.800 256.329 L 15.800 125.259 16.637 124.129 C 17.097 123.508,18.069 122.595,18.796 122.100 L 20.118 121.200 51.797 121.200 L 83.476 121.200 83.736 115.500 C 86.259 60.331,130.800 15.357,189.000 9.213 C 192.599 8.833,194.306 8.724,200.400 8.487 C 201.390 8.448,204.843 8.588,208.073 8.797 M192.400 59.631 C 161.696 63.524,137.608 88.707,135.900 118.700 L 135.757 121.200 200.679 121.200 L 265.600 121.200 265.598 119.300 C 265.587 110.384,260.932 96.720,254.800 87.600 C 241.257 67.459,216.871 56.528,192.400 59.631 M84.006 135.700 C 84.013 153.484,84.466 155.741,89.216 161.659 C 102.315 177.981,130.160 172.549,135.019 152.724 C 135.668 150.076,136.210 124.651,135.668 122.300 C 135.516 121.642,133.952 121.600,109.753 121.600 L 84.000 121.600 84.006 135.700 M266.000 135.516 C 266.000 150.887,266.116 151.859,268.553 157.000 C 277.506 175.887,306.003 176.166,315.363 157.457 C 317.880 152.428,318.000 151.437,318.000 135.716 L 318.000 121.600 292.000 121.600 L 266.000 121.600 266.000 135.516 " stroke="none" fill="#1c1c1c" fill-rule="evenodd"></path><path id="path1" d="M195.000 9.243 C 145.698 11.641,103.892 42.606,89.478 87.400 C 86.117 97.845,84.028 109.647,84.007 118.300 L 84.000 121.200 109.740 121.200 L 135.479 121.200 135.718 117.100 C 138.048 77.007,182.134 48.807,221.787 62.046 C 245.956 70.114,262.894 91.222,265.645 116.700 L 266.130 121.200 292.065 121.200 L 318.000 121.200 318.000 120.100 C 317.995 105.155,311.646 82.844,303.059 67.600 C 284.151 34.034,247.926 11.423,209.800 9.390 C 202.090 8.979,200.715 8.965,195.000 9.243 M18.896 122.398 C 15.673 124.363,15.988 109.203,16.100 256.893 L 16.200 387.987 17.707 389.493 L 19.213 391.000 200.243 391.101 C 367.243 391.195,381.381 391.152,382.654 390.547 C 385.677 389.113,385.400 402.653,385.400 256.382 C 385.400 130.774,385.370 125.319,384.678 124.263 C 382.829 121.441,384.944 121.603,349.900 121.601 L 318.400 121.600 318.394 135.700 C 318.387 151.556,318.217 152.947,315.695 157.746 C 306.101 176.004,278.955 176.428,268.916 158.476 C 265.946 153.166,265.877 152.693,265.692 136.300 L 265.525 121.600 200.814 121.600 L 136.103 121.600 136.161 134.700 C 136.234 151.022,135.684 154.461,132.134 159.855 C 119.732 178.703,89.828 174.144,84.203 152.547 C 83.720 150.693,83.600 147.383,83.600 135.916 L 83.600 121.600 51.900 121.601 C 20.974 121.603,20.168 121.622,18.896 122.398 " stroke="none" fill="#fbfbfb" fill-rule="evenodd"></path><path id="path2" d="M199.911 8.693 C 200.851 8.778,202.291 8.777,203.111 8.691 C 203.930 8.605,203.160 8.536,201.400 8.537 C 199.640 8.539,198.970 8.609,199.911 8.693 M191.505 9.083 C 192.002 9.179,192.722 9.175,193.105 9.075 C 193.487 8.975,193.080 8.896,192.200 8.901 C 191.320 8.905,191.007 8.987,191.505 9.083 M209.700 9.076 C 210.085 9.176,210.715 9.176,211.100 9.076 C 211.485 8.975,211.170 8.893,210.400 8.893 C 209.630 8.893,209.315 8.975,209.700 9.076 M199.500 59.089 C 200.215 59.178,201.385 59.178,202.100 59.089 C 202.815 59.001,202.230 58.928,200.800 58.928 C 199.370 58.928,198.785 59.001,199.500 59.089 M153.385 78.900 L 151.400 81.000 153.500 79.015 C 154.655 77.923,155.600 76.978,155.600 76.915 C 155.600 76.617,155.229 76.949,153.385 78.900 M135.693 118.800 C 135.693 119.570,135.775 119.885,135.876 119.500 C 135.976 119.115,135.976 118.485,135.876 118.100 C 135.775 117.715,135.693 118.030,135.693 118.800 M265.728 120.600 C 265.810 121.390,266.143 121.401,291.900 121.503 L 317.989 121.606 318.103 134.303 L 318.217 147.000 318.208 134.200 L 318.200 121.400 292.129 121.297 C 267.737 121.201,266.044 121.149,265.852 120.497 C 265.693 119.960,265.665 119.984,265.728 120.600 M83.782 121.703 C 83.676 121.979,83.639 128.324,83.700 135.803 L 83.811 149.400 83.906 135.500 L 84.000 121.600 109.771 121.600 C 133.992 121.600,135.550 121.642,135.687 122.300 C 135.805 122.869,135.878 122.832,136.079 122.100 L 136.325 121.200 110.150 121.200 C 89.505 121.200,83.934 121.306,83.782 121.703 M15.798 256.400 C 15.798 328.010,15.844 357.305,15.900 321.500 C 15.956 285.695,15.956 227.105,15.900 191.300 C 15.844 155.495,15.798 184.790,15.798 256.400 M385.720 156.800 C 385.720 158.010,385.795 158.505,385.887 157.900 C 385.978 157.295,385.978 156.305,385.887 155.700 C 385.795 155.095,385.720 155.590,385.720 156.800 M385.693 163.200 C 385.693 163.970,385.775 164.285,385.876 163.900 C 385.976 163.515,385.976 162.885,385.876 162.500 C 385.775 162.115,385.693 162.430,385.693 163.200 M385.709 168.400 C 385.709 169.390,385.787 169.795,385.882 169.300 C 385.978 168.805,385.978 167.995,385.882 167.500 C 385.787 167.005,385.709 167.410,385.709 168.400 M385.720 176.000 C 385.720 177.210,385.795 177.705,385.887 177.100 C 385.978 176.495,385.978 175.505,385.887 174.900 C 385.795 174.295,385.720 174.790,385.720 176.000 M385.720 220.000 C 385.720 221.210,385.795 221.705,385.887 221.100 C 385.978 220.495,385.978 219.505,385.887 218.900 C 385.795 218.295,385.720 218.790,385.720 220.000 M385.714 226.200 C 385.717 227.300,385.795 227.703,385.887 227.095 C 385.979 226.486,385.977 225.586,385.882 225.095 C 385.787 224.603,385.711 225.100,385.714 226.200 M385.693 297.600 C 385.693 298.370,385.775 298.685,385.876 298.300 C 385.976 297.915,385.976 297.285,385.876 296.900 C 385.775 296.515,385.693 296.830,385.693 297.600 M385.724 311.400 C 385.726 312.720,385.801 313.212,385.890 312.493 C 385.979 311.774,385.977 310.694,385.886 310.093 C 385.795 309.492,385.722 310.080,385.724 311.400 M385.693 328.400 C 385.693 329.170,385.775 329.485,385.876 329.100 C 385.976 328.715,385.976 328.085,385.876 327.700 C 385.775 327.315,385.693 327.630,385.693 328.400 M385.693 340.000 C 385.693 340.770,385.775 341.085,385.876 340.700 C 385.976 340.315,385.976 339.685,385.876 339.300 C 385.775 338.915,385.693 339.230,385.693 340.000 M385.709 343.200 C 385.709 344.190,385.787 344.595,385.882 344.100 C 385.978 343.605,385.978 342.795,385.882 342.300 C 385.787 341.805,385.709 342.210,385.709 343.200 M385.720 374.000 C 385.720 375.210,385.795 375.705,385.887 375.100 C 385.978 374.495,385.978 373.505,385.887 372.900 C 385.795 372.295,385.720 372.790,385.720 374.000 M111.333 391.900 C 160.576 391.956,241.036 391.956,290.133 391.900 C 339.230 391.844,298.940 391.798,200.600 391.798 C 102.260 391.798,62.090 391.844,111.333 391.900 " stroke="none" fill="#7c747c" fill-rule="evenodd"></path><path id="path3" d="M195.312 9.095 C 196.364 9.177,197.984 9.176,198.912 9.092 C 199.840 9.008,198.980 8.941,197.000 8.942 C 195.020 8.943,194.260 9.012,195.312 9.095 M204.500 9.091 C 205.325 9.178,206.675 9.178,207.500 9.091 C 208.325 9.005,207.650 8.934,206.000 8.934 C 204.350 8.934,203.675 9.005,204.500 9.091 M189.700 9.476 C 190.085 9.576,190.715 9.576,191.100 9.476 C 191.485 9.375,191.170 9.293,190.400 9.293 C 189.630 9.293,189.315 9.375,189.700 9.476 M211.300 9.476 C 211.685 9.576,212.315 9.576,212.700 9.476 C 213.085 9.375,212.770 9.293,212.000 9.293 C 211.230 9.293,210.915 9.375,211.300 9.476 M116.391 43.100 L 113.000 46.600 116.500 43.209 C 118.425 41.344,120.000 39.769,120.000 39.709 C 120.000 39.418,119.541 39.849,116.391 43.100 M283.800 42.400 C 284.659 43.280,285.452 44.000,285.562 44.000 C 285.672 44.000,285.059 43.280,284.200 42.400 C 283.341 41.520,282.548 40.800,282.438 40.800 C 282.328 40.800,282.941 41.520,283.800 42.400 M194.700 59.082 C 195.195 59.178,196.005 59.178,196.500 59.082 C 196.995 58.987,196.590 58.909,195.600 58.909 C 194.610 58.909,194.205 58.987,194.700 59.082 M205.505 59.083 C 206.002 59.179,206.722 59.175,207.105 59.075 C 207.487 58.975,207.080 58.896,206.200 58.901 C 205.320 58.905,205.007 58.987,205.505 59.083 M244.800 75.800 C 245.546 76.570,246.247 77.200,246.357 77.200 C 246.467 77.200,245.946 76.570,245.200 75.800 C 244.454 75.030,243.753 74.400,243.643 74.400 C 243.533 74.400,244.054 75.030,244.800 75.800 M249.000 80.000 C 249.859 80.880,250.652 81.600,250.762 81.600 C 250.872 81.600,250.259 80.880,249.400 80.000 C 248.541 79.120,247.748 78.400,247.638 78.400 C 247.528 78.400,248.141 79.120,249.000 80.000 M84.101 112.600 C 84.105 113.480,84.187 113.793,84.283 113.295 C 84.379 112.798,84.375 112.078,84.275 111.695 C 84.175 111.313,84.096 111.720,84.101 112.600 M317.693 116.000 C 317.693 116.770,317.775 117.085,317.876 116.700 C 317.976 116.315,317.976 115.685,317.876 115.300 C 317.775 114.915,317.693 115.230,317.693 116.000 M135.693 116.400 C 135.693 117.170,135.775 117.485,135.876 117.100 C 135.976 116.715,135.976 116.085,135.876 115.700 C 135.775 115.315,135.693 115.630,135.693 116.400 M83.677 118.298 L 83.600 121.195 52.100 121.300 L 20.600 121.405 52.113 121.502 C 78.326 121.584,83.660 121.509,83.833 121.058 C 83.948 120.760,83.977 119.365,83.898 117.958 L 83.754 115.400 83.677 118.298 M318.134 120.400 L 318.200 121.400 349.600 121.404 L 381.000 121.407 349.728 121.301 L 318.455 121.195 318.262 120.298 C 318.093 119.511,318.077 119.524,318.134 120.400 M200.994 121.499 L 265.589 121.602 265.703 134.301 L 265.817 147.000 265.808 134.200 L 265.800 121.400 201.100 121.398 L 136.400 121.396 200.994 121.499 M272.783 163.700 C 273.764 164.745,274.619 165.600,274.683 165.600 C 274.984 165.600,274.666 165.241,272.900 163.583 L 271.000 161.800 272.783 163.700 M110.700 391.500 C 160.255 391.556,241.345 391.556,290.900 391.500 C 340.455 391.444,299.910 391.398,200.800 391.398 C 101.690 391.398,61.145 391.444,110.700 391.500 " stroke="none" fill="#969694" fill-rule="evenodd"></path><path id="path4" d="M385.693 130.000 C 385.693 130.770,385.775 131.085,385.876 130.700 C 385.976 130.315,385.976 129.685,385.876 129.300 C 385.775 128.915,385.693 129.230,385.693 130.000 " stroke="none" fill="#7e817c" fill-rule="evenodd"></path></g></svg>